<svg width="39" height="52" viewBox="0 0 39 52" fill="none" xmlns="http://www.w3.org/2000/svg">
<g id="Component 5">
<path id="Vector" d="M1.51717 36.2826C1.547 36.6176 1.29713 36.9155 0.955673 36.9456L0.899579 36.9482C0.581238 36.9482 0.31214 36.7071 0.283836 36.3901C-0.143513 31.6003 0.454187 27.3452 2.05308 23.7389C2.22811 23.3443 2.43149 22.9185 2.66848 22.4225L2.53314 22.3578L2.66849 22.4225L2.66909 22.4212C3.69898 20.2652 5.26039 16.9966 6.1785 12.378L6.03137 12.3487L6.1785 12.378C6.92417 8.62649 7.10215 4.73858 6.70798 0.822417C6.67428 0.487638 6.92099 0.186911 7.26244 0.15319L7.26268 0.153166C7.60313 0.118978 7.90626 0.366121 7.93999 0.701335L8.08924 0.686314C8.49694 4.73693 8.31226 8.75981 7.54045 12.6431C6.58919 17.4293 4.98506 20.7872 3.92347 23.0093L3.92314 23.01C3.69154 23.4948 3.49149 23.9135 3.32433 24.2906L3.18721 24.2298C3.1872 24.2298 3.1872 24.2298 3.1872 24.2298C1.66867 27.6547 1.10937 31.7114 1.51717 36.2826ZM32.2985 39.0044L32.2866 39.0803L32.3411 39.1343L37.5419 44.2857C39.286 46.0132 39.286 48.824 37.5418 50.5518C35.7968 52.2803 32.9565 52.2802 31.2114 50.5518L29.8268 49.1804L29.6599 49.015L29.5802 49.2361C29.3155 49.9705 29.0358 50.7145 28.7408 51.4609C28.6154 51.7779 28.25 51.9289 27.938 51.8079C27.6191 51.6843 27.4635 51.3293 27.5874 51.016C27.9703 50.0472 28.3278 49.0833 28.6564 48.1413L28.6876 48.0519L28.6204 47.9853L24.6575 44.0602C24.1372 43.5448 24.1372 42.7063 24.6574 42.1907L24.6936 42.1549L24.8012 42.0483L24.6936 41.9417L22.2849 39.5559L22.2008 39.4727L22.1003 39.535C20.6685 40.4219 19.0017 40.969 17.2152 41.0642L17.0732 41.0718V41.214V51.2383C17.0732 51.5749 16.7974 51.85 16.4541 51.85C16.1108 51.85 15.8351 51.5749 15.8351 51.2383V41.1855V41.0487L15.6988 41.0362C10.468 40.556 6.36082 36.1853 6.36082 30.8843C6.36082 25.2635 10.9783 20.688 16.6567 20.688C18.7267 20.688 20.7225 21.2939 22.4289 22.4401L22.4289 22.4401C22.7117 22.6299 22.7847 23.0097 22.5937 23.2887L22.5936 23.2887C22.4021 23.5685 22.0166 23.6424 21.733 23.4518L21.733 23.4518C20.2325 22.444 18.4769 21.9114 16.6567 21.9114C11.6635 21.9114 7.59891 25.935 7.59891 30.8843C7.59891 35.8335 11.6633 39.8574 16.6565 39.8574C21.6498 39.8574 25.7142 35.8336 25.7142 30.8845C25.7142 29.0568 25.1631 27.2983 24.1206 25.7995L24.1206 25.7995C23.9275 25.522 23.9976 25.1416 24.279 24.9497L24.279 24.9496C24.561 24.7571 24.9471 24.8279 25.1409 25.1065C26.3261 26.8103 26.9524 28.808 26.9524 30.8844C26.9524 32.3341 26.6448 33.7136 26.0917 34.9632L26.0499 35.0578L26.1233 35.1305L28.8489 37.8302L28.9545 37.9347L29.0601 37.8302L29.0963 37.7942C29.6153 37.2803 30.4592 37.2786 30.9811 37.7881L31.1965 37.9983L31.2347 37.6997C31.896 32.5274 31.3923 27.9996 29.7207 24.2296C29.5524 23.85 29.3514 23.429 29.1199 22.9444C28.0597 20.7246 26.4627 17.3807 25.5151 12.6143C24.7458 8.74544 24.5617 4.73739 24.9682 0.701348L24.819 0.686314L24.9682 0.701339C25.002 0.366121 25.3043 0.118971 25.6456 0.153169L25.6458 0.15319C25.9872 0.18691 26.2339 0.487731 26.2002 0.822408C25.8059 4.73838 25.984 8.6264 26.73 12.3785C27.6483 16.9966 29.2093 20.265 30.239 22.421L30.2396 22.4222C30.4765 22.9183 30.6799 23.3442 30.8548 23.7388L30.992 23.678L30.8548 23.7388C32.7361 27.9816 33.2248 33.1139 32.2985 39.0044ZM23.3372 38.6361L23.2122 38.7419L23.3285 38.8571L25.5699 41.0774L25.6755 41.1819L25.781 41.0774L27.0333 39.8374L26.9278 39.7309L27.0334 39.8374L27.9724 38.9073L28.08 38.8007L27.9724 38.6942L25.5777 36.3224L25.4462 36.1921L25.346 36.3478C24.7938 37.206 24.1155 37.9772 23.3372 38.6361ZM25.5704 43.0188L25.4628 43.1254L25.5704 43.2319L32.0875 49.6869C33.3188 50.9188 35.4186 50.9222 36.6653 49.6875C37.9284 48.4365 37.9284 46.4007 36.6654 45.1497L30.1478 38.6941L30.0422 38.5895L29.9367 38.6941L25.5704 43.0188ZM1.27109 39.2586L1.27119 39.2586C1.60954 39.1985 1.92973 39.4216 1.98962 39.7533C2.61311 43.2096 3.73416 46.999 5.32061 51.0159C5.44442 51.3295 5.28877 51.6843 4.96995 51.8078C4.65696 51.9291 4.29245 51.7778 4.16727 51.4608L4.02825 51.5157L4.16727 51.4608C2.5499 47.3655 1.40768 43.4989 0.770853 39.9681L0.62326 39.9947L0.77085 39.9681C0.711079 39.6369 0.933508 39.3184 1.27109 39.2586Z" fill="#323232" stroke="#FCFCFC" stroke-width="0.3"/>
<path id="Vector_2" d="M15.5955 34.0352L16.2325 34.7517L16.2069 33.7933C16.1377 31.2056 17.6186 29.4067 19.3686 28.3716C20.2444 27.8536 21.1767 27.5348 21.9915 27.4101C22.6756 27.3055 23.2349 27.3435 23.6073 27.4769C23.1196 29.9924 22.0626 31.2771 21.0019 32.0117C20.446 32.3967 19.8757 32.6399 19.3543 32.8263C19.1634 32.8946 18.9832 32.9538 18.8104 33.0107C18.745 33.0322 18.6807 33.0533 18.6172 33.0745C18.3923 33.1495 18.1756 33.2255 17.9918 33.3122L17.9917 33.3123C16.8944 33.8301 16.4786 34.7979 16.3349 35.591C16.263 35.988 16.2565 36.3516 16.2675 36.615C16.268 36.6269 16.2685 36.6385 16.2691 36.65H15.9656C15.9764 36.3091 15.9798 35.8644 15.8698 35.4291C15.7064 34.7828 15.2998 34.1395 14.3929 33.6724L14.3597 33.6553L14.3237 33.6456C11.7126 32.9418 10.7142 31.467 10.4376 30.1992C10.2965 29.5525 10.3404 28.9485 10.4664 28.5063C10.5297 28.2843 10.6102 28.1152 10.688 28.0045C10.714 27.9676 10.7365 27.9414 10.7549 27.9229C13.3822 29.0474 14.439 30.3954 14.9085 31.4877C15.1508 32.0515 15.2446 32.5649 15.3058 32.9834C15.3141 33.0396 15.3219 33.096 15.3297 33.1516C15.3498 33.2951 15.3691 33.4333 15.3915 33.5475C15.4201 33.6933 15.4679 33.8918 15.5955 34.0352Z" stroke="#323232" stroke-width="0.7"/>
</g>
</svg>
