<svg width="33" height="51" viewBox="0 0 33 51" fill="none" xmlns="http://www.w3.org/2000/svg">
<g id="Component 17">
<g id="Vector">
<mask id="path-1-inside-1_2390_4743" fill="white">
<path d="M6.572 13.3622C6.15832 13.2621 5.74013 13.5057 5.63699 13.9061C4.71751 17.4739 3.46013 20.0482 2.54188 21.9278C2.30456 22.4137 2.09962 22.8333 1.92307 23.2226C0.548263 26.2553 -0.0949226 29.7519 0.0112981 33.6154C0.14703 38.5505 1.50281 44.2397 4.0408 50.5249C4.15977 50.8197 4.45087 51 4.75915 51C4.85252 51 4.94763 50.9835 5.03987 50.9484C5.43647 50.7981 5.63226 50.3648 5.47709 49.9805C1.10075 39.1425 0.38014 30.342 3.3353 23.8233C3.50301 23.4534 3.70373 23.0425 3.93612 22.5669C4.88172 20.6307 6.17694 17.9792 7.13333 14.268C7.23668 13.8677 6.98526 13.4622 6.572 13.3622ZM8.11379 0.673224C8.07153 0.262638 7.69282 -0.0377812 7.26989 0.0039547C6.84603 0.0448938 6.53673 0.410855 6.57899 0.821441C6.91699 4.10583 6.83359 7.38126 6.33097 10.5569C6.2664 10.9648 6.55544 11.346 6.97632 11.4085C7.01601 11.4145 7.05529 11.4173 7.09416 11.4173C7.46845 11.4173 7.79698 11.1528 7.85539 10.7834C8.37775 7.48385 8.46464 4.08232 8.11379 0.673224ZM20.5805 32.4655C20.2233 32.2413 19.7454 32.3404 19.5142 32.687C19.0698 33.3525 18.551 33.9735 17.9723 34.5329C17.5123 34.9775 17.0124 35.3854 16.4814 35.7493C15.8671 35.3635 15.3034 34.9093 14.8012 34.3956C14.3058 33.8887 13.8716 33.3247 13.5107 32.7192C13.2978 32.3619 12.8262 32.2395 12.4572 32.4457C12.0884 32.6519 11.962 33.1088 12.175 33.4662C12.5961 34.1728 13.1028 34.8312 13.6811 35.4228C14.2915 36.0474 14.9799 36.5952 15.731 37.0571V50.2527C15.731 50.6654 16.0762 50.9998 16.5023 50.9998C16.9283 50.9998 17.2735 50.6654 17.2735 50.2527V37.0351C17.9118 36.606 18.5122 36.1217 19.0618 35.5904C19.7178 34.9564 20.3056 34.2524 20.8092 33.4983C21.0404 33.152 20.9381 32.6895 20.5805 32.4655ZM31.2932 40.7177C30.8787 40.6241 30.4639 40.8747 30.3677 41.2766C29.7162 43.9976 28.7605 46.9261 27.5272 49.9805C27.372 50.3647 27.5678 50.7981 27.9644 50.9484C28.0567 50.9835 28.1517 51 28.2452 51C28.5533 51 28.8445 50.8197 28.9635 50.5249C30.224 47.4033 31.202 44.4053 31.8701 41.6142C31.9664 41.2123 31.7081 40.811 31.2932 40.7177ZM31.0812 23.2226C30.9047 22.8333 30.6997 22.4137 30.4623 21.9277C29.4305 19.8153 27.8713 16.6229 26.9543 12.1113C26.2096 8.44657 26.0316 4.6481 26.4254 0.821342C26.4677 0.410756 26.1584 0.0447942 25.7345 0.00385509C25.3106 -0.0377812 24.9329 0.262638 24.8906 0.673124C24.4817 4.64581 24.6669 8.5912 25.4409 12.3999C26.3949 17.094 28.0036 20.3873 29.0681 22.5667C29.3005 23.0424 29.5012 23.4533 29.6689 23.8233C31.4332 27.7152 31.8952 32.4485 31.0421 37.8916C30.9781 38.2995 31.2677 38.6804 31.6887 38.7424C32.1004 38.8029 32.5025 38.527 32.567 38.1159C33.4649 32.3887 32.9648 27.3778 31.0812 23.2226Z"/>
</mask>
<path d="M6.572 13.3622C6.15832 13.2621 5.74013 13.5057 5.63699 13.9061C4.71751 17.4739 3.46013 20.0482 2.54188 21.9278C2.30456 22.4137 2.09962 22.8333 1.92307 23.2226C0.548263 26.2553 -0.0949226 29.7519 0.0112981 33.6154C0.14703 38.5505 1.50281 44.2397 4.0408 50.5249C4.15977 50.8197 4.45087 51 4.75915 51C4.85252 51 4.94763 50.9835 5.03987 50.9484C5.43647 50.7981 5.63226 50.3648 5.47709 49.9805C1.10075 39.1425 0.38014 30.342 3.3353 23.8233C3.50301 23.4534 3.70373 23.0425 3.93612 22.5669C4.88172 20.6307 6.17694 17.9792 7.13333 14.268C7.23668 13.8677 6.98526 13.4622 6.572 13.3622ZM8.11379 0.673224C8.07153 0.262638 7.69282 -0.0377812 7.26989 0.0039547C6.84603 0.0448938 6.53673 0.410855 6.57899 0.821441C6.91699 4.10583 6.83359 7.38126 6.33097 10.5569C6.2664 10.9648 6.55544 11.346 6.97632 11.4085C7.01601 11.4145 7.05529 11.4173 7.09416 11.4173C7.46845 11.4173 7.79698 11.1528 7.85539 10.7834C8.37775 7.48385 8.46464 4.08232 8.11379 0.673224ZM20.5805 32.4655C20.2233 32.2413 19.7454 32.3404 19.5142 32.687C19.0698 33.3525 18.551 33.9735 17.9723 34.5329C17.5123 34.9775 17.0124 35.3854 16.4814 35.7493C15.8671 35.3635 15.3034 34.9093 14.8012 34.3956C14.3058 33.8887 13.8716 33.3247 13.5107 32.7192C13.2978 32.3619 12.8262 32.2395 12.4572 32.4457C12.0884 32.6519 11.962 33.1088 12.175 33.4662C12.5961 34.1728 13.1028 34.8312 13.6811 35.4228C14.2915 36.0474 14.9799 36.5952 15.731 37.0571V50.2527C15.731 50.6654 16.0762 50.9998 16.5023 50.9998C16.9283 50.9998 17.2735 50.6654 17.2735 50.2527V37.0351C17.9118 36.606 18.5122 36.1217 19.0618 35.5904C19.7178 34.9564 20.3056 34.2524 20.8092 33.4983C21.0404 33.152 20.9381 32.6895 20.5805 32.4655ZM31.2932 40.7177C30.8787 40.6241 30.4639 40.8747 30.3677 41.2766C29.7162 43.9976 28.7605 46.9261 27.5272 49.9805C27.372 50.3647 27.5678 50.7981 27.9644 50.9484C28.0567 50.9835 28.1517 51 28.2452 51C28.5533 51 28.8445 50.8197 28.9635 50.5249C30.224 47.4033 31.202 44.4053 31.8701 41.6142C31.9664 41.2123 31.7081 40.811 31.2932 40.7177ZM31.0812 23.2226C30.9047 22.8333 30.6997 22.4137 30.4623 21.9277C29.4305 19.8153 27.8713 16.6229 26.9543 12.1113C26.2096 8.44657 26.0316 4.6481 26.4254 0.821342C26.4677 0.410756 26.1584 0.0447942 25.7345 0.00385509C25.3106 -0.0377812 24.9329 0.262638 24.8906 0.673124C24.4817 4.64581 24.6669 8.5912 25.4409 12.3999C26.3949 17.094 28.0036 20.3873 29.0681 22.5667C29.3005 23.0424 29.5012 23.4533 29.6689 23.8233C31.4332 27.7152 31.8952 32.4485 31.0421 37.8916C30.9781 38.2995 31.2677 38.6804 31.6887 38.7424C32.1004 38.8029 32.5025 38.527 32.567 38.1159C33.4649 32.3887 32.9648 27.3778 31.0812 23.2226Z" fill="#323232"/>
<path d="M23.2879 20.2608L23.1924 20.2312L23.1677 20.3109L23.2417 20.3495L23.2879 20.2608ZM22.4902 17.1841L22.5598 17.1123L22.5598 17.1123L22.4902 17.1841ZM9.46978 25.5645L9.52354 25.4802L9.52352 25.4801L9.46978 25.5645ZM9.71729 25.7057L9.81278 25.7354L9.83757 25.6556L9.7635 25.617L9.71729 25.7057ZM10.514 28.785L10.5836 28.7132L10.5836 28.7132L10.514 28.785ZM13.6931 29.5571L13.7806 29.5087L13.7418 29.4386L13.665 29.4611L13.6931 29.5571ZM13.8388 29.7969L13.7561 29.8531L13.7561 29.8531L13.8388 29.7969ZM19.3129 29.5561L19.341 29.4601L19.2643 29.4377L19.2255 29.5076L19.3129 29.5561ZM19.5915 29.6259L19.5719 29.724L19.5719 29.724L19.5915 29.6259ZM20.2395 29.6903V29.7903H20.2395L20.2395 29.6903ZM22.4899 28.7851L22.4203 28.7133L22.4203 28.7133L22.4899 28.7851ZM23.2869 25.7055L23.2408 25.6168L23.1665 25.6554L23.1915 25.7353L23.2869 25.7055ZM23.5342 25.5644L23.5879 25.6487L23.588 25.6487L23.5342 25.5644ZM24.9698 22.9845L24.8698 22.9845V22.9845H24.9698ZM19.4295 19.0926L19.5209 19.1333L19.5209 19.1332L19.4295 19.0926ZM19.693 17.8689H19.7931L19.7929 17.8652L19.693 17.8689ZM19.6929 17.8661L19.6615 17.7712L19.5902 17.7948L19.593 17.8698L19.6929 17.8661ZM21.3995 18.2408L21.4691 18.1689L21.4691 18.1689L21.3995 18.2408ZM21.7884 19.894V19.994H21.8587L21.8825 19.9278L21.7884 19.894ZM19.1331 19.7578L19.0418 19.7171L19.0093 19.7898L19.073 19.8377L19.1331 19.7578ZM18.0132 18.501L18.1045 18.5417L18.1046 18.5417L18.0132 18.501ZM17.7589 19.0717L17.7311 19.1678L17.8148 19.192L17.8502 19.1124L17.7589 19.0717ZM15.2576 19.0991L15.1663 19.1398L15.2025 19.2212L15.2876 19.1945L15.2576 19.0991ZM13.3147 17.8649L13.4147 17.8651L13.4148 17.7933L13.3468 17.7703L13.3147 17.8649ZM13.5751 19.0931L13.4837 19.1338L13.4837 19.1338L13.5751 19.0931ZM13.8972 19.8165L13.9591 19.895L14.0202 19.8468L13.9886 19.7758L13.8972 19.8165ZM13.2397 20.4648L13.2012 20.5571L13.2702 20.5859L13.3174 20.5279L13.2397 20.4648ZM12.4844 20.1491L12.5229 20.0568L12.5229 20.0568L12.4844 20.1491ZM11.221 19.8939V19.7938L11.2176 19.7939L11.221 19.8939ZM10.3176 24.3164L10.2638 24.4007L10.2639 24.4007L10.3176 24.3164ZM12.5216 24.1775L12.5602 24.2698L12.6445 24.2346L12.617 24.1474L12.5216 24.1775ZM11.8741 24.4482L11.8355 24.3559L11.8353 24.356L11.8741 24.4482ZM13.3147 28.1046L13.3468 28.1993L13.4148 28.1763L13.4147 28.1045L13.3147 28.1046ZM11.605 27.7287L11.6746 27.6569L11.6746 27.6568L11.605 27.7287ZM11.2188 26.0738L11.2249 25.974L11.1497 25.9694L11.1245 26.0404L11.2188 26.0738ZM11.2204 26.0739L11.2143 26.1739H11.2204V26.0739ZM12.485 25.8203L12.5235 25.9126L12.5235 25.9125L12.485 25.8203ZM15.1277 28.9758L15.0449 29.032L15.0449 29.032L15.1277 28.9758ZM14.9914 27.4681L14.9001 27.4274L14.9 27.4274L14.9914 27.4681ZM17.2735 27.742L17.1809 27.78L17.1809 27.78L17.2735 27.742ZM17.9839 28.7868L18.0732 28.8318L18.1063 28.7661L18.0534 28.715L17.9839 28.7868ZM21.3995 27.7288L21.4691 27.8006L21.4691 27.8006L21.3995 27.7288ZM19.9036 28.1628L19.9232 28.0647L19.9232 28.0647L19.9036 28.1628ZM20.5198 25.8203L20.4813 25.9125L20.4813 25.9126L20.5198 25.8203ZM21.784 26.0738V26.1738L21.7865 26.1737L21.784 26.0738ZM21.788 26.0737L21.8821 26.0398L21.8576 25.9719L21.7855 25.9737L21.788 26.0737ZM20.5735 21.754L20.5349 21.6617L20.4498 21.6973L20.4784 21.785L20.5735 21.754ZM21.13 21.5213L21.0915 21.429L21.0914 21.429L21.13 21.5213ZM23.4275 22.9846H23.3275V22.9846L23.4275 22.9846ZM16.5023 22.1377C16.0241 22.1377 15.631 22.5139 15.631 22.9847H15.831C15.831 22.6303 16.1285 22.3377 16.5023 22.3377V22.1377ZM17.3735 22.9847C17.3735 22.5139 16.9804 22.1377 16.5023 22.1377V22.3377C16.876 22.3377 17.1735 22.6303 17.1735 22.9847H17.3735ZM23.3834 20.2905C23.4764 19.9914 23.5246 19.6789 23.5246 19.361H23.3246C23.3246 19.6586 23.2795 19.9511 23.1924 20.2312L23.3834 20.2905ZM23.5246 19.361C23.5246 18.5131 23.1812 17.7143 22.5598 17.1123L22.4206 17.2559C23.0042 17.8213 23.3246 18.5687 23.3246 19.361H23.5246ZM22.5598 17.1123C21.6867 16.2667 20.4201 15.9859 19.2862 16.3154L19.342 16.5075C20.41 16.1971 21.6014 16.4625 22.4206 17.256L22.5598 17.1123ZM9.67021 20.1721C8.63924 20.71 7.93421 21.7678 7.93421 22.9846H8.13421C8.13421 21.8477 8.79287 20.8554 9.76272 20.3494L9.67021 20.1721ZM7.93421 22.9846C7.93421 24.0624 8.48909 25.0581 9.41604 25.6488L9.52352 25.4801C8.65263 24.9252 8.13421 23.9922 8.13421 22.9846H7.93421ZM9.41602 25.6488C9.49993 25.7023 9.58566 25.7499 9.67107 25.7944L9.7635 25.617C9.6811 25.5741 9.60087 25.5295 9.52354 25.4802L9.41602 25.6488ZM9.62179 25.676C9.279 26.779 9.57024 28.01 10.4444 28.8568L10.5836 28.7132C9.76417 27.9194 9.49213 26.7671 9.81278 25.7354L9.62179 25.676ZM10.4444 28.8568C11.0657 29.4588 11.8888 29.7903 12.7612 29.7903V29.5903C11.9402 29.5903 11.1672 29.2786 10.5836 28.7132L10.4444 28.8568ZM12.7612 29.7903C13.0896 29.7903 13.4122 29.7435 13.7212 29.6531L13.665 29.4611C13.3743 29.5462 13.0705 29.5903 12.7612 29.5903V29.7903ZM13.6056 29.6055C13.6516 29.6886 13.7009 29.7717 13.7561 29.8531L13.9216 29.7408C13.8708 29.666 13.8247 29.5883 13.7806 29.5087L13.6056 29.6055ZM13.7561 29.8531C14.3666 30.7518 15.3935 31.2874 16.5019 31.2874V31.0874C15.458 31.0874 14.4938 30.5832 13.9215 29.7408L13.7561 29.8531ZM16.5019 31.2874C17.7356 31.2874 18.8382 30.6181 19.4004 29.6046L19.2255 29.5076C18.6987 30.4573 17.6631 31.0874 16.5019 31.0874V31.2874ZM19.2849 29.6521C19.3781 29.6793 19.4736 29.7043 19.5719 29.724L19.6111 29.5279C19.5202 29.5097 19.4306 29.4863 19.341 29.4601L19.2849 29.6521ZM19.5719 29.724C19.7942 29.7684 20.0176 29.7903 20.2395 29.7903V29.5903C20.0308 29.5903 19.8205 29.5697 19.6111 29.5279L19.5719 29.724ZM20.2395 29.7903C21.1009 29.7902 21.9352 29.4616 22.5595 28.8569L22.4203 28.7133C21.8343 29.281 21.0501 29.5902 20.2395 29.5903L20.2395 29.7903ZM22.5595 28.857C23.181 28.255 23.5244 27.4562 23.5244 26.6083H23.3244C23.3244 27.4007 23.0039 28.148 22.4203 28.7133L22.5595 28.857ZM23.5244 26.6083C23.5244 26.2892 23.476 25.9757 23.3824 25.6757L23.1915 25.7353C23.2791 26.0161 23.3244 26.3096 23.3244 26.6083H23.5244ZM23.333 25.7942C23.4186 25.7498 23.5042 25.7021 23.5879 25.6487L23.4805 25.48C23.4032 25.5293 23.323 25.574 23.2408 25.6168L23.333 25.7942ZM23.588 25.6487C24.5149 25.058 25.0698 24.0622 25.0698 22.9845H24.8698C24.8698 23.992 24.3514 24.9251 23.4805 25.4801L23.588 25.6487ZM25.0698 22.9845C25.07 21.7679 24.3651 20.7101 23.3342 20.1722L23.2417 20.3495C24.2114 20.8555 24.87 21.8478 24.8698 22.9845L25.0698 22.9845ZM19.5209 19.1332C19.7013 18.7276 19.793 18.302 19.793 17.8689H19.593C19.593 18.2732 19.5075 18.6712 19.3382 19.052L19.5209 19.1332ZM19.7929 17.8652L19.7928 17.8625L19.593 17.8698L19.5931 17.8726L19.7929 17.8652ZM19.7243 17.9611C20.2308 17.7935 20.8596 17.8571 21.3299 18.3126L21.4691 18.1689C20.9363 17.6529 20.226 17.5844 19.6615 17.7712L19.7243 17.9611ZM21.3299 18.3126C21.6223 18.5958 21.7821 18.968 21.7821 19.361H21.9821C21.9821 18.9121 21.799 18.4886 21.4691 18.1689L21.3299 18.3126ZM21.7821 19.361C21.7821 19.5325 21.7516 19.7006 21.6943 19.8602L21.8825 19.9278C21.9474 19.7473 21.9821 19.5564 21.9821 19.361H21.7821ZM21.7884 19.794C21.7888 19.794 21.7886 19.794 21.7876 19.7939C21.7872 19.7939 21.7869 19.7939 21.7867 19.7939C21.7866 19.7939 21.7865 19.7939 21.7864 19.7939C21.7864 19.7939 21.7864 19.7939 21.7864 19.7939C21.7864 19.7939 21.7864 19.7939 21.7864 19.7939C21.7864 19.7939 21.7864 19.7939 21.7864 19.7939C21.7864 19.7939 21.7864 19.7939 21.7864 19.7939H21.7864H21.7864C21.7864 19.7939 21.7864 19.7939 21.7834 19.8939C21.7804 19.9938 21.7804 19.9938 21.7804 19.9938H21.7804C21.7804 19.9938 21.7804 19.9938 21.7804 19.9938C21.7804 19.9938 21.7804 19.9938 21.7804 19.9938C21.7804 19.9938 21.7804 19.9938 21.7804 19.9938C21.7804 19.9938 21.7804 19.9938 21.7805 19.9938C21.7805 19.9938 21.7806 19.9938 21.7806 19.9938C21.7808 19.9938 21.7809 19.9938 21.7812 19.9938C21.7816 19.9939 21.7822 19.9939 21.7829 19.9939C21.7839 19.9939 21.7862 19.994 21.7884 19.994V19.794ZM19.8414 20.4326C19.9144 20.3643 19.9144 20.3643 19.9144 20.3643C19.9144 20.3643 19.9144 20.3643 19.9144 20.3643C19.9144 20.3642 19.9144 20.3642 19.9143 20.3642C19.9143 20.3641 19.9142 20.364 19.9141 20.3639C19.9138 20.3636 19.9135 20.3633 19.9131 20.3628C19.9122 20.3619 19.9109 20.3605 19.9092 20.3587C19.9058 20.3551 19.9008 20.3498 19.8944 20.343C19.8815 20.3294 19.8629 20.3098 19.8398 20.2857C19.7935 20.2374 19.7291 20.1711 19.6563 20.0984C19.5121 19.9545 19.3306 19.7813 19.1932 19.6779L19.073 19.8377C19.198 19.9317 19.3706 20.0959 19.515 20.24C19.5865 20.3114 19.6499 20.3767 19.6954 20.4241C19.7182 20.4478 19.7365 20.4671 19.749 20.4804C19.7553 20.487 19.7602 20.4921 19.7634 20.4956C19.765 20.4974 19.7663 20.4987 19.7671 20.4995C19.7675 20.5 19.7678 20.5003 19.768 20.5005C19.7681 20.5006 19.7682 20.5007 19.7682 20.5008C19.7683 20.5008 19.7683 20.5008 19.7683 20.5008C19.7683 20.5008 19.7683 20.5008 19.7683 20.5008C19.7683 20.5008 19.7683 20.5008 19.8414 20.4326ZM19.2244 19.7985L19.5209 19.1333L19.3382 19.0519L19.0418 19.7171L19.2244 19.7985ZM16.5023 16.3761C17.2712 16.3761 18.0506 17.0161 18.0506 17.8688H18.2506C18.2506 16.8892 17.3645 16.1761 16.5023 16.1761V16.3761ZM18.0506 17.8688C18.0506 18.0685 18.0075 18.2677 17.9218 18.4604L18.1046 18.5417C18.2011 18.3246 18.2506 18.0978 18.2506 17.8688H18.0506ZM17.9219 18.4603L17.6676 19.031L17.8502 19.1124L18.1045 18.5417L17.9219 18.4603ZM17.7867 18.9756C17.3958 18.8624 16.982 18.8008 16.5537 18.8008V19.0008C16.9627 19.0008 17.3578 19.0596 17.7311 19.1678L17.7867 18.9756ZM16.5537 18.8008C16.0911 18.8008 15.6457 18.8725 15.2277 19.0037L15.2876 19.1945C15.6866 19.0693 16.1119 19.0008 16.5537 19.0008V18.8008ZM15.349 19.0584L15.0829 18.4608L14.9002 18.5421L15.1663 19.1398L15.349 19.0584ZM12.7614 17.8732C12.9407 17.8732 13.1163 17.9032 13.2826 17.9596L13.3468 17.7703C13.1604 17.707 12.9631 17.6732 12.7614 17.6732V17.8732ZM13.2147 17.8648C13.2142 18.2942 13.3022 18.7258 13.4837 19.1338L13.6664 19.0525C13.4965 18.6706 13.4142 18.2668 13.4147 17.8651L13.2147 17.8648ZM13.4837 19.1338L13.8059 19.8572L13.9886 19.7758L13.6664 19.0524L13.4837 19.1338ZM13.8353 19.7379C13.5863 19.9343 13.3607 20.1572 13.1621 20.4018L13.3174 20.5279C13.5067 20.2947 13.7218 20.0821 13.9591 19.895L13.8353 19.7379ZM13.2783 20.3726L12.5229 20.0568L12.4458 20.2413L13.2012 20.5571L13.2783 20.3726ZM12.5229 20.0568C12.1049 19.8824 11.6668 19.7939 11.221 19.7939V19.9939C11.6399 19.9939 12.0519 20.077 12.4459 20.2414L12.5229 20.0568ZM11.2176 19.7939L11.2147 19.794L11.2216 19.9939L11.2245 19.9938L11.2176 19.7939ZM10.3713 24.2321C9.92864 23.9499 9.67682 23.4959 9.67682 22.9847H9.47682C9.47682 23.566 9.76506 24.0828 10.2638 24.4007L10.3713 24.2321ZM12.2376 22.9847C12.2376 23.4101 12.304 23.8206 12.4262 24.2077L12.617 24.1474C12.5007 23.7794 12.4376 23.3891 12.4376 22.9847H12.2376ZM12.483 24.0853L11.8355 24.3559L11.9127 24.5404L12.5602 24.2698L12.483 24.0853ZM11.8353 24.356C11.3421 24.5634 10.8145 24.5145 10.3713 24.2321L10.2639 24.4007C10.7619 24.7181 11.3586 24.7734 11.9129 24.5403L11.8353 24.356ZM13.4836 26.8359C13.3022 27.2438 13.2142 27.6754 13.2147 28.1047L13.4147 28.1045C13.4142 27.7027 13.4965 27.299 13.6663 26.9172L13.4836 26.8359ZM13.2826 28.0099C13.1162 28.0662 12.9407 28.0962 12.7614 28.0962V28.2962C12.9631 28.2962 13.1603 28.2625 13.3468 28.1993L13.2826 28.0099ZM12.7614 28.0962C12.3526 28.0962 11.967 27.9402 11.6746 27.6569L11.5354 27.8005C11.8653 28.1201 12.3008 28.2962 12.7614 28.2962V28.0962ZM11.6746 27.6568C11.2044 27.2014 11.1403 26.5948 11.313 26.1072L11.1245 26.0404C10.9295 26.5907 11.0011 27.2829 11.5354 27.8005L11.6746 27.6568ZM11.2127 26.1736L11.2143 26.1737L11.2265 25.9741L11.2249 25.974L11.2127 26.1736ZM11.2204 26.1739C11.6614 26.1739 12.1045 26.0874 12.5235 25.9126L12.4465 25.728C12.0521 25.8926 11.6352 25.9739 11.2204 25.9739V26.1739ZM12.5235 25.9125L13.2784 25.5971L13.2013 25.4125L12.4464 25.728L12.5235 25.9125ZM16.5023 29.5934C15.9707 29.5934 15.501 29.3474 15.2104 28.9196L15.0449 29.032C15.3738 29.5161 15.9062 29.7934 16.5023 29.7934V29.5934ZM15.2104 28.9196C14.9217 28.4945 14.8726 27.9809 15.0828 27.5088L14.9 27.4274C14.6615 27.9635 14.7179 28.5504 15.0449 29.032L15.2104 28.9196ZM15.0828 27.5088L15.349 26.911L15.1663 26.8297L14.9001 27.4274L15.0828 27.5088ZM16.896 27.0849L17.1809 27.78L17.366 27.7041L17.0811 27.009L16.896 27.0849ZM17.1809 27.78C17.35 28.1919 17.602 28.5563 17.9143 28.8587L18.0534 28.715C17.7602 28.4311 17.5242 28.0896 17.366 27.7041L17.1809 27.78ZM17.8946 28.7418C17.6608 29.2057 17.1705 29.5934 16.5023 29.5934V29.7934C17.2553 29.7934 17.8098 29.3544 18.0732 28.8318L17.8946 28.7418ZM19.1272 22.9847C19.1272 24.3546 17.9757 25.4745 16.5537 25.4745V25.6745C18.0801 25.6745 19.3272 24.471 19.3272 22.9847H19.1272ZM21.3299 27.6569C20.9553 28.0199 20.4434 28.169 19.9232 28.0647L19.8839 28.2608C20.4676 28.3778 21.0464 28.21 21.4691 27.8006L21.3299 27.6569ZM19.9232 28.0647C19.4037 27.9606 18.9962 27.6345 18.7995 27.1525L18.6143 27.2281C18.8375 27.7751 19.3018 28.1442 19.8839 28.2608L19.9232 28.0647ZM19.8029 25.6291L20.4813 25.9125L20.5584 25.728L19.88 25.4445L19.8029 25.6291ZM20.4813 25.9126C20.9001 26.0874 21.3432 26.1738 21.784 26.1738V25.9738C21.3693 25.9738 20.9525 25.8926 20.5584 25.728L20.4813 25.9126ZM21.7865 26.1737L21.7905 26.1736L21.7855 25.9737L21.7815 25.9738L21.7865 26.1737ZM21.6939 26.1076C21.7516 26.2676 21.7822 26.4362 21.7822 26.6085H21.9822C21.9822 26.4124 21.9474 26.2208 21.8821 26.0398L21.6939 26.1076ZM21.7822 26.6085C21.7822 27.0015 21.6224 27.3735 21.3299 27.657L21.4691 27.8006C21.7991 27.4808 21.9822 27.0574 21.9822 26.6085H21.7822ZM20.6685 24.2465C20.7989 23.8481 20.8695 23.4242 20.8695 22.9847H20.6695C20.6695 23.4027 20.6023 23.8055 20.4785 24.1843L20.6685 24.2465ZM20.8695 22.9847C20.8695 22.5451 20.7987 22.1213 20.6686 21.7229L20.4784 21.785C20.6022 22.1638 20.6695 22.5667 20.6695 22.9847H20.8695ZM20.6121 21.8462L21.1686 21.6135L21.0914 21.429L20.5349 21.6617L20.6121 21.8462ZM21.1685 21.6136C21.3689 21.5299 21.5758 21.4879 21.7834 21.4879V21.2879C21.5484 21.2879 21.3154 21.3355 21.0915 21.429L21.1685 21.6136ZM21.7834 21.4879C22.6496 21.4879 23.3275 22.2371 23.3275 22.9846H23.5275C23.5275 22.1287 22.7621 21.2879 21.7834 21.2879V21.4879ZM23.3275 22.9846C23.3276 23.4959 23.0758 23.9499 22.6331 24.2321L22.7406 24.4007C23.2393 24.0828 23.5276 23.566 23.5275 22.9846L23.3275 22.9846ZM6.572 13.3622L6.52496 13.5566L6.525 13.5566L6.572 13.3622ZM5.63699 13.9061L5.83066 13.956L5.83067 13.956L5.63699 13.9061ZM2.54188 21.9278L2.36218 21.84L2.36217 21.84L2.54188 21.9278ZM1.92307 23.2226L1.74092 23.14L1.74091 23.14L1.92307 23.2226ZM0.0112981 33.6154L-0.188626 33.6209L-0.188626 33.6209L0.0112981 33.6154ZM4.0408 50.5249L4.22627 50.45L4.22625 50.45L4.0408 50.5249ZM5.03987 50.9484L4.96899 50.7614L4.9688 50.7614L5.03987 50.9484ZM5.47709 49.9805L5.66254 49.9056L5.66254 49.9056L5.47709 49.9805ZM3.3353 23.8233L3.15314 23.7407H3.15314L3.3353 23.8233ZM3.93612 22.5669L4.11582 22.6547L4.11583 22.6546L3.93612 22.5669ZM7.13333 14.268L6.93968 14.218L6.93966 14.2181L7.13333 14.268ZM8.11379 0.673224L8.31274 0.652749V0.652746L8.11379 0.673224ZM7.26989 0.0039547L7.28912 0.203029L7.28953 0.202988L7.26989 0.0039547ZM6.57899 0.821441L6.77794 0.800968L6.77794 0.800963L6.57899 0.821441ZM6.33097 10.5569L6.52851 10.5881L6.52851 10.5881L6.33097 10.5569ZM6.97632 11.4085L7.0061 11.2108L7.00572 11.2107L6.97632 11.4085ZM7.85539 10.7834L7.65785 10.7521L7.65784 10.7522L7.85539 10.7834ZM20.5805 32.4655L20.4742 32.6349L20.4743 32.6349L20.5805 32.4655ZM19.5142 32.687L19.6805 32.7981L19.6805 32.798L19.5142 32.687ZM17.9723 34.5329L18.1113 34.6767L18.1113 34.6767L17.9723 34.5329ZM16.4814 35.7493L16.375 35.9187L16.4862 35.9885L16.5945 35.9143L16.4814 35.7493ZM14.8012 34.3956L14.6581 34.5354L14.6582 34.5354L14.8012 34.3956ZM13.5107 32.7192L13.3389 32.8215L13.3389 32.8216L13.5107 32.7192ZM12.4572 32.4457L12.3597 32.2711L12.3596 32.2712L12.4572 32.4457ZM12.175 33.4662L12.0032 33.5686L12.0032 33.5686L12.175 33.4662ZM13.6811 35.4228L13.8241 35.283L13.8241 35.283L13.6811 35.4228ZM15.731 37.0571H15.931V36.9453L15.8358 36.8867L15.731 37.0571ZM17.2735 37.0351L17.1619 36.8691L17.0735 36.9285V37.0351H17.2735ZM19.0618 35.5904L18.9228 35.4466L18.9228 35.4466L19.0618 35.5904ZM20.8092 33.4983L20.6429 33.3872V33.3872L20.8092 33.4983ZM31.2932 40.7177L31.2491 40.9128L31.2493 40.9128L31.2932 40.7177ZM30.3677 41.2766L30.5622 41.3232L30.5622 41.3231L30.3677 41.2766ZM27.5272 49.9805L27.7127 50.0554L27.7127 50.0554L27.5272 49.9805ZM27.9644 50.9484L28.0355 50.7614L28.0353 50.7614L27.9644 50.9484ZM28.9635 50.5249L28.7781 50.45L28.778 50.45L28.9635 50.5249ZM31.8701 41.6142L31.6756 41.5676L31.6756 41.5676L31.8701 41.6142ZM31.0812 23.2226L31.2634 23.14L31.2634 23.14L31.0812 23.2226ZM30.4623 21.9277L30.2826 22.0155L30.2826 22.0155L30.4623 21.9277ZM26.9543 12.1113L26.7583 12.1511L26.7583 12.1511L26.9543 12.1113ZM26.4254 0.821342L26.2265 0.800864V0.800867L26.4254 0.821342ZM25.7345 0.00385509L25.715 0.202898L25.7153 0.202929L25.7345 0.00385509ZM24.8906 0.673124L24.6917 0.652641V0.652645L24.8906 0.673124ZM25.4409 12.3999L25.6369 12.3601L25.6369 12.3601L25.4409 12.3999ZM29.0681 22.5667L28.8884 22.6544L28.8884 22.6544L29.0681 22.5667ZM29.6689 23.8233L29.4867 23.9059L29.4867 23.9059L29.6689 23.8233ZM31.0421 37.8916L31.2396 37.9226L31.2396 37.9226L31.0421 37.8916ZM31.6887 38.7424L31.6596 38.9403H31.6596L31.6887 38.7424ZM32.567 38.1159L32.7646 38.1469V38.1469L32.567 38.1159ZM6.61904 13.1679C6.10412 13.0432 5.57498 13.345 5.44331 13.8562L5.83067 13.956C5.90527 13.6663 6.21253 13.481 6.52496 13.5566L6.61904 13.1679ZM5.44332 13.8562C4.5292 17.4031 3.27956 19.9622 2.36218 21.84L2.72158 22.0156C3.6407 20.1342 4.90581 17.5446 5.83066 13.956L5.44332 13.8562ZM2.36217 21.84C2.12518 22.3252 1.91889 22.7476 1.74092 23.14L2.10521 23.3052C2.28035 22.919 2.48393 22.5021 2.72159 22.0156L2.36217 21.84ZM1.74091 23.14C0.351715 26.2044 -0.295547 29.732 -0.188626 33.6209L0.211223 33.6099C0.105702 29.7719 0.744811 26.3061 2.10522 23.3052L1.74091 23.14ZM-0.188626 33.6209C-0.052045 38.5869 1.31154 44.3001 3.85535 50.5998L4.22625 50.45C1.69408 44.1792 0.346106 38.5142 0.211223 33.6099L-0.188626 33.6209ZM3.85533 50.5997C4.00693 50.9754 4.3751 51.2 4.75915 51.2V50.8C4.52665 50.8 4.31261 50.664 4.22627 50.45L3.85533 50.5997ZM4.75915 51.2C4.87619 51.2 4.99543 51.1793 5.11094 51.1353L4.9688 50.7614C4.89984 50.7877 4.82885 50.8 4.75915 50.8V51.2ZM5.11075 51.1354C5.60794 50.947 5.86139 50.3981 5.66254 49.9056L5.29164 50.0554C5.40313 50.3315 5.26501 50.6492 4.96899 50.7614L5.11075 51.1354ZM5.66254 49.9056C1.29423 39.0875 0.595685 30.3509 3.51745 23.9059L3.15314 23.7407C0.164596 30.3331 0.90728 39.1975 5.29164 50.0554L5.66254 49.9056ZM3.51745 23.9059C3.68373 23.5391 3.88307 23.131 4.11582 22.6547L3.75642 22.4791C3.52439 22.954 3.32229 23.3676 3.15314 23.7407L3.51745 23.9059ZM4.11583 22.6546C5.06236 20.7166 6.36526 18.0499 7.32701 14.3179L6.93966 14.2181C5.98861 17.9085 4.70108 20.5448 3.75641 22.4791L4.11583 22.6546ZM7.32699 14.318C7.4596 13.8043 7.13544 13.2927 6.619 13.1678L6.525 13.5566C6.83508 13.6316 7.01376 13.931 6.93968 14.218L7.32699 14.318ZM8.31274 0.652746C8.25865 0.12726 7.77734 -0.247094 7.25025 -0.195079L7.28953 0.202988C7.60829 0.171531 7.88441 0.398016 7.91485 0.693702L8.31274 0.652746ZM7.25066 -0.195119C6.72233 -0.144089 6.32582 0.315103 6.38004 0.841919L6.77794 0.800963C6.74764 0.506607 6.96974 0.233877 7.28912 0.203028L7.25066 -0.195119ZM6.38004 0.841915C6.71631 4.10954 6.63327 7.36756 6.13343 10.5256L6.52851 10.5881C7.03391 7.39495 7.11766 4.10212 6.77794 0.800968L6.38004 0.841915ZM6.13343 10.5256C6.05056 11.0491 6.42188 11.5283 6.94691 11.6064L7.00572 11.2107C6.68901 11.1636 6.48223 10.8805 6.52851 10.5881L6.13343 10.5256ZM6.94654 11.6063C6.99643 11.6138 7.04567 11.6173 7.09416 11.6173V11.2173C7.0649 11.2173 7.03559 11.2152 7.0061 11.2108L6.94654 11.6063ZM7.09416 11.6173C7.56062 11.6173 7.97821 11.2873 8.05294 10.8146L7.65784 10.7522C7.61575 11.0184 7.37628 11.2173 7.09416 11.2173V11.6173ZM8.05293 10.8147C8.57807 7.49757 8.66532 4.07863 8.31274 0.652749L7.91484 0.693699C8.26396 4.08601 8.17743 7.47014 7.65785 10.7521L8.05293 10.8147ZM20.6868 32.296C20.2398 32.0156 19.6405 32.1374 19.3478 32.576L19.6805 32.798C19.8504 32.5434 20.2067 32.467 20.4742 32.6349L20.6868 32.296ZM19.3479 32.5759C18.9114 33.2295 18.4018 33.8396 17.8333 34.3891L18.1113 34.6767C18.7002 34.1075 19.2281 33.4755 19.6805 32.7981L19.3479 32.5759ZM17.8333 34.3891C17.3814 34.8259 16.8902 35.2267 16.3683 35.5844L16.5945 35.9143C17.1346 35.5441 17.6432 35.1291 18.1113 34.6767L17.8333 34.3891ZM16.5878 35.58C15.9867 35.2024 15.4353 34.7582 14.9442 34.2558L14.6582 34.5354C15.1715 35.0605 15.7475 35.5245 16.375 35.9187L16.5878 35.58ZM14.9442 34.2558C14.4598 33.7601 14.0353 33.2086 13.6825 32.6168L13.3389 32.8216C13.7079 33.4407 14.1518 34.0172 14.6581 34.5354L14.9442 34.2558ZM13.6825 32.6168C13.4127 32.1639 12.8205 32.0136 12.3597 32.2711L12.5548 32.6203C12.8318 32.4655 13.183 32.5598 13.3389 32.8215L13.6825 32.6168ZM12.3596 32.2712C11.8952 32.5308 11.731 33.1118 12.0032 33.5686L12.3468 33.3638C12.193 33.1058 12.2816 32.773 12.5548 32.6203L12.3596 32.2712ZM12.0032 33.5686C12.4325 34.2889 12.9488 34.9597 13.5381 35.5626L13.8241 35.283C13.2568 34.7026 12.7598 34.0568 12.3468 33.3638L12.0032 33.5686ZM13.538 35.5626C14.1601 36.1991 14.8615 36.7572 15.6263 37.2275L15.8358 36.8867C15.0983 36.4333 14.4228 35.8956 13.8241 35.283L13.538 35.5626ZM15.531 37.0571V50.2527H15.931V37.0571H15.531ZM15.531 50.2527C15.531 50.7818 15.9718 51.1998 16.5023 51.1998V50.7998C16.1807 50.7998 15.931 50.549 15.931 50.2527H15.531ZM16.5023 51.1998C17.0327 51.1998 17.4735 50.7818 17.4735 50.2527H17.0735C17.0735 50.549 16.8239 50.7998 16.5023 50.7998V51.1998ZM17.4735 50.2527V37.0351H17.0735V50.2527H17.4735ZM17.385 37.2011C18.033 36.7655 18.6426 36.2738 19.2008 35.7342L18.9228 35.4466C18.3818 35.9695 17.7906 36.4464 17.1619 36.8691L17.385 37.2011ZM19.2008 35.7342C19.867 35.0903 20.464 34.3754 20.9755 33.6094L20.6429 33.3872C20.1473 34.1294 19.5686 34.8224 18.9228 35.4466L19.2008 35.7342ZM20.9755 33.6094C21.2708 33.1672 21.1377 32.5785 20.6867 32.296L20.4743 32.6349C20.7386 32.8005 20.8101 33.1367 20.6429 33.3872L20.9755 33.6094ZM31.3372 40.5226C30.8209 40.406 30.296 40.7168 30.1732 41.2301L30.5622 41.3231C30.6317 41.0326 30.9364 40.8422 31.2491 40.9128L31.3372 40.5226ZM30.1732 41.23C29.5244 43.9399 28.572 46.8589 27.3418 49.9056L27.7127 50.0554C28.9491 46.9934 29.908 44.0554 30.5622 41.3232L30.1732 41.23ZM27.3418 49.9056C27.1429 50.398 27.3964 50.947 27.8936 51.1354L28.0353 50.7614C27.7393 50.6492 27.6012 50.3314 27.7127 50.0554L27.3418 49.9056ZM27.8934 51.1353C28.0089 51.1792 28.128 51.2 28.2452 51.2V50.8C28.1754 50.8 28.1045 50.7877 28.0355 50.7614L27.8934 51.1353ZM28.2452 51.2C28.6291 51.2 28.9974 50.9754 29.149 50.5997L28.778 50.45C28.6917 50.664 28.4776 50.8 28.2452 50.8V51.2ZM29.149 50.5998C30.4125 47.4706 31.3938 44.463 32.0646 41.6608L31.6756 41.5676C31.0101 44.3476 30.0354 47.3361 28.7781 50.45L29.149 50.5998ZM32.0646 41.6608C32.1881 41.145 31.8553 40.6391 31.337 40.5226L31.2493 40.9128C31.5608 40.9828 31.7446 41.2795 31.6756 41.5676L32.0646 41.6608ZM31.2634 23.14C31.0854 22.7476 30.8791 22.3252 30.642 21.8399L30.2826 22.0155C30.5204 22.5021 30.724 22.919 30.8991 23.3052L31.2634 23.14ZM30.642 21.8399C29.6116 19.7303 28.0619 16.5569 27.1502 12.0714L26.7583 12.1511C27.6806 16.689 29.2495 19.9003 30.2826 22.0155L30.642 21.8399ZM27.1503 12.0714C26.4097 8.42714 26.2325 4.64902 26.6244 0.841816L26.2265 0.800867C25.8306 4.64718 26.0094 8.466 26.7583 12.1511L27.1503 12.0714ZM26.6244 0.84182C26.6786 0.315004 26.2821 -0.144189 25.7537 -0.195218L25.7153 0.202929C26.0347 0.233777 26.2568 0.506508 26.2265 0.800864L26.6244 0.84182ZM25.7541 -0.195187C25.2259 -0.247057 24.7457 0.127364 24.6917 0.652641L25.0896 0.693607C25.12 0.397912 25.3952 0.171495 25.715 0.202898L25.7541 -0.195187ZM24.6917 0.652645C24.2807 4.64491 24.4667 8.61065 25.2449 12.4398L25.6369 12.3601C24.867 8.57175 24.6826 4.64671 25.0896 0.693604L24.6917 0.652645ZM25.2449 12.4398C26.2042 17.1599 27.8225 20.4722 28.8884 22.6544L29.2478 22.4789C28.1847 20.3025 26.5856 17.028 25.6369 12.3601L25.2449 12.4398ZM28.8884 22.6544C29.1211 23.1309 29.3205 23.539 29.4867 23.9059L29.8511 23.7408C29.6819 23.3675 29.4798 22.9539 29.2478 22.4789L28.8884 22.6544ZM29.4867 23.9059C31.2309 27.7533 31.6933 32.4451 30.8445 37.8607L31.2396 37.9226C32.0971 32.452 31.6355 27.6772 29.8511 23.7407L29.4867 23.9059ZM30.8445 37.8606C30.7624 38.3841 31.1343 38.863 31.6596 38.9403L31.7179 38.5445C31.401 38.4979 31.1938 38.2149 31.2396 37.9226L30.8445 37.8606ZM31.6596 38.9403C32.172 39.0156 32.6819 38.674 32.7646 38.1469L32.3694 38.085C32.3231 38.3801 32.0287 38.5902 31.7179 38.5445L31.6596 38.9403ZM32.7646 38.1469C33.6669 32.3915 33.1669 27.3392 31.2634 23.14L30.8991 23.3052C32.7627 27.4163 33.2629 32.3859 32.3694 38.085L32.7646 38.1469Z" fill="#FCFCFC" mask="url(#path-1-inside-1_2390_4743)"/>
</g>
<path id="Vector_2" d="M18.7705 11.8134L17.0742 17.323L16.9942 17.5828L17.2261 17.7246L21.3536 20.2482L19.7248 22.114L19.4732 22.4022L19.4758 22.4041L14.4744 28.0908L17.1066 20.4331L17.1969 20.1706L16.9618 20.023L16.4644 19.7106L16.4633 19.7099L12.7358 17.388L18.7705 11.8134Z" stroke="#323232" stroke-width="0.7"/>
</g>
</svg>
