<svg width="47" height="31" viewBox="0 0 47 31" fill="none" xmlns="http://www.w3.org/2000/svg">
<g id="Component 7">
<path id="Vector" d="M17.6252 3.76406C17.5529 3.76415 17.4812 3.75037 17.4144 3.72352C17.3476 3.69666 17.2869 3.65726 17.2358 3.60758L14.4621 0.918166C14.4095 0.868903 14.3675 0.809974 14.3387 0.744819C14.3098 0.679664 14.2946 0.609588 14.294 0.538679C14.2933 0.46777 14.3073 0.397447 14.335 0.331816C14.3627 0.266185 14.4036 0.206559 14.4553 0.156416C14.507 0.106274 14.5685 0.0666198 14.6362 0.0397679C14.7039 0.0129159 14.7764 -0.000596019 14.8495 2.01637e-05C14.9226 0.000636346 14.9949 0.0153683 15.0621 0.0433567C15.1293 0.0713452 15.1901 0.11203 15.2409 0.163036L18.0146 2.85245C18.0916 2.92714 18.1441 3.02229 18.1653 3.12586C18.1866 3.22944 18.1757 3.3368 18.134 3.43437C18.0923 3.53194 18.0217 3.61534 17.9312 3.67402C17.8406 3.7327 17.7341 3.76403 17.6252 3.76406Z" fill="#323232"/>
<path id="Vector_2" d="M14.8514 6.45357C14.7425 6.45355 14.6361 6.42221 14.5455 6.36353C14.455 6.30485 14.3844 6.22145 14.3427 6.12388C14.301 6.02631 14.2901 5.91895 14.3114 5.81538C14.3326 5.7118 14.385 5.61665 14.462 5.54197L17.2358 2.85255C17.3397 2.75527 17.4788 2.70144 17.6232 2.70266C17.7676 2.70387 17.9058 2.76004 18.0079 2.85905C18.11 2.95807 18.1679 3.09201 18.1692 3.23203C18.1704 3.37206 18.1149 3.50696 18.0146 3.60768L15.2408 6.29709C15.1898 6.34676 15.1291 6.38615 15.0622 6.413C14.9954 6.43986 14.9238 6.45364 14.8514 6.45357Z" fill="#323232"/>
<path id="Vector_3" d="M17.6254 3.76412H4.71875C4.57267 3.76412 4.43258 3.70786 4.32929 3.60771C4.226 3.50755 4.16797 3.37172 4.16797 3.23008C4.16797 3.08845 4.226 2.95261 4.32929 2.85246C4.43258 2.75231 4.57267 2.69604 4.71875 2.69604H17.6254C17.7715 2.69604 17.9116 2.75231 18.0149 2.85246C18.1181 2.95261 18.1762 3.08845 18.1762 3.23008C18.1762 3.37172 18.1181 3.50755 18.0149 3.60771C17.9116 3.70786 17.7715 3.76412 17.6254 3.76412Z" fill="#323232"/>
<path id="Vector_4" d="M29.3749 3.76406C29.266 3.76403 29.1595 3.7327 29.0689 3.67402C28.9784 3.61534 28.9078 3.53194 28.8661 3.43437C28.8245 3.3368 28.8136 3.22944 28.8348 3.12586C28.856 3.02229 28.9085 2.92714 28.9855 2.85245L31.7592 0.163036C31.81 0.11203 31.8708 0.0713452 31.938 0.0433567C32.0052 0.0153683 32.0775 0.000636346 32.1506 2.01637e-05C32.2237 -0.000596019 32.2963 0.0129159 32.3639 0.0397679C32.4316 0.0666198 32.4931 0.106274 32.5448 0.156416C32.5966 0.206559 32.6375 0.266185 32.6652 0.331816C32.6928 0.397447 32.7068 0.46777 32.7061 0.538679C32.7055 0.609588 32.6903 0.679664 32.6615 0.744819C32.6326 0.809974 32.5906 0.868903 32.538 0.918166L29.7643 3.60758C29.7132 3.65726 29.6525 3.69666 29.5857 3.72352C29.5189 3.75037 29.4472 3.76415 29.3749 3.76406Z" fill="#323232"/>
<path id="Vector_5" d="M32.1488 6.45357C32.0765 6.45364 32.0048 6.43986 31.938 6.413C31.8712 6.38615 31.8105 6.34676 31.7594 6.29709L28.9857 3.60768C28.8853 3.50696 28.8298 3.37206 28.8311 3.23203C28.8323 3.09201 28.8903 2.95807 28.9924 2.85905C29.0945 2.76004 29.2326 2.70387 29.3771 2.70266C29.5215 2.70144 29.6606 2.75527 29.7645 2.85255L32.5382 5.54197C32.6152 5.61665 32.6676 5.7118 32.6889 5.81538C32.7101 5.91895 32.6992 6.02631 32.6575 6.12388C32.6159 6.22145 32.5453 6.30485 32.4547 6.36353C32.3642 6.42221 32.2577 6.45355 32.1488 6.45357Z" fill="#323232"/>
<path id="Vector_6" d="M42.2816 3.76412H29.375C29.2289 3.76412 29.0888 3.70786 28.9855 3.60771C28.8822 3.50755 28.8242 3.37172 28.8242 3.23008C28.8242 3.08845 28.8822 2.95261 28.9855 2.85246C29.0888 2.75231 29.2289 2.69604 29.375 2.69604H42.2816C42.4277 2.69604 42.5678 2.75231 42.6711 2.85246C42.7744 2.95261 42.8324 3.08845 42.8324 3.23008C42.8324 3.37172 42.7744 3.50755 42.6711 3.60771C42.5678 3.70786 42.4277 3.76412 42.2816 3.76412Z" fill="#323232"/>
<path id="Vector_7" d="M46.4496 18.0056H27.1875C27.0414 18.0056 26.9013 17.9493 26.798 17.8492C26.6947 17.749 26.6367 17.6132 26.6367 17.4715C26.6367 17.3299 26.6947 17.1941 26.798 17.0939C26.9013 16.9938 27.0414 16.9375 27.1875 16.9375H46.4496C46.5957 16.9375 46.7358 16.9938 46.8391 17.0939C46.9424 17.1941 47.0004 17.3299 47.0004 17.4715C47.0004 17.6132 46.9424 17.749 46.8391 17.8492C46.7358 17.9493 46.5957 18.0056 46.4496 18.0056Z" fill="#323232"/>
<path id="Vector_8" d="M17.625 18.0056H0.550781C0.404705 18.0056 0.264612 17.9493 0.16132 17.8492C0.0580286 17.749 0 17.6132 0 17.4715C0 17.3299 0.0580286 17.1941 0.16132 17.0939C0.264612 16.9938 0.404705 16.9375 0.550781 16.9375H17.625C17.7711 16.9375 17.9112 16.9938 18.0145 17.0939C18.1178 17.1941 18.1758 17.3299 18.1758 17.4715C18.1758 17.6132 18.1178 17.749 18.0145 17.8492C17.9112 17.9493 17.7711 18.0056 17.625 18.0056Z" fill="#323232"/>
<path id="Vector_9" d="M5.86621 25.5836C5.43048 25.5836 5.00452 25.4583 4.64222 25.2236C4.27992 24.9889 3.99754 24.6552 3.83079 24.2649C3.66404 23.8746 3.62041 23.4451 3.70542 23.0307C3.79043 22.6163 4.00025 22.2357 4.30837 21.9369C4.61648 21.6382 5.00904 21.4347 5.4364 21.3523C5.86377 21.2699 6.30674 21.3122 6.70931 21.4739C7.11188 21.6356 7.45596 21.9094 7.69804 22.2607C7.94013 22.6119 8.06934 23.0249 8.06934 23.4474C8.0688 24.0138 7.83652 24.5569 7.42347 24.9574C7.01042 25.3578 6.45035 25.5831 5.86621 25.5836ZM5.86621 22.3804C5.64834 22.3804 5.43537 22.4431 5.25422 22.5604C5.07307 22.6778 4.93188 22.8446 4.8485 23.0398C4.76513 23.2349 4.74331 23.4497 4.78582 23.6569C4.82832 23.8641 4.93323 24.0544 5.08729 24.2037C5.24135 24.3531 5.43763 24.4548 5.65131 24.4961C5.86499 24.5373 6.08648 24.5161 6.28776 24.4353C6.48905 24.3544 6.66109 24.2175 6.78213 24.0419C6.90317 23.8662 6.96777 23.6597 6.96777 23.4485C6.96777 23.1652 6.85172 22.8936 6.64513 22.6933C6.43855 22.493 6.15836 22.3804 5.86621 22.3804Z" fill="#323232"/>
<path id="Vector_10" d="M11.75 31.0001C11.3143 31.0001 10.8883 30.8748 10.526 30.6401C10.1637 30.4054 9.88133 30.0717 9.71458 29.6814C9.54783 29.2911 9.5042 28.8616 9.58921 28.4472C9.67422 28.0328 9.88404 27.6522 10.1922 27.3535C10.5003 27.0547 10.8928 26.8513 11.3202 26.7688C11.7476 26.6864 12.1905 26.7287 12.5931 26.8904C12.9957 27.0521 13.3398 27.3259 13.5818 27.6772C13.8239 28.0284 13.9531 28.4414 13.9531 28.8639C13.9526 29.4303 13.7203 29.9734 13.3073 30.3739C12.8942 30.7743 12.3341 30.9996 11.75 31.0001ZM11.75 27.7969C11.5321 27.7969 11.3192 27.8596 11.138 27.9769C10.9569 28.0943 10.8157 28.2611 10.7323 28.4563C10.6489 28.6514 10.6271 28.8662 10.6696 29.0734C10.7121 29.2806 10.817 29.4709 10.9711 29.6203C11.1251 29.7696 11.3214 29.8713 11.5351 29.9126C11.7488 29.9538 11.9703 29.9326 12.1716 29.8518C12.3728 29.7709 12.5449 29.634 12.6659 29.4584C12.787 29.2828 12.8516 29.0763 12.8516 28.865C12.8516 28.5817 12.7355 28.3101 12.5289 28.1098C12.3223 27.9095 12.0422 27.7969 11.75 27.7969Z" fill="#323232"/>
<path id="Vector_11" d="M23.5 31.0001C23.0643 31.0001 22.6383 30.8748 22.276 30.6401C21.9137 30.4054 21.6313 30.0717 21.4646 29.6814C21.2978 29.2911 21.2542 28.8616 21.3392 28.4472C21.4242 28.0328 21.634 27.6522 21.9422 27.3535C22.2503 27.0547 22.6428 26.8513 23.0702 26.7688C23.4976 26.6864 23.9405 26.7287 24.3431 26.8904C24.7457 27.0521 25.0897 27.3259 25.3318 27.6772C25.5739 28.0284 25.7031 28.4414 25.7031 28.8639C25.7026 29.4303 25.4703 29.9734 25.0573 30.3739C24.6442 30.7743 24.0841 30.9996 23.5 31.0001ZM23.5 27.7969C23.2821 27.7969 23.0692 27.8596 22.888 27.9769C22.7069 28.0943 22.5657 28.2611 22.4823 28.4563C22.3989 28.6514 22.3771 28.8662 22.4196 29.0734C22.4621 29.2806 22.567 29.4709 22.7211 29.6203C22.8751 29.7696 23.0714 29.8713 23.2851 29.9126C23.4988 29.9538 23.7203 29.9326 23.9216 29.8518C24.1228 29.7709 24.2949 29.634 24.4159 29.4584C24.537 29.2828 24.6016 29.0763 24.6016 28.865C24.6016 28.5817 24.4855 28.3101 24.2789 28.1098C24.0723 27.9095 23.7922 27.7969 23.5 27.7969Z" fill="#323232"/>
<path id="Vector_12" d="M35.25 31.0001C34.8143 31.0001 34.3883 30.8748 34.026 30.6401C33.6637 30.4054 33.3813 30.0717 33.2146 29.6814C33.0478 29.2911 33.0042 28.8616 33.0892 28.4472C33.1742 28.0328 33.384 27.6522 33.6922 27.3535C34.0003 27.0547 34.3928 26.8513 34.8202 26.7688C35.2476 26.6864 35.6905 26.7287 36.0931 26.8904C36.4957 27.0521 36.8397 27.3259 37.0818 27.6772C37.3239 28.0284 37.4531 28.4414 37.4531 28.8639C37.4526 29.4303 37.2203 29.9734 36.8073 30.3739C36.3942 30.7743 35.8341 30.9996 35.25 31.0001ZM35.25 27.7969C35.0321 27.7969 34.8192 27.8596 34.638 27.9769C34.4569 28.0943 34.3157 28.2611 34.2323 28.4563C34.1489 28.6514 34.1271 28.8662 34.1696 29.0734C34.2121 29.2806 34.317 29.4709 34.4711 29.6203C34.6251 29.7696 34.8214 29.8713 35.0351 29.9126C35.2488 29.9538 35.4703 29.9326 35.6715 29.8518C35.8728 29.7709 36.0449 29.634 36.1659 29.4584C36.287 29.2828 36.3516 29.0763 36.3516 28.865C36.3516 28.5817 36.2355 28.3101 36.0289 28.1098C35.8223 27.9095 35.5422 27.7969 35.25 27.7969Z" fill="#323232"/>
<path id="Vector_13" d="M17.625 25.5836C17.1893 25.5836 16.7633 25.4583 16.401 25.2236C16.0387 24.9889 15.7563 24.6552 15.5896 24.2649C15.4228 23.8746 15.3792 23.4451 15.4642 23.0307C15.5492 22.6163 15.759 22.2357 16.0672 21.9369C16.3753 21.6382 16.7678 21.4347 17.1952 21.3523C17.6226 21.2699 18.0655 21.3122 18.4681 21.4739C18.8707 21.6356 19.2148 21.9094 19.4568 22.2607C19.6989 22.6119 19.8281 23.0249 19.8281 23.4474C19.8276 24.0138 19.5953 24.5569 19.1823 24.9574C18.7692 25.3578 18.2091 25.5831 17.625 25.5836ZM17.625 22.3804C17.4071 22.3804 17.1942 22.4431 17.013 22.5604C16.8319 22.6778 16.6907 22.8446 16.6073 23.0398C16.5239 23.2349 16.5021 23.4497 16.5446 23.6569C16.5871 23.8641 16.692 24.0544 16.8461 24.2037C17.0001 24.3531 17.1964 24.4548 17.4101 24.4961C17.6238 24.5373 17.8453 24.5161 18.0466 24.4353C18.2478 24.3544 18.4199 24.2175 18.5409 24.0419C18.662 23.8662 18.7266 23.6597 18.7266 23.4485C18.7266 23.1652 18.6105 22.8936 18.4039 22.6933C18.1973 22.493 17.9172 22.3804 17.625 22.3804Z" fill="#323232"/>
<path id="Vector_14" d="M29.3838 25.5836C28.9481 25.5836 28.5221 25.4583 28.1598 25.2236C27.7975 24.9889 27.5151 24.6552 27.3484 24.2649C27.1816 23.8746 27.138 23.4451 27.223 23.0307C27.308 22.6163 27.5178 22.2357 27.8259 21.9369C28.1341 21.6382 28.5266 21.4347 28.954 21.3523C29.3813 21.2699 29.8243 21.3122 30.2269 21.4739C30.6295 21.6356 30.9735 21.9094 31.2156 22.2607C31.4577 22.6119 31.5869 23.0249 31.5869 23.4474C31.5864 24.0138 31.3541 24.5569 30.941 24.9574C30.528 25.3578 29.9679 25.5831 29.3838 25.5836ZM29.3838 22.3804C29.1659 22.3804 28.9529 22.4431 28.7718 22.5604C28.5906 22.6778 28.4495 22.8446 28.3661 23.0398C28.2827 23.2349 28.2609 23.4497 28.3034 23.6569C28.3459 23.8641 28.4508 24.0544 28.6049 24.2037C28.7589 24.3531 28.9552 24.4548 29.1689 24.4961C29.3826 24.5373 29.6041 24.5161 29.8053 24.4353C30.0066 24.3544 30.1787 24.2175 30.2997 24.0419C30.4207 23.8662 30.4854 23.6597 30.4854 23.4485C30.4854 23.1652 30.3693 22.8936 30.1627 22.6933C29.9561 22.493 29.6759 22.3804 29.3838 22.3804Z" fill="#323232"/>
<path id="Vector_15" d="M41.1426 25.5836C40.7068 25.5836 40.2809 25.4583 39.9186 25.2236C39.5563 24.9889 39.2739 24.6552 39.1072 24.2649C38.9404 23.8746 38.8968 23.4451 38.9818 23.0307C39.0668 22.6163 39.2766 22.2357 39.5847 21.9369C39.8928 21.6382 40.2854 21.4347 40.7128 21.3523C41.1401 21.2699 41.5831 21.3122 41.9857 21.4739C42.3882 21.6356 42.7323 21.9094 42.9744 22.2607C43.2165 22.6119 43.3457 23.0249 43.3457 23.4474C43.3452 24.0138 43.1129 24.5569 42.6998 24.9574C42.2868 25.3578 41.7267 25.5831 41.1426 25.5836ZM41.1426 22.3804C40.9247 22.3804 40.7117 22.4431 40.5306 22.5604C40.3494 22.6778 40.2082 22.8446 40.1249 23.0398C40.0415 23.2349 40.0197 23.4497 40.0622 23.6569C40.1047 23.8641 40.2096 24.0544 40.3637 24.2037C40.5177 24.3531 40.714 24.4548 40.9277 24.4961C41.1414 24.5373 41.3628 24.5161 41.5641 24.4353C41.7654 24.3544 41.9375 24.2175 42.0585 24.0419C42.1795 23.8662 42.2441 23.6597 42.2441 23.4485C42.2441 23.1652 42.1281 22.8936 41.9215 22.6933C41.7149 22.493 41.4347 22.3804 41.1426 22.3804Z" fill="#323232"/>
<path id="Vector_16" d="M25.4063 25.0864C25.3291 25.0865 25.2527 25.0708 25.1822 25.0404C25.1117 25.01 25.0485 24.9656 24.9968 24.91L19.2773 18.7597C19.2174 18.6952 19.1746 18.6175 19.1525 18.5333C19.1305 18.4492 19.13 18.3611 19.151 18.2767L19.9678 14.9991L17.9964 12.3086H0.550781C0.404705 12.3086 0.264612 12.2524 0.16132 12.1522C0.0580286 12.0521 0 11.9162 0 11.7746C0 11.633 0.0580286 11.4971 0.16132 11.397C0.264612 11.2968 0.404705 11.2406 0.550781 11.2406H18.2804C18.3683 11.2405 18.455 11.2609 18.5331 11.2999C18.6112 11.339 18.6786 11.3956 18.7295 11.465L21.0114 14.5787C21.057 14.6409 21.0884 14.7119 21.1033 14.7869C21.1182 14.8619 21.1163 14.9391 21.0979 15.0134L20.29 18.2532L24.5527 22.8374L23.5191 16.8238C23.4978 16.7012 23.5214 16.5752 23.5859 16.4677L25.0547 14.0129C25.0868 13.9589 25.1285 13.9107 25.1779 13.8705L28.2712 11.3641C28.3703 11.2837 28.4953 11.2396 28.6245 11.2395H46.4492C46.5953 11.2395 46.7354 11.2958 46.8387 11.3959C46.942 11.4961 47 11.6319 47 11.7735C47 11.9152 46.942 12.051 46.8387 12.1512C46.7354 12.2513 46.5953 12.3076 46.4492 12.3076H28.8242L25.9587 14.631L24.6383 16.8384L25.9495 24.4655C25.9626 24.542 25.9585 24.6203 25.9372 24.6951C25.916 24.7698 25.8782 24.8392 25.8265 24.8984C25.7749 24.9576 25.7105 25.0051 25.638 25.0377C25.5654 25.0703 25.4864 25.0873 25.4064 25.0873L25.4063 25.0864Z" fill="#323232"/>
</g>
</svg>
