<svg width="28" height="43" viewBox="0 0 28 43" fill="none" xmlns="http://www.w3.org/2000/svg">
<mask id="path-1-inside-1_2300_253" fill="white">
<path d="M5.4041 11.2662C5.06394 11.1818 4.72006 11.3871 4.63525 11.7248C3.87917 14.7329 2.84524 16.9034 2.09017 18.4881C1.89502 18.8978 1.7265 19.2516 1.58132 19.5798C0.450832 22.1368 -0.0780542 25.085 0.00929037 28.3424C0.120902 32.5034 1.23575 37.3001 3.32272 42.5994C3.42055 42.848 3.65992 43 3.91341 43C3.99019 43 4.0684 42.986 4.14425 42.9565C4.47037 42.8298 4.63136 42.4644 4.50377 42.1404C0.905142 33.0025 0.312586 25.5825 2.74259 20.0863C2.8805 19.7744 3.04555 19.428 3.23664 19.027C4.0142 17.3945 5.07925 15.1589 5.86569 12.0299C5.95066 11.6923 5.74393 11.3504 5.4041 11.2662ZM6.67191 0.56762C6.63716 0.22144 6.32575 -0.0318548 5.97797 0.00333436C5.62944 0.0378516 5.3751 0.346407 5.40985 0.692588C5.68778 3.46178 5.61921 6.22341 5.20591 8.90089C5.15281 9.24481 5.39049 9.56621 5.73657 9.61895C5.76921 9.62399 5.80151 9.62634 5.83347 9.62634C6.14125 9.62634 6.4114 9.40337 6.45942 9.09187C6.88896 6.30991 6.96041 3.44196 6.67191 0.56762ZM16.9232 27.3728C16.6294 27.1839 16.2365 27.2674 16.0464 27.5596C15.6809 28.1207 15.2543 28.6443 14.7785 29.116C14.4003 29.4908 13.9891 29.8347 13.5525 30.1416C13.0474 29.8162 12.5839 29.4334 12.1709 29.0002C11.7635 28.5728 11.4065 28.0973 11.1097 27.5867C10.9347 27.2855 10.5469 27.1824 10.2435 27.3562C9.94018 27.53 9.83627 27.9153 10.0114 28.2166C10.3577 28.8124 10.7743 29.3674 11.2498 29.8663C11.7518 30.3929 12.3178 30.8548 12.9355 31.2442V42.37C12.9355 42.7179 13.2194 42.9998 13.5697 42.9998C13.92 42.9998 14.2038 42.7179 14.2038 42.37V31.2257C14.7287 30.8639 15.2225 30.4555 15.6744 30.0076C16.2138 29.473 16.6972 28.8795 17.1112 28.2437C17.3014 27.9516 17.2173 27.5617 16.9232 27.3728ZM25.7321 34.3306C25.3913 34.2517 25.0502 34.463 24.9711 34.8019C24.4354 37.096 23.6496 39.5652 22.6354 42.1404C22.5078 42.4643 22.6688 42.8298 22.9949 42.9565C23.0708 42.986 23.1489 43 23.2258 43C23.4792 43 23.7186 42.848 23.8165 42.5994C24.8529 39.9675 25.6571 37.4398 26.2066 35.0865C26.2857 34.7476 26.0733 34.4092 25.7321 34.3306ZM25.5579 19.5798C25.4127 19.2516 25.2442 18.8978 25.0489 18.488C24.2005 16.707 22.9183 14.0154 22.1643 10.2115C21.5519 7.12162 21.4056 3.91899 21.7294 0.692504C21.7642 0.346323 21.5098 0.0377676 21.1613 0.00325037C20.8127 -0.0318548 20.5021 0.22144 20.4674 0.567536C20.1311 3.91705 20.2834 7.24356 20.9199 10.4548C21.7043 14.4126 23.0272 17.1893 23.9025 19.0268C24.0935 19.4279 24.2586 19.7743 24.3965 20.0863C25.8473 23.3677 26.2272 27.3586 25.5256 31.9478C25.4731 32.2918 25.7112 32.6129 26.0574 32.6651C26.3959 32.7162 26.7266 32.4836 26.7796 32.137C27.5179 27.3081 27.1067 23.0832 25.5579 19.5798Z"/>
</mask>
<path d="M5.4041 11.2662C5.06394 11.1818 4.72006 11.3871 4.63525 11.7248C3.87917 14.7329 2.84524 16.9034 2.09017 18.4881C1.89502 18.8978 1.7265 19.2516 1.58132 19.5798C0.450832 22.1368 -0.0780542 25.085 0.00929037 28.3424C0.120902 32.5034 1.23575 37.3001 3.32272 42.5994C3.42055 42.848 3.65992 43 3.91341 43C3.99019 43 4.0684 42.986 4.14425 42.9565C4.47037 42.8298 4.63136 42.4644 4.50377 42.1404C0.905142 33.0025 0.312586 25.5825 2.74259 20.0863C2.8805 19.7744 3.04555 19.428 3.23664 19.027C4.0142 17.3945 5.07925 15.1589 5.86569 12.0299C5.95066 11.6923 5.74393 11.3504 5.4041 11.2662ZM6.67191 0.56762C6.63716 0.22144 6.32575 -0.0318548 5.97797 0.00333436C5.62944 0.0378516 5.3751 0.346407 5.40985 0.692588C5.68778 3.46178 5.61921 6.22341 5.20591 8.90089C5.15281 9.24481 5.39049 9.56621 5.73657 9.61895C5.76921 9.62399 5.80151 9.62634 5.83347 9.62634C6.14125 9.62634 6.4114 9.40337 6.45942 9.09187C6.88896 6.30991 6.96041 3.44196 6.67191 0.56762ZM16.9232 27.3728C16.6294 27.1839 16.2365 27.2674 16.0464 27.5596C15.6809 28.1207 15.2543 28.6443 14.7785 29.116C14.4003 29.4908 13.9891 29.8347 13.5525 30.1416C13.0474 29.8162 12.5839 29.4334 12.1709 29.0002C11.7635 28.5728 11.4065 28.0973 11.1097 27.5867C10.9347 27.2855 10.5469 27.1824 10.2435 27.3562C9.94018 27.53 9.83627 27.9153 10.0114 28.2166C10.3577 28.8124 10.7743 29.3674 11.2498 29.8663C11.7518 30.3929 12.3178 30.8548 12.9355 31.2442V42.37C12.9355 42.7179 13.2194 42.9998 13.5697 42.9998C13.92 42.9998 14.2038 42.7179 14.2038 42.37V31.2257C14.7287 30.8639 15.2225 30.4555 15.6744 30.0076C16.2138 29.473 16.6972 28.8795 17.1112 28.2437C17.3014 27.9516 17.2173 27.5617 16.9232 27.3728ZM25.7321 34.3306C25.3913 34.2517 25.0502 34.463 24.9711 34.8019C24.4354 37.096 23.6496 39.5652 22.6354 42.1404C22.5078 42.4643 22.6688 42.8298 22.9949 42.9565C23.0708 42.986 23.1489 43 23.2258 43C23.4792 43 23.7186 42.848 23.8165 42.5994C24.8529 39.9675 25.6571 37.4398 26.2066 35.0865C26.2857 34.7476 26.0733 34.4092 25.7321 34.3306ZM25.5579 19.5798C25.4127 19.2516 25.2442 18.8978 25.0489 18.488C24.2005 16.707 22.9183 14.0154 22.1643 10.2115C21.5519 7.12162 21.4056 3.91899 21.7294 0.692504C21.7642 0.346323 21.5098 0.0377676 21.1613 0.00325037C20.8127 -0.0318548 20.5021 0.22144 20.4674 0.567536C20.1311 3.91705 20.2834 7.24356 20.9199 10.4548C21.7043 14.4126 23.0272 17.1893 23.9025 19.0268C24.0935 19.4279 24.2586 19.7743 24.3965 20.0863C25.8473 23.3677 26.2272 27.3586 25.5256 31.9478C25.4731 32.2918 25.7112 32.6129 26.0574 32.6651C26.3959 32.7162 26.7266 32.4836 26.7796 32.137C27.5179 27.3081 27.1067 23.0832 25.5579 19.5798Z" fill="#323232"/>
<path d="M19.1495 17.0827L19.0538 17.0537L19.03 17.1321L19.1023 17.1708L19.1495 17.0827ZM18.4935 14.4886L18.564 14.4176L18.564 14.4176L18.4935 14.4886ZM7.78693 21.5544L7.84164 21.4707L7.84163 21.4706L7.78693 21.5544ZM7.99045 21.6735L8.08615 21.7025L8.10995 21.6239L8.03758 21.5853L7.99045 21.6735ZM8.64557 24.2697L8.71605 24.1988L8.71605 24.1988L8.64557 24.2697ZM11.2597 24.9207L11.3477 24.8732L11.309 24.8015L11.231 24.8249L11.2597 24.9207ZM11.3796 25.1229L11.2961 25.1781L11.2962 25.1781L11.3796 25.1229ZM15.8809 24.9198L15.9096 24.824L15.8316 24.8007L15.7929 24.8723L15.8809 24.9198ZM16.1099 24.9787L16.0898 25.0767L16.0899 25.0767L16.1099 24.9787ZM16.6428 25.033V25.133H16.6428L16.6428 25.033ZM18.4933 24.2698L18.4228 24.1988L18.4228 24.1989L18.4933 24.2698ZM19.1486 21.6733L19.1016 21.585L19.029 21.6237L19.053 21.7024L19.1486 21.6733ZM19.352 21.5543L19.4067 21.638L19.4067 21.638L19.352 21.5543ZM20.5325 19.3791L20.4325 19.3791V19.3791H20.5325ZM15.9768 16.0977L16.0685 16.1376L16.0685 16.1375L15.9768 16.0977ZM16.1934 15.066H16.2935L16.2933 15.0624L16.1934 15.066ZM16.1933 15.0636L16.1612 14.9689L16.0907 14.9928L16.0934 15.0672L16.1933 15.0636ZM17.5967 15.3795L17.6671 15.3085L17.6671 15.3085L17.5967 15.3795ZM17.9164 16.7733V16.8733H17.9874L18.0108 16.8064L17.9164 16.7733ZM15.733 16.6585L15.6413 16.6187L15.6102 16.6901L15.6719 16.7377L15.733 16.6585ZM14.8121 15.5989L14.9038 15.6388L14.9039 15.6387L14.8121 15.5989ZM14.603 16.0801L14.5745 16.1759L14.6594 16.2011L14.6947 16.1199L14.603 16.0801ZM12.5462 16.1032L12.4545 16.143L12.4906 16.2261L12.5769 16.1984L12.5462 16.1032ZM10.9486 15.0626L11.0486 15.0627L11.0487 14.9916L10.9815 14.9682L10.9486 15.0626ZM11.1627 16.0981L11.0709 16.1379L11.0709 16.138L11.1627 16.0981ZM11.4276 16.708L11.4904 16.7858L11.5496 16.7379L11.5193 16.6682L11.4276 16.708ZM10.8869 17.2547L10.8475 17.3466L10.9179 17.3767L10.9653 17.3167L10.8869 17.2547ZM10.2658 16.9884L10.3052 16.8965L10.3051 16.8965L10.2658 16.9884ZM9.22697 16.7733V16.6732L9.22345 16.6733L9.22697 16.7733ZM8.48408 20.502L8.42937 20.5858L8.42938 20.5858L8.48408 20.502ZM10.2964 20.385L10.3358 20.4769L10.4185 20.4415L10.392 20.3555L10.2964 20.385ZM9.76397 20.6132L9.72458 20.5212L9.72438 20.5213L9.76397 20.6132ZM10.9486 23.696L10.9814 23.7905L11.0487 23.7671L11.0486 23.6959L10.9486 23.696ZM9.5427 23.3791L9.61318 23.3081L9.61317 23.3081L9.5427 23.3791ZM9.22511 21.9838L9.23137 21.884L9.15544 21.8792L9.13059 21.9511L9.22511 21.9838ZM9.22646 21.9839L9.22019 22.0839H9.22646V21.9839ZM10.2663 21.77L10.3057 21.862L10.3057 21.8619L10.2663 21.77ZM12.4394 24.4306L12.356 24.4858L12.356 24.4858L12.4394 24.4306ZM12.3273 23.1594L12.2356 23.1195L12.2356 23.1196L12.3273 23.1594ZM14.2038 23.3903L14.111 23.4275L14.111 23.4275L14.2038 23.3903ZM14.788 24.2712L14.8778 24.3153L14.9095 24.2509L14.8585 24.2003L14.788 24.2712ZM17.5967 23.3792L17.6671 23.4501L17.6671 23.4501L17.5967 23.3792ZM16.3666 23.7451L16.3867 23.6471L16.3867 23.6471L16.3666 23.7451ZM16.8733 21.77L16.8339 21.862L16.8339 21.862L16.8733 21.77ZM17.9128 21.9838V22.0838L17.9154 22.0837L17.9128 21.9838ZM17.9161 21.9837L18.0104 21.9505L17.9863 21.8818L17.9135 21.8837L17.9161 21.9837ZM16.9174 18.3416L16.878 18.2497L16.7946 18.2854L16.8222 18.3719L16.9174 18.3416ZM17.375 18.1454L17.3357 18.0535L17.3356 18.0535L17.375 18.1454ZM19.2642 19.3792H19.1642V19.3792L19.2642 19.3792ZM13.5697 18.6494C13.1649 18.6494 12.8355 18.9755 12.8355 19.3793H13.0355C13.0355 19.0873 13.274 18.8494 13.5697 18.8494V18.6494ZM14.3038 19.3793C14.3038 18.9755 13.9745 18.6494 13.5697 18.6494V18.8494C13.8653 18.8494 14.1038 19.0873 14.1038 19.3793H14.3038ZM19.2452 17.1117C19.322 16.8582 19.3619 16.5934 19.3619 16.3239H19.1619C19.1619 16.5736 19.1249 16.8189 19.0538 17.0537L19.2452 17.1117ZM19.3619 16.3239C19.3619 15.6056 19.0781 14.9283 18.564 14.4176L18.423 14.5595C18.8998 15.0331 19.1619 15.6595 19.1619 16.3239H19.3619ZM18.564 14.4176C17.8414 13.7001 16.7925 13.4614 15.8533 13.7413L15.9104 13.9329C16.7817 13.6733 17.754 13.8952 18.4231 14.5595L18.564 14.4176ZM7.9426 16.9944C7.08905 17.451 6.50646 18.3483 6.50646 19.3792H6.70647C6.70647 18.4256 7.24523 17.5943 8.03694 17.1707L7.9426 16.9944ZM6.50646 19.3792C6.50646 20.2923 6.96495 21.1367 7.73223 21.6381L7.84163 21.4706C7.13056 21.006 6.70647 20.2244 6.70647 19.3792H6.50646ZM7.73221 21.6381C7.8018 21.6836 7.8728 21.724 7.94332 21.7617L8.03758 21.5853C7.97011 21.5492 7.90463 21.5118 7.84164 21.4707L7.73221 21.6381ZM7.89475 21.6444C7.6115 22.5789 7.8519 23.6223 8.5751 24.3407L8.71605 24.1988C8.04664 23.5339 7.82385 22.5678 8.08615 21.7025L7.89475 21.6444ZM8.5751 24.3407C9.08917 24.8514 9.7707 25.133 10.4934 25.133V24.933C9.82371 24.933 9.19279 24.6724 8.71605 24.1988L8.5751 24.3407ZM10.4934 25.133C10.7654 25.133 11.0326 25.0932 11.2885 25.0165L11.231 24.8249C10.9937 24.8961 10.7459 24.933 10.4934 24.933V25.133ZM11.1717 24.9682C11.2097 25.0385 11.2505 25.109 11.2961 25.1781L11.463 25.0678C11.4216 25.0051 11.3839 24.9401 11.3477 24.8732L11.1717 24.9682ZM11.2962 25.1781C11.8011 25.9403 12.6511 26.3952 13.5694 26.3952V26.1952C12.7178 26.1952 11.9306 25.7736 11.4629 25.0677L11.2962 25.1781ZM13.5694 26.3952C14.5915 26.3952 15.504 25.8267 15.9688 24.9674L15.7929 24.8723C15.3623 25.6683 14.5166 26.1952 13.5694 26.1952V26.3952ZM15.8522 25.0156C15.9291 25.0387 16.0083 25.0599 16.0898 25.0767L16.13 24.8808C16.056 24.8656 15.983 24.846 15.9096 24.824L15.8522 25.0156ZM16.0899 25.0767C16.2739 25.1144 16.459 25.133 16.6428 25.133V24.933C16.4725 24.933 16.3009 24.9158 16.13 24.8807L16.0899 25.0767ZM16.6428 25.133C17.3564 25.1329 18.0472 24.8538 18.5637 24.3408L18.4228 24.1989C17.9441 24.6743 17.3041 24.9329 16.6428 24.933L16.6428 25.133ZM18.5637 24.3408C19.0779 23.8301 19.3617 23.1529 19.3617 22.4344H19.1617C19.1617 23.099 18.8996 23.7253 18.4228 24.1988L18.5637 24.3408ZM19.3617 22.4344C19.3617 22.1641 19.3217 21.8984 19.2443 21.6442L19.053 21.7024C19.1246 21.9378 19.1617 22.1839 19.1617 22.4344H19.3617ZM19.1957 21.7615C19.2664 21.7238 19.3373 21.6834 19.4067 21.638L19.2973 21.4706C19.2343 21.5117 19.1689 21.5492 19.1016 21.585L19.1957 21.7615ZM19.4067 21.638C20.174 21.1366 20.6325 20.2921 20.6325 19.3791H20.4325C20.4325 20.2242 20.0084 21.0059 19.2973 21.4706L19.4067 21.638ZM20.6325 19.3791C20.6326 18.3483 20.0501 17.4511 19.1967 16.9945L19.1023 17.1708C19.8939 17.5944 20.4326 18.4257 20.4325 19.3791L20.6325 19.3791ZM16.0685 16.1375C16.2176 15.7937 16.2934 15.433 16.2934 15.066H16.0934C16.0934 15.4049 16.0234 15.7386 15.885 16.0579L16.0685 16.1375ZM16.2933 15.0624L16.2932 15.06L16.0934 15.0672L16.0935 15.0695L16.2933 15.0624ZM16.2254 15.1583C16.6359 15.019 17.1449 15.0718 17.5262 15.4504L17.6671 15.3085C17.2235 14.868 16.6314 14.8094 16.1612 14.9689L16.2254 15.1583ZM17.5262 15.4504C17.7635 15.6861 17.8935 15.9962 17.8935 16.3239H18.0935C18.0935 15.9419 17.9415 15.5811 17.6671 15.3085L17.5262 15.4504ZM17.8935 16.3239C17.8935 16.467 17.8687 16.6072 17.8221 16.7403L18.0108 16.8064C18.0646 16.6528 18.0935 16.4903 18.0935 16.3239H17.8935ZM17.9164 16.6733C17.9171 16.6733 17.9171 16.6734 17.9163 16.6733C17.916 16.6733 17.9157 16.6733 17.9156 16.6733C17.9155 16.6733 17.9154 16.6733 17.9154 16.6733C17.9154 16.6733 17.9154 16.6733 17.9153 16.6733C17.9153 16.6733 17.9153 16.6733 17.9154 16.6733C17.9154 16.6733 17.9154 16.6733 17.9154 16.6733C17.9154 16.6733 17.9154 16.6733 17.9154 16.6733H17.9154H17.9154C17.9154 16.6733 17.9154 16.6733 17.9123 16.7733C17.9092 16.8732 17.9092 16.8732 17.9092 16.8732C17.9092 16.8732 17.9092 16.8732 17.9092 16.8732C17.9092 16.8732 17.9092 16.8732 17.9092 16.8732C17.9092 16.8732 17.9092 16.8732 17.9092 16.8732C17.9093 16.8732 17.9093 16.8732 17.9093 16.8732C17.9093 16.8732 17.9094 16.8732 17.9094 16.8732C17.9096 16.8732 17.9097 16.8732 17.9099 16.8732C17.9103 16.8732 17.9108 16.8733 17.9114 16.8733C17.9123 16.8733 17.9144 16.8733 17.9164 16.8733V16.6733ZM16.3154 17.2274C16.3893 17.1601 16.3893 17.1601 16.3893 17.1601C16.3893 17.1601 16.3893 17.1601 16.3893 17.1601C16.3893 17.1601 16.3893 17.16 16.3892 17.16C16.3892 17.1599 16.3891 17.1599 16.389 17.1598C16.3888 17.1595 16.3885 17.1592 16.3882 17.1588C16.3874 17.158 16.3864 17.1569 16.385 17.1553C16.3822 17.1523 16.378 17.1478 16.3727 17.142C16.3622 17.1306 16.3468 17.114 16.3278 17.0936C16.2897 17.0529 16.2366 16.9969 16.1766 16.9355C16.0581 16.8142 15.9082 16.6674 15.7941 16.5794L15.6719 16.7377C15.7736 16.8162 15.9148 16.9537 16.0336 17.0753C16.0923 17.1354 16.1443 17.1903 16.1817 17.2303C16.2004 17.2503 16.2154 17.2664 16.2257 17.2776C16.2309 17.2832 16.2348 17.2875 16.2375 17.2904C16.2388 17.2919 16.2398 17.293 16.2405 17.2937C16.2408 17.2941 16.2411 17.2944 16.2413 17.2945C16.2413 17.2946 16.2414 17.2947 16.2414 17.2947C16.2415 17.2948 16.2415 17.2948 16.2415 17.2948C16.2415 17.2948 16.2415 17.2948 16.2415 17.2948C16.2415 17.2948 16.2415 17.2948 16.3154 17.2274ZM15.8247 16.6984L16.0685 16.1376L15.8851 16.0578L15.6413 16.6187L15.8247 16.6984ZM13.5697 13.823C14.1913 13.823 14.8251 14.3546 14.8251 15.0659H15.0251C15.0251 14.2322 14.2894 13.623 13.5697 13.623V13.823ZM14.8251 15.0659C14.8251 15.2323 14.7901 15.3984 14.7204 15.5591L14.9039 15.6387C14.984 15.4539 15.0251 15.2609 15.0251 15.0659H14.8251ZM14.7204 15.5591L14.5113 16.0402L14.6947 16.1199L14.9038 15.6388L14.7204 15.5591ZM14.6315 15.9842C14.3083 15.8882 13.9661 15.8359 13.612 15.8359V16.0359C13.9464 16.0359 14.2693 16.0853 14.5745 16.1759L14.6315 15.9842ZM13.612 15.8359C13.2295 15.8359 12.8612 15.8968 12.5156 16.008L12.5769 16.1984C12.9032 16.0934 13.2508 16.0359 13.612 16.0359V15.8359ZM12.638 16.0633L12.4191 15.5594L12.2357 15.6391L12.4545 16.143L12.638 16.0633ZM10.4936 15.0853C10.6388 15.0853 10.781 15.1101 10.9157 15.157L10.9815 14.9682C10.8262 14.9141 10.6618 14.8853 10.4936 14.8853V15.0853ZM10.8486 15.0625C10.8481 15.4263 10.9208 15.7921 11.0709 16.1379L11.2544 16.0583C11.1155 15.7382 11.0482 15.3997 11.0486 15.0627L10.8486 15.0625ZM11.0709 16.138L11.3359 16.7478L11.5193 16.6682L11.2544 16.0583L11.0709 16.138ZM11.3647 16.6302C11.1589 16.7966 10.9725 16.9855 10.8085 17.1926L10.9653 17.3167C11.1203 17.1211 11.2963 16.9427 11.4904 16.7858L11.3647 16.6302ZM10.9263 17.1627L10.3052 16.8965L10.2264 17.0803L10.8475 17.3466L10.9263 17.1627ZM10.3051 16.8965C9.95915 16.7485 9.59624 16.6733 9.22697 16.6733V16.8733C9.56863 16.8733 9.90482 16.9428 10.2265 17.0804L10.3051 16.8965ZM9.22345 16.6733L9.22108 16.6734L9.22812 16.8733L9.23049 16.8732L9.22345 16.6733ZM8.53878 20.4183C8.17981 20.1838 7.97495 19.8059 7.97495 19.3793H7.77495C7.77495 19.8738 8.01416 20.3144 8.42937 20.5858L8.53878 20.4183ZM10.0451 19.3793C10.0451 19.7393 10.0999 20.0868 10.2008 20.4144L10.392 20.3555C10.2968 20.0466 10.2451 19.7189 10.2451 19.3793H10.0451ZM10.257 20.2931L9.72458 20.5212L9.80336 20.7051L10.3358 20.4769L10.257 20.2931ZM9.72438 20.5213C9.32495 20.6936 8.89807 20.6531 8.53878 20.4183L8.42938 20.5858C8.84409 20.8567 9.34173 20.9041 9.80357 20.705L9.72438 20.5213ZM11.0708 22.6208C10.9208 22.9666 10.8481 23.3323 10.8486 23.6961L11.0486 23.6959C11.0482 23.359 11.1155 23.0204 11.2543 22.7004L11.0708 22.6208ZM10.9158 23.6016C10.7809 23.6484 10.6388 23.6733 10.4936 23.6733V23.8733C10.6618 23.8733 10.8261 23.8444 10.9814 23.7905L10.9158 23.6016ZM10.4936 23.6733C10.1629 23.6733 9.8505 23.5439 9.61318 23.3081L9.47221 23.45C9.74661 23.7226 10.1095 23.8733 10.4936 23.8733V23.6733ZM9.61317 23.3081C9.23158 22.9291 9.17896 22.4235 9.31963 22.0164L9.13059 21.9511C8.96889 22.4191 9.02789 23.0087 9.47222 23.45L9.61317 23.3081ZM9.21885 22.0836L9.2202 22.0837L9.23272 21.8841L9.23137 21.884L9.21885 22.0836ZM9.22646 22.0839C9.59171 22.0839 9.95871 22.0104 10.3057 21.862L10.227 21.6781C9.90508 21.8158 9.56487 21.8839 9.22646 21.8839V22.0839ZM10.3057 21.8619L10.9264 21.596L10.8476 21.4121L10.2269 21.6781L10.3057 21.8619ZM13.5697 24.9356C13.1394 24.9356 12.7588 24.7317 12.5227 24.3753L12.356 24.4858C12.6293 24.8984 13.0727 25.1356 13.5697 25.1356V24.9356ZM12.5227 24.3753C12.2881 24.0211 12.2481 23.593 12.4191 23.1992L12.2356 23.1196C12.0375 23.5759 12.0843 24.0755 12.356 24.4858L12.5227 24.3753ZM12.419 23.1992L12.638 22.6952L12.4545 22.6155L12.2356 23.1195L12.419 23.1992ZM13.8767 22.8414L14.111 23.4275L14.2967 23.3532L14.0624 22.7672L13.8767 22.8414ZM14.111 23.4275C14.2507 23.7767 14.4591 24.0857 14.7176 24.3422L14.8585 24.2003C14.6189 23.9625 14.426 23.6763 14.2967 23.3532L14.111 23.4275ZM14.6983 24.2271C14.508 24.6142 14.1103 24.9356 13.5697 24.9356V25.1356C14.1978 25.1356 14.6591 24.7601 14.8778 24.3153L14.6983 24.2271ZM15.7104 19.3793C15.7104 20.5275 14.7696 21.4628 13.612 21.4628V21.6628C14.8788 21.6628 15.9104 20.6392 15.9104 19.3793H15.7104ZM17.5262 23.3082C17.2222 23.6102 16.8077 23.7337 16.3867 23.6471L16.3464 23.843C16.833 23.9431 17.3155 23.7994 17.6671 23.4501L17.5262 23.3082ZM16.3867 23.6471C15.966 23.5607 15.6354 23.2899 15.4754 22.8882L15.2896 22.9621C15.475 23.4279 15.8613 23.7434 16.3464 23.843L16.3867 23.6471ZM16.2761 21.6229L16.8339 21.862L16.9127 21.6781L16.3549 21.4391L16.2761 21.6229ZM16.8339 21.862C17.1807 22.0104 17.5476 22.0838 17.9128 22.0838V21.8838C17.5745 21.8838 17.2343 21.8158 16.9127 21.6781L16.8339 21.862ZM17.9154 22.0837L17.9187 22.0837L17.9135 21.8837L17.9102 21.8838L17.9154 22.0837ZM17.8218 22.0169C17.8687 22.1503 17.8936 22.2909 17.8936 22.4346H18.0936C18.0936 22.2677 18.0646 22.1047 18.0104 21.9505L17.8218 22.0169ZM17.8936 22.4346C17.8936 22.7624 17.7636 23.0723 17.5262 23.3082L17.6671 23.4501C17.9416 23.1774 18.0936 22.8166 18.0936 22.4346H17.8936ZM17.0127 20.4473C17.1203 20.11 17.1786 19.7512 17.1786 19.3793H16.9786C16.9786 19.7302 16.9236 20.0685 16.8222 20.3865L17.0127 20.4473ZM17.1786 19.3793C17.1786 19.0072 17.1202 18.6484 17.0127 18.3112L16.8222 18.3719C16.9235 18.69 16.9786 19.0282 16.9786 19.3793H17.1786ZM16.9568 18.4335L17.4144 18.2373L17.3356 18.0535L16.878 18.2497L16.9568 18.4335ZM17.4144 18.2373C17.5769 18.1678 17.7444 18.1329 17.9123 18.1329V17.9329C17.7163 17.9329 17.5221 17.9737 17.3357 18.0535L17.4144 18.2373ZM17.9123 18.1329C18.6122 18.1329 19.1642 18.755 19.1642 19.3792H19.3642C19.3642 18.6514 18.7294 17.9329 17.9123 17.9329V18.1329ZM19.1642 19.3792C19.1643 19.8059 18.9594 20.1838 18.6005 20.4183L18.7099 20.5858C19.1251 20.3144 19.3643 19.8738 19.3642 19.3792L19.1642 19.3792ZM5.4041 11.2662L5.35594 11.4603L5.35598 11.4603L5.4041 11.2662ZM4.63525 11.7248L4.82922 11.7735L4.82923 11.7735L4.63525 11.7248ZM2.09017 18.4881L1.90962 18.4021L1.90961 18.4021L2.09017 18.4881ZM1.58132 19.5798L1.39842 19.4989L1.3984 19.499L1.58132 19.5798ZM0.00929037 28.3424L-0.190638 28.3478L-0.190638 28.3478L0.00929037 28.3424ZM3.32272 42.5994L3.50882 42.5262L3.50881 42.5261L3.32272 42.5994ZM4.14425 42.9565L4.0718 42.7701L4.07161 42.7701L4.14425 42.9565ZM4.50377 42.1404L4.68986 42.0671L4.68986 42.0671L4.50377 42.1404ZM2.74259 20.0863L2.55967 20.0055H2.55967L2.74259 20.0863ZM3.23664 19.027L3.41719 19.113L3.4172 19.113L3.23664 19.027ZM5.86569 12.0299L5.67174 11.981L5.67172 11.9811L5.86569 12.0299ZM6.67191 0.56762L6.87091 0.547646L6.87091 0.547643L6.67191 0.56762ZM5.97797 0.00333436L5.99768 0.202361L5.99811 0.202318L5.97797 0.00333436ZM5.40985 0.692588L5.60885 0.672615L5.60885 0.672611L5.40985 0.692588ZM5.20591 8.90089L5.40357 8.93141L5.40357 8.9314L5.20591 8.90089ZM5.73657 9.61895L5.76709 9.42129L5.7667 9.42123L5.73657 9.61895ZM6.45942 9.09187L6.26177 9.06135L6.26176 9.06139L6.45942 9.09187ZM16.9232 27.3728L16.815 27.541L16.8151 27.5411L16.9232 27.3728ZM16.0464 27.5596L16.2139 27.6688L16.214 27.6687L16.0464 27.5596ZM14.7785 29.116L14.9192 29.2581L14.9193 29.258L14.7785 29.116ZM13.5525 30.1416L13.4442 30.3097L13.5574 30.3826L13.6675 30.3052L13.5525 30.1416ZM12.1709 29.0002L12.0261 29.1382L12.0261 29.1382L12.1709 29.0002ZM11.1097 27.5867L10.9368 27.6872L10.9368 27.6873L11.1097 27.5867ZM10.2435 27.3562L10.144 27.1827L10.144 27.1827L10.2435 27.3562ZM10.0114 28.2166L9.83846 28.3171L9.83847 28.3171L10.0114 28.2166ZM11.2498 29.8663L11.3946 29.7283L11.3946 29.7283L11.2498 29.8663ZM12.9355 31.2442H13.1355V31.1339L13.0422 31.075L12.9355 31.2442ZM14.2038 31.2257L14.0903 31.061L14.0038 31.1206V31.2257H14.2038ZM15.6744 30.0076L15.5336 29.8655L15.5336 29.8655L15.6744 30.0076ZM17.1112 28.2437L16.9436 28.1345V28.1345L17.1112 28.2437ZM25.7321 34.3306L25.687 34.5255L25.6872 34.5255L25.7321 34.3306ZM24.9711 34.8019L25.1659 34.8473L25.1659 34.8473L24.9711 34.8019ZM22.6354 42.1404L22.8215 42.2137L22.8215 42.2137L22.6354 42.1404ZM22.9949 42.9565L23.0676 42.7701L23.0674 42.7701L22.9949 42.9565ZM23.8165 42.5994L23.6304 42.5261L23.6304 42.5262L23.8165 42.5994ZM26.2066 35.0865L26.0118 35.041L26.0118 35.041L26.2066 35.0865ZM25.5579 19.5798L25.7408 19.499L25.7408 19.4989L25.5579 19.5798ZM25.0489 18.488L24.8684 18.5741L24.8684 18.5741L25.0489 18.488ZM22.1643 10.2115L21.9681 10.2503L21.9681 10.2503L22.1643 10.2115ZM21.7294 0.692504L21.5304 0.672527V0.67253L21.7294 0.692504ZM21.1613 0.00325037L21.1413 0.202244L21.1416 0.202277L21.1613 0.00325037ZM20.4674 0.567536L20.2684 0.547554V0.547558L20.4674 0.567536ZM20.9199 10.4548L21.1161 10.416V10.416L20.9199 10.4548ZM23.9025 19.0268L23.7219 19.1128L23.7219 19.1128L23.9025 19.0268ZM24.3965 20.0863L24.2136 20.1672L24.2136 20.1672L24.3965 20.0863ZM25.5256 31.9478L25.7233 31.9781L25.7233 31.9781L25.5256 31.9478ZM26.0574 32.6651L26.0276 32.8629H26.0276L26.0574 32.6651ZM26.7796 32.137L26.9773 32.1672L26.9773 32.1672L26.7796 32.137ZM5.45227 11.0721C5.00615 10.9614 4.5532 11.2305 4.44128 11.676L4.82923 11.7735C4.88692 11.5438 5.12174 11.4022 5.35594 11.4603L5.45227 11.0721ZM4.44129 11.676C3.69034 14.6637 2.66383 16.8191 1.90962 18.4021L2.27072 18.5741C3.02665 16.9876 4.068 14.8021 4.82922 11.7735L4.44129 11.676ZM1.90961 18.4021C1.71478 18.8111 1.54496 19.1676 1.39842 19.4989L1.76423 19.6607C1.90805 19.3356 2.07526 18.9845 2.27073 18.5741L1.90961 18.4021ZM1.3984 19.499C0.254088 22.0872 -0.278646 25.0655 -0.190638 28.3478L0.209219 28.3371C0.122538 25.1044 0.647577 22.1864 1.76424 19.6607L1.3984 19.499ZM-0.190638 28.3478C-0.0782187 32.5389 1.04406 37.3592 3.13663 42.6727L3.50881 42.5261C1.42744 37.2411 0.320023 32.4679 0.209218 28.3371L-0.190638 28.3478ZM3.13661 42.6726C3.26578 43.0009 3.58117 43.2 3.91341 43.2V42.8C3.73867 42.8 3.57532 42.6951 3.50882 42.5262L3.13661 42.6726ZM3.91341 43.2C4.01449 43.2 4.11737 43.1816 4.21688 43.1428L4.07161 42.7701C4.01943 42.7905 3.96589 42.8 3.91341 42.8V43.2ZM4.21669 43.1429C4.64522 42.9764 4.8584 42.4951 4.68986 42.0671L4.31768 42.2137C4.40432 42.4337 4.29553 42.6831 4.0718 42.7701L4.21669 43.1429ZM4.68986 42.0671C1.09895 32.9488 0.527416 25.5912 2.92551 20.1672L2.55967 20.0055C0.0977566 25.5738 0.711333 33.0562 4.31768 42.2137L4.68986 42.0671ZM2.92551 20.1672C3.06204 19.8584 3.22575 19.5147 3.41719 19.113L3.05609 18.9409C2.86535 19.3412 2.69896 19.6904 2.55967 20.0055L2.92551 20.1672ZM3.4172 19.113C4.19568 17.4786 5.2681 15.228 6.05965 12.0786L5.67172 11.9811C4.8904 15.0898 3.83273 17.3104 3.05608 18.941L3.4172 19.113ZM6.05963 12.0787C6.17194 11.6326 5.89838 11.1827 5.45222 11.0721L5.35598 11.4603C5.58947 11.5182 5.72939 11.752 5.67174 11.981L6.05963 12.0787ZM6.87091 0.547643C6.82504 0.0906734 6.41474 -0.241881 5.95784 -0.19565L5.99811 0.202318C6.23675 0.178172 6.44928 0.352206 6.47291 0.587597L6.87091 0.547643ZM5.95826 -0.195692C5.50097 -0.150403 5.16493 0.255121 5.21085 0.712565L5.60885 0.672611C5.58527 0.437694 5.75792 0.226106 5.99768 0.202361L5.95826 -0.195692ZM5.21085 0.71256C5.48714 3.4654 5.4189 6.21006 5.00825 8.87038L5.40357 8.9314C5.81952 6.23676 5.88842 3.45816 5.60885 0.672615L5.21085 0.71256ZM5.00825 8.87037C4.93808 9.32485 5.25226 9.74745 5.70644 9.81667L5.7667 9.42123C5.52872 9.38497 5.36754 9.16476 5.40357 8.93141L5.00825 8.87037ZM5.70605 9.81661C5.74914 9.82326 5.79165 9.82634 5.83347 9.82634V9.42634C5.81137 9.42634 5.78928 9.42472 5.76709 9.42129L5.70605 9.81661ZM5.83347 9.82634C6.23741 9.82634 6.59364 9.53386 6.65709 9.12235L6.26176 9.06139C6.22915 9.27287 6.04509 9.42634 5.83347 9.42634V9.82634ZM6.65708 9.12239C7.08927 6.32329 7.16105 3.43836 6.87091 0.547646L6.47291 0.587594C6.75977 3.44556 6.68866 6.29654 6.26177 9.06135L6.65708 9.12239ZM17.0314 27.2046C16.6455 26.9564 16.1292 27.0657 15.8787 27.4505L16.214 27.6687C16.3438 27.4692 16.6134 27.4113 16.815 27.541L17.0314 27.2046ZM15.8788 27.4505C15.5211 27.9997 15.1035 28.5123 14.6377 28.9739L14.9193 29.258C15.4052 28.7764 15.8408 28.2417 16.2139 27.6688L15.8788 27.4505ZM14.6377 28.9739C14.2675 29.3408 13.865 29.6775 13.4375 29.978L13.6675 30.3052C14.1133 29.9919 14.533 29.6408 14.9192 29.2581L14.6377 28.9739ZM13.6608 29.9735C13.1689 29.6566 12.7176 29.2839 12.3157 28.8622L12.0261 29.1382C12.4501 29.5829 12.9258 29.9759 13.4442 30.3097L13.6608 29.9735ZM12.3157 28.8622C11.9191 28.4461 11.5716 27.9832 11.2826 27.4862L10.9368 27.6873C11.2415 28.2113 11.6079 28.6994 12.0261 29.1382L12.3157 28.8622ZM11.2827 27.4863C11.052 27.0893 10.5422 26.9545 10.144 27.1827L10.3429 27.5297C10.5515 27.4102 10.8174 27.4817 10.9368 27.6872L11.2827 27.4863ZM10.144 27.1827C9.745 27.4114 9.60732 27.9194 9.83846 28.3171L10.1843 28.1161C10.0652 27.9112 10.1354 27.6487 10.3429 27.5297L10.144 27.1827ZM9.83847 28.3171C10.1927 28.9264 10.6187 29.4941 11.1051 30.0043L11.3946 29.7283C10.9299 29.2408 10.5228 28.6983 10.1843 28.1161L9.83847 28.3171ZM11.1051 30.0043C11.6185 30.543 12.1974 31.0153 12.8289 31.4134L13.0422 31.075C12.4382 30.6943 11.885 30.2428 11.3946 29.7283L11.1051 30.0043ZM12.7355 31.2442V42.37H13.1355V31.2442H12.7355ZM12.7355 42.37C12.7355 42.8296 13.1102 43.1998 13.5697 43.1998V42.7998C13.3285 42.7998 13.1355 42.6062 13.1355 42.37H12.7355ZM13.5697 43.1998C14.0292 43.1998 14.4038 42.8296 14.4038 42.37H14.0038C14.0038 42.6062 13.8108 42.7998 13.5697 42.7998V43.1998ZM14.4038 42.37V31.2257H14.0038V42.37H14.4038ZM14.3173 31.3903C14.8519 31.0219 15.3547 30.606 15.8152 30.1496L15.5336 29.8655C15.0902 30.305 14.6056 30.7058 14.0903 31.061L14.3173 31.3903ZM15.8152 30.1496C16.3646 29.6051 16.857 29.0005 17.2788 28.3528L16.9436 28.1345C16.5373 28.7585 16.0629 29.3409 15.5336 29.8655L15.8152 30.1496ZM17.2788 28.3528C17.5298 27.9674 17.4183 27.4531 17.0313 27.2045L16.8151 27.5411C17.0162 27.6703 17.073 27.9359 16.9436 28.1345L17.2788 28.3528ZM25.7773 34.1358C25.3298 34.0322 24.8807 34.3092 24.7764 34.7564L25.1659 34.8473C25.2197 34.6168 25.4527 34.4712 25.687 34.5255L25.7773 34.1358ZM24.7764 34.7564C24.2432 37.0396 23.4605 39.4994 22.4493 42.0671L22.8215 42.2137C23.8386 39.6309 24.6276 37.1524 25.1659 34.8473L24.7764 34.7564ZM22.4493 42.0671C22.2808 42.495 22.494 42.9764 22.9225 43.1429L23.0674 42.7701C22.8437 42.6831 22.7349 42.4337 22.8215 42.2137L22.4493 42.0671ZM22.9223 43.1428C23.0218 43.1816 23.1246 43.2 23.2258 43.2V42.8C23.1732 42.8 23.1198 42.7905 23.0676 42.7701L22.9223 43.1428ZM23.2258 43.2C23.5579 43.2 23.8734 43.0009 24.0026 42.6726L23.6304 42.5262C23.5639 42.6951 23.4004 42.8 23.2258 42.8V43.2ZM24.0026 42.6727C25.042 40.0332 25.8493 37.4962 26.4013 35.1319L26.0118 35.041C25.4649 37.3834 24.6639 39.9018 23.6304 42.5261L24.0026 42.6727ZM26.4013 35.132C26.5059 34.6842 26.2249 34.2389 25.777 34.1357L25.6872 34.5255C25.9217 34.5795 26.0655 34.811 26.0118 35.041L26.4013 35.132ZM25.7408 19.4989C25.5942 19.1676 25.4244 18.8111 25.2295 18.402L24.8684 18.5741C25.0639 18.9845 25.2311 19.3356 25.375 19.6607L25.7408 19.4989ZM25.2295 18.402C24.3824 16.6238 23.1094 13.9509 22.3605 10.1726L21.9681 10.2503C22.7272 14.08 24.0186 16.7902 24.8684 18.5741L25.2295 18.402ZM22.3605 10.1726C21.7521 7.10267 21.6065 3.91989 21.9284 0.712477L21.5304 0.67253C21.2047 3.91808 21.3518 7.14056 21.9681 10.2503L22.3605 10.1726ZM21.9284 0.712481C21.9743 0.255037 21.6383 -0.150487 21.181 -0.195776L21.1416 0.202277C21.3813 0.226022 21.554 0.43761 21.5304 0.672527L21.9284 0.712481ZM21.1813 -0.195743C20.7235 -0.241841 20.3142 0.0907771 20.2684 0.547554L20.6664 0.587518C20.69 0.352102 20.9018 0.178132 21.1413 0.202244L21.1813 -0.195743ZM20.2684 0.547558C19.9302 3.91617 20.0832 7.26253 20.7237 10.4937L21.1161 10.416C20.4835 7.22459 20.332 3.91794 20.6664 0.587515L20.2684 0.547558ZM20.7237 10.4937C21.5132 14.477 22.8452 17.2724 23.7219 19.1128L24.083 18.9408C23.2091 17.1062 21.8954 14.3481 21.1161 10.416L20.7237 10.4937ZM23.7219 19.1128C23.9133 19.5147 24.0771 19.8583 24.2136 20.1672L24.5794 20.0055C24.4401 19.6903 24.2738 19.3411 24.083 18.9408L23.7219 19.1128ZM24.2136 20.1672C25.645 23.4049 26.0254 27.3551 25.3279 31.9176L25.7233 31.9781C26.429 27.362 26.0496 23.3306 24.5794 20.0055L24.2136 20.1672ZM25.3279 31.9176C25.2584 32.3721 25.5732 32.7943 26.0276 32.8629L26.0872 32.4674C25.8491 32.4315 25.6877 32.2114 25.7233 31.9781L25.3279 31.9176ZM26.0276 32.8629C26.4718 32.9299 26.9071 32.6261 26.9773 32.1672L26.5819 32.1067C26.546 32.341 26.32 32.5025 26.0872 32.4674L26.0276 32.8629ZM26.9773 32.1672C27.7198 27.3109 27.3088 23.0456 25.7408 19.499L25.3749 19.6607C26.9047 23.1208 27.316 27.3053 26.5819 32.1067L26.9773 32.1672Z" fill="#FCFCFC" mask="url(#path-1-inside-1_2300_253)"/>
<path d="M15.3113 10.1574L13.9798 14.5915L13.9031 14.847L14.1291 14.9887L17.471 17.0838L16.1699 18.612L15.9278 18.8963L15.9298 18.8977L12.0586 23.411L14.1263 17.2429L14.2129 16.9848L13.984 16.8374L13.575 16.5741L13.5739 16.5734L10.5659 14.6521L15.3113 10.1574Z" stroke="#323232" stroke-width="0.7"/>
</svg>
