<svg width="51" height="45" viewBox="0 0 51 45" fill="none" xmlns="http://www.w3.org/2000/svg">
<path d="M48.707 2.77205L50.3609 1" stroke="#323232" stroke-width="1.2" stroke-linecap="round"/>
<path d="M43.5098 8.20613L45.1637 6.43408" stroke="#323232" stroke-width="1.2" stroke-linecap="round"/>
<path d="M45.1631 2.77205L43.5092 1" stroke="#323232" stroke-width="1.2" stroke-linecap="round"/>
<path d="M50.3604 8.20613L48.7064 6.43408" stroke="#323232" stroke-width="1.2" stroke-linecap="round"/>
<path d="M6.19824 23.1021L7.85216 21.3301" stroke="#323232" stroke-width="1.2" stroke-linecap="round"/>
<path d="M1.00098 28.5362L2.65489 26.7642" stroke="#323232" stroke-width="1.2" stroke-linecap="round"/>
<path d="M2.6543 23.1021L1.00038 21.3301" stroke="#323232" stroke-width="1.2" stroke-linecap="round"/>
<path d="M7.85059 28.5362L6.19667 26.7642" stroke="#323232" stroke-width="1.2" stroke-linecap="round"/>
<path d="M11.0094 6.55121L11.0019 6.60064C10.7217 6.5579 10.4601 6.74972 10.4171 7.02958L10.4171 7.02958C10.1734 8.61575 10.4773 10.2631 11.2731 11.6676C11.7155 12.4486 12.2857 13.1219 12.9605 13.6725L12.9688 13.6793L12.9736 13.6889L14.1509 16.0448C16.507 20.7597 16.1122 26.3844 13.1206 30.724L13.0461 30.8319C12.8854 31.0651 12.9442 31.3844 13.1773 31.5451L13.1774 31.5451C13.2662 31.6064 13.3675 31.6357 13.4678 31.6357C13.6309 31.6357 13.7911 31.5582 13.8905 31.4138L13.8905 31.4138L13.9648 31.3059L14.006 31.3343L13.9649 31.3059C17.1685 26.6588 17.5912 20.6354 15.0681 15.5863L14.6765 14.8024L14.6165 14.6825L14.7404 14.7339C14.8202 14.7671 14.8999 14.7997 14.9807 14.8301L14.9808 14.8301C15.8504 15.1569 16.7564 15.3148 17.6555 15.3148C19.8323 15.3148 21.9679 14.3893 23.4456 12.6946C23.6437 12.4673 23.8361 12.2162 24.0172 11.9483C24.1758 11.7136 24.1142 11.3949 23.8796 11.2363C23.6449 11.0777 23.3262 11.1393 23.1676 11.3739C23.01 11.607 22.8435 11.8246 22.6726 12.0206L22.6349 11.9877L22.6726 12.0206C21.3925 13.4888 19.5432 14.2901 17.6583 14.2899C16.8797 14.2899 16.0946 14.1531 15.3415 13.8701L15.3415 13.8701C13.9769 13.3573 12.8783 12.4207 12.1652 11.162L12.1652 11.162C11.4827 9.95715 11.2218 8.54497 11.4308 7.18532L11.4802 7.19291M11.0094 6.55121C11.3166 6.59841 11.5274 6.88572 11.4802 7.19291M11.0094 6.55121C10.702 6.50432 10.4149 6.71479 10.3677 7.02198C10.1223 8.61933 10.4283 10.278 11.2296 11.6923C11.675 12.4786 12.2492 13.1567 12.9289 13.7112L14.1062 16.0672C16.4541 20.7657 16.0607 26.371 13.0794 30.6956L13.005 30.8036M11.0094 6.55121L13.005 30.8036M11.4802 7.19291C11.2729 8.54137 11.5317 9.9422 12.2087 11.1374L11.4802 7.19291ZM13.005 30.8036C12.8286 31.0595 12.8931 31.4099 13.149 31.5863C13.2464 31.6535 13.3577 31.6857 13.4678 31.6857C13.6467 31.6857 13.8226 31.6007 13.9317 31.4422L13.005 30.8036Z" fill="#323232" stroke="#FCFCFC" stroke-width="0.1"/>
<path d="M26.9485 12.0207C27.6265 12.7984 28.4907 13.4151 29.4478 13.8043C29.7101 13.911 29.8363 14.2101 29.7296 14.4724L29.7296 14.4724C29.6487 14.6714 29.457 14.7922 29.2544 14.7922C29.1902 14.7922 29.1249 14.78 29.0615 14.7543C27.9566 14.305 26.9585 13.5927 26.1755 12.6947C25.977 12.467 25.7848 12.216 25.6038 11.9484C25.4452 11.7137 25.5069 11.3949 25.7416 11.2364L25.7416 11.2364C25.9763 11.0778 26.295 11.1395 26.4535 11.3741L26.4535 11.3741C26.6108 11.6068 26.7773 11.8244 26.9485 12.0207ZM26.9485 12.0207L26.9862 11.9879M26.9485 12.0207L26.9862 11.9879M26.9862 11.9879C27.6591 12.7597 28.5168 13.3717 29.4666 13.7579L26.9862 11.9879Z" fill="#323232" stroke="#FCFCFC" stroke-width="0.1"/>
<path d="M24.5628 33.4293C24.8736 33.4293 25.1255 33.1774 25.1255 32.8666V32.5628C25.1255 32.252 24.8736 32 24.5628 32C24.252 32 24 32.252 24 32.5628V32.8666C24 33.1774 24.252 33.4293 24.5628 33.4293Z" fill="#323232"/>
<path d="M9.88753 44.5436C9.93931 44.8129 10.1751 45.0002 10.4396 45.0002C10.4748 45.0002 10.5105 44.9969 10.5464 44.99C10.8516 44.9314 11.0515 44.6364 10.9929 44.3311L10.6663 42.6319C10.0468 39.4081 10.7224 36.1368 12.5684 33.4209C12.7431 33.1639 12.6763 32.8138 12.4193 32.6392C12.1621 32.4644 11.8122 32.5312 11.6375 32.7882C9.62206 35.7533 8.88461 39.3246 9.56098 42.8443L9.88753 44.5436ZM11.6789 32.8163C11.838 32.5821 12.1569 32.5213 12.3912 32.6805L12.527 33.3928C10.6736 36.1197 9.99522 39.4045 10.6172 42.6413L10.9438 44.3406C10.9972 44.6187 10.815 44.8875 10.537 44.9409L10.537 44.9409C10.5043 44.9472 10.4716 44.9502 10.4396 44.9502C10.1986 44.9502 9.9838 44.7795 9.93663 44.5341L9.61008 42.8349C8.93622 39.3283 9.67087 35.7705 11.6789 32.8163Z" fill="#323232" stroke="#FCFCFC" stroke-width="0.1"/>
<path d="M39.136 44.9408L39.136 44.9408C39.1687 44.9471 39.2013 44.9501 39.2334 44.9501C39.4743 44.9501 39.6892 44.7793 39.7363 44.534L39.7363 44.534L40.0628 42.8348L40.1119 42.8442L40.0628 42.8348C40.2378 41.9248 40.3172 40.9905 40.2992 40.0581C40.2937 39.775 40.063 39.5507 39.7766 39.5554C39.4935 39.5609 39.2684 39.7949 39.2739 40.0781C39.2906 40.9389 39.2172 41.8014 39.0558 42.6412L39.136 44.9408ZM39.136 44.9408C38.8579 44.8874 38.6758 44.6186 38.7292 44.3405C38.7292 44.3405 38.7292 44.3405 38.7292 44.3405L39.0558 42.6412L39.136 44.9408Z" fill="#323232" stroke="#FCFCFC" stroke-width="0.1"/>
<path d="M36.748 13.6L36.7401 13.6067L36.7355 13.6159L35.5218 16.0448C33.1657 20.7597 33.5606 26.3844 36.5521 30.7239L37.5293 32.1415C37.6901 32.3747 37.6313 32.694 37.3982 32.8547C37.3093 32.916 37.208 32.9454 37.1077 32.9454C36.9446 32.9454 36.7844 32.8678 36.6849 32.7236L35.7077 31.306C32.5041 26.6589 32.0814 20.6355 34.6044 15.5864L34.5597 15.5641L34.6044 15.5864L35.0097 14.7753L35.0706 14.6535L34.9453 14.707C34.8444 14.7501 34.7423 14.7913 34.6388 14.8302C33.7743 15.1551 32.8727 15.3191 31.9536 15.3191C31.8269 15.3191 31.7002 15.3159 31.5728 15.3097C31.29 15.2959 31.072 15.0554 31.0858 14.7725C31.0996 14.4897 31.3408 14.272 31.6231 14.2854C32.5331 14.3299 33.4265 14.1902 34.2781 13.8702C35.6426 13.3574 36.7412 12.4208 37.4543 11.1621C38.1369 9.95724 38.3979 8.54499 38.1889 7.18534C38.1459 6.90543 38.3379 6.64365 38.6179 6.60065C38.8978 6.55787 39.1595 6.74973 39.2025 7.0296C39.4463 8.61577 39.1423 10.263 38.3466 11.6676C37.9235 12.4144 37.3843 13.0633 36.748 13.6Z" fill="#323232" stroke="#FCFCFC" stroke-width="0.1"/>
<path d="M24.2854 42.5706V42.616V44.4371C24.2854 44.7202 24.5149 44.9498 24.7981 44.9498C25.0814 44.9498 25.3109 44.7202 25.3109 44.4371V42.6215V42.5755L25.3567 42.5717C26.7705 42.4527 28.0887 41.852 29.1129 40.8478L30.3836 39.6019C30.5858 39.4037 30.589 39.0791 30.3907 38.8768C30.1924 38.6746 29.8678 38.6715 29.6656 38.8697L28.3949 40.1156C27.4388 41.053 26.1746 41.5695 24.8356 41.5695C23.4967 41.5695 22.2324 41.0531 21.2764 40.1156L20.0057 38.8697C20.0057 38.8697 20.0057 38.8697 20.0057 38.8697C19.8035 38.6715 19.4789 38.6747 19.2806 38.8768L24.2854 42.5706ZM24.2854 42.5706L24.2402 42.5663M24.2854 42.5706L24.2402 42.5663M24.2402 42.5663C22.8545 42.4327 21.5647 41.8344 20.5584 40.8478C20.5584 40.8478 20.5584 40.8478 20.5584 40.8478L19.2877 39.602M24.2402 42.5663L19.2877 39.602M19.2877 39.602L19.2877 39.602C19.0856 39.4037 19.0823 39.0791 19.2806 38.8768L19.2877 39.602Z" fill="#323232" stroke="#FCFCFC" stroke-width="0.1"/>
<path d="M41.1613 35.1653L41.1613 35.1653C40.4531 34.8567 39.9692 34.39 39.6864 33.739C39.5662 33.4629 39.2956 33.2883 38.9916 33.2923L41.1613 35.1653ZM41.1613 35.1653C41.4403 35.2868 41.6161 35.5611 41.6095 35.864L41.6095 35.864C41.603 36.168 41.415 36.4354 41.13 36.5454C40.441 36.8114 39.9663 37.2861 39.6812 37.9928C39.566 38.2783 39.2941 38.4617 38.9873 38.4617H38.9828C38.6768 38.4599 38.4072 38.2745 38.2957 37.989L38.2957 37.989C38.0136 37.2667 37.5539 36.791 36.8912 36.5409L36.8912 36.5409C36.6058 36.4333 36.4175 36.1669 36.4115 35.862C36.4054 35.5541 36.5848 35.2775 36.8691 35.1571C37.5851 34.854 38.0594 34.3971 38.3128 33.7599L41.1613 35.1653ZM38.9513 37.0004L38.9935 37.0708L39.0367 37.0011C39.3254 36.5356 39.702 36.1613 40.1633 35.8811L40.2323 35.8391L40.164 35.796C39.7091 35.5091 39.3382 35.1488 39.0539 34.7181L39.0115 34.6538L38.97 34.7188C38.6951 35.1499 38.3253 35.5101 37.863 35.7961L37.7946 35.8385L37.8629 35.8811C38.3068 36.1575 38.6706 36.5314 38.9513 37.0004Z" fill="#323232" stroke="#FCFCFC" stroke-width="0.1"/>
</svg>
