<svg width="42" height="42" viewBox="0 0 42 42" fill="none" xmlns="http://www.w3.org/2000/svg">
<g id="Component 13">
<path id="Vector" d="M35.6765 6.33151L35.6765 6.33147C35.3685 6.02318 34.8686 6.02302 34.5601 6.33115L35.6765 6.33151ZM35.6765 6.33151C39.5936 10.2506 41.75 15.4593 41.75 21C41.75 32.4413 32.4413 41.75 21 41.75C9.55867 41.75 0.25 32.4413 0.25 21C0.25 9.55867 9.55867 0.25 21 0.25C23.5593 0.25 26.0577 0.710674 28.4265 1.61863C28.8338 1.77515 29.0372 2.23168 28.8812 2.63866C28.725 3.04592 28.2686 3.24967 27.8612 3.09333L27.8612 3.09331C25.6735 2.25421 23.3645 1.82921 21 1.82921C10.4289 1.82921 1.82921 10.4289 1.82921 21C1.82921 24.1133 2.57605 27.0556 3.89859 29.6579L4.01808 29.893L4.24647 29.7612L14.087 24.0795L14.2597 23.9797L14.2008 23.7892C13.9017 22.8211 13.4198 21.8978 12.7534 21.0771C11.3483 19.3466 10.5746 17.1659 10.5746 14.937C10.5746 12.7085 11.3487 10.5273 12.7534 8.79683C13.0283 8.45849 13.5255 8.40671 13.8641 8.68152C14.2025 8.95641 14.2541 9.45396 13.9795 9.79213L13.9794 9.79217C11.5589 12.7738 11.5589 17.1002 13.9794 20.0818C14.6637 20.9248 15.1975 21.8758 15.5659 22.887L15.6678 23.1669L15.9258 23.0179L19.8141 20.7731L20.047 20.6386L19.8959 20.4161C18.8031 18.8069 18.2083 16.8902 18.2083 14.937C18.2083 12.7081 18.9825 10.5273 20.3872 8.79683L20.3872 8.7968C20.6619 8.45825 21.159 8.40661 21.4978 8.68145C21.8362 8.95628 21.888 9.4535 21.6132 9.79217C19.3048 12.6358 19.1995 16.7004 21.2935 19.657L21.4251 19.8429L21.6225 19.729L25.9389 17.2368L26.0964 17.1458L26.0583 16.968C25.9161 16.3029 25.8421 15.622 25.8421 14.937C25.8421 12.7081 26.6159 10.5274 28.0205 8.79691C28.2957 8.45809 28.793 8.40672 29.1312 8.68145L29.1313 8.68152C29.47 8.95637 29.5217 9.45348 29.2467 9.79211L29.2466 9.79217C27.8143 11.5564 27.2305 13.791 27.4926 15.9383L27.5384 16.3135L27.8658 16.1245L36.9704 10.8676L37.1996 10.7352L37.0545 10.514C36.3377 9.42116 35.5046 8.39345 34.5597 7.44811L34.5596 7.44807M35.6765 6.33151L34.5596 7.44807M34.5596 7.44807C34.2513 7.13976 34.2515 6.63984 34.56 6.33124L34.5596 7.44807ZM14.5566 25.6319L14.5652 26.0549C14.6033 27.9359 14.0009 29.8293 12.7534 31.3664L12.7534 31.3664C12.4786 31.7048 12.5301 32.2023 12.8687 32.4771L12.8688 32.4771C13.015 32.5959 13.1907 32.6535 13.3658 32.6535C13.5963 32.6535 13.8235 32.5537 13.9795 32.3617C15.3841 30.6312 16.1579 28.4505 16.1579 26.2216C16.1579 25.7908 16.1282 25.3612 16.0715 24.936L16.0494 24.7701L16.1943 24.6865L20.7714 22.0436L20.9881 21.9185L21.1131 22.1353C22.7747 25.0188 22.5345 28.7207 20.3872 31.366C20.1123 31.7047 20.1639 32.2019 20.5025 32.4766L20.5026 32.4768C20.6493 32.596 20.8246 32.6535 20.9996 32.6535C21.2299 32.6535 21.4571 32.5535 21.6133 32.3613C23.0179 30.6312 23.7921 28.4501 23.7921 26.2216C23.7921 24.5069 23.3321 22.8208 22.4805 21.3455L22.3556 21.129L22.5721 21.004L26.3508 18.8225L26.5904 18.6841L26.7038 18.9365C27.0472 19.7004 27.4886 20.4209 28.021 21.0767C30.4415 24.0583 30.4415 28.3844 28.021 31.366C27.7461 31.7047 27.7977 32.2018 28.1362 32.4766L14.5566 25.6319ZM14.5566 25.6319L14.1903 25.8434M14.5566 25.6319L14.1903 25.8434M14.1903 25.8434L5.03972 31.1263L4.81062 31.2586L4.95562 31.4799C8.38205 36.7086 14.2933 40.1708 21 40.1708C31.5711 40.1708 40.1708 31.5711 40.1708 21C40.1708 17.9403 39.4578 14.9894 38.112 12.3366L37.9927 12.1012L37.7641 12.2332L28.1656 17.7747L27.9756 17.8845L28.0598 18.0872C28.3529 18.7928 28.7472 19.4659 29.247 20.0814L29.247 20.0815M14.1903 25.8434L29.247 20.0815M29.247 20.0815C30.6521 21.8115 31.4258 23.9926 31.4258 26.2212C31.4258 28.45 30.6517 30.6308 29.247 32.3613C29.0911 32.5533 28.8639 32.6531 28.6334 32.6531C28.4584 32.6531 28.283 32.5956 28.1363 32.4766L29.247 20.0815Z" fill="#323232" stroke="white" stroke-width="0.5"/>
<path id="Vector_2" d="M31.485 5.05632L31.485 5.0563L31.4826 5.05457C31.4726 5.04757 31.4611 5.0386 31.4479 5.02785C31.1108 4.7518 31.0261 4.20034 31.2817 3.80517L31.2817 3.80515C31.5211 3.43502 31.9517 3.36249 32.2658 3.59713L32.2784 3.60655C32.6157 3.86753 32.7183 4.40773 32.4784 4.81276C32.33 5.06312 32.0961 5.18538 31.8709 5.18538C31.7413 5.18538 31.6074 5.14506 31.485 5.05632ZM32.2928 3.61471C32.2936 3.61518 32.2931 3.61491 32.2917 3.61409L32.2928 3.61471Z" fill="#323232" stroke="white" stroke-width="0.5"/>
</g>
</svg>
