<svg width="32" height="32" viewBox="0 0 32 32" fill="none" xmlns="http://www.w3.org/2000/svg">
<g id="Group 1000006305">
<path id="Vector" d="M16.515 20.6452C16.515 17.5148 13.9679 14.9677 10.8376 14.9677C7.70725 14.9677 5.16016 17.5148 5.16016 20.6452C5.16016 23.7755 7.70725 26.3226 10.8376 26.3226C13.9679 26.3226 16.515 23.7755 16.515 20.6452ZM10.8376 25.2903C8.27603 25.2903 6.19241 23.2067 6.19241 20.6452C6.19241 18.0836 8.27603 16 10.8376 16C13.3991 16 15.4827 18.0836 15.4827 20.6452C15.4827 23.2067 13.3991 25.2903 10.8376 25.2903Z" fill="#323232"/>
<path id="Vector_2" d="M28.3871 24.7742H22.1774C21.9013 24.7742 21.6774 24.5503 21.6774 24.2742V22.308C21.6774 22.0032 22.0926 21.8634 22.3081 22.079C23.4152 23.1861 24.8686 23.7394 26.3226 23.7394C27.7765 23.7394 29.2304 23.1861 30.337 22.079C32.5507 19.8653 32.5507 16.2632 30.337 14.0495C28.1234 11.8359 24.5213 11.8359 22.3076 14.0495C22.0917 14.2654 21.6769 14.1258 21.6769 13.8205V12.9662C21.6769 11.7057 20.9543 10.5861 19.8565 10.0523C19.7121 9.98211 19.6124 9.84002 19.6124 9.67946C19.6124 9.46455 19.7866 9.29032 20.0015 9.29032H21.1769C21.453 9.29032 21.6769 9.06646 21.6769 8.79032V0.5C21.6769 0.223858 21.453 0 21.1769 0H0.5C0.223858 0 0 0.223858 0 0.5V8.79032C0 9.06646 0.223858 9.29032 0.5 9.29032H1.67501C1.89013 9.29032 2.06452 9.46471 2.06452 9.67983C2.06452 9.84049 1.96478 9.98268 1.82032 10.053C0.722555 10.5871 0 11.7062 0 12.9667V31.5C0 31.7761 0.223858 32 0.5 32H18.0645H18.5806H28.3871C30.3788 32 32 30.3788 32 28.3871C32 26.3954 30.3788 24.7742 28.3871 24.7742ZM29.6072 21.3492C28.0551 22.9013 25.6709 23.122 23.8803 22.0144C23.6269 21.8576 23.6083 21.5081 23.819 21.2974L29.5553 15.5611C29.7661 15.3503 30.1157 15.369 30.2724 15.6225C31.3795 17.4135 31.1589 19.7975 29.6072 21.3492ZM23.0379 14.7799C23.9437 13.8741 25.1334 13.4214 26.3226 13.4214C27.1711 13.4214 28.0192 13.6528 28.7645 14.1142C29.0179 14.271 29.0364 14.6204 28.8257 14.8311L23.0893 20.5674C22.8786 20.7782 22.529 20.7595 22.3723 20.506C21.2656 18.7154 21.4863 16.3315 23.0379 14.7799ZM1.53226 8.25806C1.25611 8.25806 1.03226 8.03421 1.03226 7.75806V1.53226C1.03226 1.25612 1.25612 1.03226 1.53226 1.03226H1.56452C1.84066 1.03226 2.06452 1.25612 2.06452 1.53226V6.72581C2.06452 7.00195 2.28837 7.22581 2.56452 7.22581H2.59677C2.87292 7.22581 3.09677 7.00195 3.09677 6.72581V1.53226C3.09677 1.25612 3.32063 1.03226 3.59677 1.03226H3.62903C3.90517 1.03226 4.12903 1.25612 4.12903 1.53226V6.72581C4.12903 7.00195 4.35289 7.22581 4.62903 7.22581H4.66129C4.93743 7.22581 5.16129 7.00195 5.16129 6.72581V1.53226C5.16129 1.25612 5.38515 1.03226 5.66129 1.03226H5.69355C5.96969 1.03226 6.19355 1.25612 6.19355 1.53226V6.72581C6.19355 7.00195 6.41741 7.22581 6.69355 7.22581H6.72581C7.00195 7.22581 7.22581 7.00195 7.22581 6.72581V1.53226C7.22581 1.25612 7.44966 1.03226 7.72581 1.03226H7.75806C8.03421 1.03226 8.25806 1.25612 8.25806 1.53226V6.72581C8.25806 7.00195 8.48192 7.22581 8.75806 7.22581H8.79032C9.06646 7.22581 9.29032 7.00195 9.29032 6.72581V1.53226C9.29032 1.25612 9.51418 1.03226 9.79032 1.03226H9.82258C10.0987 1.03226 10.3226 1.25612 10.3226 1.53226V6.72581C10.3226 7.00195 10.5464 7.22581 10.8226 7.22581H10.8548C11.131 7.22581 11.3548 7.00195 11.3548 6.72581V1.53226C11.3548 1.25612 11.5787 1.03226 11.8548 1.03226H11.8871C12.1632 1.03226 12.3871 1.25612 12.3871 1.53226V6.72581C12.3871 7.00195 12.611 7.22581 12.8871 7.22581H12.9194C13.1955 7.22581 13.4194 7.00195 13.4194 6.72581V4.12903V1.53226C13.4194 1.25612 13.6432 1.03226 13.9194 1.03226H13.9516C14.2278 1.03226 14.4516 1.25612 14.4516 1.53226V6.72581C14.4516 7.00195 14.6755 7.22581 14.9516 7.22581H14.9839C15.26 7.22581 15.4839 7.00195 15.4839 6.72581V1.53226C15.4839 1.25612 15.7077 1.03226 15.9839 1.03226H16.0161C16.2923 1.03226 16.5161 1.25612 16.5161 1.53226V6.72581C16.5161 7.00195 16.74 7.22581 17.0161 7.22581H17.0484C17.3245 7.22581 17.5484 7.00195 17.5484 6.72581V1.53226C17.5484 1.25612 17.7722 1.03226 18.0484 1.03226H18.0806C18.3568 1.03226 18.5806 1.25612 18.5806 1.53226V6.72581C18.5806 7.00195 18.8045 7.22581 19.0806 7.22581H19.1129C19.389 7.22581 19.6129 7.00195 19.6129 6.72581V1.53226C19.6129 1.25612 19.8368 1.03226 20.1129 1.03226H20.1452C20.4213 1.03226 20.6452 1.25612 20.6452 1.53226V7.75806C20.6452 8.03421 20.4213 8.25806 20.1452 8.25806H1.53226ZM2.70555 10.8232L2.71834 10.82C2.94078 10.7643 3.09677 10.5643 3.09677 10.335V9.79032C3.09677 9.51418 3.32063 9.29032 3.59677 9.29032H18.0806C18.3568 9.29032 18.5806 9.51418 18.5806 9.79032V10.3345C18.5806 10.5641 18.7369 10.7641 18.9597 10.8197L18.9719 10.8227C19.7661 11.0212 20.3641 11.6329 20.5664 12.3945C20.6387 12.6668 20.4072 12.9027 20.1254 12.9027H1.55199C1.27022 12.9027 1.03869 12.6668 1.11111 12.3945C1.31357 11.6333 1.91178 11.0217 2.70555 10.8232ZM1.03226 14.4355C1.03226 14.1593 1.25612 13.9355 1.53226 13.9355H20.1452C20.4213 13.9355 20.6452 14.1593 20.6452 14.4355V24.2742C20.6452 24.5503 20.4213 24.7742 20.1452 24.7742H18.0645C16.5625 24.7742 15.2727 25.6963 14.7288 27.0041C14.644 27.2081 14.4524 27.3548 14.2314 27.3548H1.53226C1.25612 27.3548 1.03226 27.131 1.03226 26.8548V14.4355ZM1.53226 30.9677C1.25612 30.9677 1.03226 30.7439 1.03226 30.4677V28.8871C1.03226 28.611 1.25612 28.3871 1.53226 28.3871H13.9516C14.2278 28.3871 14.448 28.6121 14.486 28.8856C14.5399 29.2735 14.6558 29.6418 14.8233 29.9803C15.022 30.382 14.7627 30.9677 14.3145 30.9677H1.53226ZM22.7097 30.4677C22.7097 30.7439 22.4858 30.9677 22.2097 30.9677H18.5806H18.0645C16.6415 30.9677 15.4839 29.8101 15.4839 28.3871C15.4839 26.9641 16.6415 25.8064 18.0645 25.8064H22.2097C22.4858 25.8064 22.7097 26.0303 22.7097 26.3064V30.4677ZM28.3871 30.9677H24.2419C23.9658 30.9677 23.7419 30.7439 23.7419 30.4677V26.3064C23.7419 26.0303 23.9658 25.8064 24.2419 25.8064H28.3871C29.8101 25.8064 30.9677 26.9641 30.9677 28.3871C30.9677 29.8101 29.8101 30.9677 28.3871 30.9677Z" fill="#323232"/>
<path id="Vector_3" d="M12.8859 19.0968C12.6098 19.0968 12.3859 18.8729 12.3859 18.5968V17.5323C12.3859 17.2561 12.162 17.0323 11.8859 17.0323H9.78913C9.51298 17.0323 9.28913 17.2561 9.28913 17.5323V18.5968C9.28913 18.8729 9.06527 19.0968 8.78913 19.0968H7.72461C7.44847 19.0968 7.22461 19.3206 7.22461 19.5968V21.6935C7.22461 21.9697 7.44847 22.1935 7.72461 22.1935H8.78912C9.06527 22.1935 9.28913 22.4174 9.28913 22.6935V23.7581C9.28913 24.0342 9.51298 24.2581 9.78913 24.2581H11.8859C12.162 24.2581 12.3859 24.0342 12.3859 23.7581V22.6935C12.3859 22.4174 12.6098 22.1935 12.8859 22.1935H13.9504C14.2266 22.1935 14.4504 21.9697 14.4504 21.6935V19.5968C14.4504 19.3206 14.2266 19.0968 13.9504 19.0968H12.8859ZM13.4182 20.6613C13.4182 20.9374 13.1943 21.1613 12.9182 21.1613H11.8536C11.5775 21.1613 11.3536 21.3851 11.3536 21.6613V22.7258C11.3536 23.0019 11.1298 23.2258 10.8536 23.2258H10.8214C10.5452 23.2258 10.3214 23.0019 10.3214 22.7258V21.6613C10.3214 21.3851 10.0975 21.1613 9.82138 21.1613H8.75687C8.48073 21.1613 8.25687 20.9374 8.25687 20.6613V20.629C8.25687 20.3529 8.48073 20.129 8.75687 20.129H9.82138C10.0975 20.129 10.3214 19.9052 10.3214 19.629V18.5645C10.3214 18.2884 10.5452 18.0645 10.8214 18.0645H10.8536C11.1298 18.0645 11.3536 18.2884 11.3536 18.5645V19.629C11.3536 19.9052 11.5775 20.129 11.8536 20.129H12.9182C13.1943 20.129 13.4182 20.3529 13.4182 20.629V20.6613Z" fill="#323232"/>
</g>
</svg>
