<svg width="35" height="35" viewBox="0 0 35 35" fill="none" xmlns="http://www.w3.org/2000/svg">
<g id="Group">
<g id="Group_2">
<path id="Vector" d="M30.3348 24.4031V24.4897L30.4206 24.5021C32.9497 24.8655 34.9 27.0461 34.9 29.6739V34.2392C34.9 34.6041 34.6041 34.9 34.2392 34.9H6.84783C6.48292 34.9 6.18699 34.6041 6.18699 34.2392C6.18699 33.8742 6.48292 33.5783 6.84783 33.5783H33.4783H33.5783V33.4783V30.4348V30.3348H33.4783H1.52175H1.42175V30.4348V33.4783V33.5783H1.52175H2.28252C2.64743 33.5783 2.94336 33.8742 2.94336 34.2392C2.94336 34.6041 2.64743 34.9 2.28252 34.9H0.76084C0.395925 34.9 0.1 34.6041 0.1 34.2392V29.6739C0.1 27.0461 2.05034 24.8655 4.57948 24.5018L4.66524 24.4895V24.4028V20.5433C4.66524 20.1783 4.96117 19.8824 5.32608 19.8824H12.1677H12.2701L12.2677 19.78C12.2041 17.1499 11.5252 14.6141 10.2906 12.4229C9.57068 11.1451 9.20455 9.68906 9.23197 8.21236C9.27189 6.06505 10.1386 4.0417 11.673 2.51459C13.2073 0.987692 15.2348 0.130668 17.3824 0.100817C19.6176 0.0699459 21.7183 0.915104 23.3064 2.48148L23.3767 2.41028L23.3064 2.48149C24.895 4.04808 25.7696 6.13891 25.7696 8.36971C25.7696 9.74697 25.4238 11.1107 24.7701 12.3134C23.4929 14.6632 22.7921 17.2369 22.732 19.7803L22.7296 19.8827H22.832H29.674C30.0389 19.8827 30.3348 20.1786 30.3348 20.5435V24.4031ZM17.4009 1.42244L17.4008 1.42244C13.6935 1.47405 10.6224 4.5304 10.5534 8.23701L10.6534 8.23887L10.5534 8.23701C10.5304 9.47811 10.8377 10.7012 11.4422 11.7743C12.7877 14.1627 13.5279 16.9241 13.5912 19.7848L13.5934 19.8826H13.6912H21.3082H21.4061L21.4082 19.7848C21.4676 17.0221 22.2251 14.228 23.609 11.6822C24.1578 10.6722 24.4479 9.52684 24.4479 8.36957C24.4479 6.49567 23.7128 4.73841 22.3784 3.42251C21.0442 2.10674 19.277 1.3981 17.4009 1.42244ZM6.08699 21.2044H5.98699V21.3044V24.3479V24.4479H6.08699H28.9131H29.0131V24.3479V21.3044V21.2044H28.9131H22.0652H12.9348H6.08699ZM1.50026 28.8931L1.4758 29.0131H1.59824H33.4019H33.5243L33.4999 28.8931C33.1371 27.1132 31.5598 25.7696 29.674 25.7696H5.32615C3.44045 25.7696 1.86303 27.1132 1.50026 28.8931Z" fill="#323232" stroke="#F2F2F2" stroke-width="0.2"/>
</g>
</g>
</svg>
