<svg width="44" height="40" viewBox="0 0 44 40" fill="none" xmlns="http://www.w3.org/2000/svg">
<path d="M31.2202 23.4964L31.2202 23.4965C32.6894 29.3633 28.1559 34.5 22.0027 34.5C15.8464 34.5 11.2981 29.4369 12.7853 23.4964L12.7853 23.4964C13.0129 22.5867 13.4755 21.5392 14.1223 20.3077C14.6695 19.2657 15.3357 18.1156 16.0819 16.8271C16.2163 16.5951 16.3533 16.3585 16.4927 16.1173C18.1716 13.2118 20.17 9.67153 22.0028 5.31601C23.8355 9.67107 25.8339 13.2113 27.5128 16.117C27.6519 16.3578 27.7887 16.594 27.923 16.8258C28.6695 18.1147 29.3358 19.2652 29.8832 20.3075C30.53 21.5392 30.9925 22.5867 31.2202 23.4964Z" stroke="#323232"/>
<path d="M38.875 3.8573L40.6084 2.00006" stroke="#323232" stroke-width="1.2" stroke-linecap="round"/>
<path d="M33.4277 9.55261L35.1612 7.69537" stroke="#323232" stroke-width="1.2" stroke-linecap="round"/>
<path d="M35.1602 3.8573L33.4267 2.00006" stroke="#323232" stroke-width="1.2" stroke-linecap="round"/>
<path d="M40.6074 9.55261L38.874 7.69537" stroke="#323232" stroke-width="1.2" stroke-linecap="round"/>
<path d="M6.44824 32.8571L8.18166 30.9999" stroke="#323232" stroke-width="1.2" stroke-linecap="round"/>
<path d="M1.00098 38.5524L2.7344 36.6952" stroke="#323232" stroke-width="1.2" stroke-linecap="round"/>
<path d="M2.7334 32.8571L0.999979 30.9999" stroke="#323232" stroke-width="1.2" stroke-linecap="round"/>
<path d="M8.18066 38.5524L6.44724 36.6952" stroke="#323232" stroke-width="1.2" stroke-linecap="round"/>
</svg>
