<svg width="58" height="60" viewBox="0 0 58 60" fill="none" xmlns="http://www.w3.org/2000/svg">
<mask id="path-1-inside-1_2298_605" fill="white">
<path d="M22.2807 16.2254C21.8193 16.1113 21.3529 16.3888 21.2379 16.8451C20.2124 20.9104 18.8101 23.8436 17.786 25.9853C17.5214 26.5389 17.2928 27.0171 17.0959 27.4606C15.5626 30.9162 14.8453 34.9004 14.9638 39.3026C15.1151 44.9258 16.6272 51.4082 19.4577 58.5698C19.5904 58.9058 19.9151 59.1112 20.2589 59.1112C20.363 59.1112 20.4691 59.0923 20.572 59.0524C21.0143 58.8811 21.2326 58.3874 21.0596 57.9495C16.1788 45.6004 15.3751 35.5727 18.6709 28.1451C18.858 27.7236 19.0818 27.2554 19.341 26.7135C20.3956 24.5073 21.8401 21.4861 22.9067 17.2574C23.022 16.8013 22.7416 16.3393 22.2807 16.2254ZM24.0002 1.76709C23.9531 1.29926 23.5307 0.956951 23.059 1.00451C22.5863 1.05115 22.2414 1.46814 22.2885 1.93598C22.6654 5.67833 22.5724 9.41046 22.0119 13.0289C21.9399 13.4936 22.2622 13.928 22.7316 13.9993C22.7759 14.0061 22.8197 14.0093 22.863 14.0093C23.2805 14.0093 23.6469 13.7079 23.712 13.287C24.2946 9.52736 24.3915 5.65154 24.0002 1.76709ZM37.9039 37.9923C37.5055 37.7369 36.9726 37.8498 36.7147 38.2447C36.219 39.003 35.6404 39.7106 34.995 40.348C34.4821 40.8546 33.9245 41.3193 33.3323 41.7341C32.6472 41.2944 32.0185 40.7769 31.4584 40.1915C30.9059 39.6139 30.4217 38.9713 30.0192 38.2814C29.7818 37.8742 29.2558 37.7349 28.8443 37.9698C28.4329 38.2047 28.292 38.7254 28.5295 39.1326C28.9992 39.9377 29.5642 40.6878 30.2092 41.362C30.8899 42.0736 31.6577 42.6979 32.4955 43.2242V58.2597C32.4955 58.73 32.8804 59.111 33.3556 59.111C33.8307 59.111 34.2157 58.73 34.2157 58.2597V43.1991C34.9276 42.7101 35.5972 42.1583 36.2102 41.5529C36.9417 40.8305 37.5973 40.0284 38.1589 39.1691C38.4168 38.7745 38.3027 38.2475 37.9039 37.9923ZM49.8514 47.3952C49.3891 47.2885 48.9265 47.5741 48.8192 48.032C48.0926 51.1324 47.0268 54.4693 45.6513 57.9495C45.4783 58.3873 45.6966 58.8811 46.1389 59.0524C46.2418 59.0923 46.3478 59.1112 46.452 59.1112C46.7957 59.1112 47.1205 58.9058 47.2532 58.5698C48.6589 55.013 49.7496 51.597 50.4948 48.4167C50.6022 47.9587 50.3141 47.5014 49.8514 47.3952ZM49.615 27.4606C49.4181 27.0171 49.1895 26.5389 48.9247 25.9852C47.774 23.5782 46.035 19.9407 45.0123 14.8C44.1818 10.6243 43.9833 6.29621 44.4225 1.93587C44.4697 1.46803 44.1247 1.05104 43.652 1.00439C43.1792 0.956951 42.7579 1.29926 42.7108 1.76698C42.2547 6.2936 42.4613 10.7891 43.3246 15.1289C44.3885 20.4775 46.1826 24.23 47.3698 26.7132C47.629 27.2553 47.8528 27.7235 48.0399 28.1451C50.0075 32.5797 50.5228 37.973 49.5713 44.175C49.5 44.6398 49.8229 45.0738 50.2925 45.1444C50.7516 45.2134 51.2001 44.8991 51.272 44.4306C52.2734 37.9048 51.7157 32.1952 49.615 27.4606Z"/>
</mask>
<path d="M22.2807 16.2254C21.8193 16.1113 21.3529 16.3888 21.2379 16.8451C20.2124 20.9104 18.8101 23.8436 17.786 25.9853C17.5214 26.5389 17.2928 27.0171 17.0959 27.4606C15.5626 30.9162 14.8453 34.9004 14.9638 39.3026C15.1151 44.9258 16.6272 51.4082 19.4577 58.5698C19.5904 58.9058 19.9151 59.1112 20.2589 59.1112C20.363 59.1112 20.4691 59.0923 20.572 59.0524C21.0143 58.8811 21.2326 58.3874 21.0596 57.9495C16.1788 45.6004 15.3751 35.5727 18.6709 28.1451C18.858 27.7236 19.0818 27.2554 19.341 26.7135C20.3956 24.5073 21.8401 21.4861 22.9067 17.2574C23.022 16.8013 22.7416 16.3393 22.2807 16.2254ZM24.0002 1.76709C23.9531 1.29926 23.5307 0.956951 23.059 1.00451C22.5863 1.05115 22.2414 1.46814 22.2885 1.93598C22.6654 5.67833 22.5724 9.41046 22.0119 13.0289C21.9399 13.4936 22.2622 13.928 22.7316 13.9993C22.7759 14.0061 22.8197 14.0093 22.863 14.0093C23.2805 14.0093 23.6469 13.7079 23.712 13.287C24.2946 9.52736 24.3915 5.65154 24.0002 1.76709ZM37.9039 37.9923C37.5055 37.7369 36.9726 37.8498 36.7147 38.2447C36.219 39.003 35.6404 39.7106 34.995 40.348C34.4821 40.8546 33.9245 41.3193 33.3323 41.7341C32.6472 41.2944 32.0185 40.7769 31.4584 40.1915C30.9059 39.6139 30.4217 38.9713 30.0192 38.2814C29.7818 37.8742 29.2558 37.7349 28.8443 37.9698C28.4329 38.2047 28.292 38.7254 28.5295 39.1326C28.9992 39.9377 29.5642 40.6878 30.2092 41.362C30.8899 42.0736 31.6577 42.6979 32.4955 43.2242V58.2597C32.4955 58.73 32.8804 59.111 33.3556 59.111C33.8307 59.111 34.2157 58.73 34.2157 58.2597V43.1991C34.9276 42.7101 35.5972 42.1583 36.2102 41.5529C36.9417 40.8305 37.5973 40.0284 38.1589 39.1691C38.4168 38.7745 38.3027 38.2475 37.9039 37.9923ZM49.8514 47.3952C49.3891 47.2885 48.9265 47.5741 48.8192 48.032C48.0926 51.1324 47.0268 54.4693 45.6513 57.9495C45.4783 58.3873 45.6966 58.8811 46.1389 59.0524C46.2418 59.0923 46.3478 59.1112 46.452 59.1112C46.7957 59.1112 47.1205 58.9058 47.2532 58.5698C48.6589 55.013 49.7496 51.597 50.4948 48.4167C50.6022 47.9587 50.3141 47.5014 49.8514 47.3952ZM49.615 27.4606C49.4181 27.0171 49.1895 26.5389 48.9247 25.9852C47.774 23.5782 46.035 19.9407 45.0123 14.8C44.1818 10.6243 43.9833 6.29621 44.4225 1.93587C44.4697 1.46803 44.1247 1.05104 43.652 1.00439C43.1792 0.956951 42.7579 1.29926 42.7108 1.76698C42.2547 6.2936 42.4613 10.7891 43.3246 15.1289C44.3885 20.4775 46.1826 24.23 47.3698 26.7132C47.629 27.2553 47.8528 27.7235 48.0399 28.1451C50.0075 32.5797 50.5228 37.973 49.5713 44.175C49.5 44.6398 49.8229 45.0738 50.2925 45.1444C50.7516 45.2134 51.2001 44.8991 51.272 44.4306C52.2734 37.9048 51.7157 32.1952 49.615 27.4606Z" fill="#323232"/>
<path d="M40.9234 24.0859L40.7799 24.0423L40.744 24.1602L40.8528 24.2183L40.9234 24.0859ZM40.0337 20.5802L40.1392 20.4736L40.1392 20.4736L40.0337 20.5802ZM25.5125 30.1291L25.5944 30.0034L25.5943 30.0034L25.5125 30.1291ZM25.7885 30.29L25.932 30.3337L25.9679 30.2156L25.859 30.1576L25.7885 30.29ZM26.6771 33.7987L26.7826 33.6921L26.7826 33.692L26.6771 33.7987ZM30.2226 34.6784L30.3545 34.6069L30.2964 34.4997L30.1797 34.5347L30.2226 34.6784ZM30.3851 34.9517L30.2601 35.0346L30.2602 35.0347L30.3851 34.9517ZM36.4902 34.6772L36.5331 34.5335L36.4165 34.4987L36.3584 34.6057L36.4902 34.6772ZM36.8009 34.7568L36.7709 34.9038L36.7709 34.9038L36.8009 34.7568ZM37.5236 34.8301V34.9801H37.5236L37.5236 34.8301ZM40.0334 33.7988L39.9279 33.6922L39.9279 33.6922L40.0334 33.7988ZM40.9223 30.2898L40.8519 30.1573L40.7427 30.2153L40.7788 30.3336L40.9223 30.2898ZM41.1981 30.129L41.2799 30.2547L41.2799 30.2547L41.1981 30.129ZM42.7991 27.1894L42.6491 27.1893V27.1894H42.7991ZM36.6203 22.7548L36.7578 22.8148L36.7578 22.8146L36.6203 22.7548ZM36.9141 21.3605H37.0642L37.064 21.3551L36.9141 21.3605ZM36.914 21.3573L36.8659 21.2152L36.76 21.251L36.7641 21.3627L36.914 21.3573ZM38.8173 21.7842L38.9228 21.6776L38.9228 21.6775L38.8173 21.7842ZM39.251 23.6679V23.8179H39.3573L39.3925 23.7176L39.251 23.6679ZM36.2896 23.5127L36.1522 23.4528L36.1053 23.5602L36.1982 23.6317L36.2896 23.5127ZM35.0407 22.0807L35.1782 22.1407L35.1782 22.1406L35.0407 22.0807ZM34.7571 22.731L34.7145 22.8748L34.8416 22.9124L34.8946 22.7909L34.7571 22.731ZM31.9675 22.7622L31.83 22.8221L31.8841 22.9464L32.0133 22.905L31.9675 22.7622ZM29.8006 21.3559L29.9506 21.3561L29.9507 21.2493L29.8498 21.2142L29.8006 21.3559ZM30.091 22.7554L29.9534 22.8153L29.9535 22.8153L30.091 22.7554ZM30.4503 23.5796L30.5444 23.6964L30.6335 23.6246L30.5878 23.5196L30.4503 23.5796ZM29.717 24.3183L29.6581 24.4563L29.7633 24.5012L29.8344 24.4117L29.717 24.3183ZM28.8746 23.9586L28.9335 23.8206L28.9334 23.8206L28.8746 23.9586ZM27.4656 23.6678V23.5177L27.4603 23.5179L27.4656 23.6678ZM26.458 28.7069L26.3762 28.8326L26.3762 28.8326L26.458 28.7069ZM28.9161 28.5487L28.975 28.6867L29.0993 28.6336L29.0594 28.5044L28.9161 28.5487ZM28.1939 28.8571L28.135 28.7192L28.1347 28.7193L28.1939 28.8571ZM29.8006 33.0234L29.8497 33.1651L29.9507 33.1301L29.9506 33.0232L29.8006 33.0234ZM27.8938 32.595L27.9994 32.4884L27.9993 32.4884L27.8938 32.595ZM27.4631 30.7094L27.4724 30.5597L27.3587 30.5526L27.3214 30.6602L27.4631 30.7094ZM27.4649 30.7095L27.4555 30.8595H27.4649V30.7095ZM28.8752 30.4205L28.9341 30.5585L28.9341 30.5585L28.8752 30.4205ZM31.8225 34.016L31.6976 34.0991L31.6976 34.0991L31.8225 34.016ZM31.6706 32.2981L31.5331 32.2382L31.5331 32.2382L31.6706 32.2981ZM34.2157 32.6102L34.0765 32.6661L34.0765 32.6661L34.2157 32.6102ZM35.008 33.8007L35.1425 33.8671L35.1904 33.7701L35.1135 33.6941L35.008 33.8007ZM38.8173 32.5951L38.9228 32.7018L38.9228 32.7017L38.8173 32.5951ZM37.1489 33.0896L37.1791 32.9427L37.179 32.9427L37.1489 33.0896ZM37.8362 30.4205L37.7773 30.5585L37.7774 30.5585L37.8362 30.4205ZM39.2461 30.7094V30.8594L39.2499 30.8593L39.2461 30.7094ZM39.2506 30.7093L39.392 30.6593L39.3557 30.5565L39.2467 30.5593L39.2506 30.7093ZM37.8961 25.7872L37.8372 25.6493L37.7116 25.7029L37.7532 25.8329L37.8961 25.7872ZM38.5167 25.5221L38.4579 25.3841L38.4578 25.3842L38.5167 25.5221ZM41.079 27.1895H40.929V27.1895L41.079 27.1895ZM33.3556 26.1884C32.7992 26.1884 32.3455 26.6352 32.3455 27.1896H32.6455C32.6455 26.8038 32.9619 26.4884 33.3556 26.4884V26.1884ZM34.3657 27.1896C34.3657 26.6352 33.9119 26.1884 33.3556 26.1884V26.4884C33.7492 26.4884 34.0657 26.8038 34.0657 27.1896H34.3657ZM41.0669 24.1295C41.1715 23.7856 41.2258 23.4262 41.2258 23.0606H40.9258C40.9258 23.3964 40.876 23.7264 40.7799 24.0423L41.0669 24.1295ZM41.2258 23.0606C41.2258 22.0855 40.8392 21.1665 40.1392 20.4736L39.9282 20.6868C40.572 21.3241 40.9258 22.1667 40.9258 23.0606H41.2258ZM40.1392 20.4736C39.1553 19.5001 37.7274 19.1764 36.4488 19.556L36.5342 19.8436C37.7113 19.4941 39.0247 19.7928 39.9282 20.6868L40.1392 20.4736ZM25.717 23.9534C24.555 24.5728 23.7614 25.7902 23.7614 27.1895H24.0614C24.0614 25.9068 24.7887 24.7882 25.8582 24.2182L25.717 23.9534ZM23.7614 27.1895C23.7614 28.4287 24.386 29.5746 25.4306 30.2548L25.5943 30.0034C24.634 29.3781 24.0614 28.3264 24.0614 27.1895H23.7614ZM25.4306 30.2548C25.5255 30.3165 25.6222 30.3714 25.718 30.4224L25.859 30.1576C25.7677 30.109 25.6793 30.0587 25.5944 30.0034L25.4306 30.2548ZM25.645 30.2463C25.2592 31.5145 25.5867 32.9306 26.5715 33.9053L26.7826 33.692C25.8786 32.7974 25.5779 31.4977 25.932 30.3337L25.645 30.2463ZM26.5715 33.9053C27.2715 34.5981 28.1994 34.9801 29.1833 34.9801V34.6801C28.2786 34.6801 27.4265 34.3294 26.7826 33.6921L26.5715 33.9053ZM29.1833 34.9801C29.5535 34.9801 29.9173 34.9262 30.2656 34.8221L30.1797 34.5347C29.8591 34.6305 29.5243 34.6801 29.1833 34.6801V34.9801ZM30.0907 34.7498C30.1423 34.8451 30.1979 34.9408 30.2601 35.0346L30.5101 34.8687C30.4543 34.7846 30.4034 34.6971 30.3545 34.6069L30.0907 34.7498ZM30.2602 35.0347C30.9478 36.0689 32.1052 36.686 33.3552 36.686V36.386C32.2047 36.386 31.1415 35.8184 30.51 34.8686L30.2602 35.0347ZM33.3552 36.686C34.7466 36.686 35.989 35.9148 36.622 34.7488L36.3584 34.6057C35.7769 35.6767 34.6347 36.386 33.3552 36.386V36.686ZM36.4473 34.821C36.552 34.8522 36.6597 34.881 36.7709 34.9038L36.8309 34.6098C36.7311 34.5894 36.6324 34.5631 36.5331 34.5335L36.4473 34.821ZM36.7709 34.9038C37.0215 34.9549 37.2734 34.9801 37.5236 34.9801V34.6801C37.2936 34.6801 37.0617 34.657 36.8309 34.6098L36.7709 34.9038ZM37.5236 34.9801C38.495 34.98 39.4356 34.6014 40.1389 33.9054L39.9279 33.6922C39.2814 34.332 38.4169 34.68 37.5236 34.6801L37.5236 34.9801ZM40.1389 33.9054C40.839 33.2126 41.2256 32.2935 41.2256 31.3184H40.9256C40.9256 32.2124 40.5718 33.055 39.9279 33.6922L40.1389 33.9054ZM41.2256 31.3184C41.2256 30.9515 41.1711 30.591 41.0657 30.246L40.7788 30.3336C40.8755 30.6503 40.9256 30.9814 40.9256 31.3184H41.2256ZM40.9926 30.4222C41.0887 30.3712 41.1853 30.3163 41.2799 30.2547L41.1162 30.0032C41.0313 30.0585 40.9429 30.1089 40.8519 30.1573L40.9926 30.4222ZM41.2799 30.2547C42.3246 29.5745 42.9491 28.4285 42.9491 27.1894H42.6491C42.6491 28.3262 42.0766 29.378 41.1162 30.0033L41.2799 30.2547ZM42.9491 27.1894C42.9494 25.7904 42.1559 24.5729 40.994 23.9535L40.8528 24.2183C41.9221 24.7883 42.6493 25.9069 42.6491 27.1893L42.9491 27.1894ZM36.7578 22.8146C36.9608 22.3481 37.0641 21.8586 37.0641 21.3605H36.7641C36.7641 21.8164 36.6697 22.2653 36.4827 22.695L36.7578 22.8146ZM37.064 21.3551L37.0639 21.3519L36.7641 21.3627L36.7642 21.3659L37.064 21.3551ZM36.962 21.4994C37.5146 21.3126 38.1992 21.3836 38.7118 21.8908L38.9228 21.6775C38.3166 21.0777 37.5078 20.9982 36.8659 21.2152L36.962 21.4994ZM38.7118 21.8908C39.0309 22.2066 39.2055 22.6218 39.2055 23.0606H39.5055C39.5055 22.5401 39.2977 22.0486 38.9228 21.6776L38.7118 21.8908ZM39.2055 23.0606C39.2055 23.2521 39.1722 23.4399 39.1095 23.6181L39.3925 23.7176C39.4661 23.5084 39.5055 23.2871 39.5055 23.0606H39.2055ZM39.251 23.5179C39.2521 23.5179 39.2523 23.5179 39.2511 23.5179C39.2508 23.5179 39.2505 23.5179 39.2502 23.5179C39.2501 23.5178 39.25 23.5178 39.25 23.5178C39.25 23.5178 39.25 23.5178 39.25 23.5178C39.25 23.5178 39.25 23.5178 39.25 23.5178C39.25 23.5178 39.25 23.5178 39.25 23.5178C39.25 23.5178 39.25 23.5178 39.25 23.5178C39.25 23.5178 39.25 23.5178 39.25 23.5178H39.25C39.25 23.5178 39.25 23.5178 39.2454 23.6678C39.2408 23.8177 39.2408 23.8177 39.2408 23.8177H39.2408C39.2408 23.8177 39.2408 23.8177 39.2408 23.8177C39.2408 23.8177 39.2408 23.8177 39.2408 23.8177C39.2408 23.8177 39.2408 23.8177 39.2409 23.8177C39.2409 23.8177 39.2409 23.8177 39.2409 23.8177C39.241 23.8177 39.2411 23.8177 39.2411 23.8177C39.2413 23.8177 39.2415 23.8177 39.2418 23.8177C39.2423 23.8177 39.243 23.8178 39.2439 23.8178C39.245 23.8178 39.2481 23.8179 39.251 23.8179V23.5179ZM37.0796 24.2816C37.1903 24.1804 37.1903 24.1803 37.1903 24.1803C37.1903 24.1803 37.1902 24.1803 37.1902 24.1803C37.1902 24.1803 37.1902 24.1803 37.1901 24.1802C37.1901 24.1801 37.19 24.18 37.1898 24.1799C37.1896 24.1796 37.1892 24.1792 37.1887 24.1786C37.1877 24.1775 37.1862 24.176 37.1843 24.1739C37.1805 24.1697 37.1749 24.1637 37.1677 24.1559C37.1533 24.1403 37.1325 24.1179 37.1066 24.0904C37.0549 24.0353 36.9828 23.9595 36.9015 23.8765C36.7408 23.7126 36.5367 23.5134 36.3811 23.3938L36.1982 23.6317C36.3353 23.737 36.5262 23.9222 36.6873 24.0865C36.7668 24.1676 36.8373 24.2418 36.888 24.2958C36.9133 24.3227 36.9336 24.3446 36.9475 24.3596C36.9545 24.3672 36.9599 24.373 36.9635 24.3769C36.9653 24.3789 36.9667 24.3804 36.9676 24.3814C36.968 24.3819 36.9683 24.3822 36.9686 24.3825C36.9687 24.3826 36.9688 24.3827 36.9688 24.3827C36.9688 24.3827 36.9688 24.3828 36.9689 24.3828C36.9689 24.3828 36.9689 24.3828 36.9689 24.3828C36.9689 24.3828 36.9689 24.3828 37.0796 24.2816ZM36.4271 23.5727L36.7578 22.8148L36.4828 22.6948L36.1522 23.4528L36.4271 23.5727ZM33.3556 19.6956C34.1921 19.6956 35.0439 20.4087 35.0439 21.3604H35.3439C35.3439 20.2242 34.3383 19.3956 33.3556 19.3956V19.6956ZM35.0439 21.3604C35.0439 21.5832 34.9969 21.8055 34.9031 22.0209L35.1782 22.1406C35.2877 21.8891 35.3439 21.6261 35.3439 21.3604H35.0439ZM34.9032 22.0208L34.6196 22.671L34.8946 22.7909L35.1782 22.1407L34.9032 22.0208ZM34.7996 22.5871C34.36 22.4571 33.8947 22.3862 33.4129 22.3862V22.6862C33.8651 22.6862 34.3018 22.7527 34.7145 22.8748L34.7996 22.5871ZM33.4129 22.3862C32.8927 22.3862 32.3917 22.4686 31.9217 22.6193L32.0133 22.905C32.4545 22.7636 32.9246 22.6862 33.4129 22.6862V22.3862ZM32.105 22.7022L31.8082 22.0213L31.5332 22.1411L31.83 22.8221L32.105 22.7022ZM29.1835 21.4014C29.3788 21.4014 29.5702 21.4348 29.7514 21.4977L29.8498 21.2142C29.6377 21.1407 29.4132 21.1014 29.1835 21.1014V21.4014ZM29.6506 21.3558C29.65 21.8495 29.749 22.3459 29.9534 22.8153L30.2285 22.6955C30.0409 22.2648 29.9501 21.8094 29.9506 21.3561L29.6506 21.3558ZM29.9535 22.8153L30.3128 23.6395L30.5878 23.5196L30.2285 22.6954L29.9535 22.8153ZM30.3562 23.4628C30.0762 23.6883 29.8227 23.9443 29.5996 24.225L29.8344 24.4117C30.0439 24.1481 30.2819 23.9079 30.5444 23.6964L30.3562 23.4628ZM29.7759 24.1804L28.9335 23.8206L28.8156 24.0965L29.6581 24.4563L29.7759 24.1804ZM28.9334 23.8206C28.4624 23.6199 27.9684 23.5178 27.4656 23.5178V23.8178C27.9271 23.8178 28.3812 23.9114 28.8158 24.0965L28.9334 23.8206ZM27.4603 23.5179L27.4571 23.518L27.4677 23.8178L27.4709 23.8177L27.4603 23.5179ZM26.5399 28.5812C26.057 28.2668 25.7819 27.7609 25.7819 27.1896H25.4819C25.4819 27.8632 25.809 28.4633 26.3762 28.8326L26.5399 28.5812ZM28.5609 27.1896C28.5609 27.6777 28.6354 28.1489 28.7728 28.593L29.0594 28.5044C28.9307 28.0883 28.8609 27.647 28.8609 27.1896H28.5609ZM28.8572 28.4108L28.135 28.7192L28.2528 28.9951L28.975 28.6867L28.8572 28.4108ZM28.1347 28.7193C27.5973 28.9502 27.0233 28.896 26.5399 28.5812L26.3762 28.8326C26.9426 29.2014 27.6224 29.2659 28.2531 28.9949L28.1347 28.7193ZM29.9533 31.5642C29.749 32.0334 29.65 32.5298 29.6506 33.0235L29.9506 33.0232C29.9501 32.5699 30.0409 32.1145 30.2284 31.6839L29.9533 31.5642ZM29.7515 32.8816C29.5701 32.9444 29.3788 32.9778 29.1835 32.9778V33.2778C29.4132 33.2778 29.6375 33.2385 29.8497 33.1651L29.7515 32.8816ZM29.1835 32.9778C28.7386 32.9778 28.3185 32.8044 27.9994 32.4884L27.7883 32.7016C28.1632 33.0727 28.6589 33.2778 29.1835 33.2778V32.9778ZM27.9993 32.4884C27.4864 31.9808 27.4157 31.304 27.6048 30.7585L27.3214 30.6602C27.1004 31.2974 27.181 32.1006 27.7883 32.7016L27.9993 32.4884ZM27.4537 30.8591L27.4556 30.8592L27.4743 30.5598L27.4724 30.5597L27.4537 30.8591ZM27.4649 30.8595C27.9622 30.8595 28.4618 30.7599 28.9341 30.5585L28.8164 30.2825C28.3816 30.468 27.922 30.5595 27.4649 30.5595V30.8595ZM28.9341 30.5585L29.776 30.199L29.6582 29.9231L28.8163 30.2826L28.9341 30.5585ZM33.3556 34.6836C32.7765 34.6836 32.2648 34.4103 31.9474 33.933L31.6976 34.0991C32.0711 34.6609 32.677 34.9837 33.3556 34.9837V34.6836ZM31.9474 33.933C31.6321 33.4585 31.5784 32.8854 31.8081 32.358L31.5331 32.2382C31.2623 32.8597 31.3263 33.5404 31.6976 34.0991L31.9474 33.933ZM31.8081 32.3581L32.105 31.677L31.83 31.5571L31.5331 32.2382L31.8081 32.3581ZM33.7587 31.8741L34.0765 32.6661L34.3549 32.5544L34.0371 31.7624L33.7587 31.8741ZM34.0765 32.6661C34.2668 33.14 34.5506 33.5593 34.9025 33.9074L35.1135 33.6941C34.7899 33.3741 34.5295 32.9891 34.3549 32.5543L34.0765 32.6661ZM34.8735 33.7343C34.6176 34.253 34.0828 34.6836 33.3556 34.6836V34.9837C34.2135 34.9837 34.8438 34.4725 35.1425 33.8671L34.8735 33.7343ZM36.2446 27.1896C36.2446 28.7325 34.9757 29.9905 33.4129 29.9905V30.2905C35.1384 30.2905 36.5446 28.9011 36.5446 27.1896H36.2446ZM38.7118 32.4885C38.3029 32.8932 37.7456 33.0588 37.1791 32.9427L37.1188 33.2366C37.7833 33.3727 38.4425 33.1772 38.9228 32.7018L38.7118 32.4885ZM37.179 32.9427C36.6128 32.8268 36.1686 32.464 35.9536 31.9259L35.675 32.0372C35.9284 32.6715 36.4564 33.101 37.1189 33.2366L37.179 32.9427ZM37.0208 30.2355L37.7773 30.5585L37.8951 30.2826L37.1386 29.9596L37.0208 30.2355ZM37.7774 30.5585C38.2495 30.7599 38.749 30.8594 39.2461 30.8594V30.5594C38.7891 30.5594 38.3296 30.4679 37.8951 30.2826L37.7774 30.5585ZM39.2499 30.8593L39.2544 30.8592L39.2467 30.5593L39.2423 30.5594L39.2499 30.8593ZM39.1091 30.7592C39.1722 30.9379 39.2056 31.1263 39.2056 31.3186H39.5056C39.5056 31.0913 39.4661 30.8692 39.392 30.6593L39.1091 30.7592ZM39.2056 31.3186C39.2056 31.7574 39.0311 32.1724 38.7118 32.4885L38.9228 32.7017C39.2978 32.3305 39.5056 31.8392 39.5056 31.3186H39.2056ZM38.0389 28.6376C38.1853 28.1803 38.2647 27.6939 38.2647 27.1896H37.9647C37.9647 27.6623 37.8903 28.1179 37.7532 28.5461L38.0389 28.6376ZM38.2647 27.1896C38.2647 26.6851 38.1852 26.1987 38.039 25.7415L37.7532 25.8329C37.8902 26.2612 37.9647 26.7168 37.9647 27.1896H38.2647ZM37.955 25.9252L38.5757 25.66L38.4578 25.3842L37.8372 25.6493L37.955 25.9252ZM38.5756 25.6601C38.7943 25.5668 39.0196 25.5201 39.2454 25.5201V25.2201C38.9776 25.2201 38.7123 25.2756 38.4579 25.3841L38.5756 25.6601ZM39.2454 25.5201C40.1868 25.5201 40.929 26.3542 40.929 27.1895H41.229C41.229 26.1977 40.3616 25.2201 39.2454 25.2201V25.5201ZM40.929 27.1895C40.9291 27.7609 40.654 28.2668 40.1711 28.5812L40.3348 28.8326C40.902 28.4633 41.2292 27.8631 41.229 27.1895L40.929 27.1895ZM22.2807 16.2254L22.2087 16.5166L22.2088 16.5167L22.2807 16.2254ZM21.2379 16.8451L21.5288 16.9185L21.5288 16.9184L21.2379 16.8451ZM17.786 25.9853L17.5154 25.8559L17.5154 25.8559L17.786 25.9853ZM17.0959 27.4606L16.8217 27.3389L16.8217 27.339L17.0959 27.4606ZM14.9638 39.3026L14.6639 39.3107H14.6639L14.9638 39.3026ZM19.4577 58.5698L19.7368 58.4596L19.7367 58.4595L19.4577 58.5698ZM20.572 59.0524L20.4636 58.7726L20.4634 58.7727L20.572 59.0524ZM21.0596 57.9495L21.3386 57.8393L21.3386 57.8393L21.0596 57.9495ZM18.6709 28.1451L18.3967 28.0235H18.3967L18.6709 28.1451ZM19.341 26.7135L19.6116 26.8429L19.6117 26.8429L19.341 26.7135ZM22.9067 17.2574L22.6159 17.184L22.6158 17.1841L22.9067 17.2574ZM24.0002 1.76709L24.2987 1.73703V1.73702L24.0002 1.76709ZM23.059 1.00451L23.0885 1.30306L23.0891 1.30299L23.059 1.00451ZM22.2885 1.93598L22.587 1.90591L22.587 1.90591L22.2885 1.93598ZM22.0119 13.0289L22.3083 13.0748L22.3083 13.0748L22.0119 13.0289ZM22.7316 13.9993L22.7772 13.7028L22.7767 13.7027L22.7316 13.9993ZM23.712 13.287L23.4156 13.241L23.4155 13.2411L23.712 13.287ZM37.9039 37.9923L37.742 38.2448L37.7422 38.245L37.9039 37.9923ZM36.7147 38.2447L36.9658 38.4088L36.9658 38.4088L36.7147 38.2447ZM34.995 40.348L35.2058 40.5615L35.2058 40.5615L34.995 40.348ZM33.3323 41.7341L33.1702 41.9865L33.3396 42.0952L33.5044 41.9798L33.3323 41.7341ZM31.4584 40.1915L31.2416 40.3989L31.2416 40.3989L31.4584 40.1915ZM30.0192 38.2814L29.76 38.4325L29.7601 38.4325L30.0192 38.2814ZM28.8443 37.9698L28.6955 37.7093L28.6955 37.7093L28.8443 37.9698ZM28.5295 39.1326L28.2703 39.2837L28.2704 39.2838L28.5295 39.1326ZM30.2092 41.362L30.426 41.1546L30.426 41.1546L30.2092 41.362ZM32.4955 43.2242H32.7955V43.0583L32.6551 42.9701L32.4955 43.2242ZM34.2157 43.1991L34.0458 42.9518L33.9157 43.0412V43.1991H34.2157ZM36.2102 41.5529L35.9994 41.3395L35.9994 41.3395L36.2102 41.5529ZM38.1589 39.1691L37.9078 39.005L37.9078 39.005L38.1589 39.1691ZM49.8514 47.3952L49.7839 47.6875L49.7842 47.6876L49.8514 47.3952ZM48.8192 48.032L49.1113 48.1005L49.1113 48.1004L48.8192 48.032ZM45.6513 57.9495L45.9303 58.0598L45.9303 58.0598L45.6513 57.9495ZM46.1389 59.0524L46.2475 58.7727L46.2473 58.7726L46.1389 59.0524ZM47.2532 58.5698L46.9742 58.4595L46.9741 58.4596L47.2532 58.5698ZM50.4948 48.4167L50.2027 48.3482L50.2027 48.3482L50.4948 48.4167ZM49.615 27.4606L49.8892 27.339L49.8892 27.3389L49.615 27.4606ZM48.9247 25.9852L48.6541 26.1146L48.6541 26.1146L48.9247 25.9852ZM45.0123 14.8L44.7181 14.8585L44.7181 14.8585L45.0123 14.8ZM44.4225 1.93587L44.124 1.90579V1.9058L44.4225 1.93587ZM43.652 1.00439L43.622 1.30289L43.6225 1.30294L43.652 1.00439ZM42.7108 1.76698L42.4123 1.7369V1.73691L42.7108 1.76698ZM43.3246 15.1289L43.6188 15.0704L43.6188 15.0704L43.3246 15.1289ZM47.3698 26.7132L47.0991 26.8426L47.0991 26.8427L47.3698 26.7132ZM48.0399 28.1451L47.7656 28.2668L47.7657 28.2668L48.0399 28.1451ZM49.5713 44.175L49.8678 44.2206V44.2205L49.5713 44.175ZM50.2925 45.1444L50.2479 45.4411L50.2925 45.1444ZM51.272 44.4306L51.5685 44.4762V44.4762L51.272 44.4306ZM22.3527 15.9342C21.7334 15.7811 21.103 16.153 20.947 16.7718L21.5288 16.9184C21.6029 16.6247 21.9053 16.4416 22.2087 16.5166L22.3527 15.9342ZM20.947 16.7717C19.9293 20.8062 18.5382 23.7169 17.5154 25.8559L18.0567 26.1147C19.0821 23.9703 20.4956 21.0145 21.5288 16.9185L20.947 16.7717ZM17.5154 25.8559C17.2512 26.4085 17.0207 26.8907 16.8217 27.3389L17.3701 27.5824C17.5649 27.1434 17.7915 26.6693 18.0567 26.1147L17.5154 25.8559ZM16.8217 27.339C15.2676 30.8415 14.5444 34.8712 14.6639 39.3107L15.2637 39.2945C15.1462 34.9296 15.8577 30.9908 17.3701 27.5823L16.8217 27.339ZM14.6639 39.3107C14.8165 44.9792 16.3398 51.4971 19.1787 58.6801L19.7367 58.4595C16.9147 51.3194 15.4138 44.8724 15.2637 39.2945L14.6639 39.3107ZM19.1787 58.68C19.3587 59.1357 19.7976 59.4112 20.2589 59.4112V58.8112C20.0326 58.8112 19.8222 58.6758 19.7368 58.4596L19.1787 58.68ZM20.2589 59.4112C20.3993 59.4112 20.5423 59.3857 20.6806 59.332L20.4634 58.7727C20.3959 58.7989 20.3267 58.8112 20.2589 58.8112V59.4112ZM20.6803 59.3322C21.2758 59.1016 21.5736 58.434 21.3386 57.8393L20.7806 58.0598C20.8916 58.3408 20.7527 58.6607 20.4636 58.7726L20.6803 59.3322ZM21.3386 57.8393C16.4694 45.5195 15.6975 35.5858 18.9451 28.2668L18.3967 28.0235C15.0527 35.5596 15.8882 45.6812 20.7806 58.0598L21.3386 57.8393ZM18.9451 28.2668C19.1301 27.85 19.3519 27.386 19.6116 26.8429L19.0703 26.584C18.8117 27.1249 18.5858 27.5972 18.3967 28.0235L18.9451 28.2668ZM19.6117 26.8429C20.6676 24.6338 22.1233 21.5901 23.1976 17.3308L22.6158 17.1841C21.5569 21.3821 20.1236 24.3808 19.0703 26.5841L19.6117 26.8429ZM23.1976 17.3309C23.3542 16.7109 22.9724 16.0872 22.3526 15.9342L22.2088 16.5167C22.5108 16.5913 22.6897 16.8916 22.6159 17.184L23.1976 17.3309ZM24.2987 1.73702C24.2347 1.10211 23.6632 0.642068 23.0289 0.706019L23.0891 1.30299C23.3982 1.27183 23.6714 1.49641 23.7017 1.79717L24.2987 1.73702ZM23.0296 0.705956C22.3946 0.768613 21.9259 1.33025 21.99 1.96605L22.587 1.90591C22.5568 1.60603 22.778 1.33369 23.0885 1.30306L23.0296 0.705956ZM21.99 1.96604C22.3645 5.68378 22.272 9.39036 21.7154 12.9829L22.3083 13.0748C22.8729 9.43056 22.9664 5.67288 22.587 1.90591L21.99 1.96604ZM21.7154 12.9829C21.6175 13.6146 22.0559 14.2001 22.6866 14.2959L22.7767 13.7027C22.4686 13.6559 22.2622 13.3727 22.3083 13.0748L21.7154 12.9829ZM22.686 14.2958C22.7459 14.305 22.805 14.3093 22.863 14.3093V13.7093C22.8344 13.7093 22.8059 13.7072 22.7772 13.7028L22.686 14.2958ZM22.863 14.3093C23.4239 14.3093 23.92 13.9045 24.0085 13.3328L23.4155 13.2411C23.3737 13.5113 23.1371 13.7093 22.863 13.7093V14.3093ZM24.0085 13.3329C24.595 9.5475 24.6925 5.64612 24.2987 1.73703L23.7017 1.79716C24.0905 5.65696 23.9941 9.50723 23.4156 13.241L24.0085 13.3329ZM38.0658 37.7397C37.5297 37.3961 36.8121 37.547 36.4635 38.0806L36.9658 38.4088C37.1331 38.1527 37.4813 38.0777 37.742 38.2448L38.0658 37.7397ZM36.4635 38.0806C35.9796 38.821 35.4145 39.5121 34.7842 40.1346L35.2058 40.5615C35.8664 39.9091 36.4585 39.185 36.9658 38.4088L36.4635 38.0806ZM34.7842 40.1346C34.2833 40.6292 33.7387 41.0832 33.1602 41.4883L33.5044 41.9798C34.1103 41.5555 34.6808 41.0799 35.2058 40.5615L34.7842 40.1346ZM33.4943 41.4816C32.8291 41.0546 32.2188 40.5523 31.6752 39.9841L31.2416 40.3989C31.8182 41.0016 32.4653 41.5341 33.1702 41.9865L33.4943 41.4816ZM31.6752 39.9841C31.1389 39.4235 30.669 38.7998 30.2783 38.1302L29.7601 38.4325C30.1744 39.1428 30.6728 39.8043 31.2416 40.3989L31.6752 39.9841ZM30.2783 38.1302C29.9572 37.5795 29.2485 37.3935 28.6955 37.7093L28.993 38.2303C29.263 38.0762 29.6064 38.169 29.76 38.4325L30.2783 38.1302ZM28.6955 37.7093C28.1406 38.0262 27.9481 38.7313 28.2703 39.2837L28.7886 38.9814C28.6358 38.7195 28.7253 38.3832 28.9931 38.2303L28.6955 37.7093ZM28.2704 39.2838C28.7519 40.1092 29.3312 40.8782 29.9924 41.5694L30.426 41.1546C29.7973 40.4975 29.2465 39.7662 28.7886 38.9814L28.2704 39.2838ZM29.9924 41.5694C30.6905 42.2991 31.4775 42.939 32.3359 43.4782L32.6551 42.9701C31.8379 42.4568 31.0894 41.8481 30.426 41.1546L29.9924 41.5694ZM32.1955 43.2242V58.2597H32.7955V43.2242H32.1955ZM32.1955 58.2597C32.1955 58.8986 32.7177 59.411 33.3556 59.411V58.811C33.0432 58.811 32.7955 58.5613 32.7955 58.2597H32.1955ZM33.3556 59.411C33.9934 59.411 34.5157 58.8986 34.5157 58.2597H33.9157C33.9157 58.5613 33.6679 58.811 33.3556 58.811V59.411ZM34.5157 58.2597V43.1991H33.9157V58.2597H34.5157ZM34.3855 43.4464C35.1118 42.9475 35.7952 42.3844 36.421 41.7664L35.9994 41.3395C35.3992 41.9322 34.7434 42.4727 34.0458 42.9518L34.3855 43.4464ZM36.421 41.7664C37.1677 41.029 37.8368 40.2104 38.4101 39.3333L37.9078 39.005C37.3579 39.8465 36.7158 40.632 35.9994 41.3395L36.421 41.7664ZM38.4101 39.3333C38.7599 38.798 38.604 38.0841 38.0656 37.7396L37.7422 38.245C38.0015 38.4109 38.0738 38.751 37.9078 39.005L38.4101 39.3333ZM49.9188 47.1029C49.2977 46.9595 48.6726 47.3425 48.5271 47.9636L49.1113 48.1004C49.1803 47.8057 49.4804 47.6175 49.7839 47.6875L49.9188 47.1029ZM48.5271 47.9636C47.8044 51.0475 46.7433 54.3703 45.3723 57.8393L45.9303 58.0598C47.3103 54.5682 48.3809 51.2173 49.1113 48.1005L48.5271 47.9636ZM45.3723 57.8393C45.1373 58.4339 45.4351 59.1016 46.0306 59.3322L46.2473 58.7726C45.9582 58.6607 45.8193 58.3407 45.9303 58.0598L45.3723 57.8393ZM46.0303 59.332C46.1686 59.3857 46.3114 59.4112 46.452 59.4112V58.8112C46.3841 58.8112 46.315 58.799 46.2475 58.7727L46.0303 59.332ZM46.452 59.4112C46.9132 59.4112 47.3522 59.1357 47.5322 58.68L46.9741 58.4596C46.8888 58.6758 46.6782 58.8112 46.452 58.8112V59.4112ZM47.5322 58.6801C48.9424 55.1119 50.0379 51.6818 50.7869 48.4851L50.2027 48.3482C49.4614 51.5121 48.3754 54.9141 46.9742 58.4595L47.5322 58.6801ZM50.7869 48.4851C50.9328 47.8627 50.5406 47.2456 49.9185 47.1028L49.7842 47.6876C50.0876 47.7572 50.2715 48.0547 50.2027 48.3482L50.7869 48.4851ZM49.8892 27.3389C49.6902 26.8907 49.4597 26.4085 49.1954 25.8557L48.6541 26.1146C48.9194 26.6693 49.146 27.1434 49.3408 27.5824L49.8892 27.3389ZM49.1954 25.8558C48.0467 23.453 46.3216 19.8436 45.3066 14.7415L44.7181 14.8585C45.7485 20.0379 47.5014 23.7034 48.6541 26.1146L49.1954 25.8558ZM45.3066 14.7415C44.482 10.5958 44.2847 6.29757 44.721 1.96593L44.124 1.9058C43.6819 6.29485 43.8816 10.6528 44.7181 14.8585L45.3066 14.7415ZM44.721 1.96594C44.7851 1.33014 44.3164 0.768499 43.6814 0.705843L43.6225 1.30294C43.933 1.33358 44.1542 1.60592 44.124 1.90579L44.721 1.96594ZM43.6819 0.705891C43.0464 0.642127 42.4763 1.10226 42.4123 1.7369L43.0093 1.79706C43.0396 1.49626 43.3119 1.27177 43.622 1.30289L43.6819 0.705891ZM42.4123 1.73691C41.9533 6.29227 42.1611 10.8177 43.0303 15.1874L43.6188 15.0704C42.7615 10.7606 42.5561 6.29493 43.0093 1.79706L42.4123 1.73691ZM43.0303 15.1874C44.1019 20.5745 45.9099 24.355 47.0991 26.8426L47.6405 26.5839C46.4554 24.1051 44.675 20.3804 43.6188 15.0704L43.0303 15.1874ZM47.0991 26.8427C47.3589 27.3858 47.5807 27.8498 47.7656 28.2668L48.3141 28.0235C48.125 27.5971 47.8991 27.1248 47.6404 26.5838L47.0991 26.8427ZM47.7657 28.2668C49.7041 32.6356 50.2201 37.9678 49.2748 44.1296L49.8678 44.2205C50.8255 37.9782 50.311 32.5238 48.3141 28.0235L47.7657 28.2668ZM49.2748 44.1295C49.1778 44.7612 49.6169 45.3462 50.2479 45.4411L50.3371 44.8478C50.0289 44.8014 49.8221 44.5184 49.8678 44.2206L49.2748 44.1295ZM50.2479 45.4411C50.8645 45.5338 51.4706 45.1139 51.5685 44.4762L50.9755 44.3851C50.9296 44.6842 50.6387 44.8931 50.3371 44.8478L50.2479 45.4411ZM51.5685 44.4762C52.5763 37.909 52.0188 32.1386 49.8892 27.339L49.3408 27.5823C51.4126 32.2518 51.9705 37.9006 50.9755 44.3851L51.5685 44.4762Z" fill="#FCFCFC" mask="url(#path-1-inside-1_2298_605)"/>
<path d="M41.0509 32.3698C41.0109 32.3219 40.1416 31.2939 38.835 30.5893C40.2908 28.4412 39.8236 25.4502 39.8014 25.3146C39.7715 25.1322 39.6148 24.9966 39.4282 24.9917C39.3987 24.9909 39.1344 24.9854 38.726 25.016C38.6332 23.6238 38.2054 22.527 38.1855 22.4766C38.1174 22.3045 37.9352 22.2046 37.7519 22.2388C37.6843 22.2514 36.1943 22.5372 34.7886 23.4242C34.0124 22.3572 33.2016 21.6824 33.1367 21.6292C32.993 21.5113 32.7849 21.5113 32.6412 21.6292C32.5764 21.6824 31.7655 22.3571 30.9893 23.4241C29.5837 22.5371 28.0936 22.2514 28.026 22.2388C27.8428 22.2045 27.6605 22.3044 27.5925 22.4765C27.5725 22.5269 27.1448 23.6237 27.0519 25.0159C26.6436 24.9854 26.3792 24.9909 26.3496 24.9917C26.1631 24.9966 26.0064 25.1322 25.9764 25.3146C25.9542 25.4502 25.4871 28.4413 26.9429 30.5893C25.6362 31.294 24.7671 32.3219 24.727 32.3698C24.6079 32.5121 24.6079 32.7182 24.727 32.8605C24.8101 32.9599 26.7903 35.2928 29.3099 35.2928C30.7476 35.2928 32.013 34.5382 32.8889 33.8233C33.7649 34.5381 35.0302 35.2928 36.4679 35.2928C38.9874 35.2928 40.9678 32.9599 41.0508 32.8605C41.1699 32.7182 41.1699 32.5121 41.0509 32.3698ZM39.0724 25.7671C39.1498 26.6242 39.2216 28.9577 37.9492 30.4807C37.9485 30.4815 37.9477 30.4823 37.947 30.4831C37.9258 30.5085 37.9044 30.5337 37.8824 30.5587C37.8521 30.593 37.821 30.6266 37.7896 30.6596C37.7803 30.6694 37.7709 30.679 37.7616 30.6887C37.7381 30.7129 37.7143 30.7368 37.6903 30.7603C37.6808 30.7697 37.6712 30.7791 37.6616 30.7884C37.6292 30.8195 37.5964 30.8502 37.563 30.8801C37.5629 30.8803 37.5626 30.8805 37.5624 30.8807C37.5289 30.9109 37.4947 30.9402 37.4602 30.9691C37.4498 30.9778 37.4393 30.9863 37.4288 30.9949C37.4034 31.0159 37.3777 31.0365 37.3518 31.0568C37.3412 31.0652 37.3305 31.0737 37.3197 31.082C37.2852 31.1086 37.2504 31.1348 37.2152 31.1602C37.2141 31.161 37.2129 31.1619 37.2118 31.1628C37.1759 31.1887 37.1397 31.2139 37.1031 31.2387C37.0916 31.2465 37.08 31.2542 37.0684 31.2619C37.0418 31.2797 37.015 31.2972 36.9881 31.3144C36.9761 31.322 36.9643 31.3296 36.9523 31.3371C36.9177 31.3589 36.8828 31.3802 36.8477 31.4011C36.843 31.4038 36.8383 31.4067 36.8336 31.4094C36.7978 31.4305 36.7618 31.451 36.7256 31.4711C36.7126 31.4784 36.6994 31.4855 36.6863 31.4927C36.6597 31.5073 36.6331 31.5215 36.6063 31.5356C36.5928 31.5427 36.5793 31.5498 36.5658 31.5567C36.5321 31.574 36.4984 31.591 36.4645 31.6076C36.4556 31.6119 36.4467 31.6163 36.4378 31.6206C36.4033 31.6372 36.3687 31.6535 36.3339 31.6694C36.3191 31.6762 36.3043 31.6829 36.2895 31.6895C36.264 31.701 36.2384 31.7123 36.2129 31.7233C36.1975 31.73 36.1822 31.7367 36.1668 31.7432C36.1362 31.7561 36.1055 31.7688 36.0749 31.7813C36.0592 31.7876 36.0434 31.794 36.0277 31.8002C35.9969 31.8124 35.966 31.8244 35.9351 31.8362C35.9183 31.8426 35.9014 31.8488 35.8846 31.855C35.8611 31.8637 35.8378 31.8722 35.8143 31.8806C35.797 31.8868 35.7797 31.893 35.7623 31.8991C35.736 31.9083 35.7096 31.9173 35.6833 31.9261C35.6596 31.9341 35.6359 31.942 35.6122 31.9497C35.5866 31.958 35.561 31.9662 35.5355 31.9742C35.5163 31.9802 35.4973 31.986 35.4781 31.9919C35.458 31.998 35.4378 32.004 35.4177 32.01C35.398 32.0158 35.3784 32.0216 35.3588 32.0273C35.338 32.0332 35.3173 32.039 35.2965 32.0447C35.2635 32.0539 35.2306 32.0629 35.1978 32.0716C35.1791 32.0765 35.1604 32.0815 35.1418 32.0864C35.1202 32.0919 35.0988 32.0973 35.0773 32.1026C35.0611 32.1067 35.0449 32.1107 35.0287 32.1146C35.007 32.1198 34.9852 32.1251 34.9636 32.1302C34.9491 32.1336 34.9348 32.1368 34.9204 32.1401C34.8774 32.15 34.8348 32.1594 34.7925 32.1684C34.7818 32.1707 34.7709 32.1731 34.7603 32.1754C34.7365 32.1803 34.713 32.1851 34.6895 32.1898C34.6777 32.1922 34.666 32.1946 34.6543 32.1969C34.6304 32.2016 34.6066 32.2062 34.583 32.2107C34.5758 32.2121 34.5687 32.2134 34.5616 32.2147C34.5084 32.2246 34.456 32.234 34.4044 32.2427C34.4021 32.243 34.3998 32.2435 34.3975 32.2438C34.3718 32.2482 34.3464 32.2523 34.321 32.2564C34.3143 32.2574 34.3075 32.2585 34.3008 32.2596C34.1892 32.2772 34.0818 32.2922 33.9795 32.3048C33.9776 32.3051 33.9756 32.3054 33.9737 32.3056C33.958 32.3075 33.9426 32.3093 33.9272 32.3111C34.7036 31.4842 35.8147 30.0474 36.1427 28.3286C36.1428 28.3282 36.1429 28.3279 36.1429 28.3275C36.1539 28.2698 36.1639 28.2118 36.173 28.1535C36.1748 28.1426 36.1765 28.1317 36.1781 28.1209C36.1866 28.0645 36.1944 28.0078 36.2012 27.9509C36.2016 27.9474 36.2022 27.9438 36.2026 27.9402C36.2095 27.8805 36.2153 27.8204 36.2203 27.76C36.2214 27.7462 36.2222 27.7324 36.2233 27.7186C36.2267 27.6719 36.2295 27.6251 36.2316 27.5781C36.2324 27.5615 36.2332 27.5449 36.2338 27.5283C36.2359 27.4685 36.2374 27.4085 36.2374 27.3483C36.2374 27.3045 36.2367 27.2606 36.2355 27.2166C36.235 27.1973 36.2341 27.1783 36.2334 27.1591C36.2325 27.1362 36.2315 27.1133 36.2304 27.0903C36.229 27.0639 36.2274 27.0376 36.2256 27.0113C36.2248 26.9987 36.2238 26.986 36.2228 26.9734C36.2082 26.7769 36.1826 26.5833 36.1472 26.3932C36.1634 26.3863 36.1796 26.379 36.1959 26.3722C36.2059 26.3681 36.2159 26.3639 36.2259 26.3598C36.2759 26.3393 36.3259 26.3194 36.3759 26.3003C36.3846 26.297 36.3933 26.2938 36.402 26.2905C36.4458 26.274 36.4896 26.2581 36.5333 26.2426C36.5441 26.2388 36.5549 26.2348 36.5657 26.2311C36.6124 26.2148 36.659 26.1992 36.7054 26.184C36.7223 26.1785 36.7391 26.1731 36.756 26.1678C36.7891 26.1573 36.8221 26.1471 36.8551 26.1371C36.8857 26.1278 36.9162 26.1187 36.9467 26.1099C36.9715 26.1027 36.9963 26.0956 37.021 26.0887C37.05 26.0807 37.0788 26.0727 37.1076 26.0651C37.1142 26.0633 37.1207 26.0616 37.1273 26.0599C37.9305 25.8478 38.6645 25.7852 39.0724 25.7671ZM37.5696 23.0716C37.6971 23.4777 37.8991 24.2358 37.9532 25.1036C37.3619 25.1932 36.6554 25.3533 35.9538 25.6386C35.7682 25.0695 35.507 24.5406 35.2175 24.0659C36.1209 23.4992 37.0814 23.1992 37.5696 23.0716ZM28.2085 23.0711C28.6961 23.1981 29.6546 23.4971 30.5605 24.0657C30.271 24.5405 30.0099 25.0694 29.8242 25.6385C29.1225 25.3532 28.416 25.1931 27.8248 25.1034C27.8789 24.2354 28.081 23.477 28.2085 23.0711ZM26.7054 25.7674C27.113 25.7854 27.8463 25.848 28.6491 26.0597C28.6563 26.0616 28.6635 26.0635 28.6708 26.0654C28.6992 26.073 28.7278 26.0808 28.7564 26.0888C28.7819 26.0959 28.8075 26.1033 28.8332 26.1107C28.8627 26.1193 28.8922 26.128 28.9218 26.137C28.9552 26.1471 28.9887 26.1574 29.0223 26.1681C29.0389 26.1734 29.0556 26.1787 29.0722 26.1841C29.1189 26.1993 29.1656 26.215 29.2124 26.2313C29.223 26.235 29.2336 26.2389 29.2443 26.2426C29.2882 26.2582 29.3322 26.2742 29.3762 26.2908C29.3847 26.2941 29.3933 26.2972 29.4018 26.3004C29.4519 26.3195 29.502 26.3394 29.552 26.36C29.562 26.3641 29.572 26.3683 29.582 26.3724C29.5983 26.3792 29.6145 26.3865 29.6307 26.3934C29.5953 26.5837 29.5696 26.7775 29.555 26.9743C29.5541 26.9865 29.5532 26.9988 29.5524 27.011C29.5506 27.0376 29.549 27.0641 29.5476 27.0907C29.5464 27.1136 29.5455 27.1363 29.5446 27.159C29.5439 27.1783 29.543 27.1976 29.5425 27.2169C29.5413 27.2609 29.5406 27.3048 29.5406 27.3485C29.5406 27.4088 29.5421 27.4687 29.5442 27.5285C29.5448 27.5452 29.5456 27.5617 29.5464 27.5783C29.5486 27.6254 29.5513 27.6723 29.5548 27.719C29.5558 27.7327 29.5566 27.7465 29.5578 27.7602C29.5627 27.8206 29.5685 27.8807 29.5755 27.9406C29.5759 27.9439 29.5764 27.9472 29.5768 27.9505C29.5836 28.0078 29.5915 28.0648 29.6001 28.1215C29.6017 28.1321 29.6033 28.1427 29.605 28.1532C29.888 29.9497 31.0484 31.4566 31.851 32.3116C31.8459 32.311 31.8408 32.3103 31.8356 32.3097C31.8125 32.3069 31.7892 32.3041 31.7656 32.3011C31.7558 32.2998 31.7461 32.2986 31.7362 32.2973C31.7039 32.2931 31.6712 32.2887 31.638 32.284C31.6355 32.2837 31.6329 32.2833 31.6304 32.2829C31.5997 32.2786 31.5685 32.2739 31.537 32.2692C31.526 32.2675 31.5148 32.2658 31.5037 32.2641C31.4791 32.2603 31.4544 32.2563 31.4295 32.2522C31.4182 32.2504 31.4069 32.2486 31.3956 32.2467C31.3611 32.2409 31.3264 32.235 31.2913 32.2287C31.2872 32.228 31.2832 32.2272 31.2791 32.2265C31.2469 32.2207 31.2142 32.2147 31.1814 32.2084C31.1692 32.2061 31.157 32.2037 31.1448 32.2013C31.1189 32.1962 31.0929 32.191 31.0667 32.1857C31.0544 32.1832 31.0421 32.1807 31.0297 32.1781C30.994 32.1707 30.9581 32.1631 30.9219 32.155C30.9165 32.1538 30.9111 32.1526 30.9057 32.1514C30.872 32.1439 30.8381 32.1361 30.8041 32.128C30.791 32.125 30.7779 32.1218 30.7648 32.1186C30.7382 32.1122 30.7115 32.1056 30.6847 32.0989C30.6714 32.0955 30.6582 32.0922 30.6448 32.0888C30.6086 32.0796 30.5723 32.07 30.5357 32.0601C30.529 32.0583 30.5223 32.0564 30.5156 32.0545C30.4812 32.0451 30.4467 32.0354 30.412 32.0254C30.3984 32.0215 30.3848 32.0175 30.3711 32.0134C30.3438 32.0054 30.3165 31.9972 30.2891 31.9888C30.2755 31.9847 30.2619 31.9805 30.2483 31.9763C30.2116 31.9648 30.1747 31.953 30.1378 31.9408C30.1308 31.9385 30.1237 31.9361 30.1166 31.9338C30.0816 31.9221 30.0464 31.9101 30.0113 31.8978C29.9976 31.8929 29.9838 31.888 29.9701 31.8831C29.9425 31.8732 29.9148 31.8632 29.8873 31.8529C29.8736 31.8478 29.86 31.8428 29.8463 31.8376C29.809 31.8234 29.7717 31.809 29.7344 31.7941C29.7283 31.7917 29.7222 31.7892 29.716 31.7867C29.6803 31.7723 29.6446 31.7574 29.6089 31.7423C29.5954 31.7366 29.582 31.7307 29.5685 31.7249C29.5408 31.713 29.5132 31.7007 29.4856 31.6883C29.4722 31.6823 29.4589 31.6764 29.4456 31.6703C29.4083 31.6532 29.3711 31.6357 29.3341 31.6178C29.3289 31.6153 29.3239 31.6128 29.3187 31.6103C29.2828 31.5928 29.2471 31.5748 29.2115 31.5565C29.1986 31.5499 29.1858 31.5431 29.173 31.5364C29.1455 31.522 29.1182 31.5073 29.091 31.4925C29.0782 31.4855 29.0655 31.4786 29.0528 31.4715C29.0161 31.4511 28.9795 31.4303 28.9432 31.4089C28.9393 31.4066 28.9354 31.4042 28.9315 31.4019C28.896 31.3809 28.8608 31.3593 28.8258 31.3374C28.8137 31.3299 28.8018 31.3222 28.7898 31.3145C28.7631 31.2974 28.7365 31.28 28.71 31.2624C28.6982 31.2545 28.6864 31.2467 28.6746 31.2387C28.6388 31.2143 28.6032 31.1896 28.568 31.1641C28.5658 31.1626 28.5636 31.161 28.5615 31.1594C28.5269 31.1343 28.4926 31.1085 28.4587 31.0823C28.4477 31.0739 28.4368 31.0652 28.4259 31.0567C28.4002 31.0365 28.3748 31.0161 28.3496 30.9953C28.3389 30.9866 28.3282 30.9779 28.3177 30.969C28.2837 30.9405 28.2499 30.9115 28.2167 30.8817C28.2158 30.8809 28.2149 30.8801 28.2141 30.8793C28.1811 30.8497 28.1487 30.8194 28.1167 30.7886C28.1069 30.7793 28.0972 30.7697 28.0875 30.7602C28.0636 30.7368 28.04 30.713 28.0167 30.6889C28.0072 30.6792 27.9978 30.6696 27.9884 30.6597C27.9571 30.6267 27.926 30.5931 27.8957 30.5588C27.8953 30.5584 27.895 30.558 27.8947 30.5576C27.873 30.533 27.8519 30.5081 27.831 30.4832C27.8303 30.4824 27.8296 30.4817 27.829 30.4809C26.5563 28.9577 26.6282 26.6239 26.7054 25.7674ZM29.31 34.5235C27.6025 34.5235 26.1062 33.1797 25.5529 32.615C25.8885 32.272 26.5706 31.6426 27.4359 31.2012C27.4446 31.2104 27.4536 31.2192 27.4623 31.2282C27.4722 31.2385 27.4822 31.2486 27.4922 31.2587C27.5105 31.2772 27.5289 31.2954 27.5475 31.3135C27.5564 31.3222 27.5653 31.331 27.5742 31.3397C27.5971 31.3616 27.6201 31.3832 27.6433 31.4046C27.6481 31.4091 27.6528 31.4136 27.6576 31.418C27.6864 31.4444 27.7154 31.4703 27.7447 31.4959C27.7485 31.4992 27.7523 31.5024 27.7561 31.5056C27.7811 31.5274 27.8063 31.5489 27.8318 31.5701C27.84 31.577 27.8484 31.5837 27.8567 31.5905C27.8779 31.608 27.8993 31.6254 27.9208 31.6425C27.9302 31.6499 27.9396 31.6574 27.9491 31.6648C27.97 31.6812 27.9911 31.6975 28.0123 31.7136C28.0216 31.7206 28.0309 31.7277 28.0402 31.7347C28.0627 31.7515 28.0853 31.7681 28.1079 31.7844C28.1158 31.7902 28.1237 31.796 28.1317 31.8017C28.1594 31.8215 28.1872 31.8411 28.2152 31.8604C28.218 31.8623 28.2208 31.8643 28.2236 31.8662C28.2873 31.9099 28.3518 31.9519 28.4168 31.9927C28.4227 31.9964 28.4287 32 28.4347 32.0037C28.4608 32.0199 28.487 32.0359 28.5132 32.0517C28.521 32.0563 28.5288 32.0609 28.5367 32.0656C28.5617 32.0804 28.5867 32.095 28.6119 32.1094C28.6197 32.1139 28.6275 32.1184 28.6354 32.1229C28.6617 32.1378 28.6881 32.1525 28.7146 32.1671C28.7208 32.1705 28.727 32.1739 28.7332 32.1773C28.7652 32.1947 28.7973 32.2119 28.8295 32.2287C28.8299 32.2289 28.8304 32.2291 28.8308 32.2294C28.8992 32.265 28.9681 32.2993 29.0372 32.3322C29.04 32.3335 29.0428 32.3348 29.0456 32.3361C29.0762 32.3507 29.1069 32.3649 29.1376 32.379C29.1434 32.3816 29.1492 32.3843 29.155 32.3869C29.1833 32.3997 29.2116 32.4123 29.2399 32.4247C29.246 32.4274 29.2521 32.4301 29.2583 32.4327C29.2875 32.4454 29.3168 32.4579 29.3461 32.4701C29.3506 32.472 29.3551 32.4739 29.3596 32.4758C29.4974 32.533 29.6356 32.5854 29.7732 32.6334C29.7772 32.6347 29.7812 32.6362 29.7853 32.6375C29.8154 32.648 29.8456 32.6582 29.8757 32.6683C29.8805 32.6698 29.8853 32.6714 29.89 32.673C29.9205 32.6831 29.9509 32.6929 29.9813 32.7026C29.9847 32.7037 29.9881 32.7048 29.9915 32.7059C30.129 32.7494 30.2654 32.7887 30.3997 32.824C30.4026 32.8248 30.4056 32.8256 30.4085 32.8263C30.4387 32.8342 30.4688 32.842 30.4988 32.8495C30.5029 32.8505 30.5071 32.8515 30.5112 32.8525C30.5407 32.8599 30.5701 32.8671 30.5994 32.8741C30.6029 32.8749 30.6063 32.8758 30.6098 32.8766C30.7416 32.9079 30.8709 32.9357 30.9967 32.9602C30.9999 32.9608 31.003 32.9614 31.0062 32.962C31.0338 32.9674 31.0612 32.9725 31.0885 32.9776C31.0933 32.9785 31.0981 32.9793 31.1029 32.9802C31.1292 32.985 31.1553 32.9897 31.1812 32.9943C31.1856 32.995 31.1899 32.9958 31.1943 32.9966C31.2225 33.0015 31.2504 33.0062 31.2781 33.0108C31.2796 33.0111 31.2812 33.0113 31.2827 33.0116C31.3725 33.0263 31.4599 33.0395 31.5446 33.0512C31.5491 33.0518 31.5535 33.0524 31.558 33.053C31.581 33.0562 31.6037 33.0592 31.6262 33.0622C31.6321 33.0629 31.638 33.0637 31.6439 33.0644C31.6651 33.0672 31.6861 33.0698 31.7069 33.0723C31.713 33.0731 31.7191 33.0738 31.7251 33.0746C31.7463 33.0771 31.7673 33.0796 31.7882 33.082C31.7931 33.0825 31.798 33.0831 31.8029 33.0836C31.8546 33.0895 31.9049 33.0947 31.9537 33.0995C31.9567 33.0999 31.9595 33.1001 31.9625 33.1004C31.983 33.1024 32.0032 33.1043 32.0232 33.1061C32.0306 33.1068 32.0378 33.1075 32.0451 33.1081C32.0607 33.1095 32.0761 33.1108 32.0913 33.1121C32.0993 33.1128 32.1072 33.1134 32.1152 33.114C32.1295 33.1152 32.1436 33.1163 32.1577 33.1174C32.1657 33.118 32.1738 33.1187 32.1818 33.1193C32.1952 33.1203 32.2084 33.1212 32.2215 33.1222C32.2293 33.1228 32.2372 33.1233 32.245 33.1239C32.2587 33.1248 32.2721 33.1257 32.2855 33.1265C32.2921 33.127 32.2989 33.1274 32.3054 33.1278C32.3242 33.129 32.3427 33.1301 32.3606 33.1312C32.3692 33.1317 32.3775 33.1321 32.3859 33.1325C32.3955 33.1331 32.4052 33.1336 32.4146 33.1341C32.4243 33.1346 32.4335 33.135 32.4429 33.1354C32.4508 33.1358 32.4587 33.1362 32.4664 33.1366C32.4759 33.137 32.4852 33.1374 32.4945 33.1378C32.498 33.138 32.5016 33.1381 32.505 33.1383C31.7292 33.7944 30.581 34.5235 29.31 34.5235ZM32.8889 25.3927C32.6744 25.3927 32.5005 25.5649 32.5005 25.7774V31.8663C32.4942 31.8596 32.488 31.8531 32.4816 31.8464C32.4799 31.8447 32.4783 31.8429 32.4766 31.8412C32.4597 31.8233 32.4425 31.8051 32.4252 31.7865C32.4243 31.7855 32.4234 31.7845 32.4224 31.7835C31.7601 31.0733 30.8204 29.872 30.463 28.469C30.4625 28.4668 30.4619 28.4646 30.4614 28.4624C30.4524 28.427 30.4438 28.3913 30.4356 28.3556C30.434 28.3486 30.4324 28.3416 30.4308 28.3346C30.4236 28.3029 30.4168 28.271 30.4102 28.2391C30.4086 28.231 30.4069 28.223 30.4053 28.215C30.3986 28.1815 30.3923 28.1479 30.3864 28.1142C30.3854 28.1088 30.3843 28.1034 30.3834 28.0979C30.3698 28.0197 30.3582 27.941 30.3487 27.8617C30.3474 27.8514 30.3464 27.8411 30.3452 27.8308C30.342 27.8024 30.339 27.7739 30.3363 27.7454C30.3351 27.7321 30.3339 27.7188 30.3328 27.7055C30.3306 27.6794 30.3287 27.6532 30.327 27.6271C30.326 27.6132 30.3251 27.5992 30.3243 27.5853C30.3228 27.5581 30.3216 27.5309 30.3206 27.5036C30.3201 27.4912 30.3195 27.479 30.3192 27.4666C30.3181 27.4273 30.3173 27.3878 30.3173 27.3483C30.3173 27.3076 30.3181 27.2665 30.3193 27.2254C30.3196 27.2149 30.3201 27.2044 30.3205 27.1939C30.3217 27.1618 30.3232 27.1296 30.3252 27.0973C30.3258 27.0874 30.3264 27.0775 30.327 27.0675C30.3295 27.0304 30.3325 26.9932 30.3359 26.9558C30.3363 26.9519 30.3366 26.9479 30.337 26.944C30.3452 26.858 30.3561 26.7715 30.3695 26.6846C30.3707 26.6769 30.3719 26.6693 30.3731 26.6616C30.3786 26.6268 30.3847 26.592 30.391 26.5571C30.3928 26.5474 30.3944 26.5377 30.3963 26.528C30.4039 26.4877 30.4119 26.4474 30.4206 26.4069C30.4236 26.3933 30.4268 26.3797 30.4299 26.3661C30.4355 26.341 30.4413 26.3159 30.4473 26.2907C30.4531 26.2667 30.4591 26.2426 30.4652 26.2187C30.4677 26.2091 30.4702 26.1996 30.4727 26.19C30.9376 24.42 32.3213 22.9776 32.8894 22.4438C33.2972 22.8261 34.1238 23.6746 34.7302 24.7775C34.7323 24.7814 34.7345 24.7852 34.7366 24.7891C34.7506 24.8148 34.7645 24.8406 34.7783 24.8665C34.7843 24.8777 34.7901 24.8889 34.796 24.9001C34.8146 24.9355 34.8329 24.9712 34.8511 25.0072C34.8613 25.0275 34.8715 25.0478 34.8815 25.0681C34.8898 25.085 34.898 25.102 34.9063 25.119C34.9193 25.1462 34.9322 25.1733 34.9448 25.2004C34.9495 25.2105 34.9542 25.2204 34.9588 25.2305C34.9767 25.2693 34.994 25.3081 35.0109 25.3469C35.0141 25.3543 35.0173 25.3618 35.0206 25.3693C35.0361 25.4053 35.0512 25.4412 35.066 25.4772C35.0678 25.4817 35.0697 25.4862 35.0716 25.4907C35.1772 25.7502 35.2616 26.0082 35.3244 26.2634V26.2634C35.3912 26.5352 35.4336 26.8055 35.4512 27.0703C35.4517 27.0784 35.4523 27.0866 35.4527 27.0948C35.4548 27.1284 35.4564 27.162 35.4575 27.1954C35.4579 27.2053 35.4584 27.2151 35.4587 27.225C35.4599 27.2663 35.4607 27.3075 35.4607 27.3484C35.4607 27.388 35.46 27.4273 35.4589 27.4667C35.4585 27.4791 35.4579 27.4915 35.4574 27.5038C35.4564 27.531 35.4553 27.5582 35.4537 27.5852C35.4529 27.5993 35.4519 27.6133 35.451 27.6273C35.4493 27.6534 35.4473 27.6794 35.4452 27.7053C35.444 27.7188 35.4429 27.7323 35.4416 27.7457C35.439 27.7739 35.436 27.8022 35.4328 27.8303C35.4316 27.8409 35.4305 27.8515 35.4292 27.862C35.4197 27.9411 35.4081 28.0197 35.3946 28.0977C35.3936 28.1036 35.3924 28.1094 35.3914 28.1153C35.3855 28.1484 35.3793 28.1815 35.3727 28.2145C35.371 28.223 35.3692 28.2315 35.3675 28.24C35.361 28.2713 35.3544 28.3026 35.3473 28.3337C35.3456 28.3413 35.3439 28.3489 35.3422 28.3564C35.3342 28.3913 35.3258 28.4262 35.317 28.4609C35.3163 28.4639 35.3156 28.4668 35.3148 28.4697C34.9673 29.8329 34.0703 31.0056 33.4122 31.7224C33.4116 31.723 33.411 31.7236 33.4104 31.7243C33.3929 31.7433 33.3756 31.7619 33.3585 31.7803C33.3557 31.7833 33.3529 31.7863 33.3501 31.7893C33.3353 31.8052 33.3207 31.8207 33.3062 31.836C33.3022 31.8403 33.2982 31.8446 33.2942 31.8488C33.2885 31.8547 33.283 31.8604 33.2775 31.8663V25.7774C33.2774 25.5649 33.1034 25.3927 32.8889 25.3927ZM36.468 34.5235C35.1969 34.5235 34.0488 33.7944 33.2729 33.1382C33.2764 33.138 33.2801 33.1378 33.2835 33.1377C33.2929 33.1373 33.3023 33.1369 33.3119 33.1365C33.3193 33.1361 33.3267 33.1358 33.3343 33.1354C33.344 33.135 33.3538 33.1345 33.3639 33.1339C33.3716 33.1336 33.3796 33.1331 33.3875 33.1327C33.3989 33.1321 33.4102 33.1314 33.4218 33.1308C33.4381 33.1299 33.4546 33.1289 33.4715 33.1278C33.4805 33.1272 33.4897 33.1266 33.4989 33.126C33.5097 33.1253 33.5206 33.1246 33.5317 33.1238C33.541 33.1231 33.5504 33.1225 33.5599 33.1218C33.5712 33.121 33.5827 33.1201 33.5943 33.1193C33.604 33.1186 33.6138 33.1178 33.6237 33.117C33.6355 33.1161 33.6475 33.1151 33.6595 33.1142C33.6693 33.1134 33.6791 33.1126 33.689 33.1117C33.7023 33.1106 33.7158 33.1094 33.7293 33.1082C33.7383 33.1074 33.7472 33.1067 33.7563 33.1058C33.7728 33.1043 33.7897 33.1027 33.8066 33.1011C33.8131 33.1005 33.8195 33.0999 33.8261 33.0992C33.8498 33.0969 33.8739 33.0945 33.8983 33.0919C33.9026 33.0914 33.9072 33.0909 33.9116 33.0904C33.9318 33.0883 33.9523 33.0861 33.973 33.0837C33.9806 33.0829 33.9883 33.0819 33.996 33.0811C34.0137 33.079 34.0317 33.0769 34.0498 33.0747C34.0584 33.0737 34.067 33.0727 34.0757 33.0716C34.0935 33.0694 34.1115 33.0671 34.1297 33.0648C34.1382 33.0637 34.1468 33.0626 34.1555 33.0615C34.1746 33.059 34.1939 33.0564 34.2134 33.0537C34.2211 33.0527 34.2287 33.0517 34.2365 33.0506C34.2598 33.0474 34.2833 33.044 34.3071 33.0405C34.311 33.0399 34.3148 33.0394 34.3186 33.0389C34.3755 33.0305 34.4335 33.0215 34.4925 33.0118C34.4979 33.0109 34.5033 33.01 34.5088 33.0091C34.5324 33.0052 34.5562 33.0011 34.5802 32.997C34.5876 32.9957 34.595 32.9943 34.6025 32.9931C34.6251 32.9891 34.6478 32.985 34.6707 32.9808C34.6783 32.9795 34.6859 32.978 34.6936 32.9767C34.7174 32.9722 34.7414 32.9677 34.7655 32.963C34.7718 32.9618 34.7781 32.9606 34.7845 32.9594C34.813 32.9538 34.8416 32.9481 34.8705 32.9422C34.8724 32.9418 34.8742 32.9414 34.8761 32.9411C34.9399 32.928 35.0044 32.9141 35.0696 32.8993C35.0731 32.8985 35.0765 32.8978 35.08 32.8969C35.1083 32.8905 35.1367 32.8838 35.1653 32.8771C35.1714 32.8756 35.1776 32.8741 35.1837 32.8726C35.2099 32.8663 35.2363 32.8599 35.2628 32.8533C35.2696 32.8516 35.2764 32.8499 35.2832 32.8482C35.31 32.8415 35.3369 32.8346 35.3638 32.8275C35.3697 32.826 35.3755 32.8245 35.3814 32.823C35.4125 32.8148 35.4437 32.8064 35.475 32.7978C35.4763 32.7974 35.4777 32.7971 35.4789 32.7967C35.5471 32.7779 35.6156 32.7581 35.6845 32.7373C35.6863 32.7367 35.6882 32.7362 35.69 32.7356C35.7212 32.7261 35.7526 32.7164 35.784 32.7064C35.7898 32.7046 35.7956 32.7027 35.8014 32.7008C35.8292 32.692 35.857 32.683 35.8849 32.6737C35.8917 32.6715 35.8985 32.6692 35.9054 32.6669C35.9331 32.6577 35.9609 32.6482 35.9887 32.6386C35.9948 32.6365 36.001 32.6344 36.0071 32.6323C36.0382 32.6214 36.0694 32.6103 36.1006 32.599C36.1029 32.5982 36.1053 32.5974 36.1076 32.5965C36.1773 32.5712 36.2471 32.5446 36.3168 32.5169C36.3178 32.5165 36.3188 32.5161 36.3198 32.5157C36.3522 32.5028 36.3845 32.4896 36.4169 32.4762C36.4229 32.4737 36.429 32.4711 36.435 32.4685C36.4627 32.457 36.4903 32.4452 36.5179 32.4333C36.5253 32.4301 36.5328 32.4268 36.5402 32.4235C36.5671 32.4118 36.594 32.3998 36.6209 32.3876C36.6279 32.3844 36.6348 32.3813 36.6418 32.3781C36.6711 32.3647 36.7003 32.3511 36.7295 32.3373C36.7336 32.3353 36.7378 32.3334 36.7419 32.3315C36.8105 32.2987 36.8788 32.2647 36.9468 32.2293C36.9481 32.2286 36.9494 32.228 36.9507 32.2273C36.982 32.2109 37.0132 32.1943 37.0444 32.1774C37.0512 32.1737 37.0579 32.1699 37.0646 32.1663C37.0905 32.1521 37.1164 32.1376 37.1421 32.123C37.1504 32.1183 37.1586 32.1136 37.1668 32.1089C37.1916 32.0947 37.2163 32.0803 37.241 32.0656C37.249 32.0609 37.2571 32.0561 37.2652 32.0513C37.2912 32.0357 37.3172 32.0198 37.343 32.0037C37.3491 31.9999 37.3553 31.9962 37.3614 31.9924C37.4265 31.9516 37.4909 31.9095 37.5546 31.8658C37.5571 31.8642 37.5594 31.8625 37.5619 31.8608C37.5903 31.8412 37.6186 31.8214 37.6468 31.8012C37.6543 31.7958 37.6618 31.7903 37.6693 31.7849C37.6924 31.7681 37.7154 31.7513 37.7383 31.7341C37.7472 31.7274 37.7562 31.7206 37.7651 31.7138C37.7867 31.6974 37.8082 31.6808 37.8296 31.6641C37.8387 31.6569 37.8477 31.6499 37.8567 31.6427C37.8787 31.6252 37.9006 31.6074 37.9224 31.5895C37.9302 31.583 37.938 31.5767 37.9458 31.5702C37.972 31.5484 37.9981 31.5262 38.024 31.5037C38.027 31.5011 38.03 31.4986 38.033 31.496C38.0625 31.4702 38.0917 31.444 38.1208 31.4174C38.1247 31.4138 38.1285 31.4102 38.1323 31.4066C38.1565 31.3843 38.1805 31.3618 38.2043 31.3389C38.2126 31.3309 38.2209 31.3227 38.2293 31.3145C38.2484 31.2958 38.2675 31.277 38.2864 31.2579C38.296 31.2483 38.3054 31.2386 38.3149 31.2288C38.324 31.2195 38.3331 31.2104 38.3421 31.2011C39.2079 31.6426 39.8902 32.2724 40.2255 32.6152C39.6735 33.1804 38.181 34.5235 36.468 34.5235Z" fill="#323232"/>
<path d="M33.1056 24.4254C33.0916 24.4043 33.076 24.385 33.0592 24.3685C33.0427 24.352 33.0249 24.3378 33.0063 24.3263C32.988 24.3149 32.9687 24.3062 32.9492 24.3002C32.9101 24.2883 32.8694 24.2883 32.83 24.3002C32.8105 24.3062 32.7912 24.3149 32.7729 24.3263C32.7542 24.3378 32.7365 24.352 32.72 24.3685C32.7032 24.385 32.6876 24.4043 32.6735 24.4254C32.6167 24.5107 32.584 24.629 32.584 24.7495C32.584 24.7798 32.5861 24.8096 32.5901 24.8394C32.5938 24.8687 32.5999 24.8976 32.6075 24.9251C32.6152 24.9527 32.6247 24.9792 32.6357 25.0045C32.6467 25.0292 32.6595 25.0526 32.6735 25.0742C32.6876 25.0953 32.7032 25.114 32.72 25.131C32.7365 25.1475 32.7542 25.1617 32.7729 25.1732C32.7912 25.1847 32.8105 25.1934 32.83 25.1993C32.8496 25.2053 32.8698 25.2081 32.8896 25.2081C32.9095 25.2081 32.9297 25.2053 32.9492 25.1993C32.9688 25.1934 32.988 25.1847 33.0063 25.1732C33.025 25.1618 33.0427 25.1475 33.0592 25.131C33.076 25.114 33.0916 25.0953 33.1056 25.0742C33.1197 25.0526 33.1326 25.0292 33.1435 25.0045C33.1545 24.9792 33.164 24.9527 33.1717 24.9251C33.1793 24.8976 33.1854 24.8688 33.1891 24.8394C33.1931 24.8096 33.1952 24.7798 33.1952 24.7495C33.1952 24.629 33.1625 24.5107 33.1056 24.4254Z" fill="#323232"/>
<path d="M33.1056 24.4254C33.0916 24.4043 33.076 24.385 33.0592 24.3685C33.0427 24.352 33.0249 24.3378 33.0063 24.3263C32.988 24.3149 32.9687 24.3062 32.9492 24.3002C32.9101 24.2883 32.8694 24.2883 32.83 24.3002C32.8105 24.3062 32.7912 24.3149 32.7729 24.3263C32.7542 24.3378 32.7365 24.352 32.72 24.3685C32.7032 24.385 32.6876 24.4043 32.6735 24.4254C32.6167 24.5107 32.584 24.629 32.584 24.7495C32.584 24.7798 32.5861 24.8096 32.5901 24.8394C32.5938 24.8687 32.5999 24.8976 32.6075 24.9251C32.6152 24.9527 32.6247 24.9792 32.6357 25.0045C32.6467 25.0292 32.6595 25.0526 32.6735 25.0742C32.6876 25.0953 32.7032 25.114 32.72 25.131C32.7365 25.1475 32.7542 25.1617 32.7729 25.1732C32.7912 25.1847 32.8105 25.1934 32.83 25.1993C32.8496 25.2053 32.8698 25.2081 32.8896 25.2081C32.9095 25.2081 32.9297 25.2053 32.9492 25.1993C32.9688 25.1934 32.988 25.1847 33.0063 25.1732C33.025 25.1618 33.0427 25.1475 33.0592 25.131C33.076 25.114 33.0916 25.0953 33.1056 25.0742C33.1197 25.0526 33.1326 25.0292 33.1435 25.0045C33.1545 24.9792 33.164 24.9527 33.1717 24.9251C33.1793 24.8976 33.1854 24.8688 33.1891 24.8394C33.1931 24.8096 33.1952 24.7798 33.1952 24.7495C33.1952 24.629 33.1625 24.5107 33.1056 24.4254Z" stroke="#FCFCFC"/>
<path d="M32.8896 19.4016C32.7208 19.4016 32.584 19.5824 32.584 19.8054V20.5259C32.584 20.7489 32.7208 20.9296 32.8896 20.9296C33.0583 20.9296 33.1952 20.7489 33.1952 20.5259V19.8054C33.1952 19.5824 33.0583 19.4016 32.8896 19.4016Z" fill="#323232"/>
<path d="M32.8896 19.4016C32.7208 19.4016 32.584 19.5824 32.584 19.8054V20.5259C32.584 20.7489 32.7208 20.9296 32.8896 20.9296C33.0583 20.9296 33.1952 20.7489 33.1952 20.5259V19.8054C33.1952 19.5824 33.0583 19.4016 32.8896 19.4016Z" stroke="#FCFCFC"/>
<path d="M35.8353 20.4284C35.6889 20.282 35.4517 20.282 35.3053 20.4284L34.8324 20.9012C34.6861 21.0476 34.6861 21.2849 34.8324 21.4312C34.9056 21.5044 35.0016 21.541 35.0975 21.541C35.1934 21.541 35.2893 21.5044 35.3625 21.4312L35.8353 20.9584C35.9816 20.8121 35.9816 20.5748 35.8353 20.4284Z" fill="#323232"/>
<path d="M35.8353 20.4284C35.6889 20.282 35.4517 20.282 35.3053 20.4284L34.8324 20.9012C34.6861 21.0476 34.6861 21.2849 34.8324 21.4312C34.9056 21.5044 35.0016 21.541 35.0975 21.541C35.1934 21.541 35.2893 21.5044 35.3625 21.4312L35.8353 20.9584C35.9816 20.8121 35.9816 20.5748 35.8353 20.4284Z" stroke="#FCFCFC"/>
<path d="M30.9456 20.9012L30.4728 20.4284C30.3265 20.282 30.0891 20.282 29.9428 20.4284C29.7964 20.5747 29.7964 20.812 29.9428 20.9584L30.4156 21.4312C30.4888 21.5044 30.5848 21.541 30.6807 21.541C30.7766 21.541 30.8725 21.5044 30.9457 21.4312C31.092 21.2849 31.092 21.0476 30.9456 20.9012Z" fill="#323232"/>
<path d="M30.9456 20.9012L30.4728 20.4284C30.3265 20.282 30.0891 20.282 29.9428 20.4284C29.7964 20.5747 29.7964 20.812 29.9428 20.9584L30.4156 21.4312C30.4888 21.5044 30.5848 21.541 30.6807 21.541C30.7766 21.541 30.8725 21.5044 30.9457 21.4312C31.092 21.2849 31.092 21.0476 30.9456 20.9012Z" stroke="#FCFCFC"/>
<path d="M55.2676 2.85723L57.001 1" stroke="#323232" stroke-width="1.2" stroke-linecap="round"/>
<path d="M49.8203 8.55255L51.5537 6.69531" stroke="#323232" stroke-width="1.2" stroke-linecap="round"/>
<path d="M51.5527 2.85723L49.8193 1" stroke="#323232" stroke-width="1.2" stroke-linecap="round"/>
<path d="M57 8.55255L55.2666 6.69531" stroke="#323232" stroke-width="1.2" stroke-linecap="round"/>
<path d="M6.84082 40.6295L8.57424 38.7722" stroke="#323232" stroke-width="1.2" stroke-linecap="round"/>
<path d="M1.39355 46.3245L3.12697 44.4673" stroke="#323232" stroke-width="1.2" stroke-linecap="round"/>
<path d="M3.12598 40.6295L1.39256 38.7722" stroke="#323232" stroke-width="1.2" stroke-linecap="round"/>
<path d="M8.57324 46.3245L6.83982 44.4673" stroke="#323232" stroke-width="1.2" stroke-linecap="round"/>
</svg>
