<svg width="36" height="36" viewBox="0 0 36 36" fill="none" xmlns="http://www.w3.org/2000/svg">
<g id="import_venrvhdyihzn 1" clip-path="url(#clip0_2304_295)">
<path id="Vector" d="M27.5625 8.22265L35.0077 4.50003L27.5625 0.777405V2.25003H16.875V3.37503H28.6875V2.59765L32.4923 4.50003L28.6875 6.4024V5.62503H12.375V6.75003H27.5625V8.22265Z" fill="#323232"/>
<path id="Vector_2" d="M14.625 2.25H15.75V3.375H14.625V2.25Z" fill="#323232"/>
<path id="Vector_3" d="M12.375 2.25H13.5V3.375H12.375V2.25Z" fill="#323232"/>
<path id="Vector_4" d="M20.2499 27.7773L12.8047 31.5L20.2499 35.2226V33.75H30.9374V32.625H19.1249V33.4023L15.3202 31.5L19.1249 29.5976V30.375H35.4374V29.25H20.2499V27.7773Z" fill="#323232"/>
<path id="Vector_5" d="M32.0625 32.625H33.1875V33.75H32.0625V32.625Z" fill="#323232"/>
<path id="Vector_6" d="M34.3125 32.625H35.4375V33.75H34.3125V32.625Z" fill="#323232"/>
<path id="Vector_7" d="M32.0625 22.5H33.1875V23.625H32.0625V22.5Z" fill="#323232"/>
<path id="Vector_8" d="M29.8125 22.5H30.9375V23.625H29.8125V22.5Z" fill="#323232"/>
<path id="Vector_9" d="M27.5625 22.5H28.6875V23.625H27.5625V22.5Z" fill="#323232"/>
<path id="Vector_10" d="M27.5625 20.25H33.1875V21.375H27.5625V20.25Z" fill="#323232"/>
<path id="Vector_11" d="M33.75 11.25H29.8125H24.1875H20.3518C18.207 8.74575 15.1132 7.3125 11.8125 7.3125C5.60925 7.3125 0.5625 12.3593 0.5625 18.5625C0.5625 24.7658 5.60925 29.8125 11.8125 29.8125C15.1132 29.8125 18.207 28.3792 20.3518 25.875H33.75C34.6804 25.875 35.4375 25.1179 35.4375 24.1875V12.9375C35.4375 12.0071 34.6804 11.25 33.75 11.25ZM28.6875 12.375V14.625H25.3125V12.375H28.6875ZM19.1891 11.6359C18.9529 11.8288 18.7706 12.0819 18.666 12.375H15.6015C15.2274 10.8827 14.7088 9.59175 14.0524 8.68669C16.0093 9.12881 17.7941 10.1486 19.1891 11.6359ZM18.5625 23.625H15.8501C16.1224 22.2047 16.2759 20.6601 16.3063 19.125H18.5625V23.625ZM11.8125 28.6875C10.8619 28.6875 9.84881 27.2042 9.18338 24.75H14.4422C13.7762 27.2042 12.7631 28.6875 11.8125 28.6875ZM8.9145 23.625C8.64787 22.3166 8.48025 20.7962 8.44819 19.125H15.1774C15.1453 20.7962 14.9771 22.3166 14.7111 23.625H8.9145ZM1.71619 19.125H7.31869C7.34906 20.6601 7.50262 22.2047 7.77487 23.625H3.05775C2.28094 22.2874 1.80619 20.7579 1.71619 19.125ZM11.8125 8.4375C12.7631 8.4375 13.7762 9.92081 14.4416 12.375H9.18281C9.84881 9.92081 10.8619 8.4375 11.8125 8.4375ZM14.7105 13.5C14.9771 14.8084 15.1448 16.3288 15.1768 18H8.44819C8.48025 16.3288 8.64844 14.8084 8.9145 13.5H14.7105ZM7.31869 18H1.71619C1.80675 16.3671 2.28094 14.8376 3.05775 13.5H7.77487C7.50262 14.9203 7.34906 16.4649 7.31869 18ZM18.5625 18H16.3063C16.2759 16.4649 16.1224 14.9203 15.8501 13.5H18.5625V18ZM9.56475 8.69737C8.91225 9.60188 8.39587 10.8883 8.0235 12.375H3.816C5.229 10.5531 7.24388 9.22669 9.56475 8.69737ZM3.816 24.75H8.0235C8.39587 26.2367 8.91169 27.5231 9.56475 28.4271C7.24388 27.8983 5.229 26.5719 3.816 24.75ZM14.0524 28.4383C14.7088 27.5332 15.2274 26.2423 15.6015 24.75H18.666C18.7706 25.0431 18.9523 25.2962 19.1891 25.4891C17.7941 26.9764 16.0093 27.9962 14.0524 28.4383ZM34.3125 24.1875C34.3125 24.498 34.0599 24.75 33.75 24.75H20.25C19.9401 24.75 19.6875 24.498 19.6875 24.1875V12.9375C19.6875 12.6276 19.9401 12.375 20.25 12.375H24.1875V15.75H29.8125V12.375H33.75C34.0599 12.375 34.3125 12.6276 34.3125 12.9375V24.1875Z" fill="#323232"/>
<path id="Vector_12" d="M9.5625 20.25H10.6875V21.375H9.5625V20.25Z" fill="#323232"/>
<path id="Vector_13" d="M11.8125 20.25H12.9375V21.375H11.8125V20.25Z" fill="#323232"/>
<path id="Vector_14" d="M12.9375 15.75H14.0625V16.875H12.9375V15.75Z" fill="#323232"/>
<path id="Vector_15" d="M10.6875 15.75H11.8125V16.875H10.6875V15.75Z" fill="#323232"/>
</g>
<defs>
<clipPath id="clip0_2304_295">
<rect width="36" height="36" fill="white"/>
</clipPath>
</defs>
</svg>
