<svg width="119" height="48" viewBox="0 0 119 48" fill="none" xmlns="http://www.w3.org/2000/svg">
<path d="M107.874 22.6068C108.612 22.5964 109.171 23.0104 109.552 23.8464C109.619 24.0599 109.67 24.2604 109.7 24.4453C109.71 25.1406 109.365 25.7083 108.672 26.1485C108.559 26.2188 108.31 26.2891 107.922 26.3646C107.07 26.375 106.463 25.8802 106.097 24.875C106.067 24.6328 106.052 24.4896 106.052 24.4505C106.042 23.638 106.503 23.0443 107.433 22.6719C107.632 22.6302 107.78 22.6068 107.874 22.6068Z" fill="#D15D04"/>
<path d="M82.9211 20.2083C83.6617 20.1979 84.2184 20.6093 84.5987 21.4479C84.6669 21.6614 84.7172 21.8593 84.7476 22.0468C84.7578 22.7422 84.4148 23.3073 83.7197 23.7474C83.606 23.8177 83.3569 23.8906 82.9689 23.9635C82.1171 23.9765 81.51 23.4791 81.1472 22.4765C81.1143 22.2317 81.0993 22.0911 81.0993 22.052C81.0891 21.2395 81.5501 20.6458 82.4799 20.2708C82.6792 20.2291 82.8277 20.2083 82.9211 20.2083Z" fill="#D15D04"/>
<path d="M-0.0605469 47.7552H45.9527V0.195312H-0.0605469V47.7552Z" fill="#D15D04"/>
<path d="M63.2362 39.6953C63.7074 39.7005 64.0499 39.599 64.2666 39.3958C64.4833 39.1901 64.5917 38.8958 64.5917 38.513C64.5893 38.1302 64.4809 37.8386 64.2618 37.638C64.0426 37.4375 63.6997 37.3386 63.2285 37.3386L61.6114 37.3438L61.6186 39.7005L63.2362 39.6953ZM63.5057 36.6198C64.1331 36.6172 64.6067 36.7813 64.9293 37.1146C65.2544 37.4453 65.4155 37.9115 65.4179 38.5104C65.4179 39.1094 65.2592 39.5781 64.9395 39.9141C64.6168 40.2526 64.1433 40.4193 63.5183 40.4141L61.6186 40.4193L61.6288 43.0469L60.8025 43.0495L60.7822 36.6276" fill="#323232"/>
<path d="M71.5982 36.5937L71.6059 39.3541L74.8789 39.3437L74.8688 36.5833L75.6974 36.5807L75.7153 43.0026L74.8891 43.0052L74.8813 40.0651L71.6084 40.0729L71.6161 43.0156L70.7899 43.0182L70.772 36.5963" fill="#323232"/>
<path d="M84.5913 40.3203L83.5484 37.3281H83.5305L82.4875 40.3281L84.5913 40.3203ZM84.0065 36.5547L86.4532 42.9687L85.5385 42.9713L84.8559 41.039L82.2278 41.0469L81.535 42.9844L80.6909 42.987L83.0922 36.5573" fill="#323232"/>
<path d="M94.5006 39.4349C94.6748 39.4036 94.8257 39.3463 94.9568 39.2578C95.0879 39.1719 95.1909 39.0547 95.2693 38.9062C95.3472 38.7604 95.3849 38.5703 95.3849 38.3359C95.3849 38.0104 95.2969 37.7474 95.1232 37.5443C94.9466 37.3411 94.6646 37.2396 94.2766 37.2396L92.2232 37.2474L92.2304 39.487L93.9516 39.4818C94.1455 39.4818 94.327 39.4661 94.5006 39.4349ZM94.3192 36.5208C94.9089 36.5208 95.3723 36.6693 95.7075 36.9661C96.0428 37.2656 96.2087 37.6771 96.2116 38.1979C96.2116 38.5885 96.1284 38.9297 95.9572 39.2239C95.7883 39.5182 95.5136 39.7187 95.1382 39.8281V39.8463C95.3172 39.8828 95.4633 39.9427 95.5765 40.026C95.6897 40.1094 95.7806 40.2083 95.8488 40.3255C95.9141 40.4427 95.9644 40.5729 95.9973 40.7161C96.0302 40.8594 96.0554 41.0104 96.0728 41.1667C96.0854 41.3229 96.0931 41.4818 96.1003 41.6432C96.1057 41.8047 96.1207 41.9635 96.1458 42.1198C96.1686 42.276 96.2014 42.4219 96.2469 42.5651C96.2895 42.7057 96.3548 42.8281 96.4433 42.9375L95.5213 42.9401C95.4633 42.875 95.4226 42.7838 95.4028 42.6693C95.3825 42.5573 95.3675 42.4297 95.3622 42.289C95.3549 42.1484 95.3496 41.9948 95.3423 41.8333C95.337 41.6719 95.3196 41.513 95.2891 41.3568C95.2664 41.2005 95.2364 41.0521 95.2011 40.9114C95.1658 40.7708 95.1106 40.6484 95.0347 40.5443C94.9592 40.4401 94.861 40.3568 94.7376 40.2943C94.6167 40.2318 94.4527 40.2005 94.2515 40.2005L92.2304 40.2057L92.2406 42.9505L91.4144 42.9531L91.394 36.5312" fill="#323232"/>
<path d="M102.855 36.4948L104.828 41.8854L106.778 36.4818L107.909 36.4792L107.93 42.9011L107.146 42.9037L107.131 37.5599H107.113L105.188 42.9089L104.483 42.9115L102.528 37.5755H102.51L102.525 42.9167L101.742 42.9193L101.724 36.4974" fill="#323232"/>
<path d="M116.821 40.2187L115.778 37.2265H115.76L114.717 40.2265L116.821 40.2187ZM116.236 36.4531L118.685 42.8672L117.77 42.8698L117.085 40.9375L114.457 40.9453L113.767 42.8828L112.923 42.8854L115.324 36.4557" fill="#323232"/>
<path d="M21.4535 27.7448C20.5162 27.7422 19.71 27.5625 19.0424 27.1901C18.347 26.8047 17.7801 26.2865 17.3417 25.6355C16.9033 24.9844 16.5833 24.2526 16.3768 23.4323C16.1702 22.6172 16.0618 21.7735 16.0517 20.9063C16.0391 19.9974 16.1273 19.1172 16.3112 18.2657C16.4977 17.4141 16.8 16.6537 17.2207 15.9818C17.6415 15.3099 18.1958 14.7709 18.8811 14.3672C19.5664 13.961 20.4054 13.7552 21.3956 13.7396C21.4157 13.7396 21.4333 13.7422 21.4535 13.7422V9.92191C21.4157 9.92191 21.3829 9.91931 21.3477 9.91931C19.8158 9.94011 18.4402 10.237 17.2258 10.8125C16.0089 11.3907 14.9885 12.1745 14.1596 13.1719C13.3332 14.1667 12.7033 15.3282 12.2725 16.6563C11.8391 17.9818 11.6326 19.4219 11.6527 20.9636C11.6704 22.4688 11.9147 23.8698 12.3783 25.1667C12.8419 26.4636 13.502 27.5886 14.3536 28.5417C15.2052 29.4948 16.2482 30.2396 17.4778 30.7735C18.6594 31.2865 19.9897 31.5365 21.4535 31.5365" fill="white"/>
<path d="M33.4962 22.9635C33.0226 21.6953 32.3751 20.6432 31.5537 19.8047C30.7299 18.9661 29.7624 18.3411 28.6437 17.9323C27.5276 17.5234 26.3258 17.3255 25.0384 17.3437L24.0381 17.3567V21.1797C25.1013 21.1718 25.9982 21.3151 26.7289 21.6198C27.4722 21.9297 28.0693 22.3802 28.5253 22.9713C28.9813 23.5651 29.3114 24.2786 29.518 25.1172C29.7246 25.9531 29.8354 26.8932 29.848 27.9349C29.8631 29.0729 29.7347 30.039 29.4651 30.8359C29.1955 31.6276 28.8276 32.276 28.3691 32.7734C27.908 33.2734 27.3815 33.6328 26.7843 33.8515C26.1898 34.0729 25.575 34.1875 24.9401 34.1953L24.0381 34.2083V38.0286L25.2978 38.013C26.8272 37.9922 28.155 37.7083 29.2786 37.1614C30.3998 36.6172 31.3345 35.875 32.0803 34.9375C32.8235 34.0052 33.3728 32.8958 33.7331 31.6172C34.0883 30.3385 34.2597 28.9453 34.242 27.4401C34.2193 25.7239 33.9699 24.2317 33.4962 22.9635Z" fill="white"/>
<path d="M116.216 24.974C111.759 15.0677 109.418 9.88801 109.196 9.43491C108.741 8.91146 108.254 8.64586 107.743 8.63801C106.806 8.62501 106.082 9.38021 105.571 10.8985C102.838 16.6172 101.462 19.5651 101.441 19.7396C101.401 19.8255 101.381 19.9531 101.379 20.1198L101.376 20.2682C101.366 21.099 101.847 21.6927 102.817 22.0469C102.968 22.0703 103.092 22.0807 103.185 22.0834C104.047 22.0938 104.714 21.4479 105.183 20.1432C106.73 16.8151 107.559 15.0703 107.665 14.9063H107.735C111.723 23.8854 113.865 28.6094 114.162 29.086C114.583 29.5417 115.044 29.7709 115.545 29.7787C116.312 29.7891 116.886 29.3412 117.267 28.4375L117.372 27.9375C117.377 27.5964 116.992 26.6068 116.216 24.974Z" fill="#323232"/>
<path d="M88.2469 8.9271L82.7947 9C82.6157 9.0052 82.412 9.03125 82.1852 9.08335C81.2603 9.4375 80.8046 10.0651 80.8171 10.9661L80.8776 15.7786L80.9076 16.2057C81.2728 17.1771 81.8804 17.6588 82.7318 17.6484C82.8551 17.6458 83.039 17.6094 83.2862 17.5364C84.1124 17.2318 84.5231 16.5052 84.5057 15.3489L84.4752 12.737L88.8767 12.6771C89.7939 12.6641 90.6908 12.8437 91.5649 13.2135C93.8249 14.4349 94.9714 16.4271 95.0067 19.1849L95.0091 19.3906C95.0193 20.1927 94.9061 21.0026 94.6715 21.8177C93.6459 24.7005 91.7564 26.1588 89.003 26.1953L82.9814 26.276C82.7748 26.2786 82.5804 26.3021 82.4019 26.3437C81.477 26.7161 81.0213 27.3099 81.031 28.1224C81.031 28.2786 81.059 28.4453 81.1093 28.6198C81.4039 29.5755 82.0541 30.0469 83.0569 30.0338L88.4685 29.9609C91.5828 29.9193 94.0116 28.9375 95.7599 27.0156C97.72 24.7969 98.6802 22.2057 98.6425 19.2396C98.6323 18.2422 98.4611 17.1276 98.1336 15.8984C96.5106 11.1849 93.2154 8.8594 88.2469 8.9271Z" fill="#323232"/>
<path d="M68.2275 26.1745C64.2313 26.1745 60.9912 22.8255 60.9912 18.6927C60.9912 14.5625 64.2313 11.2136 68.2275 11.2136C72.2256 11.2136 75.4657 14.5625 75.4657 18.6927C75.4657 22.8255 72.2256 26.1745 68.2275 26.1745ZM68.2275 7.07291C62.0167 7.07291 56.9854 12.2761 56.9854 18.6927C56.9854 25.112 62.0167 30.3151 68.2275 30.3151C74.4377 30.3151 79.472 25.112 79.472 18.6927C79.472 12.2761 74.4377 7.07291 68.2275 7.07291Z" fill="#323232"/>
</svg>
