<svg width="340" height="207" viewBox="0 0 340 207" fill="none" xmlns="http://www.w3.org/2000/svg">
<path fill-rule="evenodd" clip-rule="evenodd" d="M20 93.2799C10.5719 93.2799 5.85786 93.2799 2.92893 96.2088C0 99.1378 0 103.852 0 113.28V166.303C0 185.16 0 194.588 5.85786 200.446C11.7157 206.303 21.1438 206.303 40 206.303H300C318.856 206.303 328.284 206.303 334.142 200.446C340 194.588 340 185.16 340 166.303V40.6963C340 21.8401 340 12.412 334.142 6.55415C328.284 0.696289 318.856 0.696289 300 0.696289H105.802C101.212 0.696289 97.4909 4.46371 97.4909 9.05371V63.2799C97.4909 77.422 97.4909 84.4931 93.0975 88.8865C88.7041 93.2799 81.633 93.2799 67.4909 93.2799H20Z" fill="white"/>
</svg>
