<svg width="26" height="26" viewBox="0 0 26 26" fill="none" xmlns="http://www.w3.org/2000/svg">
<g id="Frame 663">
<path id="Vector" d="M17.9018 7.60641C17.9069 7.60641 17.9137 7.60641 17.9204 7.60641C18.0967 7.60641 18.2604 7.66125 18.3946 7.75575L18.3921 7.75406C18.4899 7.83928 18.5557 7.95909 18.5718 8.09409V8.09662C18.5887 8.19956 18.5979 8.31769 18.5979 8.43834C18.5979 8.49319 18.5962 8.54719 18.592 8.60119V8.59359C18.4022 10.5924 17.5787 15.4398 17.1602 17.6774C16.983 18.6249 16.6345 18.9422 16.297 18.9726C15.5638 19.0409 15.0069 18.4882 14.2965 18.0225C13.1844 17.2927 12.5558 16.8387 11.4767 16.1274C10.2288 15.3065 11.0379 14.8534 11.7484 14.1159C11.9348 13.9219 15.1672 10.9814 15.2305 10.7148C15.2339 10.6987 15.2356 10.681 15.2356 10.6625C15.2356 10.5967 15.2111 10.5367 15.1715 10.4912C15.1276 10.4625 15.0727 10.4465 15.0154 10.4465C14.9774 10.4465 14.9411 10.4541 14.9074 10.4667L14.9091 10.4659C14.7977 10.4912 13.0213 11.6651 9.57994 13.9877C9.20447 14.2838 8.73028 14.4712 8.21391 14.4931H8.20884C7.47731 14.4045 6.81328 14.2417 6.183 14.0096L6.24544 14.0299C5.454 13.7717 4.82541 13.6358 4.87941 13.1988C4.90809 12.9715 5.22141 12.7389 5.81934 12.501C9.50259 10.8962 11.9587 9.8384 13.1878 9.32765C14.5437 8.60794 16.1156 8.01562 17.7685 7.63172L17.901 7.60556L17.9018 7.60641ZM12.6773 0C5.67253 0.016875 0 5.69953 0 12.7069C0 19.7243 5.68856 25.4137 12.7069 25.4137C19.7252 25.4137 25.4137 19.7252 25.4137 12.7069C25.4137 5.69953 19.7412 0.016875 12.7381 0H12.7364C12.7167 0 12.697 0 12.6773 0Z" fill="#D35D05"/>
</g>
</svg>
