<svg width="42" height="42" viewBox="0 0 42 42" fill="none" xmlns="http://www.w3.org/2000/svg">
<g id="Vector">
<g id="Vector_2">
<mask id="path-1-inside-1_2298_327" fill="white">
<path d="M42 6.80859C42 3.05435 38.9456 0 35.1914 0C33.2432 0 31.4849 0.823758 30.2426 2.1397C27.3862 0.738937 24.2015 0 21 0C16.624 0 12.4301 1.33284 8.87168 3.85448C8.5945 4.05095 8.52895 4.43494 8.72542 4.7122C8.92336 4.99152 9.3085 5.05304 9.58314 4.85846C12.9324 2.48497 16.8803 1.23047 21 1.23047C23.9713 1.23047 26.8154 1.87039 29.4658 3.1313C29.0962 3.7047 28.8104 4.3365 28.6257 5.01006C26.2573 3.87827 23.6385 3.28125 21 3.28125C11.2298 3.28125 3.28125 11.2298 3.28125 21C3.28125 30.7702 11.2298 38.7188 21 38.7188C30.7702 38.7188 38.7188 30.7702 38.7188 21C38.7188 18.3615 38.1217 15.7427 36.9899 13.3743C37.6635 13.1896 38.2952 12.9038 38.8686 12.5342C40.1296 15.1846 40.7695 18.0287 40.7695 21C40.7695 31.7107 32.0731 40.7695 21 40.7695C10.0404 40.7695 1.23047 31.89 1.23047 21C1.23047 18.2411 1.78762 15.572 2.88652 13.0668C3.94816 10.6464 5.46246 8.49204 7.38741 6.66373C7.63375 6.42969 7.64375 6.04029 7.4098 5.79395C7.17577 5.54753 6.78636 5.5376 6.54002 5.77155C4.4958 7.71323 2.88742 10.0014 1.75973 12.5725C0.59202 15.2344 0 18.0699 0 21C0 32.4157 9.42687 42 21 42C32.4149 42 42 32.7292 42 21C42 17.7985 41.2611 14.6138 39.8603 11.7574C41.1762 10.5151 42 8.75675 42 6.80859ZM37.4883 21C37.4883 30.0917 30.0917 37.4883 21 37.4883C11.9083 37.4883 4.51172 30.0917 4.51172 21C4.51172 11.9083 11.9083 4.51172 21 4.51172C23.5713 4.51172 26.1224 5.1199 28.4059 6.27195C28.392 6.44921 28.3828 6.6278 28.3828 6.80859C28.3828 10.5628 31.4372 13.6172 35.1914 13.6172C35.3722 13.6172 35.5508 13.608 35.7281 13.5941C36.8801 15.8776 37.4883 18.4287 37.4883 21ZM35.1914 12.3867C32.1156 12.3867 29.6133 9.88436 29.6133 6.80859C29.6133 3.73283 32.1156 1.23047 35.1914 1.23047C38.2672 1.23047 40.7695 3.73283 40.7695 6.80859C40.7695 9.88436 38.2672 12.3867 35.1914 12.3867ZM33.7696 19.1158C33.1369 19.2265 31.8674 19.4631 30.476 19.8055C30.1461 19.8866 29.9444 20.2199 30.0256 20.5498C30.1067 20.8797 30.44 21.0813 30.7699 21.0002C31.8744 20.7286 32.9008 20.525 33.5771 20.4005C32.7118 25.1562 31.6443 27.6206 30.921 28.3439C29.5922 29.6728 27.4107 30.0535 25.8767 28.993L26.7082 28.1579L28.6418 27.9383C28.9794 27.9 29.222 27.5951 29.1837 27.2576C29.1453 26.9199 28.8403 26.6775 28.503 26.7157L28.0986 26.7616L31.0572 23.7903C31.2969 23.5495 31.2961 23.16 31.0553 22.9203C30.8145 22.6804 30.425 22.6813 30.1852 22.9221L28.9536 24.159L29.0018 23.7342C29.0401 23.3965 28.7976 23.0918 28.4599 23.0535C28.1222 23.0153 27.8175 23.2577 27.7792 23.5954L27.5559 25.5628L25.0027 28.127C23.9681 26.6477 24.1985 24.4912 25.6335 23.0563C25.916 22.7738 26.5643 22.326 28.0483 21.7974C28.3684 21.6834 28.5354 21.3315 28.4214 21.0114C28.3074 20.6913 27.9556 20.5244 27.6354 20.6382C26.2515 21.1312 25.3121 21.6375 24.7633 22.1862C22.8437 24.1057 22.6095 27.0455 24.1249 29.0085L21.6152 31.5289V21.7297C24.3629 21.4011 26.5063 18.9003 26.5063 15.8726C26.5063 13.2944 23.2185 8.33577 21.8051 6.32362C21.6211 6.06153 21.32 5.90502 21 5.90502C20.68 5.90502 20.3789 6.06153 20.1949 6.32354C18.7814 8.33577 15.4936 13.2945 15.4936 15.8726C15.4936 18.9003 17.6371 21.4011 20.3847 21.7297V31.5289L17.8751 29.0085C19.3905 27.0455 19.1563 24.1058 17.2367 22.1862C15.6003 20.5498 10.393 19.4938 8.23011 19.1157C7.92766 19.063 7.61759 19.1609 7.40061 19.378C7.18364 19.595 7.0857 19.905 7.13852 20.2075C7.51652 22.3703 8.57235 27.5774 10.2089 29.214C12.0451 31.0502 14.9554 31.4397 17.0022 29.8756L20.3847 33.2727V35.4796C20.3847 35.8194 20.6601 36.0948 20.9999 36.0948C21.3397 36.0948 21.6152 35.8194 21.6152 35.4796V33.2727L24.9976 29.8756C27.0203 31.4244 29.9928 31.0122 31.791 29.214C33.4275 27.5773 34.4833 22.3703 34.8613 20.2075C34.9141 19.905 34.8162 19.595 34.5992 19.378C34.3824 19.161 34.0724 19.0631 33.7696 19.1158ZM16.9974 28.127C16.3762 27.6189 15.0891 26.1043 14.4443 25.5629L14.2209 23.5955C14.1826 23.2578 13.8776 23.0153 13.5402 23.0536C13.2026 23.0919 12.96 23.3967 12.9983 23.7343L13.0466 24.1591L11.815 22.9222C11.5751 22.6813 11.1856 22.6806 10.9449 22.9204C10.7041 23.16 10.7033 23.5496 10.943 23.7904L13.9016 26.7617L13.4972 26.7158C13.1595 26.6776 12.8548 26.92 12.8165 27.2577C12.7782 27.5953 13.0207 27.9001 13.3584 27.9384L15.2919 28.158L16.1234 28.993C14.5465 30.0764 12.3998 29.6648 11.0791 28.344C10.3558 27.6207 9.28823 25.1558 8.42297 20.4001C13.1788 21.2656 15.6435 22.3331 16.3669 23.0564C17.8017 24.4913 18.0321 26.6478 16.9974 28.127ZM21 12.8837C20.6602 12.8837 20.3848 13.1592 20.3848 13.499V17.4142L20.1222 17.0844C19.9106 16.8185 19.5235 16.7746 19.2577 16.9862C18.9918 17.1979 18.9478 17.5849 19.1595 17.8507L20.3847 19.3899V20.488C18.3175 20.1616 16.724 18.2167 16.724 15.8726C16.724 14.1097 18.8958 10.3548 21 7.31989C24.1475 11.8515 25.2759 14.7044 25.2759 15.8726C25.2759 18.2166 23.6824 20.1616 21.6152 20.488V16.929L22.8405 15.3898C23.0521 15.1239 23.0081 14.7369 22.7423 14.5253C22.4765 14.3136 22.0894 14.3576 21.8777 14.6235L21.6152 14.9533V13.499C21.6152 13.1592 21.3398 12.8837 21 12.8837ZM37.0747 4.74165L34.2459 7.57034L33.308 6.63255C33.0678 6.3922 32.6782 6.39228 32.438 6.63255C32.1978 6.87282 32.1978 7.26239 32.438 7.50258L33.5788 8.6433C33.757 8.82156 33.994 8.91975 34.246 8.91975C34.498 8.91975 34.7349 8.82156 34.913 8.64339L37.9448 5.61168C38.1851 5.37141 38.1851 4.98184 37.9448 4.74165C37.7045 4.50138 37.3149 4.50146 37.0747 4.74165Z"/>
</mask>
<path d="M42 6.80859C42 3.05435 38.9456 0 35.1914 0C33.2432 0 31.4849 0.823758 30.2426 2.1397C27.3862 0.738937 24.2015 0 21 0C16.624 0 12.4301 1.33284 8.87168 3.85448C8.5945 4.05095 8.52895 4.43494 8.72542 4.7122C8.92336 4.99152 9.3085 5.05304 9.58314 4.85846C12.9324 2.48497 16.8803 1.23047 21 1.23047C23.9713 1.23047 26.8154 1.87039 29.4658 3.1313C29.0962 3.7047 28.8104 4.3365 28.6257 5.01006C26.2573 3.87827 23.6385 3.28125 21 3.28125C11.2298 3.28125 3.28125 11.2298 3.28125 21C3.28125 30.7702 11.2298 38.7188 21 38.7188C30.7702 38.7188 38.7188 30.7702 38.7188 21C38.7188 18.3615 38.1217 15.7427 36.9899 13.3743C37.6635 13.1896 38.2952 12.9038 38.8686 12.5342C40.1296 15.1846 40.7695 18.0287 40.7695 21C40.7695 31.7107 32.0731 40.7695 21 40.7695C10.0404 40.7695 1.23047 31.89 1.23047 21C1.23047 18.2411 1.78762 15.572 2.88652 13.0668C3.94816 10.6464 5.46246 8.49204 7.38741 6.66373C7.63375 6.42969 7.64375 6.04029 7.4098 5.79395C7.17577 5.54753 6.78636 5.5376 6.54002 5.77155C4.4958 7.71323 2.88742 10.0014 1.75973 12.5725C0.59202 15.2344 0 18.0699 0 21C0 32.4157 9.42687 42 21 42C32.4149 42 42 32.7292 42 21C42 17.7985 41.2611 14.6138 39.8603 11.7574C41.1762 10.5151 42 8.75675 42 6.80859ZM37.4883 21C37.4883 30.0917 30.0917 37.4883 21 37.4883C11.9083 37.4883 4.51172 30.0917 4.51172 21C4.51172 11.9083 11.9083 4.51172 21 4.51172C23.5713 4.51172 26.1224 5.1199 28.4059 6.27195C28.392 6.44921 28.3828 6.6278 28.3828 6.80859C28.3828 10.5628 31.4372 13.6172 35.1914 13.6172C35.3722 13.6172 35.5508 13.608 35.7281 13.5941C36.8801 15.8776 37.4883 18.4287 37.4883 21ZM35.1914 12.3867C32.1156 12.3867 29.6133 9.88436 29.6133 6.80859C29.6133 3.73283 32.1156 1.23047 35.1914 1.23047C38.2672 1.23047 40.7695 3.73283 40.7695 6.80859C40.7695 9.88436 38.2672 12.3867 35.1914 12.3867ZM33.7696 19.1158C33.1369 19.2265 31.8674 19.4631 30.476 19.8055C30.1461 19.8866 29.9444 20.2199 30.0256 20.5498C30.1067 20.8797 30.44 21.0813 30.7699 21.0002C31.8744 20.7286 32.9008 20.525 33.5771 20.4005C32.7118 25.1562 31.6443 27.6206 30.921 28.3439C29.5922 29.6728 27.4107 30.0535 25.8767 28.993L26.7082 28.1579L28.6418 27.9383C28.9794 27.9 29.222 27.5951 29.1837 27.2576C29.1453 26.9199 28.8403 26.6775 28.503 26.7157L28.0986 26.7616L31.0572 23.7903C31.2969 23.5495 31.2961 23.16 31.0553 22.9203C30.8145 22.6804 30.425 22.6813 30.1852 22.9221L28.9536 24.159L29.0018 23.7342C29.0401 23.3965 28.7976 23.0918 28.4599 23.0535C28.1222 23.0153 27.8175 23.2577 27.7792 23.5954L27.5559 25.5628L25.0027 28.127C23.9681 26.6477 24.1985 24.4912 25.6335 23.0563C25.916 22.7738 26.5643 22.326 28.0483 21.7974C28.3684 21.6834 28.5354 21.3315 28.4214 21.0114C28.3074 20.6913 27.9556 20.5244 27.6354 20.6382C26.2515 21.1312 25.3121 21.6375 24.7633 22.1862C22.8437 24.1057 22.6095 27.0455 24.1249 29.0085L21.6152 31.5289V21.7297C24.3629 21.4011 26.5063 18.9003 26.5063 15.8726C26.5063 13.2944 23.2185 8.33577 21.8051 6.32362C21.6211 6.06153 21.32 5.90502 21 5.90502C20.68 5.90502 20.3789 6.06153 20.1949 6.32354C18.7814 8.33577 15.4936 13.2945 15.4936 15.8726C15.4936 18.9003 17.6371 21.4011 20.3847 21.7297V31.5289L17.8751 29.0085C19.3905 27.0455 19.1563 24.1058 17.2367 22.1862C15.6003 20.5498 10.393 19.4938 8.23011 19.1157C7.92766 19.063 7.61759 19.1609 7.40061 19.378C7.18364 19.595 7.0857 19.905 7.13852 20.2075C7.51652 22.3703 8.57235 27.5774 10.2089 29.214C12.0451 31.0502 14.9554 31.4397 17.0022 29.8756L20.3847 33.2727V35.4796C20.3847 35.8194 20.6601 36.0948 20.9999 36.0948C21.3397 36.0948 21.6152 35.8194 21.6152 35.4796V33.2727L24.9976 29.8756C27.0203 31.4244 29.9928 31.0122 31.791 29.214C33.4275 27.5773 34.4833 22.3703 34.8613 20.2075C34.9141 19.905 34.8162 19.595 34.5992 19.378C34.3824 19.161 34.0724 19.0631 33.7696 19.1158ZM16.9974 28.127C16.3762 27.6189 15.0891 26.1043 14.4443 25.5629L14.2209 23.5955C14.1826 23.2578 13.8776 23.0153 13.5402 23.0536C13.2026 23.0919 12.96 23.3967 12.9983 23.7343L13.0466 24.1591L11.815 22.9222C11.5751 22.6813 11.1856 22.6806 10.9449 22.9204C10.7041 23.16 10.7033 23.5496 10.943 23.7904L13.9016 26.7617L13.4972 26.7158C13.1595 26.6776 12.8548 26.92 12.8165 27.2577C12.7782 27.5953 13.0207 27.9001 13.3584 27.9384L15.2919 28.158L16.1234 28.993C14.5465 30.0764 12.3998 29.6648 11.0791 28.344C10.3558 27.6207 9.28823 25.1558 8.42297 20.4001C13.1788 21.2656 15.6435 22.3331 16.3669 23.0564C17.8017 24.4913 18.0321 26.6478 16.9974 28.127ZM21 12.8837C20.6602 12.8837 20.3848 13.1592 20.3848 13.499V17.4142L20.1222 17.0844C19.9106 16.8185 19.5235 16.7746 19.2577 16.9862C18.9918 17.1979 18.9478 17.5849 19.1595 17.8507L20.3847 19.3899V20.488C18.3175 20.1616 16.724 18.2167 16.724 15.8726C16.724 14.1097 18.8958 10.3548 21 7.31989C24.1475 11.8515 25.2759 14.7044 25.2759 15.8726C25.2759 18.2166 23.6824 20.1616 21.6152 20.488V16.929L22.8405 15.3898C23.0521 15.1239 23.0081 14.7369 22.7423 14.5253C22.4765 14.3136 22.0894 14.3576 21.8777 14.6235L21.6152 14.9533V13.499C21.6152 13.1592 21.3398 12.8837 21 12.8837ZM37.0747 4.74165L34.2459 7.57034L33.308 6.63255C33.0678 6.3922 32.6782 6.39228 32.438 6.63255C32.1978 6.87282 32.1978 7.26239 32.438 7.50258L33.5788 8.6433C33.757 8.82156 33.994 8.91975 34.246 8.91975C34.498 8.91975 34.7349 8.82156 34.913 8.64339L37.9448 5.61168C38.1851 5.37141 38.1851 4.98184 37.9448 4.74165C37.7045 4.50138 37.3149 4.50146 37.0747 4.74165Z" fill="#323232" stroke="#FCFCFC" stroke-width="0.2" mask="url(#path-1-inside-1_2298_327)"/>
</g>
</g>
</svg>
