<svg width="20" height="21" viewBox="0 0 20 21" fill="none" xmlns="http://www.w3.org/2000/svg">
<rect width="20" height="21" fill="#F5F5F5"/>
<g id="&#208;&#154;&#208;&#176;&#209;&#128;&#209;&#130;&#208;&#190;&#209;&#135;&#208;&#186;&#208;&#176; &#208;&#191;&#209;&#128;&#208;&#190;&#208;&#180;&#209;&#131;&#208;&#186;&#209;&#130;&#208;&#176;" clip-path="url(#clip0_2053_22)">
<rect width="1440" height="7306" transform="translate(-825 -3567)" fill="#FCFCFC"/>
<g id="Group 650">
<g id="Vector">
<path d="M20 10.4587C20 15.9816 15.5228 20.4587 10 20.4587C4.47715 20.4587 0 15.9816 0 10.4587C0 4.93589 4.47715 0.45874 10 0.45874C15.5228 0.45874 20 4.93589 20 10.4587Z" fill="#FFCC5B"/>
<path d="M8.98 12.5337V12.0087C8.98 11.5287 9.07 11.0787 9.25 10.6587C9.44 10.2287 9.76 9.75374 10.21 9.23374C10.56 8.83374 10.805 8.49374 10.945 8.21374C11.085 7.92374 11.155 7.61874 11.155 7.29874C11.155 6.91874 11.02 6.61874 10.75 6.39874C10.48 6.17874 10.1 6.06874 9.61 6.06874C8.58 6.06874 7.65 6.45374 6.82 7.22374L6.28 6.03874C6.68 5.64874 7.185 5.33874 7.795 5.10874C8.415 4.86874 9.05 4.74874 9.7 4.74874C10.6 4.74874 11.325 4.97374 11.875 5.42374C12.425 5.86374 12.7 6.44374 12.7 7.16374C12.7 7.63374 12.595 8.07374 12.385 8.48374C12.185 8.88374 11.83 9.33374 11.32 9.83374C10.85 10.3037 10.52 10.7187 10.33 11.0787C10.14 11.4287 10.025 11.7787 9.985 12.1287L9.925 12.5337H8.98ZM8.56 15.4587V13.6737H10.345V15.4587H8.56Z" fill="#323232"/>
</g>
</g>
</g>
<defs>
<clipPath id="clip0_2053_22">
<rect width="1440" height="7306" fill="white" transform="translate(-825 -3567)"/>
</clipPath>
</defs>
</svg>
