<svg width="51" height="47" viewBox="0 0 51 47" fill="none" xmlns="http://www.w3.org/2000/svg">
<path d="M46.9461 11.4411L46.9187 11.3258C46.4032 9.15598 45.1582 7.19605 43.3444 5.80111L43.4359 5.68221L43.3444 5.80111C41.8773 4.67273 40.1485 3.99854 38.3613 3.812L38.2062 3.79581L38.2284 3.64144L38.4647 1.99963C38.5232 1.59316 38.241 1.21614 37.8346 1.15763C37.4288 1.09944 37.0512 1.3813 36.9925 1.78776C36.9925 1.78777 36.9925 1.78779 36.9925 1.7878L36.7232 3.6594L36.7061 3.77839L36.5862 3.78759C35.8614 3.84323 35.1379 3.97998 34.4287 4.19929L34.3389 4.22706L34.2747 4.15834L32.8616 2.64456L32.8615 2.64452C32.5815 2.34431 32.1109 2.32798 31.8104 2.60836C31.5104 2.8885 31.4941 3.3591 31.7744 3.65939L32.6873 4.63736L32.8262 4.78615L32.643 4.87476C29.4802 6.40417 27.3501 9.53246 27.1005 13.1715C26.8618 16.6517 25.3398 19.9577 22.8167 22.4808C21.0928 24.2047 19.0034 25.4607 16.7428 26.1599L16.5485 26.22V26.0166V24.5426C16.5485 24.1319 16.2156 23.7989 15.8048 23.7989C15.394 23.7989 15.0612 24.1319 15.0612 24.5426V26.4444V26.5708L14.9366 26.5922C14.4647 26.6732 13.9878 26.7315 13.5073 26.7646L13.5073 26.7646C13.1069 26.792 12.7128 26.843 12.3257 26.915L12.1991 26.9385L12.1567 26.8169L11.6292 25.3044C11.4939 24.9167 11.07 24.7119 10.6821 24.847C10.2943 24.9823 10.0895 25.4063 10.2247 25.7941L10.2247 25.7941L10.7138 27.1972L10.7621 27.3357L10.6248 27.3871C7.8449 28.428 5.64956 30.6548 4.70811 33.5518C4.7081 33.5519 4.7081 33.5519 4.70809 33.5519L4.57594 33.959L4.57592 33.959C3.5717 37.0493 4.15517 40.4321 6.13659 43.0085C8.00563 45.4389 10.8884 46.85 13.9318 46.85C14.1103 46.85 14.2896 46.845 14.4694 46.8354M46.9461 11.4411L14.4774 46.9851M46.9461 11.4411H47.0646H49.1786C49.5894 11.4411 49.9223 11.774 49.9223 12.1847C49.9223 12.5954 49.5893 12.9285 49.178 12.9285H47.3205H47.1625L47.1707 13.0863C47.1888 13.4336 47.1896 13.783 47.1705 14.1338C47.0928 15.5583 46.9235 16.9738 46.667 18.374L46.6456 18.4907L46.7542 18.5384L48.8481 19.4579M46.9461 11.4411L47.0646 11.2911H49.1786C49.6723 11.2911 50.0723 11.6912 50.0723 12.1847C50.0723 12.6783 49.6721 13.0785 49.178 13.0785H47.4707C47.4706 13.0759 47.4705 13.0733 47.4703 13.0707L47.3205 13.0785V13.2285H47.3272C47.3387 13.5314 47.3369 13.836 47.3202 14.142C47.2422 15.5729 47.0721 16.9947 46.8145 18.401L48.9084 19.3206M14.4694 46.8354L14.4774 46.9851M14.4694 46.8354C14.4693 46.8354 14.4693 46.8354 14.4693 46.8354L14.4774 46.9851M14.4694 46.8354C19.0668 46.5845 23.5776 45.3848 27.7283 43.3293L27.8734 43.2574L27.934 43.4076L28.6081 45.0791C28.7249 45.3687 29.0034 45.5449 29.2982 45.5449C29.3905 45.5449 29.4845 45.5275 29.576 45.4907M14.4774 46.9851C19.0458 46.7359 23.5286 45.554 27.66 43.5301L27.6558 43.5198L27.7949 43.4637L27.8615 43.5981C27.858 43.5998 27.8546 43.6015 27.8512 43.6032L28.469 45.1352C28.6094 45.4835 28.9443 45.6949 29.2982 45.6949C29.4095 45.6949 29.5226 45.6739 29.6321 45.6298M29.576 45.4907L29.6321 45.6298M29.576 45.4907C29.5761 45.4907 29.5761 45.4907 29.5761 45.4907L29.6321 45.6298M29.576 45.4907C29.9569 45.3371 30.1412 44.9038 29.9876 44.523L29.2448 42.681L29.1954 42.5586L29.3105 42.4941C29.7386 42.254 30.162 42.004 30.581 41.7449L30.6719 41.6887L30.7547 41.7562L32.7288 43.3644L32.6341 43.4807M29.6321 45.6298C30.0899 45.4452 30.3112 44.9246 30.1267 44.4669L29.3839 42.6249C29.8139 42.3837 30.2392 42.1327 30.6599 41.8725L32.6341 43.4807M32.6341 43.4807C32.7999 43.6158 32.9994 43.6814 33.1978 43.6814C33.4573 43.6814 33.7146 43.5691 33.8912 43.3522C34.2029 42.9696 34.1454 42.4066 33.7627 42.0949L32.3495 40.9437C32.3377 40.9519 32.3258 40.9601 32.314 40.9684L32.2285 40.8451L32.3232 40.7288L32.3564 40.7559C32.8824 40.3872 33.3975 40.0043 33.9016 39.6088L35.5201 40.5421M32.6341 43.4807L32.7288 43.3644C32.8669 43.4769 33.0326 43.5314 33.1978 43.5314C33.4142 43.5314 33.628 43.4379 33.7749 43.2575L33.7749 43.2575C34.0343 42.9391 33.9865 42.4706 33.668 42.2113L33.668 42.2112L32.1337 40.9614L31.9792 40.8356L32.1429 40.7219C32.7109 40.3276 33.2663 39.9166 33.809 39.4908L33.8888 39.4282L33.9766 39.4788L35.595 40.4121L35.5201 40.5421M35.5201 40.5421L35.5951 40.4121C35.7124 40.4798 35.8398 40.5117 35.9657 40.5117C36.2232 40.5117 36.4731 40.378 36.6108 40.1393C36.8159 39.7836 36.6939 39.3289 36.3381 39.1236M35.5201 40.5421C35.6608 40.6232 35.8143 40.6617 35.9657 40.6617C36.2747 40.6617 36.5752 40.5012 36.7407 40.2143C36.9872 39.7868 36.8405 39.2404 36.413 38.9937M36.3381 39.1236L34.393 5.92988C31.19 6.97075 28.9685 9.85722 28.7334 13.2835C28.4677 17.1576 26.7774 20.8351 23.9739 23.6386C21.1704 26.4421 17.4928 28.1324 13.6189 28.3981C10.1925 28.6331 7.30595 30.8548 6.26517 34.0581L6.13327 34.4645C5.28341 37.0801 5.75776 39.8302 7.43434 42.0105M36.3381 39.1236L36.413 38.9937M36.3381 39.1236L49.3674 20.4982M36.413 38.9937L35.5076 38.4715C35.4947 38.4828 35.4819 38.494 35.469 38.5053L35.3703 38.3924L35.4452 38.2624L35.4892 38.2878C38.8697 35.3037 41.6665 31.6949 43.6964 27.6679C43.9185 27.2271 43.7415 26.6897 43.3007 26.4676C42.8603 26.2456 42.3226 26.4227 42.1005 26.8633C39.5086 32.005 35.5997 36.4299 30.7961 39.6595C25.8769 42.9667 20.2003 44.8829 14.3799 45.2005C11.6411 45.3489 9.10849 44.1873 7.43434 42.0105M36.413 38.9937L36.3381 39.1236L35.2953 38.5223L35.1137 38.4176L35.2715 38.2795C38.6909 35.2878 41.5176 31.657 43.5625 27.6004C43.7473 27.2336 43.5999 26.7864 43.2332 26.6016L43.2332 26.6016C42.8667 26.4168 42.4192 26.5642 42.2344 26.9309C39.6309 32.0956 35.7046 36.5401 30.8798 39.784C25.9386 43.106 20.2359 45.0311 14.3881 45.3503L14.388 45.3503C11.5998 45.5014 9.01974 44.318 7.31544 42.102L7.43434 42.0105M7.43434 42.0105L7.31543 42.102C5.60872 39.8825 5.12546 37.0808 5.9906 34.4182C5.99061 34.4182 5.99061 34.4182 5.99062 34.4181L6.1225 34.0118L6.12251 34.0117C7.1827 30.7488 10.1228 28.4875 13.6087 28.2485C17.4456 27.9853 21.0893 26.311 23.8679 23.5326C26.6463 20.754 28.3206 17.1103 28.5838 13.2733C28.8229 9.78748 31.084 6.8475 34.3467 5.78722L34.3467 5.78722L34.7538 5.65496C37.4158 4.78998 40.2177 5.27315 42.4373 6.98014L42.3458 7.09905L42.4373 6.98014C44.6532 8.68442 45.8377 11.2633 45.6855 14.0528C45.5063 17.3366 44.8263 20.5716 43.6646 23.6676C43.5204 24.0521 43.7151 24.4808 44.0997 24.6251C44.4843 24.7693 44.9129 24.5747 45.0571 24.1902L45.0571 24.1901C45.5536 22.8666 45.9646 21.5185 46.2915 20.1526L46.3333 19.978L46.4977 20.0502L48.2502 20.8197L48.2502 20.8197C48.3477 20.8626 48.4491 20.8827 48.5487 20.8827C48.8352 20.8827 49.1078 20.7164 49.23 20.4379L49.3674 20.4982M48.9084 19.3206L48.8481 19.4579M48.9084 19.3206C49.3604 19.5191 49.5658 20.0464 49.3674 20.4982M48.9084 19.3206L49.3674 20.4982M48.8481 19.4579C49.2242 19.6231 49.3951 20.0619 49.23 20.4379L49.3674 20.4982M48.8481 19.4579L49.3674 20.4982M49.3674 20.4982C49.2204 20.8332 48.8926 21.0327 48.5487 21.0327C48.4288 21.0327 48.3067 21.0084 48.1898 20.9571L49.3674 20.4982Z" fill="#323232" stroke="#FCFCFC" stroke-width="0.3"/>
<path d="M32.8316 16.049C32.8316 14.4249 34.1533 13.1034 35.7773 13.1034C37.4014 13.1034 38.7228 14.4249 38.7228 16.049C38.7228 17.6732 37.4013 18.9947 35.7773 18.9947C34.1532 18.9947 32.8316 17.6732 32.8316 16.049ZM34.319 16.0491C34.319 16.8533 34.973 17.5074 35.7773 17.5074C36.5816 17.5074 37.2355 16.8533 37.2355 16.0491C37.2355 15.245 36.5816 14.5909 35.7773 14.5909C34.9732 14.5909 34.319 15.245 34.319 16.0491Z" fill="#323232" stroke="#FCFCFC" stroke-width="0.3"/>
<path d="M18.4801 38.8028L18.4801 38.8028C18.3202 38.4247 17.8833 38.2477 17.5056 38.4077L17.5055 38.4077C17.1273 38.5678 16.9503 39.0041 17.1104 39.3824L17.1104 39.3825C17.6271 40.6037 18.8173 41.3926 20.1431 41.3926C21.958 41.3926 23.4347 39.9157 23.4347 38.1009C23.4347 36.2862 21.958 34.8092 20.1431 34.8092C19.3239 34.8092 18.5388 35.112 17.9324 35.662C17.6282 35.938 17.6052 36.4081 17.881 36.7125L18.4801 38.8028ZM18.4801 38.8028C18.7634 39.4723 19.4163 39.9051 20.1431 39.9051C21.138 39.9051 21.9474 39.096 21.9474 38.1009C21.9474 37.1058 21.1381 36.2966 20.1431 36.2966C19.6942 36.2966 19.2638 36.4626 18.9315 36.7638L18.4801 38.8028ZM18.9315 36.7639C18.6272 37.0396 18.157 37.0167 17.881 36.7125L18.9315 36.7639Z" fill="#323232" stroke="#FCFCFC" stroke-width="0.3"/>
<path d="M29.6852 26.4301C29.6852 24.0082 31.656 22.0375 34.0779 22.0375C36.4998 22.0375 38.4705 24.0082 38.4705 26.4301C38.4705 28.852 36.4999 30.8227 34.0779 30.8227C31.6559 30.8227 29.6852 28.8519 29.6852 26.4301ZM31.1725 26.4301C31.1725 28.0321 32.4757 29.3353 34.0779 29.3353C35.6802 29.3353 36.9832 28.0321 36.9832 26.4301C36.9832 24.828 35.6802 23.5248 34.0779 23.5248C32.4757 23.5248 31.1725 24.828 31.1725 26.4301Z" fill="#323232" stroke="#FCFCFC" stroke-width="0.3"/>
<path d="M14.4396 4.19995L3.55957 14.44" stroke="#323232" stroke-linecap="round"/>
<path d="M5 2.07026C6.1767 1.38958 7.54288 1 9 1C13.4182 1 17 4.58172 17 9C17 13.4182 13.4182 17 9 17C4.58172 17 1 13.4182 1 9C1 7.54288 1.38958 6.1767 2.07026 5" stroke="#323232" stroke-linecap="round"/>
<path d="M38.8492 10.4501C38.8492 10.8608 38.5163 11.1937 38.1056 11.1937C37.6949 11.1937 37.3619 10.8608 37.3619 10.4501C37.3619 10.0393 37.6949 9.7064 38.1056 9.7064C38.5163 9.7064 38.8492 10.0393 38.8492 10.4501Z" fill="#323232" stroke="#FCFCFC" stroke-width="0.3"/>
<path d="M40.484 19.6488C40.484 20.0595 40.151 20.3924 39.7403 20.3924C39.3296 20.3924 38.9967 20.0595 38.9967 19.6488C38.9967 19.2381 39.3296 18.9051 39.7403 18.9051C40.151 18.9051 40.484 19.2381 40.484 19.6488Z" fill="#323232" stroke="#FCFCFC" stroke-width="0.3"/>
<path d="M33.4391 32.8475C33.4391 33.2582 33.1061 33.5912 32.6954 33.5912C32.2847 33.5912 31.9518 33.2582 31.9518 32.8475C31.9518 32.4368 32.2847 32.1039 32.6954 32.1039C33.1061 32.1039 33.4391 32.4368 33.4391 32.8475Z" fill="#323232" stroke="#FCFCFC" stroke-width="0.3"/>
<path d="M25.2047 29.732C25.2047 30.1427 24.8717 30.4757 24.461 30.4757C24.0503 30.4757 23.7174 30.1427 23.7174 29.732C23.7174 29.3213 24.0503 28.9884 24.461 28.9884C24.8717 28.9884 25.2047 29.3213 25.2047 29.732Z" fill="#323232" stroke="#FCFCFC" stroke-width="0.3"/>
<path d="M14.4381 36.4962C14.4381 36.9069 14.1051 37.2399 13.6944 37.2399C13.2837 37.2399 12.9508 36.9069 12.9508 36.4962C12.9508 36.0855 13.2837 35.7525 13.6944 35.7525C14.1051 35.7525 14.4381 36.0855 14.4381 36.4962Z" fill="#323232" stroke="#FCFCFC" stroke-width="0.3"/>
</svg>
