<svg xmlns="http://www.w3.org/2000/svg" width="37" height="45" viewBox="0 0 37 45" fill="none">
<path d="M36.6461 7.20397C36.4207 7.0041 36.1203 6.90775 35.8188 6.93969C35.1587 7.00916 34.4828 7.04437 33.8102 7.04437C28.2322 7.04437 23.002 4.61641 19.4607 0.382979C19.2578 0.140415 18.9557 0 18.6371 0H18.3628C18.0442 0 17.7422 0.140415 17.5392 0.382979C13.9978 4.61641 8.76759 7.04437 3.18978 7.04437C2.51715 7.04437 1.84133 7.00916 1.1812 6.93969C0.879814 6.90775 0.57928 7.004 0.353933 7.20397C0.128587 7.40384 0 7.68889 0 7.98796V27.0227C0 28.9437 0.854075 31.0368 2.53841 33.2441C4.14264 35.3464 6.46286 37.5068 9.43466 39.6655C12.6298 41.9863 15.8608 43.7831 18.0086 44.8817C18.1626 44.9606 18.3314 45 18.5 45C18.6686 45 18.8374 44.9606 18.9914 44.8817C21.1392 43.7831 24.3701 41.9863 27.5653 39.6655C30.5371 37.5069 32.8574 35.3465 34.4616 33.2441C36.146 31.0368 37 28.9437 37 27.0227V7.98796C37 7.68889 36.8713 7.40395 36.6461 7.20397ZM36.6461 7.20397L36.4801 7.39092C36.4801 7.39095 36.4801 7.39098 36.4802 7.391M36.6461 7.20397L36.4802 7.391M36.4802 7.391C36.3075 7.23788 36.0769 7.16374 35.8451 7.1883L35.845 7.18832C35.176 7.25872 34.4915 7.29437 33.8102 7.29437C28.1591 7.29437 22.8583 4.8343 19.2689 0.543386L19.2689 0.54334C19.114 0.358144 18.8824 0.25 18.6371 0.25H18.3628C18.1175 0.25 17.886 0.358117 17.731 0.54339C14.1414 4.83429 8.84071 7.29437 3.18978 7.29437C2.50854 7.29437 1.82397 7.25872 1.15504 7.18832L1.15485 7.1883C0.923116 7.16374 0.692443 7.23782 0.51987 7.39096L0.519821 7.391C0.347595 7.54376 0.25 7.76089 0.25 7.98796V27.0227C0.25 28.8692 1.07176 30.91 2.73715 33.0925C4.32219 35.1695 6.6224 37.3137 9.58158 39.4632C12.7627 41.7739 15.9815 43.564 18.1225 44.6591L18.1226 44.6592C18.2407 44.7197 18.3703 44.75 18.5 44.75C18.6297 44.75 18.7593 44.7197 18.8774 44.6592L18.8775 44.6591C21.0185 43.564 24.2372 41.7739 27.4184 39.4632C30.3776 37.3138 32.6778 35.1696 34.2629 33.0925C35.9283 30.91 36.75 28.8692 36.75 27.0227V7.98796C36.75 7.76102 36.6524 7.54395 36.4802 7.391ZM18.3843 42.9774L18.5 43.0378L18.6157 42.9774C20.6855 41.8971 23.5834 40.249 26.4462 38.1696C29.18 36.1838 31.3403 34.1826 32.8196 32.2922C34.2948 30.4072 35.114 28.6052 35.114 27.0227V16.3342V16.0842H34.864H9.70646C9.2516 16.0842 8.88847 15.7211 8.88847 15.2801C8.88847 14.839 9.2516 14.4759 9.70646 14.4759H34.8639H35.1139V14.2259V9.12688V8.86433L34.8517 8.87718C34.5049 8.89416 34.1571 8.90271 33.81 8.90271C28.0127 8.90271 22.5573 6.52091 18.6834 2.33541L18.4999 2.13718L18.3164 2.33541C14.4425 6.52091 8.98708 8.90271 3.18967 8.90271C2.84271 8.90271 2.49478 8.89416 2.14811 8.87718L1.88588 8.86433V9.12688V10.2369V10.4869H2.13588H27.3947C27.8495 10.4869 28.2127 10.85 28.2127 11.2911C28.2127 11.7322 27.8495 12.0953 27.3947 12.0953H2.13599H1.88599V12.3453V27.0227C1.88599 28.6052 2.70524 30.4072 4.18036 32.2922C5.65971 34.1826 7.81997 36.1838 10.5538 38.1696C13.4166 40.249 16.3145 41.897 18.3843 42.9774Z" fill="#efefef" stroke="#000000" stroke-width="0.5"/>
<rect x="17" y="14" width="3" height="3" fill="#000000"/>
<path d="M18.4934 20.2133L18.3076 20.0067C17.4745 19.0798 15.9992 18.0437 13.5409 18.0437C11.6087 18.0437 9.8377 18.7131 8.54789 19.9181C7.14183 21.2316 6.39062 23.0736 6.39062 25.2627C6.39062 27.171 6.82736 28.7472 7.81127 30.3888L7.59683 30.5173L7.81127 30.3888C8.64846 31.7857 10.1998 33.2436 11.9755 34.6163C13.7461 35.9851 15.717 37.2521 17.3718 38.2719L17.2406 38.4847L17.3718 38.2719L17.3794 38.2765C17.5541 38.3843 17.7005 38.4745 17.8115 38.5444M18.4934 20.2133L18.4925 38.7394C18.2544 38.7394 18.0175 38.6741 17.8115 38.5444M18.4934 20.2133L18.6793 20.0069C19.5142 19.0802 20.9926 18.0437 23.4535 18.0437C25.386 18.0437 27.1577 18.7128 28.4486 19.9177L28.6185 19.7357M18.4934 20.2133L28.6185 19.7357M17.8115 38.5444L17.6783 38.7559L17.8115 38.5444C17.8115 38.5444 17.8115 38.5444 17.8115 38.5444ZM28.6185 19.7357L28.4486 19.9177C29.8566 21.2318 30.6087 23.0738 30.6087 25.2628C30.6087 27.174 30.1726 28.7501 29.1905 30.3889C28.346 31.798 26.7894 33.2598 25.01 34.632C23.2356 36.0004 21.2622 37.2629 19.6057 38.2782C19.4297 38.3859 19.2824 38.4762 19.171 38.546L28.6185 19.7357ZM19.171 38.546C18.9657 38.6746 18.7296 38.7393 18.4926 38.7394L19.171 38.546ZM18.7398 36.9135L18.74 36.9133L19.5883 21.9432L19.3686 21.8238C19.3686 21.8239 19.3686 21.8239 19.3686 21.8239C19.1961 22.1411 18.8614 22.3397 18.4926 22.3397H18.4926H18.4926H18.4926H18.4926H18.4926H18.4926H18.4926H18.4925H18.4925H18.4925H18.4925H18.4925H18.4925H18.4925H18.4925H18.4925H18.4925H18.4925H18.4924H18.4924H18.4924H18.4924H18.4924H18.4924H18.4924H18.4924H18.4924H18.4924H18.4924H18.4924H18.4923H18.4923H18.4923H18.4923H18.4923H18.4923H18.4923H18.4923H18.4923H18.4923H18.4923H18.4922H18.4922H18.4922H18.4922H18.4922H18.4922H18.4922H18.4922H18.4922H18.4922H18.4922H18.4922H18.4921H18.4921H18.4921H18.4921H18.4921H18.4921H18.4921H18.4921H18.4921H18.4921H18.4921H18.4921H18.492H18.492H18.492H18.492H18.492H18.492H18.492H18.492H18.492H18.492H18.492H18.492H18.492H18.4919H18.4919H18.4919H18.4919H18.4919H18.4919H18.4919H18.4919H18.4919H18.4919H18.4919H18.4919H18.4918H18.4918H18.4918H18.4918H18.4918H18.4918H18.4918H18.4918H18.4918H18.4918H18.4918H18.4918H18.4918H18.4917H18.4917H18.4917H18.4917H18.4917C18.1226 22.3395 17.7878 22.1402 17.616 21.8227L17.616 21.8226C17.3484 21.3283 16.9264 20.7831 16.2668 20.3621C15.6059 19.9402 14.7204 19.6519 13.5409 19.6519C12.1806 19.6519 10.8021 20.082 9.76015 21.0066C8.71311 21.9359 8.02651 23.3467 8.0264 25.2628V25.2628C8.0264 26.8839 8.38532 28.1787 9.22063 29.5725L9.43507 29.4439L9.22063 29.5725C10.0783 31.0036 11.9007 32.565 13.702 33.8932C15.5122 35.2279 17.3388 36.3535 18.2393 36.9085L18.2406 36.9092L18.2407 36.9093L18.3619 36.984L18.4933 37.0652L18.6247 36.9841C18.6612 36.9615 18.6996 36.9381 18.7398 36.9135Z" fill="#efefef" stroke="#000000" stroke-width="0.5"/>
</svg>