<svg width="39" height="39" viewBox="0 0 39 39" fill="none" xmlns="http://www.w3.org/2000/svg">
<g id="Group 1000006322">
<g id="Vector">
<mask id="path-1-inside-1_2297_226" fill="white">
<path fill-rule="evenodd" clip-rule="evenodd" d="M19.5 0C8.73044 0 0 8.73044 0 19.5C0 30.2695 8.73044 39 19.5 39C30.2695 39 39 30.2695 39 19.5C39 8.73044 30.2695 0 19.5 0ZM13.65 19.5C10.4191 19.5 7.8 22.119 7.8 25.35C7.8 28.581 10.4191 31.2 13.65 31.2C16.881 31.2 19.5 28.581 19.5 25.35C19.5 22.119 16.881 19.5 13.65 19.5ZM6.24193 15.2237C6.9882 15.5328 7.34267 16.3882 7.03367 17.1345L6.22625 19.0845C5.91723 19.8307 5.06177 20.1852 4.31551 19.8762C3.56922 19.5673 3.21475 18.7118 3.52375 17.9655L4.33118 16.0155C4.64018 15.2692 5.49565 14.9147 6.24193 15.2237ZM22.8577 10.2841C22.9675 11.0807 23.6995 11.6385 24.4955 11.5346C25.7874 11.4636 28.3715 12.1394 28.3715 15.4108C28.2678 16.2068 28.8255 16.9387 29.6221 17.0487C30.4221 17.1588 31.1682 16.5346 31.2786 15.7346C31.2821 15.7034 31.2862 15.6628 31.2903 15.6136C31.2985 15.5154 31.3067 15.3823 31.3096 15.2206C31.3152 14.8991 31.3004 14.4549 31.2191 13.9439C31.0576 12.93 30.6195 11.5714 29.4772 10.4291C28.3347 9.28668 26.9763 8.84853 25.9623 8.68707C25.4512 8.6057 25.0072 8.59084 24.6856 8.59663C24.524 8.59954 24.3908 8.60771 24.2925 8.61588C24.2434 8.61995 24.1174 8.63411 24.1174 8.63411C23.3173 8.74444 22.7473 9.484 22.8577 10.2841ZM15.099 14.0213C15.2094 14.8214 14.6502 15.5595 13.85 15.6698L13.8477 15.6702L13.8451 15.6706L13.8392 15.6714L13.8248 15.6731L13.785 15.6778C13.7538 15.6813 13.7132 15.6854 13.6641 15.6895C13.5659 15.6977 13.4327 15.7059 13.2711 15.7088C12.9496 15.7147 12.5054 15.6996 11.9944 15.6183C10.9804 15.4569 9.6219 15.0187 8.47954 13.8764C7.33717 12.734 6.89902 11.3755 6.73756 10.3615C6.65617 9.85052 6.64133 9.40633 6.6471 9.08482C6.65001 8.92316 6.65818 8.79 6.66635 8.69185C6.67044 8.64271 6.67454 8.60213 6.67803 8.57093L6.68273 8.53115L6.68458 8.51666C6.79493 7.71652 7.53447 7.14652 8.33461 7.25687C9.13117 7.36671 9.68893 8.09868 9.58507 8.89465C9.51421 10.1867 10.1903 12.7708 13.4613 12.7708C14.2572 12.667 14.9892 13.2248 15.099 14.0213ZM34.5858 21.4358C34.7381 22.2183 34.236 22.9765 33.4606 23.1445L33.4556 23.1461C33.4382 23.151 33.3984 23.1631 33.3417 23.1855C33.2274 23.2303 33.0513 23.3142 32.8538 23.4589C32.4786 23.7336 31.9601 24.2734 31.6699 25.3562C31.3798 26.4393 31.5588 27.1662 31.7464 27.5915C31.8453 27.8156 31.9558 27.9763 32.0323 28.0724C32.0703 28.1202 32.0988 28.1506 32.111 28.1635L32.1149 28.1672C32.7023 28.7005 32.758 29.6082 32.2347 30.2096C31.7045 30.819 30.7807 30.8831 30.1714 30.3529L31.1312 29.25C30.1714 30.3529 30.1714 30.3529 30.1714 30.3529L30.1686 30.3506L30.1659 30.348L30.1597 30.3426L30.1454 30.3299L30.1099 30.2971C30.0834 30.2722 30.0511 30.2406 30.014 30.2024C29.9399 30.1261 29.8463 30.0232 29.7428 29.8929C29.5361 29.6328 29.2851 29.2596 29.07 28.7715C28.6297 27.7729 28.3719 26.3638 28.8446 24.5994C29.3173 22.8349 30.2453 21.7435 31.1259 21.0988C31.5563 20.7837 31.9603 20.586 32.2692 20.4641C32.424 20.403 32.5566 20.3605 32.6588 20.3317C32.7101 20.317 32.754 20.3059 32.7894 20.2975L32.8364 20.287L32.8552 20.2829L32.8633 20.2814L32.8671 20.2806C32.8671 20.2806 32.8706 20.28 33.1502 21.7154L32.8706 20.28C33.6634 20.1256 34.4313 20.6431 34.5858 21.4358ZM21.1164 29.8574C21.6122 29.2198 22.5313 29.1051 23.1687 29.601L26.247 31.9956C26.8846 32.4915 26.9993 33.4103 26.5034 34.048C26.0075 34.6854 25.0887 34.8003 24.451 34.3042L21.3728 31.9098C20.7353 31.4137 20.6205 30.4949 21.1164 29.8574ZM25.8375 19.5C25.8375 18.6923 25.1827 18.0375 24.375 18.0375C23.5673 18.0375 22.9125 18.6923 22.9125 19.5V23.4C22.9125 24.2077 23.5673 24.8625 24.375 24.8625C25.1827 24.8625 25.8375 24.2077 25.8375 23.4V19.5ZM19.5591 11.6409C18.9879 11.0697 18.0621 11.0697 17.4909 11.6409C16.9198 12.212 16.9198 13.138 17.4909 13.7091L19.4409 15.6591C20.0121 16.2302 20.9379 16.2302 21.5091 15.6591C22.0802 15.088 22.0802 14.162 21.5091 13.5909L19.5591 11.6409Z"/>
</mask>
<path d="M6.24193 15.2237L6.62451 14.2998L6.62448 14.2998L6.24193 15.2237ZM7.03367 17.1345L7.9576 17.517L7.9576 17.517L7.03367 17.1345ZM6.22625 19.0845L7.15017 19.467L7.15018 19.467L6.22625 19.0845ZM4.31551 19.8762L4.69815 18.9523L4.69793 18.9522L4.31551 19.8762ZM3.52375 17.9655L2.59982 17.583L2.59982 17.583L3.52375 17.9655ZM4.33118 16.0155L5.25511 16.3981L5.25512 16.3981L4.33118 16.0155ZM22.8577 10.2841L23.8483 10.1476L23.8483 10.1475L22.8577 10.2841ZM24.4955 11.5346L24.4406 10.5361L24.4032 10.5381L24.3661 10.543L24.4955 11.5346ZM28.3715 15.4108L29.3631 15.54L29.3715 15.4757V15.4108H28.3715ZM29.6221 17.0487L29.4853 18.0393L29.4856 18.0393L29.6221 17.0487ZM31.2786 15.7346L32.2692 15.8712L32.2709 15.8588L32.2723 15.8463L31.2786 15.7346ZM31.2903 15.6136L30.2937 15.5305L30.2937 15.5306L31.2903 15.6136ZM31.3096 15.2206L32.3094 15.2387L32.3094 15.2382L31.3096 15.2206ZM31.2191 13.9439L32.2067 13.7868L32.2067 13.7866L31.2191 13.9439ZM29.4772 10.4291L30.1843 9.72198L30.1842 9.72192L29.4772 10.4291ZM25.9623 8.68707L26.1195 7.69951L26.1195 7.69951L25.9623 8.68707ZM24.6856 8.59663L24.7036 9.59647L24.7036 9.59647L24.6856 8.59663ZM24.2925 8.61588L24.3752 9.61246L24.3754 9.61244L24.2925 8.61588ZM24.1174 8.63411L24.0057 7.64037L23.9932 7.64177L23.9808 7.64349L24.1174 8.63411ZM15.099 14.0213L14.1084 14.1579L14.1084 14.1579L15.099 14.0213ZM13.85 15.6698L13.7135 14.6792L13.6998 14.6811L13.6861 14.6833L13.85 15.6698ZM13.8477 15.6702L13.9969 16.659L14.0043 16.6579L14.0116 16.6567L13.8477 15.6702ZM13.8451 15.6706L13.9768 16.6619L13.9856 16.6607L13.9943 16.6594L13.8451 15.6706ZM13.8392 15.6714L13.9596 16.6642L13.9709 16.6627L13.8392 15.6714ZM13.8248 15.6731L13.9416 16.6663L13.9451 16.6659L13.8248 15.6731ZM13.785 15.6778L13.8968 16.6715L13.9018 16.671L13.785 15.6778ZM13.6641 15.6895L13.581 14.693L13.5809 14.693L13.6641 15.6895ZM13.2711 15.7088L13.253 14.709L13.2529 14.709L13.2711 15.7088ZM11.9944 15.6183L11.8371 16.6059L11.8372 16.6059L11.9944 15.6183ZM6.73756 10.3615L7.72512 10.2043L7.72511 10.2042L6.73756 10.3615ZM6.6471 9.08482L5.64726 9.06685L5.64726 9.06687L6.6471 9.08482ZM6.66635 8.69185L5.6698 8.60881L5.6698 8.60889L6.66635 8.69185ZM6.67803 8.57093L5.68492 8.45361L5.68423 8.45975L6.67803 8.57093ZM6.68273 8.53115L5.69075 8.40435L5.68963 8.41383L6.68273 8.53115ZM6.68458 8.51666L5.69391 8.38004L5.69265 8.38986L6.68458 8.51666ZM8.33461 7.25687L8.19799 8.24749L8.19801 8.24749L8.33461 7.25687ZM9.58507 8.89465L8.59347 8.76527L8.58862 8.80245L8.58657 8.83989L9.58507 8.89465ZM13.4613 12.7708V13.7708H13.5262L13.5906 13.7624L13.4613 12.7708ZM34.5858 21.4358L35.5674 21.2447L35.5673 21.2445L34.5858 21.4358ZM33.4606 23.1445L33.2488 22.1673L33.2072 22.1763L33.1665 22.1888L33.4606 23.1445ZM33.4556 23.1461L33.726 24.1088L33.7379 24.1055L33.7497 24.1019L33.4556 23.1461ZM33.3417 23.1855L33.707 24.1164L33.7092 24.1155L33.3417 23.1855ZM32.8538 23.4589L33.4446 24.2657L33.4447 24.2656L32.8538 23.4589ZM31.6699 25.3562L30.704 25.0974L30.704 25.0975L31.6699 25.3562ZM31.7464 27.5915L30.8314 27.9951L30.8315 27.9952L31.7464 27.5915ZM32.0323 28.0724L31.2495 28.6948L31.2498 28.6951L32.0323 28.0724ZM32.111 28.1635L31.3877 28.8539L31.4046 28.8717L31.4224 28.8886L32.111 28.1635ZM32.1149 28.1672L31.4263 28.8923L31.4344 28.9L31.4427 28.9075L32.1149 28.1672ZM32.2347 30.2096L31.4803 29.5531L31.4803 29.5532L32.2347 30.2096ZM30.1686 30.3506L29.4882 31.0833L29.5029 31.0971L29.5183 31.1102L30.1686 30.3506ZM30.1659 30.348L30.8464 29.6153L30.8355 29.6052L30.8243 29.5954L30.1659 30.348ZM30.1597 30.3426L29.4946 31.0895L29.5013 31.0953L30.1597 30.3426ZM30.1454 30.3299L29.4671 31.0647L29.4737 31.0708L29.4804 31.0768L30.1454 30.3299ZM30.1099 30.2971L29.4246 31.0254L29.4317 31.0319L30.1099 30.2971ZM30.014 30.2024L30.732 29.5063L30.7311 29.5054L30.014 30.2024ZM29.7428 29.8929L28.9598 30.515L28.96 30.5152L29.7428 29.8929ZM29.07 28.7715L29.9851 28.3682L29.985 28.368L29.07 28.7715ZM28.8446 24.5994L29.8105 24.8582L29.8105 24.8582L28.8446 24.5994ZM31.1259 21.0988L31.7166 21.9057L31.7167 21.9056L31.1259 21.0988ZM32.2692 20.4641L31.9024 19.5338L31.9021 19.5339L32.2692 20.4641ZM32.6588 20.3317L32.9306 21.294L32.933 21.2933L32.6588 20.3317ZM32.7894 20.2975L32.5708 19.3217L32.5595 19.3243L32.7894 20.2975ZM32.8364 20.287L32.6228 19.3101L32.6178 19.3112L32.8364 20.287ZM32.8552 20.2829L32.668 19.3006L32.6547 19.3031L32.6415 19.306L32.8552 20.2829ZM32.8633 20.2814L33.0505 21.2637L33.06 21.2619L33.0694 21.2599L32.8633 20.2814ZM32.8671 20.2806L32.7028 19.2942L32.6818 19.2977L32.661 19.3021L32.8671 20.2806ZM32.8706 20.28L32.6794 19.2984L31.6978 19.4896L31.889 20.4712L32.8706 20.28ZM21.1164 29.8574L21.9057 30.4714L21.9057 30.4713L21.1164 29.8574ZM23.1687 29.601L22.5547 30.3903L22.5547 30.3903L23.1687 29.601ZM26.247 31.9956L25.633 32.7849L25.6331 32.785L26.247 31.9956ZM26.5034 34.048L27.2927 34.662L27.2928 34.6619L26.5034 34.048ZM24.451 34.3042L25.0651 33.5149L25.065 33.5149L24.451 34.3042ZM21.3728 31.9098L20.7586 32.699L20.7588 32.6991L21.3728 31.9098ZM19.5591 11.6409L20.2662 10.9337L20.2662 10.9337L19.5591 11.6409ZM17.4909 13.7091L18.198 13.002L18.198 13.002L17.4909 13.7091ZM19.4409 15.6591L20.148 14.952L20.148 14.952L19.4409 15.6591ZM21.5091 15.6591L20.802 14.9519L20.802 14.952L21.5091 15.6591ZM21.5091 13.5909L20.802 14.298L20.802 14.298L21.5091 13.5909ZM19.5 -1C8.17816 -1 -1 8.17816 -1 19.5H1C1 9.28273 9.28273 1 19.5 1V-1ZM-1 19.5C-1 30.8217 8.17815 40 19.5 40V38C9.28273 38 1 29.7172 1 19.5H-1ZM19.5 40C30.8217 40 40 30.8217 40 19.5H38C38 29.7172 29.7172 38 19.5 38V40ZM40 19.5C40 8.17815 30.8217 -1 19.5 -1V1C29.7172 1 38 9.28273 38 19.5H40ZM13.65 18.5C9.86687 18.5 6.8 21.5667 6.8 25.35H8.8C8.8 22.6713 10.9714 20.5 13.65 20.5V18.5ZM6.8 25.35C6.8 29.1332 9.86687 32.2 13.65 32.2V30.2C10.9714 30.2 8.8 28.0287 8.8 25.35H6.8ZM13.65 32.2C17.4332 32.2 20.5 29.1332 20.5 25.35H18.5C18.5 28.0287 16.3287 30.2 13.65 30.2V32.2ZM20.5 25.35C20.5 21.5668 17.4332 18.5 13.65 18.5V20.5C16.3287 20.5 18.5 22.6713 18.5 25.35H20.5ZM5.85935 16.1477C6.09538 16.2454 6.20745 16.5159 6.10974 16.7519L7.9576 17.517C8.47789 16.2605 7.88101 14.8201 6.62451 14.2998L5.85935 16.1477ZM6.10974 16.7519L5.30232 18.7019L7.15018 19.467L7.9576 17.517L6.10974 16.7519ZM5.30233 18.7019C5.20458 18.9379 4.93405 19.05 4.69815 18.9523L3.93286 20.8C5.18949 21.3205 6.62989 20.7235 7.15017 19.467L5.30233 18.7019ZM4.69793 18.9522C4.4621 18.8546 4.34995 18.5841 4.44768 18.3481L2.59982 17.583C2.07956 18.8395 2.67634 20.28 3.93308 20.8001L4.69793 18.9522ZM4.44767 18.3481L5.25511 16.3981L3.40726 15.633L2.59982 17.583L4.44767 18.3481ZM5.25512 16.3981C5.35285 16.1621 5.62336 16.05 5.85938 16.1477L6.62448 14.2998C5.36793 13.7795 3.92752 14.3764 3.40724 15.633L5.25512 16.3981ZM21.8671 10.4207C22.0519 11.762 23.2845 12.7011 24.6249 12.5262L24.3661 10.543C24.1145 10.5758 23.883 10.3993 23.8483 10.1476L21.8671 10.4207ZM24.5504 12.5331C25.0278 12.5068 25.7596 12.6264 26.342 13.0367C26.8681 13.4075 27.3715 14.0808 27.3715 15.4108H29.3715C29.3715 13.4694 28.5829 12.1692 27.494 11.4019C26.4613 10.6742 25.2551 10.4913 24.4406 10.5361L24.5504 12.5331ZM27.3799 15.2816C27.2052 16.622 28.1442 17.8541 29.4853 18.0393L29.7588 16.0581C29.5068 16.0233 29.3303 15.7917 29.3631 15.54L27.3799 15.2816ZM29.4856 18.0393C30.8887 18.2325 32.0913 17.1606 32.2692 15.8712L30.288 15.5979C30.2695 15.7316 30.1945 15.8631 30.0811 15.9547C29.9701 16.0442 29.8548 16.0713 29.7585 16.058L29.4856 18.0393ZM32.2723 15.8463C32.2769 15.8055 32.2819 15.7554 32.2868 15.6967L30.2937 15.5306C30.2904 15.5702 30.2873 15.6012 30.2849 15.6228L32.2723 15.8463ZM32.2868 15.6968C32.2966 15.579 32.3061 15.4241 32.3094 15.2387L30.3098 15.2025C30.3073 15.3405 30.3003 15.4519 30.2937 15.5305L32.2868 15.6968ZM32.3094 15.2382C32.3159 14.8708 32.299 14.3668 32.2067 13.7868L30.2315 14.101C30.3019 14.543 30.3146 14.9273 30.3097 15.203L32.3094 15.2382ZM32.2067 13.7866C32.0242 12.6406 31.5223 11.06 30.1843 9.72198L28.7701 11.1362C29.7167 12.0828 30.0911 13.2194 30.2316 14.1012L32.2067 13.7866ZM30.1842 9.72192C28.8461 8.38391 27.2657 7.88203 26.1195 7.69951L25.805 9.67463C26.6868 9.81504 27.8232 10.1895 28.7701 11.1362L30.1842 9.72192ZM26.1195 7.69951C25.5394 7.60715 25.0354 7.59017 24.6676 7.5968L24.7036 9.59647C24.9789 9.59151 25.363 9.60425 25.8051 9.67463L26.1195 7.69951ZM24.6677 7.5968C24.4823 7.60013 24.3274 7.60953 24.2097 7.61932L24.3754 9.61244C24.4542 9.60589 24.5657 9.59895 24.7036 9.59647L24.6677 7.5968ZM24.2099 7.6193C24.171 7.62252 24.115 7.62845 24.0796 7.63226C24.0595 7.63442 24.0412 7.63643 24.0279 7.6379C24.0213 7.63863 24.0158 7.63924 24.012 7.63966C24.0101 7.63988 24.0086 7.64005 24.0075 7.64017C24.007 7.64023 24.0066 7.64027 24.0063 7.64031C24.0061 7.64033 24.006 7.64034 24.0059 7.64035C24.0059 7.64035 24.0058 7.64036 24.0058 7.64036C24.0058 7.64036 24.0058 7.64036 24.0057 7.64037C24.0057 7.64037 24.0057 7.64037 24.0057 7.64037C24.0057 7.64037 24.0057 7.64037 24.1174 8.63411C24.2291 9.62786 24.2291 9.62786 24.2291 9.62786C24.2291 9.62786 24.2291 9.62786 24.2291 9.62786C24.2291 9.62786 24.2291 9.62786 24.2291 9.62786C24.2291 9.62786 24.2291 9.62786 24.2291 9.62786C24.2291 9.62785 24.2292 9.62785 24.2293 9.62784C24.2295 9.62782 24.2297 9.62778 24.2301 9.62774C24.231 9.62765 24.2322 9.62751 24.2338 9.62733C24.2371 9.62696 24.2419 9.62643 24.2478 9.62578C24.2597 9.62446 24.2759 9.62268 24.2935 9.62079C24.3112 9.61888 24.3294 9.61696 24.3454 9.61533C24.3534 9.61452 24.3602 9.61385 24.3658 9.61331C24.3686 9.61305 24.3708 9.61284 24.3725 9.61269C24.3734 9.61261 24.374 9.61256 24.3745 9.61252C24.3749 9.61248 24.3752 9.61246 24.3752 9.61246L24.2099 7.6193ZM23.9808 7.64349C22.6432 7.82794 21.6799 9.06398 21.8671 10.4208L23.8483 10.1475C23.8147 9.90402 23.9915 9.66094 24.254 9.62474L23.9808 7.64349ZM14.1084 14.1579C14.1433 14.411 13.9665 14.6443 13.7135 14.6792L13.9866 16.6604C15.3339 16.4748 16.2755 15.2319 16.0897 13.8847L14.1084 14.1579ZM13.6861 14.6833L13.6837 14.6837L14.0116 16.6567L14.014 16.6563L13.6861 14.6833ZM13.6985 14.6814L13.696 14.6818L13.9943 16.6594L13.9969 16.659L13.6985 14.6814ZM13.7134 14.6793L13.7075 14.6801L13.9709 16.6627L13.9768 16.6619L13.7134 14.6793ZM13.7189 14.6786L13.7044 14.6804L13.9451 16.6659L13.9596 16.6641L13.7189 14.6786ZM13.7079 14.68L13.6682 14.6846L13.9018 16.671L13.9416 16.6663L13.7079 14.68ZM13.6732 14.6841C13.6517 14.6865 13.6207 14.6897 13.581 14.693L13.7471 16.6861C13.8057 16.6812 13.8559 16.6761 13.8968 16.6715L13.6732 14.6841ZM13.5809 14.693C13.5023 14.6995 13.3909 14.7065 13.253 14.709L13.2892 16.7086C13.4746 16.7053 13.6295 16.6959 13.7472 16.686L13.5809 14.693ZM13.2529 14.709C12.978 14.714 12.5938 14.7011 12.1515 14.6308L11.8372 16.6059C12.417 16.6982 12.9211 16.7153 13.2893 16.7086L13.2529 14.709ZM12.1516 14.6308C11.2698 14.4904 10.1333 14.116 9.18664 13.1693L7.77243 14.5835C9.11048 15.9215 10.691 16.4234 11.8371 16.6059L12.1516 14.6308ZM9.18664 13.1693C8.23996 12.2226 7.86554 11.0861 7.72512 10.2043L5.75 10.5188C5.93251 11.6649 6.43438 13.2454 7.77243 14.5835L9.18664 13.1693ZM7.72511 10.2042C7.65473 9.76232 7.642 9.37811 7.64694 9.10277L5.64726 9.06687C5.64066 9.43455 5.65761 9.93872 5.75001 10.5188L7.72511 10.2042ZM7.64694 9.10279C7.64942 8.96484 7.65635 8.85344 7.6629 8.77482L5.6698 8.60889C5.66 8.72655 5.65059 8.88148 5.64726 9.06685L7.64694 9.10279ZM7.66289 8.7749C7.66619 8.73528 7.66937 8.70408 7.67183 8.68211L5.68423 8.45975C5.6797 8.50019 5.67469 8.55015 5.6698 8.60881L7.66289 8.7749ZM7.67112 8.68826L7.67582 8.64848L5.68963 8.41383L5.68493 8.45361L7.67112 8.68826ZM7.67466 8.65795L7.67651 8.64346L5.69265 8.38986L5.6908 8.40435L7.67466 8.65795ZM7.6752 8.65328C7.71143 8.3906 7.95456 8.21392 8.19799 8.24749L8.47123 6.26624C7.11438 6.07911 5.87843 7.04244 5.69396 8.38004L7.6752 8.65328ZM8.19801 8.24749C8.44987 8.28222 8.6263 8.51372 8.59347 8.76527L10.5767 9.02403C10.7516 7.68364 9.81246 6.4512 8.47122 6.26624L8.19801 8.24749ZM8.58657 8.83989C8.5419 9.6544 8.72485 10.8606 9.45253 11.8933C10.2198 12.9822 11.52 13.7708 13.4613 13.7708V11.7708C12.1315 11.7708 11.4582 11.2674 11.0874 10.7413C10.677 10.1589 10.5574 9.42697 10.5836 8.94941L8.58657 8.83989ZM13.5906 13.7624C13.8422 13.7296 14.0737 13.9061 14.1084 14.1579L16.0897 13.8847C15.9047 12.5435 14.6723 11.6044 13.3319 11.7792L13.5906 13.7624ZM33.6042 21.6268C33.6524 21.8743 33.4935 22.1142 33.2488 22.1673L33.6725 24.1218C34.9784 23.8387 35.8238 22.5623 35.5674 21.2447L33.6042 21.6268ZM33.1665 22.1888L33.1614 22.1903L33.7497 24.1019L33.7548 24.1003L33.1665 22.1888ZM33.1851 22.1834C33.1372 22.1968 33.0649 22.2196 32.9742 22.2555L33.7092 24.1155C33.732 24.1065 33.7392 24.1051 33.726 24.1088L33.1851 22.1834ZM32.9763 22.2546C32.7942 22.3261 32.5399 22.4493 32.2629 22.6522L33.4447 24.2656C33.5628 24.1791 33.6607 24.1346 33.707 24.1164L32.9763 22.2546ZM32.263 22.6521C31.7149 23.0534 31.0566 23.7818 30.704 25.0974L32.6359 25.6151C32.8636 24.765 33.2423 24.4139 33.4446 24.2657L32.263 22.6521ZM30.704 25.0975C30.3516 26.413 30.5572 27.3733 30.8314 27.9951L32.6613 27.188C32.5604 26.9591 32.408 26.4655 32.6359 25.615L30.704 25.0975ZM30.8315 27.9952C30.97 28.3092 31.1284 28.5424 31.2495 28.6948L32.815 27.45C32.7832 27.4101 32.7205 27.322 32.6613 27.1878L30.8315 27.9952ZM31.2498 28.6951C31.3112 28.7722 31.3606 28.8256 31.3877 28.8539L32.8344 27.473C32.8342 27.4728 32.8341 27.4727 32.8338 27.4724C32.8334 27.472 32.8325 27.4709 32.831 27.4692C32.828 27.4658 32.8224 27.4593 32.8147 27.4496L31.2498 28.6951ZM31.4224 28.8886L31.4263 28.8923L32.8036 27.442L32.7997 27.4383L31.4224 28.8886ZM31.4427 28.9075C31.6282 29.076 31.6457 29.3631 31.4803 29.5531L32.989 30.8661C33.8704 29.8533 33.7763 28.325 32.7872 27.4268L31.4427 28.9075ZM31.4803 29.5532C31.3126 29.7459 31.0205 29.7662 30.8278 29.5985L29.515 31.1073C30.541 32 32.0963 31.892 32.9891 30.866L31.4803 29.5532ZM30.9257 31.0094L31.8855 29.9065L30.3768 28.5935L29.417 29.6965L30.9257 31.0094ZM30.3768 28.5935C29.8969 29.145 29.657 29.4207 29.537 29.5586C29.477 29.6275 29.447 29.662 29.432 29.6792C29.4245 29.6878 29.4208 29.6921 29.4189 29.6943C29.418 29.6954 29.4175 29.6959 29.4173 29.6961C29.4172 29.6962 29.4172 29.6962 29.4172 29.6963C29.4172 29.6963 29.4171 29.6963 29.4171 29.6963C29.4171 29.6963 29.4171 29.6963 29.4171 29.6963C29.4171 29.6963 29.4171 29.6963 29.4171 29.6963C29.4171 29.6963 29.4171 29.6963 29.4171 29.6963L29.4171 29.6963C29.4171 29.6963 29.4171 29.6963 29.4171 29.6963C29.4172 29.6963 29.4172 29.6963 29.4172 29.6962C29.4172 29.6962 29.4173 29.6962 29.4174 29.696C29.4174 29.696 29.4175 29.6959 29.4177 29.6956C29.4179 29.6954 29.4183 29.695 29.4184 29.6948C30.3363 29.3666 31.0975 29.9756 30.1714 30.3529C29.2453 30.7302 30.0064 31.3392 30.9243 31.011C30.9245 31.0108 30.9248 31.0104 30.925 31.0102C30.9252 31.01 30.9254 31.0098 30.9254 31.0098C30.9255 31.0097 30.9255 31.0096 30.9256 31.0096C30.9256 31.0095 30.9257 31.0095 30.9257 31.0094C30.9257 31.0094 30.9258 31.0093 30.9259 31.0092C30.9262 31.0089 30.9266 31.0083 30.9276 31.0072C30.9295 31.0051 30.9332 31.0008 30.9407 30.9922C30.9557 30.9749 30.9857 30.9405 31.0457 30.8715C31.1657 30.7337 31.4056 30.4579 31.8855 29.9065L30.3768 28.5935ZM30.8217 29.5933L30.819 29.5909L29.5183 31.1102L29.521 31.1125L30.8217 29.5933ZM30.8491 29.6178L30.8464 29.6153L29.4854 31.0808L29.4882 31.0833L30.8491 29.6178ZM30.8243 29.5954L30.818 29.5899L29.5013 31.0953L29.5075 31.1007L30.8243 29.5954ZM30.8247 29.5957L30.8104 29.5831L29.4804 31.0768L29.4947 31.0894L30.8247 29.5957ZM30.8237 29.5951L30.7882 29.5624L29.4317 31.0319L29.4671 31.0647L30.8237 29.5951ZM30.7953 29.5689C30.7796 29.5542 30.7582 29.5333 30.732 29.5063L29.296 30.8984C29.3439 30.9479 29.3872 30.9902 29.4246 31.0254L30.7953 29.5689ZM30.7311 29.5054C30.6774 29.4501 30.6062 29.372 30.5256 29.2707L28.96 30.5152C29.0865 30.6743 29.2024 30.8021 29.2969 30.8993L30.7311 29.5054ZM30.5257 29.2708C30.3633 29.0664 30.1603 28.7658 29.9851 28.3682L28.1549 29.1747C28.4099 29.7533 28.7089 30.1992 28.9598 30.515L30.5257 29.2708ZM29.985 28.368C29.6311 27.5653 29.4003 26.3896 29.8105 24.8582L27.8787 24.3407C27.3435 26.3381 27.6283 27.9804 28.155 29.1749L29.985 28.368ZM29.8105 24.8582C30.2208 23.3268 31.0087 22.4239 31.7166 21.9057L30.5352 20.2919C29.4819 21.063 28.4138 22.343 27.8787 24.3407L29.8105 24.8582ZM31.7167 21.9056C32.0673 21.6489 32.3934 21.4901 32.6362 21.3943L31.9021 19.5339C31.5272 19.6818 31.0452 19.9184 30.5351 20.292L31.7167 21.9056ZM32.6359 21.3944C32.757 21.3467 32.8577 21.3146 32.9306 21.294L32.387 19.3693C32.2555 19.4065 32.091 19.4594 31.9024 19.5338L32.6359 21.3944ZM32.933 21.2933C32.9681 21.2833 32.9971 21.276 33.0194 21.2708L32.5595 19.3243C32.5108 19.3358 32.4521 19.3508 32.3846 19.37L32.933 21.2933ZM33.008 21.2734L33.055 21.2628L32.6178 19.3112L32.5708 19.3217L33.008 21.2734ZM33.0501 21.2639L33.0688 21.2598L32.6415 19.306L32.6228 19.3101L33.0501 21.2639ZM33.0423 21.2653L33.0505 21.2637L32.6762 19.299L32.668 19.3006L33.0423 21.2653ZM33.0694 21.2599L33.0731 21.2591L32.661 19.3021L32.6573 19.3028L33.0694 21.2599ZM32.8671 20.2806C33.0313 21.267 32.8428 21.2803 32.6551 21.2579C32.6027 21.245 32.4666 21.1969 32.3853 21.1569C32.2545 21.085 32.1697 21.0001 32.1273 20.9535C32.0437 20.8615 31.9975 20.7754 31.9835 20.7488C31.9485 20.6828 31.9291 20.6275 31.9248 20.6154C31.9116 20.5783 31.9036 20.5485 31.9021 20.5429C31.8969 20.5239 31.8936 20.5093 31.8933 20.5078C31.8917 20.5008 31.8913 20.4987 31.8933 20.5084C31.897 20.5259 31.9054 20.5668 31.9232 20.6557C31.9585 20.8325 32.0289 21.1893 32.1686 21.9066L34.1317 21.5242C33.9919 20.8061 33.9207 20.4455 33.8844 20.2637C33.8663 20.1734 33.8564 20.1247 33.8506 20.0974C33.848 20.0848 33.8451 20.0715 33.8422 20.0589C33.8413 20.0547 33.8376 20.0386 33.8322 20.019C33.8306 20.013 33.8226 19.983 33.8094 19.9458C33.8051 19.9337 33.7856 19.8783 33.7506 19.8123C33.7366 19.7858 33.6904 19.6996 33.6068 19.6077C33.5644 19.5611 33.4796 19.4762 33.3488 19.4043C33.2675 19.3643 33.1314 19.3161 33.079 19.3033C32.8913 19.2809 32.7028 19.2942 32.8671 20.2806ZM34.1317 21.5242L33.8521 20.0888L31.889 20.4712L32.1686 21.9066L34.1317 21.5242ZM33.0618 21.2615C33.3126 21.2127 33.5554 21.3764 33.6042 21.627L35.5673 21.2445C35.3073 19.9097 34.0143 19.0384 32.6794 19.2984L33.0618 21.2615ZM21.9057 30.4713C22.0624 30.2698 22.3531 30.2334 22.5547 30.3903L23.7827 28.8117C22.7095 27.9768 21.162 28.1697 20.327 29.2435L21.9057 30.4713ZM22.5547 30.3903L25.633 32.7849L26.861 31.2063L23.7827 28.8117L22.5547 30.3903ZM25.6331 32.785C25.8345 32.9416 25.8711 33.2322 25.714 33.4341L27.2928 34.6619C28.1275 33.5885 27.9348 32.0413 26.8609 31.2062L25.6331 32.785ZM25.7141 33.434C25.5574 33.6355 25.2668 33.6719 25.0651 33.5149L23.837 35.0935C24.9106 35.9287 26.4577 35.7354 27.2927 34.662L25.7141 33.434ZM25.065 33.5149L21.9867 31.1205L20.7588 32.6991L23.8371 35.0935L25.065 33.5149ZM21.9869 31.1206C21.7851 30.9635 21.749 30.6728 21.9057 30.4714L20.3271 29.2434C19.4919 30.3169 19.6856 31.8639 20.7586 32.699L21.9869 31.1206ZM26.8375 19.5C26.8375 18.14 25.735 17.0375 24.375 17.0375V19.0375C24.6304 19.0375 24.8375 19.2446 24.8375 19.5H26.8375ZM24.375 17.0375C23.015 17.0375 21.9125 18.14 21.9125 19.5H23.9125C23.9125 19.2446 24.1196 19.0375 24.375 19.0375V17.0375ZM21.9125 19.5V23.4H23.9125V19.5H21.9125ZM21.9125 23.4C21.9125 24.76 23.015 25.8625 24.375 25.8625V23.8625C24.1196 23.8625 23.9125 23.6554 23.9125 23.4H21.9125ZM24.375 25.8625C25.735 25.8625 26.8375 24.76 26.8375 23.4H24.8375C24.8375 23.6554 24.6304 23.8625 24.375 23.8625V25.8625ZM26.8375 23.4V19.5H24.8375V23.4H26.8375ZM20.2662 10.9337C19.3045 9.97209 17.7455 9.97209 16.7838 10.9337L18.198 12.348C18.3786 12.1673 18.6714 12.1673 18.852 12.348L20.2662 10.9337ZM16.7838 10.9337C15.8221 11.8954 15.8221 13.4546 16.7838 14.4163L18.198 13.002C18.0174 12.8214 18.0174 12.5286 18.198 12.348L16.7838 10.9337ZM16.7838 14.4163L18.7338 16.3662L20.148 14.952L18.198 13.002L16.7838 14.4163ZM18.7338 16.3662C19.6955 17.3279 21.2545 17.3279 22.2162 16.3662L20.802 14.952C20.6213 15.1326 20.3287 15.1326 20.148 14.952L18.7338 16.3662ZM22.2161 16.3662C23.1779 15.4046 23.1779 13.8454 22.2162 12.8837L20.802 14.298C20.9826 14.4786 20.9826 14.7714 20.802 14.9519L22.2161 16.3662ZM22.2162 12.8837L20.2662 10.9337L18.852 12.348L20.802 14.298L22.2162 12.8837Z" fill="#323232" mask="url(#path-1-inside-1_2297_226)"/>
</g>
<path id="Vector 77" d="M1.85742 36.1464L37.1431 2.85376" stroke="#323232" stroke-linecap="round"/>
</g>
</svg>
