<svg width="32" height="30" viewBox="0 0 32 30" fill="none" xmlns="http://www.w3.org/2000/svg">
<g id="Group 1000006306">
<path id="path43285" d="M10.0384 0.257806L10.0382 0.257912C9.93105 0.298828 9.83306 0.360489 9.74982 0.43935C9.66659 0.518201 9.59973 0.612697 9.55309 0.717427C9.55309 0.717436 9.55308 0.717446 9.55308 0.717456L5.26741 10.3602L5.26739 10.3603C5.22087 10.4649 5.19541 10.5776 5.19247 10.692C5.18954 10.8065 5.20918 10.9204 5.25027 11.0272L5.06439 11.0987L5.25027 11.0272C5.29136 11.1341 5.3531 11.2317 5.43198 11.3147L5.28701 11.4525L5.43198 11.3147C5.51085 11.3977 5.6053 11.4644 5.70991 11.5108L5.71002 11.5109C5.81461 11.5574 5.92735 11.5828 6.0418 11.5858C6.15625 11.5887 6.27014 11.5691 6.37698 11.528C6.48382 11.4869 6.58153 11.4251 6.66451 11.3463C6.74749 11.2674 6.81411 11.173 6.86058 11.0683L6.8606 11.0683L11.1463 1.4254L11.1463 1.42535C11.1929 1.32075 11.2183 1.20802 11.2213 1.09358C11.2242 0.979141 11.2046 0.865238 11.1635 0.758391C11.1224 0.651538 11.0606 0.553828 10.9818 0.470855C10.9029 0.387904 10.8085 0.321297 10.7039 0.274832L10.0384 0.257806ZM10.0384 0.257806C10.2537 0.175197 10.493 0.181314 10.7038 0.274792L10.0384 0.257806Z" fill="#323232" stroke="#F2F2F2" stroke-width="0.4"/>
<path id="path43283" d="M18.3036 9.8428H18.4725L18.5008 9.67623C18.9987 6.73921 21.5673 4.48564 24.6401 4.48564C28.0673 4.48564 30.8687 7.28697 30.8687 10.7142C30.8687 12.1656 30.3664 13.5042 29.5265 14.5662L29.495 14.606L29.4863 14.6561L27.3456 27.0068L27.3455 27.0068L27.3445 27.0135L27.3432 27.0226C27.0406 28.6265 25.6256 29.8 23.9935 29.8H6.02816C4.39453 29.8 2.95742 28.6308 2.67611 27.0069L0.238185 12.9318L0.0411191 12.9659L0.238184 12.9318C-0.0357685 11.3503 1.19974 9.8428 2.81387 9.8428H18.3036ZM18.5008 11.7522L18.4725 11.5857H18.3036H2.81387C2.53429 11.5857 2.29007 11.6995 2.12966 11.8964C1.96966 12.0928 1.90508 12.3568 1.95343 12.6359L4.39136 26.711L4.58842 26.6769L4.39136 26.711C4.52722 27.4953 5.22102 28.0571 6.02816 28.0571H23.9935C24.8021 28.0571 25.4828 27.4941 25.6319 26.6991L25.6324 26.6964L27.3734 16.6517L27.4366 16.287L27.0969 16.434C26.342 16.7607 25.5119 16.9428 24.6401 16.9428C21.5673 16.9428 18.9987 14.6892 18.5008 11.7522ZM29.1258 10.7142C29.1258 8.22415 27.1302 6.22851 24.6401 6.22851C22.15 6.22851 20.1544 8.22415 20.1544 10.7142C20.1544 13.2043 22.15 15.2 24.6401 15.2C27.1302 15.2 29.1258 13.2043 29.1258 10.7142Z" fill="#323232" stroke="#F2F2F2" stroke-width="0.4"/>
<path id="path43287" d="M19.7635 0.205123L19.7637 0.205145C19.8397 0.213094 19.914 0.230775 19.985 0.257869C20.2006 0.340918 20.3743 0.506171 20.4681 0.717315L20.4681 0.717343L22.1782 4.56604C21.6311 4.7873 21.1213 5.08043 20.658 5.43196L18.8771 1.42543L18.877 1.42539C18.6814 0.985478 18.8795 0.470266 19.3196 0.274848L19.3196 0.274828C19.4587 0.213 19.6118 0.189076 19.7635 0.205123Z" fill="#323232" stroke="#F2F2F2" stroke-width="0.4"/>
<path id="path43289" d="M14.381 14.3838C14.5444 14.2203 14.7661 14.1285 14.9972 14.1285C15.2283 14.1285 15.45 14.2203 15.6134 14.3838C15.7768 14.5472 15.8686 14.7688 15.8686 15V23.5714C15.8686 23.8025 15.7768 24.0242 15.6134 24.1876C15.45 24.351 15.2283 24.4428 14.9972 24.4428C14.7661 24.4428 14.5444 24.351 14.381 24.1876C14.2176 24.0242 14.1258 23.8025 14.1258 23.5714V15C14.1258 14.7688 14.2176 14.5472 14.381 14.3838Z" fill="#323232" stroke="#F2F2F2" stroke-width="0.4"/>
<path id="path43291" d="M10.0959 14.3838C10.2593 14.2203 10.4809 14.1285 10.7121 14.1285C10.9432 14.1285 11.1648 14.2203 11.3283 14.3838C11.4917 14.5472 11.5835 14.7688 11.5835 15V23.5714C11.5835 23.8025 11.4917 24.0242 11.3283 24.1876C11.1648 24.351 10.9432 24.4428 10.7121 24.4428C10.4809 24.4428 10.2593 24.351 10.0959 24.1876C9.93243 24.0242 9.84063 23.8025 9.84063 23.5714V15C9.84063 14.7688 9.93243 14.5472 10.0959 14.3838Z" fill="#323232" stroke="#F2F2F2" stroke-width="0.4"/>
<path id="path43293" d="M18.6681 17.5981C18.8316 17.4346 19.0532 17.3428 19.2843 17.3428C19.5154 17.3428 19.7371 17.4346 19.9005 17.5981C20.0639 17.7615 20.1558 17.9831 20.1558 18.2143V23.5714C20.1558 23.8025 20.0639 24.0242 19.9005 24.1876C19.7371 24.351 19.5154 24.4428 19.2843 24.4428C19.0532 24.4428 18.8316 24.351 18.6681 24.1876C18.5047 24.0242 18.4129 23.8025 18.4129 23.5714V18.2143C18.4129 17.9831 18.5047 17.7615 18.6681 17.5981Z" fill="#323232" stroke="#F2F2F2" stroke-width="0.4"/>
<path id="path43297" d="M23.5667 9.8428H23.7667V9.6428V8.57137C23.7667 8.34025 23.8585 8.1186 24.0219 7.95517C24.1854 7.79175 24.407 7.69994 24.6381 7.69994C24.8692 7.69994 25.0909 7.79175 25.2543 7.95517C25.4177 8.1186 25.5096 8.34025 25.5096 8.57137V9.6428V9.8428H25.7096H26.781C27.0121 9.8428 27.2338 9.93461 27.3972 10.098C27.5606 10.2615 27.6524 10.4831 27.6524 10.7142C27.6524 10.9453 27.5606 11.167 27.3972 11.3304C27.2337 11.4938 27.0121 11.5857 26.781 11.5857H25.7096H25.5096V11.7857V12.8571C25.5096 13.0882 25.4177 13.3098 25.2543 13.4733C25.0909 13.6367 24.8692 13.7285 24.6381 13.7285C24.407 13.7285 24.1854 13.6367 24.0219 13.4733C23.8585 13.3098 23.7667 13.0882 23.7667 12.8571V11.7857V11.5857H23.5667H22.4953C22.2641 11.5857 22.0425 11.4938 21.8791 11.3304C21.7156 11.167 21.6238 10.9453 21.6238 10.7142C21.6238 10.4831 21.7156 10.2615 21.8791 10.098C22.0425 9.93461 22.2641 9.8428 22.4953 9.8428H23.5667Z" fill="#323232" stroke="#F2F2F2" stroke-width="0.4"/>
</g>
</svg>
