<svg width="39" height="33" viewBox="0 0 39 33" fill="none" xmlns="http://www.w3.org/2000/svg">
<g id="Group 1000006304">
<g id="Vector">
<mask id="path-1-inside-1_2304_260" fill="white">
<path d="M7.59048 5.09656L7.04979 1.91121H5.10668C4.81619 0.815449 3.80759 0 2.59948 0C1.16587 0 0 1.1429 0 2.54828C0 3.95366 1.16587 5.09656 2.59948 5.09656C3.80759 5.09656 4.81619 4.28111 5.10668 3.18535H5.94761L6.27255 5.09656H6.25435L6.39862 5.8362V5.83811L8.06164 14.3583L8.7401 17.838L9.61288 22.307C8.009 22.4255 6.67222 23.6347 6.5143 25.1579C6.42202 26.053 6.72226 26.9493 7.33833 27.6157C7.95506 28.2846 8.83368 28.6681 9.7474 28.6681H11.0471C11.0471 30.7762 12.7959 32.4906 14.9464 32.4906C17.0968 32.4906 18.8456 30.7762 18.8456 28.6681H25.9942C25.9942 30.7762 27.743 32.4906 29.8934 32.4906C32.0438 32.4906 33.7926 30.7762 33.7926 28.6681H36.3921C36.7514 28.6681 37.0419 28.3834 37.0419 28.0311C37.0419 27.6788 36.7514 27.394 36.3921 27.394H33.5651C33.0283 25.9115 31.5876 24.8457 29.8934 24.8457C28.1992 24.8457 26.7584 25.9115 26.2216 27.394H18.6181C18.0813 25.9115 16.6406 24.8457 14.9464 24.8457C13.2521 24.8457 11.8114 25.9115 11.2746 27.394H9.74805C9.20086 27.394 8.67447 27.1634 8.30274 26.7614C7.92776 26.3543 7.75165 25.8306 7.80819 25.2859C7.90697 24.3246 8.81289 23.5722 9.87023 23.5722H10.3778C10.3908 23.5722 10.4025 23.5722 10.4168 23.5722L14.3992 23.5709L21.4457 23.5684L26.089 23.5665L33.1434 23.5652L35.7584 23.5639C37.5462 23.5639 39 22.1388 39 20.3869V5.08891L7.59048 5.09656ZM2.59948 3.82242C1.88267 3.82242 1.29974 3.25097 1.29974 2.54828C1.29974 1.84559 1.88267 1.27414 2.59948 1.27414C3.31629 1.27414 3.89922 1.84559 3.89922 2.54828C3.89922 3.25097 3.31629 3.82242 2.59948 3.82242ZM29.894 26.1199C31.3276 26.1199 32.4935 27.2628 32.4935 28.6681C32.4935 30.0735 31.3276 31.2164 29.894 31.2164C28.4604 31.2164 27.2945 30.0735 27.2945 28.6681C27.2945 27.2628 28.4604 26.1199 29.894 26.1199ZM14.947 26.1199C16.3806 26.1199 17.5465 27.2628 17.5465 28.6681C17.5465 30.0735 16.3806 31.2164 14.947 31.2164C13.5134 31.2164 12.3475 30.0735 12.3475 28.6681C12.3475 27.2628 13.5134 26.1199 14.947 26.1199ZM37.7009 10.8302H33.1434V6.36369L37.7009 6.36242V10.8302ZM27.2945 22.2924V17.8386H31.8436V22.2911L27.2945 22.2924ZM27.2945 16.5638V12.1043H31.8436V16.5638H27.2945ZM15.5969 22.2955V17.838H20.146V22.2943L15.5969 22.2955ZM15.5969 16.5638V12.1043H20.146V16.5638H15.5969ZM8.94546 12.1043H14.2971V16.5638H9.81629L8.94546 12.1043ZM31.8436 10.8302H27.2945V6.3707H31.8436V10.8302ZM25.9948 10.8302H21.4457V6.36688L25.9948 6.3656V10.8302ZM20.146 6.3707V10.8302H15.5969V6.3707H20.146ZM21.4457 12.1043H25.9948V16.5638H21.4457V12.1043ZM33.1434 12.1043H37.6925V16.5638H33.1434V12.1043ZM14.2971 6.36942V10.8308H8.69656L7.82573 6.37134L14.2971 6.36942ZM10.0645 17.838H14.2971V22.2955L10.9354 22.2968L10.0645 17.838ZM21.4457 17.838H25.9948V22.2924L21.4457 22.2936V17.838ZM35.7584 22.2898L33.1434 22.2904V17.838H37.7009V20.3862C37.7009 21.4361 36.8294 22.2898 35.7584 22.2898Z"/>
</mask>
<path d="M7.59048 5.09656L7.04979 1.91121H5.10668C4.81619 0.815449 3.80759 0 2.59948 0C1.16587 0 0 1.1429 0 2.54828C0 3.95366 1.16587 5.09656 2.59948 5.09656C3.80759 5.09656 4.81619 4.28111 5.10668 3.18535H5.94761L6.27255 5.09656H6.25435L6.39862 5.8362V5.83811L8.06164 14.3583L8.7401 17.838L9.61288 22.307C8.009 22.4255 6.67222 23.6347 6.5143 25.1579C6.42202 26.053 6.72226 26.9493 7.33833 27.6157C7.95506 28.2846 8.83368 28.6681 9.7474 28.6681H11.0471C11.0471 30.7762 12.7959 32.4906 14.9464 32.4906C17.0968 32.4906 18.8456 30.7762 18.8456 28.6681H25.9942C25.9942 30.7762 27.743 32.4906 29.8934 32.4906C32.0438 32.4906 33.7926 30.7762 33.7926 28.6681H36.3921C36.7514 28.6681 37.0419 28.3834 37.0419 28.0311C37.0419 27.6788 36.7514 27.394 36.3921 27.394H33.5651C33.0283 25.9115 31.5876 24.8457 29.8934 24.8457C28.1992 24.8457 26.7584 25.9115 26.2216 27.394H18.6181C18.0813 25.9115 16.6406 24.8457 14.9464 24.8457C13.2521 24.8457 11.8114 25.9115 11.2746 27.394H9.74805C9.20086 27.394 8.67447 27.1634 8.30274 26.7614C7.92776 26.3543 7.75165 25.8306 7.80819 25.2859C7.90697 24.3246 8.81289 23.5722 9.87023 23.5722H10.3778C10.3908 23.5722 10.4025 23.5722 10.4168 23.5722L14.3992 23.5709L21.4457 23.5684L26.089 23.5665L33.1434 23.5652L35.7584 23.5639C37.5462 23.5639 39 22.1388 39 20.3869V5.08891L7.59048 5.09656ZM2.59948 3.82242C1.88267 3.82242 1.29974 3.25097 1.29974 2.54828C1.29974 1.84559 1.88267 1.27414 2.59948 1.27414C3.31629 1.27414 3.89922 1.84559 3.89922 2.54828C3.89922 3.25097 3.31629 3.82242 2.59948 3.82242ZM29.894 26.1199C31.3276 26.1199 32.4935 27.2628 32.4935 28.6681C32.4935 30.0735 31.3276 31.2164 29.894 31.2164C28.4604 31.2164 27.2945 30.0735 27.2945 28.6681C27.2945 27.2628 28.4604 26.1199 29.894 26.1199ZM14.947 26.1199C16.3806 26.1199 17.5465 27.2628 17.5465 28.6681C17.5465 30.0735 16.3806 31.2164 14.947 31.2164C13.5134 31.2164 12.3475 30.0735 12.3475 28.6681C12.3475 27.2628 13.5134 26.1199 14.947 26.1199ZM37.7009 10.8302H33.1434V6.36369L37.7009 6.36242V10.8302ZM27.2945 22.2924V17.8386H31.8436V22.2911L27.2945 22.2924ZM27.2945 16.5638V12.1043H31.8436V16.5638H27.2945ZM15.5969 22.2955V17.838H20.146V22.2943L15.5969 22.2955ZM15.5969 16.5638V12.1043H20.146V16.5638H15.5969ZM8.94546 12.1043H14.2971V16.5638H9.81629L8.94546 12.1043ZM31.8436 10.8302H27.2945V6.3707H31.8436V10.8302ZM25.9948 10.8302H21.4457V6.36688L25.9948 6.3656V10.8302ZM20.146 6.3707V10.8302H15.5969V6.3707H20.146ZM21.4457 12.1043H25.9948V16.5638H21.4457V12.1043ZM33.1434 12.1043H37.6925V16.5638H33.1434V12.1043ZM14.2971 6.36942V10.8308H8.69656L7.82573 6.37134L14.2971 6.36942ZM10.0645 17.838H14.2971V22.2955L10.9354 22.2968L10.0645 17.838ZM21.4457 17.838H25.9948V22.2924L21.4457 22.2936V17.838ZM35.7584 22.2898L33.1434 22.2904V17.838H37.7009V20.3862C37.7009 21.4361 36.8294 22.2898 35.7584 22.2898Z" fill="#323232" stroke="#F2F2F2" stroke-width="0.4" mask="url(#path-1-inside-1_2304_260)"/>
</g>
<rect id="Rectangle 119" x="19.8672" y="4.64154" width="2.32075" height="2.9434" transform="rotate(90 19.8672 4.64154)" fill="#F2F2F2"/>
</g>
</svg>
