<svg width="55" height="51" viewBox="0 0 55 51" fill="none" xmlns="http://www.w3.org/2000/svg">
<path d="M16.5127 3.14075L18.3025 1.22314" stroke="#323232" stroke-width="1.2" stroke-linecap="round"/>
<path d="M10.8877 9.02112L12.6775 7.10352" stroke="#323232" stroke-width="1.2" stroke-linecap="round"/>
<path d="M12.6768 3.14075L10.887 1.22314" stroke="#323232" stroke-width="1.2" stroke-linecap="round"/>
<path d="M18.3018 9.02112L16.512 7.10352" stroke="#323232" stroke-width="1.2" stroke-linecap="round"/>
<path d="M52.3486 7.43445L54.1384 5.51685" stroke="#323232" stroke-width="1.2" stroke-linecap="round"/>
<path d="M46.7246 13.3148L48.5144 11.3972" stroke="#323232" stroke-width="1.2" stroke-linecap="round"/>
<path d="M48.5137 7.43445L46.7239 5.51685" stroke="#323232" stroke-width="1.2" stroke-linecap="round"/>
<path d="M54.1377 13.3148L52.3479 11.3972" stroke="#323232" stroke-width="1.2" stroke-linecap="round"/>
<path d="M6.625 28.4425L8.41476 26.5249" stroke="#323232" stroke-width="1.2" stroke-linecap="round"/>
<path d="M1.00098 34.3229L2.79074 32.4053" stroke="#323232" stroke-width="1.2" stroke-linecap="round"/>
<path d="M2.79004 28.4425L1.00028 26.5249" stroke="#323232" stroke-width="1.2" stroke-linecap="round"/>
<path d="M8.41406 34.3229L6.6243 32.4053" stroke="#323232" stroke-width="1.2" stroke-linecap="round"/>
<path d="M37.5244 43.2553V37.7166H39.8574C40.4469 37.7166 40.9018 37.8684 41.2221 38.1722C41.5423 38.476 41.7024 38.9002 41.7024 39.4449C41.7024 39.9896 41.5423 40.4165 41.2221 40.7255C40.9018 41.0293 40.4469 41.1812 39.8574 41.1812H38.5003V43.2553H37.5244ZM38.5003 40.3877H39.7049C40.4063 40.3877 40.757 40.0734 40.757 39.4449C40.757 38.8217 40.4063 38.51 39.7049 38.51H38.5003V40.3877Z" fill="#323232"/>
<path d="M42.4979 43.2553V37.7166H43.4738V40.0263H46.2413V37.7166H47.2171V43.2553H46.2413V40.8669H43.4738V43.2553H42.4979Z" fill="#323232"/>
<path d="M42.1392 49.5786C39.1161 49.5786 36.2165 48.3744 34.0784 46.2304C31.9402 44.0864 30.7387 41.178 30.7387 38.1451C30.7387 36.2707 31.4452 34.0095 32.5573 31.6304C33.6639 29.2632 35.145 26.8355 36.6351 24.644C38.1239 22.4544 39.6139 20.5119 40.7323 19.1164C41.2912 18.4189 41.7567 17.8588 42.082 17.4736C42.1015 17.4505 42.1206 17.4279 42.1392 17.406C42.1578 17.4279 42.1768 17.4505 42.1964 17.4736C42.5217 17.8588 42.9871 18.4189 43.5461 19.1164C44.6644 20.5119 46.1545 22.4544 47.6433 24.644C49.1334 26.8355 50.6145 29.2632 51.7211 31.6304C52.8332 34.0095 53.5397 36.2707 53.5397 38.1451C53.5397 41.178 52.3382 44.0864 50.2 46.2304C48.0619 48.3744 45.1623 49.5786 42.1392 49.5786Z" stroke="#323232" stroke-width="1.2"/>
<path d="M27.5701 40.7542C24.6258 40.7542 21.7954 39.5234 19.7036 37.3215C17.6108 35.1185 16.4301 32.1244 16.4301 28.9964C16.4301 27.0618 17.1242 24.7331 18.2126 22.2891C19.2959 19.8563 20.7457 17.3619 22.2037 15.111C23.6605 12.8619 25.1184 10.8667 26.2126 9.43337C26.7595 8.71702 27.2149 8.14176 27.5331 7.74617C27.5456 7.7306 27.558 7.7153 27.5701 7.70029C27.5822 7.7153 27.5945 7.7306 27.607 7.74617C27.9252 8.14176 28.3807 8.71702 28.9275 9.43337C30.0217 10.8667 31.4796 12.8619 32.9365 15.111C34.3945 17.3619 35.8442 19.8563 36.9276 22.2891C38.0159 24.7331 38.71 27.0618 38.71 28.9964C38.71 32.1244 37.5293 35.1185 35.4365 37.3215C33.3447 39.5234 30.5143 40.7542 27.5701 40.7542Z" fill="#FCFCFC" stroke="#323232" stroke-width="1.2"/>
</svg>
