<svg width="42" height="42" viewBox="0 0 42 42" fill="none" xmlns="http://www.w3.org/2000/svg">
<path d="M23.65 40.5701V40.397V26.7246C23.65 25.5103 24.0117 24.2889 24.6932 23.1923L24.6933 23.1922C24.8531 22.9357 25.0375 22.6419 25.2415 22.3215L25.2857 22.2521H25.2869L25.3813 22.1033L25.3816 22.103C25.7601 21.5099 26.1449 20.9204 26.5325 20.338L26.5326 20.3379C26.5506 20.311 26.5691 20.2831 26.5877 20.2559C26.9737 19.6766 27.3625 19.1035 27.7521 18.5423C27.7521 18.5422 27.7522 18.5422 27.7522 18.5422L27.76 18.5305L27.771 18.5143L27.7711 18.5142C27.9444 18.2643 27.8827 17.9217 27.6331 17.7485L27.6329 17.7484C27.3837 17.5749 27.0416 17.637 26.8673 17.8867C26.4718 18.4562 26.1013 19.0029 25.7531 19.5238C25.7265 19.5637 25.7003 19.603 25.6741 19.643L25.6734 19.644C25.277 20.239 24.9155 20.7927 24.5946 21.2912L24.564 21.3388L24.5095 21.3543C24.1573 21.4544 23.633 21.554 23.2019 21.6281C22.9853 21.6654 22.7903 21.6964 22.6495 21.7182C22.579 21.7291 22.5221 21.7377 22.4828 21.7435L22.4374 21.7502L22.4255 21.752L22.4225 21.7524L22.4217 21.7525L22.4215 21.7526L22.4214 21.7526L22.4 21.6041L22.4214 21.7526L22.4107 21.7541H22.4H21.6075L21.0195 21.8312L21.0078 21.8328L20.996 21.8324L21 21.6825L20.9959 21.8324H20.9959L20.9957 21.8324L20.995 21.8324L20.9921 21.8323L20.9811 21.832L20.9391 21.8307C20.9027 21.8296 20.85 21.8278 20.7847 21.8254C20.6541 21.8206 20.4731 21.813 20.2715 21.8022C19.8702 21.7807 19.38 21.7459 19.0432 21.6928L18.9736 21.6818L18.9376 21.6212L18.9171 21.5871L18.8956 21.5512L18.8954 21.5508C18.8345 21.4477 18.7697 21.3396 18.7046 21.2309C18.6794 21.1889 18.6542 21.1469 18.6292 21.105C18.5997 21.0561 18.5707 21.0075 18.5417 20.9586C18.5188 20.9202 18.4958 20.8816 18.4725 20.8427C18.3116 20.5755 18.1446 20.2994 17.9699 20.0144C17.8117 19.7562 17.4741 19.6743 17.2133 19.8331C17.0196 19.9518 16.9248 20.1722 16.9567 20.3841L16.9568 20.3845C16.9672 20.4549 16.9918 20.5247 17.0316 20.59C17.2319 20.9178 17.4233 21.2332 17.6056 21.5375L17.6057 21.5378C17.6273 21.574 17.6481 21.6086 17.6695 21.6438L17.67 21.6447C17.8172 21.8907 17.9573 22.1268 18.0917 22.3536L18.0919 22.3539C18.3105 22.7245 18.5158 23.0756 18.6967 23.389L18.6968 23.3891C19.3848 24.5833 19.75 25.9152 19.75 27.2398V40.5447V40.7057L19.5894 40.6943C9.35524 39.9678 1.25 31.4156 1.25 21C1.25 15.6334 3.40441 10.7627 6.88997 7.19961L6.99759 7.08959L7.10481 7.2C8.21296 8.34118 9.37276 9.67871 10.5702 11.1989L10.5702 11.1989C10.6174 11.2588 10.6646 11.3186 10.7118 11.3784C10.9316 11.6569 11.1522 11.9364 11.3755 12.2314M23.65 40.5701L11.256 12.3221M23.65 40.5701L23.8213 40.5455M23.65 40.5701L23.8213 40.5455M11.3755 12.2314C11.3755 12.2314 11.3756 12.2315 11.3756 12.2316L11.256 12.3221M11.3755 12.2314C11.3754 12.2313 11.3753 12.2312 11.3752 12.2311L11.256 12.3221M11.3755 12.2314C11.4842 12.3736 11.6494 12.45 11.816 12.45C11.9316 12.45 12.0486 12.4137 12.1483 12.3383M11.256 12.3221C11.3939 12.5027 11.6039 12.6 11.816 12.6C11.963 12.6 12.1121 12.5538 12.2388 12.4579M12.1483 12.3383C12.1482 12.3384 12.1481 12.3384 12.148 12.3385L12.2388 12.4579M12.1483 12.3383C12.3897 12.1544 12.4372 11.8096 12.2537 11.5679L12.2537 11.5678C11.9784 11.2048 11.7071 10.8617 11.4346 10.5171C11.4061 10.4811 11.3776 10.445 11.349 10.4089M12.1483 12.3383L12.2388 12.4579M12.2388 12.4579L11.349 10.4089M11.349 10.4089C10.1609 8.90651 9.00857 7.58185 7.90389 6.4444M11.349 10.4089L7.90389 6.4444M23.8213 40.5455C33.3797 39.1721 40.75 30.9325 40.75 21C40.75 16.2395 39.057 11.8675 36.242 8.45298L36.1385 8.32734L36.0217 8.44087C34.3846 10.033 32.6427 12.011 30.8328 14.3376C30.7245 14.4768 30.5624 14.55 30.3982 14.55C30.2801 14.55 30.1613 14.5126 30.0618 14.4344L30.0612 14.4339C29.8216 14.2476 29.7784 13.903 29.965 13.6623C30.7406 12.6652 31.5048 11.7299 32.2548 10.8597L32.2548 10.8597C33.3009 9.64533 34.3171 8.56226 35.2976 7.6117L35.4043 7.50827L35.3019 7.40061C31.7021 3.61677 26.6241 1.25 21 1.25C15.9826 1.25 11.399 3.13423 7.91195 6.22769L7.79457 6.33183M23.8213 40.5455L7.79457 6.33183M7.79457 6.33183L7.90389 6.4444M7.79457 6.33183L7.90389 6.4444M36.6026 7.19113L36.6023 7.19133L36.609 7.19883C39.8667 10.8784 41.85 15.7105 41.85 21C41.85 32.4966 32.4966 41.85 21 41.85C9.50344 41.85 0.15 32.4966 0.15 21C0.15 15.0921 2.62391 9.75394 6.58649 5.95609L6.58689 5.95651L6.59559 5.94658C6.60456 5.93632 6.61119 5.92663 6.61586 5.91915C6.61801 5.91786 6.62028 5.91646 6.62255 5.91501C6.63119 5.90949 6.64235 5.90171 6.65404 5.89113L6.65407 5.89116L6.65669 5.88867C10.3975 2.33622 15.4465 0.15 21 0.15C27.1727 0.15 32.7249 2.84908 36.5464 7.12654L36.546 7.12695L36.556 7.13627C36.5646 7.14436 36.5729 7.15062 36.5797 7.15532C36.5806 7.15711 36.5816 7.15896 36.5827 7.16077C36.5872 7.16878 36.5937 7.17957 36.6026 7.19113ZM19.932 22.9001L19.6586 22.878L19.7875 23.1201C20.4755 24.4119 20.85 25.8271 20.85 27.2398V40.6V40.75H21C21.4758 40.75 21.9457 40.7274 22.4106 40.6943L22.55 40.6844V40.5447V26.7246C22.55 25.431 22.9017 24.133 23.5655 22.9472L23.7202 22.6708L23.4083 22.7262C22.8895 22.8185 22.3708 22.8849 21.853 22.9174L21.8393 22.9183L21.826 22.9216C21.801 22.9278 21.7823 22.9331 21.7673 22.9373C21.7372 22.9457 21.7219 22.95 21.7 22.95C21.7004 22.95 21.6973 22.9501 21.6822 22.9461L21.67 22.9428L21.6545 22.9387C21.6433 22.9357 21.6292 22.9323 21.6134 22.9296L21.5979 22.9271L21.5823 22.9277C21.5237 22.9302 21.4663 22.9332 21.4095 22.9361C21.2707 22.9431 21.1361 22.95 21 22.95C20.6515 22.95 20.294 22.9293 19.932 22.9001Z" fill="#323232" stroke="white" stroke-width="0.3"/>
<path d="M22.534 10.6328L22.3466 11.2067C22.163 11.7692 22.2569 12.1682 22.4862 12.5035C22.7297 12.8595 23.1347 13.1577 23.6137 13.4781L23.6221 13.4837L23.63 13.49C23.9708 13.7604 24.1189 14.0892 24.1402 14.4311C24.1606 14.7592 24.0632 15.0824 23.952 15.3571C23.8957 15.4964 23.8332 15.6292 23.7757 15.7487C23.765 15.7712 23.7545 15.7929 23.7442 15.8142C23.6986 15.9089 23.6584 15.9922 23.6255 16.0682C23.5956 16.1375 23.5769 16.1892 23.5667 16.227C23.5844 16.2216 23.6091 16.2112 23.6406 16.1912L23.7743 16.4025L23.6406 16.1912C23.9219 16.0132 24.1947 15.8258 24.4487 15.6218C24.8124 15.3298 25.0856 14.9631 25.2645 14.5338C25.794 13.2628 25.7737 11.9993 25.2283 10.735L25.2283 10.735C25.1428 10.5369 25.0366 10.3453 24.9232 10.1438C24.9194 10.2172 24.9193 10.2957 24.9191 10.3836C24.919 10.419 24.9189 10.4559 24.9186 10.4945C24.9174 10.6383 24.9127 10.8002 24.8857 10.9562C24.8586 11.1126 24.8067 11.2788 24.7003 11.4232C24.5912 11.5713 24.4359 11.6812 24.2307 11.7399C24.1341 11.7705 24.0298 11.7813 23.928 11.7531C23.82 11.7232 23.7374 11.6555 23.6845 11.5706C23.587 11.414 23.5992 11.222 23.645 11.0785L23.6487 11.0668L23.649 11.0669C23.8855 10.4335 23.9685 10.0001 23.9583 9.68063C23.9485 9.37345 23.8522 9.15933 23.694 8.9588C23.5583 8.78676 23.3843 8.6319 23.1676 8.43891C23.1125 8.38985 23.0546 8.33832 22.9939 8.28342C22.7025 8.01998 22.3723 7.7 22.0508 7.24984L22.0458 7.24285L22.0413 7.23553C21.9178 7.03475 21.8497 6.80315 21.8898 6.5478C21.9122 6.23625 22.046 5.97315 22.1623 5.7555C22.1729 5.73574 22.1833 5.71637 22.1935 5.69735C22.2971 5.50437 22.3816 5.34694 22.4217 5.17866C22.4186 5.16531 22.4151 5.15939 22.4144 5.15822C22.4143 5.15809 22.4156 5.15872 22.4133 5.15767C22.4012 5.15204 22.3488 5.13897 22.2359 5.16928C22.0158 5.22835 21.7053 5.41625 21.4197 5.71029C20.8475 6.29927 20.4852 7.18453 21.028 8.04641L21.0324 8.05346L21.0323 8.05353C21.0845 8.14295 21.1349 8.23326 21.1839 8.32105C21.1886 8.32947 21.1933 8.33786 21.1979 8.34622L22.534 10.6328ZM22.534 10.6328L21.9957 10.9063C21.1718 11.3249 20.9639 12.2225 21.0624 12.9739L21.062 12.974L21.0646 12.9877C21.1012 13.1821 21.1773 13.3593 21.2559 13.5168C21.2931 13.5911 21.3324 13.6642 21.3695 13.733L21.3763 13.7456C21.415 13.8176 21.4511 13.8851 21.4839 13.9517M22.534 10.6328L21.4839 13.9517M21.4839 13.9517C21.5294 14.0575 21.5446 14.1481 21.5374 14.2259C21.5304 14.3024 21.5005 14.3822 21.4305 14.4669L21.4256 14.4728L21.4211 14.479C21.2325 14.7378 20.9204 14.7874 20.6567 14.673C20.3988 14.5611 20.2184 14.3047 20.2928 13.9554L20.3596 13.6416L20.0391 13.6535C19.7413 13.6644 19.5301 13.8152 19.3872 14.0117C19.0324 14.451 18.987 14.9682 19.1357 15.4285C19.282 15.8812 19.6155 16.2834 20.032 16.5354C18.6097 16.3713 17.5718 15.4851 17.1735 14.1119L17.1706 14.1021L17.167 14.0926C17.0112 13.6838 17.006 12.9849 17.1801 12.3366C17.3554 11.6843 17.6783 11.2009 18.0767 11.0678C18.1037 11.0649 18.115 11.0737 18.1169 11.0754C18.1186 11.077 18.1202 11.079 18.1214 11.0823C18.1226 11.0856 18.1247 11.0937 18.1228 11.1084L21.4839 13.9517ZM21.4439 9.55686C21.5639 9.28205 21.5562 8.95951 21.3589 8.62796L18.1228 11.1084C18.1047 11.2483 18.0559 11.3903 17.9973 11.5584C17.8546 11.9095 17.9655 12.3165 18.1776 12.5787C18.288 12.7151 18.4397 12.8308 18.6247 12.8776C18.8153 12.9259 19.0185 12.8949 19.2085 12.7751C19.4141 12.6499 19.5344 12.4572 19.5501 12.2147L19.5502 12.2134C19.5817 11.6846 19.3355 11.3033 19.1346 10.9922C19.1184 10.9672 19.1026 10.9427 19.0872 10.9185C18.8752 10.5861 18.722 10.3026 18.8004 9.87431L18.8063 9.84194L18.8036 9.80914C18.7995 9.75848 18.8252 9.63114 18.9106 9.44318C18.9905 9.26709 19.1068 9.07263 19.2386 8.90174C19.3727 8.72797 19.5104 8.59474 19.6282 8.52436C19.7102 8.47533 19.7538 8.47134 19.7758 8.47543C19.7585 8.53161 19.7354 8.58936 19.708 8.65467C19.7021 8.66854 19.696 8.68301 19.6896 8.69793C19.6672 8.75053 19.6425 8.80879 19.6207 8.86628C19.5644 9.01518 19.5129 9.19692 19.5372 9.40446C19.5598 9.7264 19.7845 9.97675 20.0303 10.1099C20.2789 10.2444 20.6158 10.2954 20.9022 10.1311L20.9022 10.1311C21.1127 10.0102 21.33 9.81806 21.4439 9.55686Z" stroke="#323232" stroke-width="0.5"/>
<path d="M25.6476 7.74196L25.6478 7.74215L25.6558 7.73403C25.7948 7.59433 25.9325 7.45459 26.0698 7.3153C26.5358 6.84238 26.9966 6.37469 27.4836 5.93162L27.4836 5.93164L27.4862 5.92927C27.5371 5.88164 27.603 5.8536 27.6532 5.85033C27.6761 5.84884 27.6905 5.85268 27.699 5.8566C27.7061 5.85988 27.717 5.86667 27.7296 5.88623L27.7295 5.88634L27.7353 5.89468C27.7538 5.92099 27.7579 5.97061 27.731 6.00984C27.335 6.4251 26.9309 6.82505 26.524 7.22789C26.2459 7.50319 25.9664 7.77983 25.6872 8.06362C25.6493 8.10145 25.6218 8.12297 25.599 8.13537C25.5826 8.1443 25.5682 8.14887 25.5513 8.14982C25.5125 8.14451 25.4877 8.13637 25.4729 8.12964C25.4648 8.12599 25.4599 8.12284 25.4572 8.12085C25.4546 8.1189 25.4536 8.11774 25.4535 8.11758L25.4533 8.11737C25.4532 8.11722 25.4527 8.11618 25.4521 8.11377C25.4508 8.10871 25.4491 8.09733 25.4511 8.07794C25.4604 7.98601 25.5374 7.843 25.6476 7.74196Z" stroke="#323232" stroke-width="0.5"/>
<path d="M16.5156 5.53184L16.5158 5.53166L16.5074 5.5241C16.3915 5.42033 16.3452 5.29294 16.35 5.22806C16.3516 5.20546 16.3579 5.19777 16.3663 5.19092C16.3793 5.18047 16.4217 5.15527 16.5252 5.15025C16.5591 5.15392 16.6336 5.18837 16.7449 5.30214C16.9707 5.54649 17.2095 5.78514 17.4442 6.01973C17.5428 6.11826 17.6407 6.21608 17.7366 6.31331C18.062 6.64315 18.3712 6.97267 18.6402 7.32688C18.6508 7.3468 18.6504 7.36029 18.6487 7.36962C18.6461 7.38333 18.6372 7.40188 18.6183 7.41906C18.5996 7.43614 18.5765 7.4466 18.5543 7.44928C18.5366 7.45142 18.5154 7.44929 18.4903 7.43559C17.9962 7.04011 17.5585 6.59161 17.11 6.1319C16.9157 5.93285 16.7194 5.7317 16.5156 5.53184Z" stroke="#323232" stroke-width="0.5"/>
<path d="M15.0855 10.7563L15.0855 10.7562L15.0775 10.7553C15.0685 10.7542 15.06 10.753 15.0519 10.7515C15.0538 10.7514 15.0556 10.7512 15.0575 10.7511C15.1184 10.7481 15.1819 10.7513 15.2374 10.7604C15.406 10.7921 15.5692 10.8182 15.7284 10.8437C15.8746 10.8671 16.0174 10.89 16.1581 10.9162C15.9585 10.886 15.7584 10.8563 15.5588 10.8268C15.4005 10.8033 15.2426 10.7799 15.0855 10.7563Z" stroke="#323232" stroke-width="0.5"/>
<path d="M26.1657 10.8039L26.1659 10.8039L26.1632 10.7952C26.1348 10.7055 26.1551 10.6277 26.2127 10.5558C26.2755 10.4771 26.3774 10.416 26.4769 10.3929L26.4883 10.3903L26.4995 10.3866C26.6091 10.35 26.7144 10.3129 26.8172 10.2766C27.0638 10.1897 27.2961 10.1078 27.5389 10.0511C27.6325 10.0608 27.7135 10.134 27.742 10.2675C27.7717 10.4067 27.7245 10.5344 27.6194 10.5981C27.4367 10.6739 27.2435 10.7288 27.038 10.7803C26.9762 10.7958 26.9121 10.8113 26.8468 10.827C26.6979 10.8629 26.5427 10.9004 26.393 10.9435C26.2844 10.9689 26.1973 10.918 26.1657 10.8039Z" stroke="#323232" stroke-width="0.5"/>
<path d="M23.4053 6.73544L23.4053 6.7353L23.3969 6.7329C23.3782 6.72755 23.3663 6.72196 23.3593 6.7179C23.3524 6.71394 23.3498 6.71125 23.3495 6.71092C23.3494 6.71083 23.3494 6.71083 23.3495 6.71091C23.3496 6.71107 23.3499 6.71156 23.3503 6.71226C23.3504 6.71257 23.3505 6.71274 23.3505 6.71274C23.3505 6.71276 23.3503 6.71213 23.35 6.71063C23.3493 6.70542 23.3488 6.69161 23.3557 6.66929C23.3621 6.64817 23.3736 6.62453 23.3898 6.60179C23.4579 6.51444 23.5134 6.40918 23.5588 6.32204C23.5628 6.31445 23.5667 6.30694 23.5705 6.2995C23.6159 6.21241 23.6559 6.13558 23.7023 6.06554C23.7951 5.92542 23.8839 5.85573 24.0195 5.85032C24.1676 5.86728 24.2273 5.89627 24.248 5.90935C24.245 5.92515 24.2351 5.95888 24.2014 6.018C24.1415 6.12287 24.0433 6.2425 23.9325 6.36908C23.9129 6.39146 23.8924 6.41461 23.8715 6.43813C23.7914 6.52857 23.7063 6.6246 23.6493 6.70433C23.6127 6.73861 23.5124 6.77013 23.4053 6.73544Z" stroke="#323232" stroke-width="0.5"/>
<path d="M16.3319 8.58C16.3319 8.57998 16.3322 8.58025 16.3328 8.58085C16.3321 8.58031 16.3318 8.58001 16.3319 8.58Z" stroke="#323232" stroke-width="0.5"/>
</svg>
