<svg width="31" height="36" viewBox="0 0 31 36" fill="none" xmlns="http://www.w3.org/2000/svg">
<g id="Group">
<g id="Group_2">
<path id="Vector" d="M15.2773 13.8644C15.2773 13.5786 15.0457 13.347 14.7599 13.347H2.74738C2.46157 13.347 2.22998 13.5786 2.22998 13.8644C2.22998 14.1503 2.46157 14.3819 2.74738 14.3819H14.7599C15.0456 14.3819 15.2773 14.1502 15.2773 13.8644Z" fill="#323232"/>
<path id="Vector_2" d="M24.4743 9.4043C24.4743 9.11849 24.2427 8.8869 23.9569 8.8869H5.53449C5.24868 8.8869 5.01709 9.11849 5.01709 9.4043C5.01709 9.69012 5.24868 9.92171 5.53449 9.92171H23.9569C24.2427 9.92171 24.4743 9.69012 24.4743 9.4043Z" fill="#323232"/>
<path id="Vector_3" d="M17.2978 11.6343C17.2978 11.3485 17.0663 11.1169 16.7804 11.1169H2.74738C2.46157 11.1169 2.22998 11.3485 2.22998 11.6343C2.22998 11.9202 2.46157 12.1517 2.74738 12.1517H16.7804C17.0662 12.1517 17.2978 11.9202 17.2978 11.6343Z" fill="#323232"/>
<path id="Vector_4" d="M2.74738 16.6119H4.94462C5.23043 16.6119 5.46202 16.3803 5.46202 16.0945C5.46202 15.8087 5.23043 15.5771 4.94462 15.5771H2.74738C2.46157 15.5771 2.22998 15.8087 2.22998 16.0945C2.22998 16.3803 2.46157 16.6119 2.74738 16.6119Z" fill="#323232"/>
<path id="Vector_5" d="M13.2211 16.6119C13.5069 16.6119 13.7385 16.3803 13.7385 16.0945C13.7385 15.8087 13.5069 15.5771 13.2211 15.5771H7.17414C6.88833 15.5771 6.65674 15.8087 6.65674 16.0945C6.65674 16.3803 6.88833 16.6119 7.17414 16.6119H13.2211Z" fill="#323232"/>
<path id="Vector_6" d="M0.517402 24.8822C0.803216 24.8822 1.0348 24.6506 1.0348 24.3648V1.91094C1.0348 1.42782 1.42782 1.03481 1.91087 1.03481H24.7683C25.2514 1.03481 25.6445 1.42782 25.6445 1.91094V4.96706C25.6445 5.25288 25.8761 5.48447 26.1619 5.48447C26.4477 5.48447 26.6793 5.25288 26.6793 4.96706V1.91094C26.6793 0.857233 25.822 0 24.7683 0H1.91094C0.857232 0 0 0.857233 0 1.91094V24.3648C0 24.6506 0.231658 24.8822 0.517402 24.8822Z" fill="#323232"/>
<path id="Vector_7" d="M20.3085 6.4705C20.5943 6.4705 20.8259 6.23891 20.8259 5.9531V3.72309C20.8259 3.43728 20.5943 3.20569 20.3085 3.20569H6.37092C6.0851 3.20569 5.85352 3.43728 5.85352 3.72309V5.9531C5.85352 6.23891 6.0851 6.4705 6.37092 6.4705H20.3085ZM6.88832 4.24049H19.7911V5.43569H6.88832V4.24049Z" fill="#323232"/>
<path id="Vector_8" d="M2.79475 31.8025H13.3396C13.6254 31.8025 13.857 31.5709 13.857 31.2851V29.0551C13.857 28.7692 13.6254 28.5377 13.3396 28.5377H2.79475C2.50893 28.5377 2.27734 28.7692 2.27734 29.0551V31.2851C2.27734 31.5709 2.50893 31.8025 2.79475 31.8025ZM3.31215 29.5725H12.8222V30.7677H3.31215V29.5725Z" fill="#323232"/>
<path id="Vector_9" d="M30.9999 19.2045C30.9999 17.9418 30.7168 16.7327 30.1586 15.6109C30.0313 15.3551 29.7208 15.251 29.4648 15.3782C29.209 15.5055 29.1049 15.8161 29.2321 16.072C29.7186 17.0493 29.9651 18.1032 29.9651 19.2045C29.9651 21.6785 28.7041 23.9283 26.5918 25.2226C26.507 25.2745 26.4391 25.3498 26.3959 25.4393L25.1111 28.108H23.43V20.516C23.43 19.9645 23.8787 19.5157 24.4303 19.5157C24.9819 19.5157 25.4306 19.9645 25.4306 20.516C25.4306 20.8019 25.6622 21.0334 25.948 21.0334C26.2338 21.0334 26.4654 20.8019 26.4654 20.516C26.4654 19.3938 25.5525 18.4809 24.4303 18.4809C23.8278 18.4809 23.2855 18.7441 22.9126 19.1616C22.5396 18.7441 21.9973 18.4809 21.3949 18.4809C20.2727 18.4809 19.3598 19.3938 19.3598 20.516C19.3598 20.8019 19.5913 21.0334 19.8772 21.0334C20.163 21.0334 20.3946 20.8019 20.3946 20.516C20.3946 19.9645 20.8433 19.5157 21.3949 19.5157C21.9464 19.5157 22.3952 19.9645 22.3952 20.516V28.108H20.7142L19.4293 25.4393C19.3862 25.3498 19.3182 25.2745 19.2334 25.2226C17.1211 23.9282 15.86 21.6785 15.86 19.2045C15.86 15.3158 19.0238 12.1521 22.9126 12.1521C24.8119 12.1521 26.5928 12.8957 27.9269 14.246C28.1277 14.4491 28.4553 14.4512 28.6586 14.2503C28.8618 14.0495 28.8638 13.7219 28.6629 13.5186C28.0712 12.9197 27.4025 12.4253 26.6792 12.0437V7.38154C26.6792 7.09573 26.4476 6.86414 26.1618 6.86414C25.876 6.86414 25.6444 7.09573 25.6444 7.38154V11.5877C24.78 11.2785 23.8592 11.1172 22.9125 11.1172C18.4531 11.1172 14.8252 14.7451 14.8252 19.2045C14.8252 21.9899 16.2188 24.5272 18.5618 26.023L19.5731 28.1237C18.5538 28.2476 17.7613 29.1176 17.7613 30.1699C17.7613 31.1283 18.4185 31.9361 19.3059 32.1662V33.2592C19.3059 33.6331 19.4065 33.9838 19.5812 34.2865H1.91087C1.42782 34.2865 1.03481 33.8934 1.03481 33.4103V26.7793C1.03481 26.4935 0.803216 26.2619 0.517403 26.2619C0.231589 26.2619 0 26.4935 0 26.7793V33.4103C0 34.464 0.857233 35.3213 1.91087 35.3213H24.4573C25.5942 35.3213 26.5194 34.3962 26.5194 33.2592V32.1662C27.4067 31.9361 28.0641 31.1283 28.0641 30.1699C28.0641 29.1176 27.2715 28.2476 26.252 28.1237L27.2634 26.023C29.6063 24.5272 30.9999 21.99 30.9999 19.2045ZM25.4845 33.2592C25.4845 33.8256 25.0237 34.2865 24.4572 34.2865H21.368C20.8016 34.2865 20.3407 33.8256 20.3407 33.2592V32.232H25.4845V33.2592ZM27.0292 30.1699C27.0292 30.7364 26.5683 31.1972 26.0019 31.1972H19.8233C19.2569 31.1972 18.7961 30.7364 18.7961 30.1699C18.7961 29.6036 19.2569 29.1427 19.8233 29.1427H26.0019C26.5683 29.1427 27.0292 29.6036 27.0292 30.1699Z" fill="#323232"/>
</g>
</g>
</svg>
