<svg width="33" height="31" viewBox="0 0 33 31" fill="none" xmlns="http://www.w3.org/2000/svg">
<g id="Group 1000006308">
<path id="Vector" d="M24.3495 19.4793L24.407 19.4566L24.4318 19.4C24.8463 18.4528 25.1148 17.4277 25.2082 16.3533L25.2224 16.1903H25.0588H21.7595H21.6125L21.6095 16.3373C21.5828 17.6583 21.4932 18.9432 21.345 20.1611L21.3194 20.3713L21.5262 20.3257C22.5439 20.1013 23.4933 19.8178 24.3495 19.4793ZM5.91516 16.1903H5.75153L5.76572 16.3533C5.85927 17.4277 6.12762 18.4528 6.54215 19.4L6.56696 19.4567L6.6245 19.4794C7.4804 19.8173 8.42978 20.1003 9.44751 20.3247L9.6543 20.3703L9.62871 20.1601C9.48051 18.9425 9.391 17.658 9.36432 16.3373L9.36135 16.1903H9.21435H5.91516ZM6.62456 11.5203L6.56708 11.543L6.54229 11.5997C6.12762 12.547 5.85927 13.5721 5.76572 14.6466L5.75153 14.8096H5.91516H9.21442H9.3614L9.36439 14.6626C9.3912 13.3434 9.48131 12.058 9.62998 10.8385L9.6556 10.6283L9.44879 10.6739C8.43068 10.8983 7.48115 11.1817 6.62456 11.5203ZM16.3313 10.0669L16.1773 10.0628V10.2168V14.6596V14.8096H16.3273H20.0785H20.2316L20.2284 14.6564C20.198 13.2017 20.0892 11.7964 19.9076 10.4846L19.8921 10.373L19.7806 10.3568C18.6804 10.1964 17.5223 10.0984 16.3313 10.0669ZM16.1773 8.5357V8.68196L16.3236 8.68566C17.3929 8.71271 18.4392 8.79126 19.446 8.91887L19.6535 8.94517L19.6119 8.7402C19.4467 7.92715 19.2503 7.16408 19.0241 6.46457L19.0019 6.39599L18.9345 6.37046C18.1161 6.06043 17.2457 5.85749 16.3404 5.77869L16.1773 5.76451V5.92813V8.5357ZM14.6505 8.68566L14.7967 8.68197V8.5357V5.92813V5.7645L14.6337 5.77869C13.7285 5.85749 12.8581 6.06036 12.0398 6.37032L11.9723 6.39587L11.9502 6.4645C11.7244 7.16372 11.5282 7.92678 11.3631 8.74003L11.3215 8.94494L11.529 8.91867C12.5355 8.7912 13.5814 8.71264 14.6505 8.68566ZM14.7967 10.2168L14.7967 10.0628L14.6427 10.0669C13.452 10.0983 12.2944 10.1963 11.1944 10.3565L11.0829 10.3727L11.0674 10.4843C10.8854 11.798 10.7761 13.204 10.7455 14.6564L10.7423 14.8096H10.8955H14.6467H14.7967L14.7967 14.6596L14.7967 10.2168ZM10.8954 16.1903H10.7422L10.7455 16.3435C10.7759 17.798 10.8846 19.2031 11.0661 20.5146L11.0816 20.6262L11.193 20.6425C12.2949 20.8034 13.4537 20.9014 14.6428 20.9331L14.7968 20.9372L14.7968 20.7831L14.7967 16.3403L14.7967 16.1903H14.6467H10.8954ZM14.7968 22.4641V22.3179L14.6506 22.3142C13.5825 22.2871 12.5357 22.2082 11.5277 22.0801L11.3201 22.0537L11.3618 22.2588C11.527 23.0722 11.7236 23.8356 11.9499 24.5353L11.9721 24.6038L12.0395 24.6294C12.8579 24.9395 13.7283 25.1424 14.6338 25.2212L14.7968 25.2354V25.0718V22.4641ZM16.3237 22.3142L16.1775 22.3179L16.1775 22.4642L16.1774 25.0718L16.1774 25.2354L16.3404 25.2212C17.2458 25.1423 18.1162 24.9395 18.9346 24.6294L19.002 24.6038L19.0242 24.5352C19.2502 23.8358 19.4467 23.0727 19.6119 22.2597L19.6536 22.0547L19.446 22.081C18.4392 22.2086 17.393 22.2873 16.3237 22.3142ZM16.1775 20.7831L16.1775 20.9372L16.3314 20.9331C17.5224 20.9016 18.6804 20.8037 19.7806 20.6433L19.8921 20.627L19.9076 20.5154C20.0893 19.2036 20.198 17.7982 20.2284 16.3435L20.2316 16.1903H20.0785H16.3273H16.1773L16.1773 16.3403L16.1775 20.7831ZM21.6096 14.6626L21.7595 14.6611V14.8095H25.0589H25.2225L25.2083 14.6465C25.1148 13.5722 24.8464 12.5471 24.4319 11.5999L24.4071 11.5432L24.3496 11.5205C23.4932 11.182 22.5439 10.8986 21.5263 10.6741L21.3195 10.6285L21.345 10.8387C21.4933 12.0567 21.5828 13.3416 21.6096 14.6626ZM22.9057 9.59335L23.3558 9.71598L23.0616 9.35402C22.4716 8.62822 21.7795 7.98852 21.0075 7.45701L20.6858 7.23552L20.7765 7.61541C20.8887 8.08502 20.9901 8.5734 21.0808 9.07783L21.099 9.17903L21.1999 9.19857C21.7887 9.31252 22.3587 9.44429 22.9057 9.59335ZM10.1982 7.61481L10.2887 7.23516L9.96723 7.45647C9.19495 7.98812 8.50278 8.62781 7.91253 9.35373L7.61824 9.71566L8.06832 9.59309C8.61573 9.44402 9.18582 9.31219 9.77484 9.19817L9.8758 9.17863L9.89398 9.07741C9.98454 8.57297 10.0862 8.08457 10.1982 7.61481ZM8.06789 21.4061L7.61816 21.2838L7.9121 21.6455C8.5021 22.3715 9.19415 23.0111 9.9663 23.5427L10.288 23.7642L10.1973 23.3843C10.0851 22.9147 9.98355 22.4262 9.89291 21.9216L9.87473 21.8204L9.77378 21.8009C9.1851 21.6869 8.61507 21.555 8.06789 21.4061ZM20.7766 23.3845L20.6861 23.7642L21.0076 23.5428C21.7796 23.0113 22.4716 22.3717 23.0616 21.6459L23.3558 21.2839L22.9057 21.4065C22.3587 21.5556 21.7889 21.6874 21.1999 21.8015L21.099 21.821L21.0808 21.9222C20.9902 22.4265 20.8886 22.9149 20.7766 23.3845ZM4.34727 15.5C4.34727 9.35778 9.34468 4.36024 15.487 4.36024C21.6293 4.36024 26.6266 9.35771 26.6266 15.5C26.6266 21.6422 21.6293 26.6396 15.487 26.6396C9.34468 26.6396 4.34727 21.6423 4.34727 15.5Z" fill="#323232" stroke="#F2F2F2" stroke-width="0.3"/>
<path id="Vector_2" d="M32.454 14.8292L32.4539 14.8291C32.4017 14.7149 32.2879 14.6418 32.1623 14.6418H30.9668H30.826L30.8171 14.5013C30.5794 10.777 29.0169 7.3087 26.354 4.64585L26.4601 4.53978L26.354 4.64585C23.4546 1.7464 19.6003 0.15 15.5 0.15C11.3997 0.15 7.54543 1.7464 4.64598 4.64591L4.53991 4.53985L4.64598 4.64591C1.74647 7.54536 0.15 11.3996 0.15 15.5C0.15 19.6003 1.74646 23.4545 4.64598 26.354C7.54543 29.2535 11.3996 30.85 15.5 30.85C18.9782 30.85 22.3857 29.654 25.0943 27.4828L25.1881 27.5998L25.0943 27.4828C25.3919 27.2443 25.4397 26.8098 25.2012 26.5124L25.2012 26.5123C24.9628 26.215 24.5284 26.167 24.2307 26.4055C21.7306 28.4097 18.7109 29.4693 15.5 29.4693C7.79722 29.4693 1.53067 23.2028 1.53067 15.5C1.53067 7.79716 7.79722 1.53067 15.5 1.53067C22.8602 1.53067 28.9082 7.25205 29.4319 14.4809L29.4436 14.6418H29.2823H28.1571C28.0317 14.6418 27.9177 14.715 27.8655 14.8291C27.8133 14.9432 27.8325 15.0773 27.9147 15.1722L29.9171 17.4862L29.9172 17.4863C29.978 17.5566 30.0664 17.597 30.1595 17.597C30.2527 17.597 30.341 17.5566 30.402 17.4863L32.454 14.8292ZM32.454 14.8292C32.5061 14.9432 32.4869 15.0773 32.4047 15.1723L30.4021 17.4862L32.454 14.8292Z" fill="#323232" stroke="#F2F2F2" stroke-width="0.3"/>
</g>
</svg>
