<svg width="33" height="29" viewBox="0 0 33 29" fill="none" xmlns="http://www.w3.org/2000/svg">
<g id="Group 1000006307">
<path id="Vector" d="M32.3252 5.48461H23.5155V4.35345C23.5155 4.06951 23.2853 3.83925 23.0012 3.83925H21.87V2.70802C21.87 1.2148 20.6552 0 19.162 0H13.6774C12.1842 0 10.9694 1.21486 10.9694 2.70802V3.83925H9.83813C9.55419 3.83925 9.32393 4.06945 9.32393 4.35345V5.48468H0.514269C0.23026 5.48461 6.41393e-05 5.71487 6.41393e-05 5.99882V19.162C6.41393e-05 19.4459 0.23026 19.6762 0.514269 19.6762C0.798213 19.6762 1.02847 19.446 1.02847 19.162V13.9338C1.92597 15.0904 3.32806 15.8369 4.90204 15.8369H14.2602V17.2766H13.1289C12.845 17.2766 12.6147 17.5068 12.6147 17.7908V23.5497C12.6147 25.6478 14.3216 27.3547 16.4197 27.3547C18.5178 27.3547 20.2247 25.6478 20.2247 23.5497V17.7908C20.2247 17.5069 19.9945 17.2766 19.7105 17.2766H18.5793V15.8369H21.3559C21.6398 15.8369 21.8701 15.6067 21.8701 15.3227C21.8701 15.0387 21.6399 14.8085 21.3559 14.8085H18.5793V13.1288C18.5793 11.938 17.6105 10.9692 16.4197 10.9692C15.229 10.9692 14.2602 11.9381 14.2602 13.1288V14.8085H4.90197C2.76613 14.8085 1.02841 13.0708 1.02841 10.935V6.51296H31.811V10.935C31.811 13.0708 30.0733 14.8085 27.9374 14.8085H24.0982C23.8142 14.8085 23.584 15.0387 23.584 15.3227C23.584 15.6067 23.8141 15.8369 24.0982 15.8369H27.9374C29.5114 15.8369 30.9135 15.0904 31.811 13.9338V27.389C31.811 27.7103 31.5495 27.9717 31.2282 27.9717H1.61118C1.28984 27.9717 1.02841 27.7103 1.02841 27.389V21.9043C1.02841 21.6203 0.798213 21.3901 0.514205 21.3901C0.23026 21.3901 0 21.6203 0 21.9043V27.3889C0 28.2773 0.722721 29 1.61111 29H31.2282C32.1166 29 32.8393 28.2773 32.8393 27.3889V5.99882C32.8394 5.71487 32.6092 5.48461 32.3252 5.48461ZM13.6431 18.305H14.2602V19.7448H13.6431V18.305ZM13.6431 20.7731H14.2602V21.9386H13.6431V20.7731ZM18.5793 18.305H19.1963V19.7448H18.5793V18.305ZM18.5793 20.7731H19.1963V21.9386H18.5793V20.7731ZM15.2885 15.3234C15.2885 15.3232 15.2885 15.323 15.2885 15.3227C15.2885 15.3224 15.2885 15.3223 15.2885 15.322V13.1288C15.2885 12.505 15.796 11.9976 16.4197 11.9976C17.0435 11.9976 17.5509 12.505 17.5509 13.1288V17.2766H16.9339V16.6938C16.9339 16.4098 16.7037 16.1796 16.4197 16.1796C16.1357 16.1796 15.9055 16.4098 15.9055 16.6938V17.2766H15.2885V15.3234ZM15.2885 18.305H15.9055V18.3393C15.9055 18.6232 16.1357 18.8535 16.4197 18.8535C16.7037 18.8535 16.9339 18.6233 16.9339 18.3393V18.305H17.5509V21.9386H15.2886L15.2885 18.305ZM15.2885 22.9669H17.5509V23.3368L16.4197 24.468L15.2885 23.3368V22.9669ZM14.4108 23.9132L16.0561 25.5586C16.2542 25.7567 16.5852 25.7567 16.7833 25.5586L18.4286 23.9132C18.5251 23.8168 18.5792 23.6861 18.5792 23.5497V22.9669H19.1962V23.5497C19.1962 25.0808 17.9507 26.3263 16.4197 26.3263C14.8887 26.3263 13.6431 25.0807 13.6431 23.5497V22.9669H14.2601V23.5497C14.2602 23.6861 14.3143 23.8168 14.4108 23.9132ZM12.6147 5.48461H10.3523V4.86759H12.6147V5.48461ZM19.1963 4.35345V5.48468H13.6431V4.35345C13.6431 4.06951 13.4129 3.83925 13.1289 3.83925H11.9977V2.70802C11.9977 1.78185 12.7512 1.02835 13.6774 1.02835H19.162C20.0882 1.02835 20.8417 1.78185 20.8417 2.70802V3.83925H19.7105C19.4266 3.83925 19.1963 4.06945 19.1963 4.35345ZM22.4871 5.48461H20.2247V4.86759H22.4871V5.48461Z" fill="#323232"/>
<path id="Vector_2" d="M16.4205 12.6147C16.1365 12.6147 15.9062 12.8449 15.9062 13.1289V13.6773C15.9062 13.9613 16.1364 14.1915 16.4205 14.1915C16.7045 14.1915 16.9347 13.9613 16.9347 13.6773V13.1289C16.9347 12.8449 16.7044 12.6147 16.4205 12.6147Z" fill="#323232"/>
<path id="Vector_3" d="M16.4205 19.7447C16.1365 19.7447 15.9062 19.9749 15.9062 20.2589V20.8074C15.9062 21.0913 16.1364 21.3216 16.4205 21.3216C16.7045 21.3216 16.9347 21.0914 16.9347 20.8074V20.2589C16.9347 19.9749 16.7044 19.7447 16.4205 19.7447Z" fill="#323232"/>
</g>
</svg>
