<svg width="36" height="36" viewBox="0 0 36 36" fill="none" xmlns="http://www.w3.org/2000/svg">
<g id="marketing_uvelw57pkelg 1" clip-path="url(#clip0_2304_311)">
<path id="Vector" d="M35.4375 0.5625H0.5625V26.4375H2.54813C1.30894 27.9799 0.5625 29.9346 0.5625 32.0625V35.4375H18.5625V32.0625C18.5625 29.9346 17.8161 27.9799 16.5769 26.4375H35.4375V0.5625ZM34.3125 1.6875V5.0625H1.6875V1.6875H34.3125ZM17.4375 34.3125H15.75V28.6875H14.625V34.3125H4.5V28.6875H3.375V34.3125H1.6875V32.0625C1.6875 29.2697 3.15281 26.8183 5.35106 25.4194L9.5625 31.9787L13.7739 25.4199C15.9722 26.8183 17.4375 29.2697 17.4375 32.0625V34.3125ZM9.5625 24.1875C9.7335 24.1875 9.90112 24.2021 10.0693 24.2134L10.6689 28.1734L9.5625 29.8963L8.45606 28.1728L9.05569 24.2128C9.22388 24.2021 9.3915 24.1875 9.5625 24.1875ZM11.5892 26.7396L11.2303 24.3686C11.7703 24.4856 12.2884 24.6606 12.7811 24.8822L11.5892 26.7396ZM7.53581 26.7396L6.34331 24.8827C6.83606 24.6606 7.35413 24.4862 7.89412 24.3692L7.53581 26.7396ZM15.4952 25.3125C14.5434 24.4749 13.4184 23.8303 12.1759 23.4523C13.6412 22.5641 14.625 20.9593 14.625 19.125C14.625 16.3333 12.3542 14.0625 9.5625 14.0625C6.77081 14.0625 4.5 16.3333 4.5 19.125C4.5 20.9593 5.48381 22.5641 6.94856 23.4523C5.706 23.8303 4.58156 24.4749 3.62981 25.3125H1.6875V6.1875H34.3125V25.3125H15.4952ZM9.5625 23.0625C7.39181 23.0625 5.625 21.2957 5.625 19.125C5.625 16.9543 7.39181 15.1875 9.5625 15.1875C11.7332 15.1875 13.5 16.9543 13.5 19.125C13.5 21.2957 11.7332 23.0625 9.5625 23.0625Z" fill="#323232"/>
<path id="Vector_2" d="M2.8125 2.8125H3.9375V3.9375H2.8125V2.8125Z" fill="#323232"/>
<path id="Vector_3" d="M5.0625 2.8125H6.1875V3.9375H5.0625V2.8125Z" fill="#323232"/>
<path id="Vector_4" d="M7.3125 2.8125H8.4375V3.9375H7.3125V2.8125Z" fill="#323232"/>
<path id="Vector_5" d="M30.9375 10.7443V9C30.9375 8.06962 30.1804 7.3125 29.25 7.3125C28.4507 7.3125 27.783 7.87219 27.6097 8.61919C26.2834 9.23456 24.8214 9.5625 23.3595 9.5625H20.25C18.6992 9.5625 17.4375 10.8242 17.4375 12.375V14.625C17.4375 15.9829 18.4056 17.1191 19.6875 17.3807V22.4319C19.6875 23.4 20.475 24.1875 21.4431 24.1875H22.4319C23.4 24.1875 24.1875 23.4 24.1875 22.4319C24.1875 21.9696 24.0002 21.5173 23.6734 21.1905L23.247 20.7641C23.1294 20.6466 23.0625 20.484 23.0625 20.3181V17.4375H23.3595C24.8209 17.4375 26.2834 17.7654 27.6092 18.3808C27.783 19.1278 28.4507 19.6875 29.25 19.6875C30.1804 19.6875 30.9375 18.9304 30.9375 18V16.2557C32.2194 15.9941 33.1875 14.8584 33.1875 13.5C33.1875 12.1416 32.2194 11.0059 30.9375 10.7443ZM18.666 15.1875H19.6875V14.0625H18.5625V12.9375H19.6875V11.8125H18.666C18.8989 11.1594 19.5176 10.6875 20.25 10.6875H20.8125V16.3125H20.25C19.5176 16.3125 18.8989 15.8406 18.666 15.1875ZM22.4516 21.5595L22.878 21.9859C22.9956 22.1034 23.0625 22.266 23.0625 22.4319C23.0625 22.7796 22.7796 23.0625 22.4319 23.0625H21.4431C21.0954 23.0625 20.8125 22.7796 20.8125 22.4319V17.4375H21.9375V20.3181C21.9375 20.7804 22.1248 21.2327 22.4516 21.5595ZM21.9375 16.3125V10.6875H23.3595C24.795 10.6875 26.2305 10.4023 27.5625 9.86513V17.1349C26.2305 16.5977 24.795 16.3125 23.3595 16.3125H21.9375ZM29.8125 18C29.8125 18.3105 29.5605 18.5625 29.25 18.5625C28.9395 18.5625 28.6875 18.3105 28.6875 18V9C28.6875 8.6895 28.9395 8.4375 29.25 8.4375C29.5605 8.4375 29.8125 8.6895 29.8125 9V18ZM30.9375 15.084V11.9166C31.5906 12.1494 32.0625 12.7682 32.0625 13.5006C32.0625 14.2329 31.5906 14.8511 30.9375 15.084Z" fill="#323232"/>
<path id="Vector_6" d="M2.8125 12.9375H8.4375V7.3125H2.8125V12.9375ZM3.9375 8.4375H7.3125V11.8125H3.9375V8.4375Z" fill="#323232"/>
<path id="Vector_7" d="M9.5625 12.9375H15.1875V7.3125H9.5625V12.9375ZM10.6875 8.4375H14.0625V11.8125H10.6875V8.4375Z" fill="#323232"/>
<path id="Vector_8" d="M25.3125 23.0625H26.4375V24.1875H25.3125V23.0625Z" fill="#323232"/>
<path id="Vector_9" d="M32.0625 23.0625H27.5625V24.1875H33.1875V20.8125H32.0625V23.0625Z" fill="#323232"/>
</g>
<defs>
<clipPath id="clip0_2304_311">
<rect width="36" height="36" fill="white"/>
</clipPath>
</defs>
</svg>
