<svg width="25" height="26" viewBox="0 0 25 26" fill="none" xmlns="http://www.w3.org/2000/svg">
<g id="Frame 664">
<path id="&#229;&#189;&#162;&#231;&#138;&#182;" fill-rule="evenodd" clip-rule="evenodd" d="M12.5 0.135254C5.59644 0.135254 0 5.73169 0 12.6353C0 14.9973 0.656313 17.2095 1.79695 19.0956L0.682262 22.8855C0.400287 23.8443 1.29105 24.735 2.24969 24.453L6.03964 23.3383C7.92572 24.479 10.138 25.1353 12.5 25.1353C19.4035 25.1353 25 19.5388 25 12.6353C25 5.73169 19.4035 0.135254 12.5 0.135254ZM9.67276 15.4636C12.2009 17.9918 14.615 18.325 15.4674 18.3564C16.7639 18.4041 18.0262 17.414 18.5184 16.2655C18.639 15.9843 18.6089 15.6459 18.4069 15.387C17.7227 14.5109 16.7966 13.8831 15.8918 13.2583C15.5007 12.9878 14.9631 13.0715 14.6751 13.4546L13.9242 14.5985C13.8409 14.7254 13.6753 14.769 13.5435 14.6936C13.0354 14.4031 12.2945 13.9078 11.7615 13.3748C11.2291 12.8424 10.7639 12.135 10.5027 11.6596C10.4341 11.5346 10.4721 11.3803 10.5865 11.2953L11.7409 10.438C12.0851 10.14 12.1456 9.63384 11.8923 9.2631C11.3312 8.44237 10.6777 7.39925 9.73187 6.70933C9.47354 6.52088 9.14675 6.49973 8.87694 6.61535C7.72713 7.10813 6.73218 8.37012 6.77998 9.66894C6.81135 10.5214 7.14465 12.9355 9.67276 15.4636Z" fill="#D35D05"/>
</g>
</svg>
